<svg width="108" height="119" viewBox="0 0 108 119" fill="none" xmlns="http://www.w3.org/2000/svg">
<path d="M41.2377 36.409L37.8627 30.563C37.796 30.4492 37.7524 30.3234 37.7346 30.1927C37.7167 30.0621 37.7249 29.9291 37.7586 29.8016C37.7923 29.6741 37.8509 29.5546 37.931 29.4498C38.0111 29.3451 38.1111 29.2572 38.2253 29.1912C38.3395 29.1253 38.4657 29.0826 38.5964 29.0656C38.7272 29.0486 38.8601 29.0576 38.9873 29.0922C39.1146 29.1267 39.2338 29.1861 39.338 29.2669C39.4423 29.3477 39.5295 29.4483 39.5947 29.563L42.9697 35.409C43.0389 35.5218 43.0844 35.6475 43.1035 35.7784C43.1225 35.9094 43.1147 36.0429 43.0804 36.1707C43.0462 36.2985 42.9863 36.4181 42.9043 36.5219C42.8223 36.6258 42.72 36.7119 42.6037 36.775C42.4926 36.8501 42.3666 36.9005 42.2344 36.9227C42.1021 36.9449 41.9667 36.9384 41.8371 36.9037C41.7076 36.869 41.587 36.8069 41.4836 36.7215C41.3802 36.6362 41.2963 36.5296 41.2377 36.409Z" fill="black"/>
<path d="M47.4656 47.195L44.0936 41.349C44.0269 41.2352 43.9834 41.1094 43.9655 40.9787C43.9477 40.8481 43.9558 40.7152 43.9895 40.5877C44.0232 40.4602 44.0818 40.3406 44.1619 40.2358C44.242 40.1311 44.3421 40.0432 44.4563 39.9772C44.5705 39.9113 44.6966 39.8686 44.8274 39.8516C44.9582 39.8346 45.091 39.8436 45.2183 39.8782C45.3456 39.9127 45.4648 39.9721 45.569 40.0529C45.6732 40.1337 45.7604 40.2344 45.8256 40.349L49.1936 46.195C49.2613 46.3082 49.3056 46.4338 49.3238 46.5645C49.342 46.6951 49.3338 46.8281 49.2997 46.9555C49.2655 47.0829 49.2062 47.2021 49.1251 47.3061C49.044 47.4101 48.9428 47.4968 48.8276 47.561C48.715 47.6297 48.5896 47.6749 48.4591 47.6936C48.3285 47.7124 48.1955 47.7044 48.0681 47.6702C47.9407 47.636 47.8216 47.5762 47.718 47.4945C47.6145 47.4128 47.5286 47.3109 47.4656 47.195Z" fill="black"/>
<path d="M53.8936 58.329L50.5186 52.484C50.3881 52.2544 50.3537 51.9826 50.4229 51.7277C50.4921 51.4729 50.6592 51.2558 50.8879 51.1237C51.1166 50.9917 51.3882 50.9555 51.6435 51.023C51.8988 51.0905 52.1171 51.2562 52.2506 51.484L55.6256 57.329C55.6935 57.4422 55.7379 57.568 55.7562 57.6987C55.7745 57.8294 55.7663 57.9625 55.7322 58.09C55.698 58.2175 55.6386 58.3369 55.5574 58.441C55.4762 58.5451 55.375 58.6318 55.2596 58.696C55.1483 58.7704 55.0223 58.8202 54.8902 58.842C54.758 58.8638 54.6227 58.857 54.4934 58.8223C54.3641 58.7875 54.2436 58.7256 54.1402 58.6405C54.0367 58.5554 53.9527 58.4492 53.8936 58.329Z" fill="black"/>
<path d="M60.1617 69.186L56.7867 63.34C56.6562 63.1104 56.6218 62.8385 56.6909 62.5837C56.7601 62.3289 56.9273 62.1117 57.156 61.9797C57.3847 61.8476 57.6563 61.8114 57.9116 61.8789C58.1669 61.9464 58.3851 62.1122 58.5187 62.34L61.8937 68.186C62.0191 68.4172 62.051 68.6878 61.9829 68.9419C61.9148 69.196 61.7519 69.4143 61.5277 69.552C61.298 69.6846 61.0251 69.7205 60.7689 69.6519C60.5127 69.5832 60.2943 69.4156 60.1617 69.186Z" fill="black"/>
<path d="M49.5026 31.358L46.1276 25.513C46.0619 25.3992 46.0193 25.2736 46.0022 25.1433C45.9851 25.0131 45.9938 24.8807 46.0278 24.7538C46.0618 24.6269 46.1205 24.508 46.2005 24.4038C46.2805 24.2996 46.3803 24.2121 46.4941 24.1465C46.6079 24.0808 46.7335 24.0382 46.8637 24.0211C46.994 24.004 47.1263 24.0127 47.2532 24.0467C47.3801 24.0808 47.4991 24.1394 47.6033 24.2194C47.7075 24.2994 47.7949 24.3992 47.8606 24.513L51.2356 30.358C51.3652 30.5884 51.3993 30.8605 51.3307 31.1158C51.2621 31.3712 51.0962 31.5895 50.8686 31.724C50.6373 31.8493 50.3667 31.8813 50.1126 31.8132C49.8585 31.7451 49.6402 31.5822 49.5026 31.358Z" fill="black"/>
<path d="M55.7306 42.145L52.3556 36.299C52.2889 36.1852 52.2453 36.0593 52.2275 35.9287C52.2096 35.798 52.2178 35.6651 52.2515 35.5376C52.2852 35.4101 52.3438 35.2905 52.4239 35.1858C52.504 35.081 52.604 34.9931 52.7182 34.9272C52.8325 34.8613 52.9586 34.8186 53.0894 34.8016C53.2201 34.7846 53.353 34.7936 53.4803 34.8281C53.6075 34.8627 53.7267 34.9221 53.831 35.0029C53.9352 35.0837 54.0224 35.1843 54.0876 35.299L57.4626 41.145C57.5902 41.3758 57.6234 41.647 57.5551 41.9018C57.4869 42.1565 57.3225 42.3749 57.0966 42.511C56.9875 42.5925 56.8614 42.6482 56.7277 42.6739C56.594 42.6996 56.4563 42.6947 56.3248 42.6595C56.1933 42.6242 56.0715 42.5596 55.9685 42.4705C55.8656 42.3814 55.7843 42.2701 55.7306 42.145Z" fill="black"/>
<path d="M62.1596 53.279L58.7846 47.433C58.6541 47.2034 58.6197 46.9316 58.6889 46.6767C58.7581 46.4219 58.9252 46.2047 59.1539 46.0727C59.3826 45.9407 59.6542 45.9044 59.9095 45.9719C60.1648 46.0394 60.3831 46.2052 60.5166 46.433L63.8936 52.279C64.0228 52.5094 64.0568 52.7812 63.9884 53.0364C63.9201 53.2916 63.7547 53.51 63.5276 53.645C63.4148 53.7148 63.289 53.7609 63.1577 53.7803C63.0265 53.7996 62.8927 53.792 62.7645 53.7577C62.6364 53.7234 62.5166 53.6632 62.4125 53.5809C62.3085 53.4986 62.2224 53.3958 62.1596 53.279Z" fill="black"/>
<path d="M68.4266 64.136L65.0516 58.29C64.919 58.0602 64.8831 57.7871 64.9519 57.5308C65.0206 57.2745 65.1883 57.0561 65.4181 56.9235C65.6479 56.7909 65.921 56.755 66.1773 56.8237C66.4336 56.8924 66.652 57.0602 66.7846 57.29L70.1596 63.136C70.2882 63.3667 70.3218 63.6384 70.2533 63.8934C70.1847 64.1485 70.0195 64.3668 69.7926 64.502C69.6812 64.5759 69.5553 64.6254 69.4233 64.6469C69.2913 64.6685 69.1562 64.6618 69.0271 64.6272C68.8979 64.5926 68.7775 64.5309 68.674 64.4462C68.5705 64.3615 68.4862 64.2557 68.4266 64.136Z" fill="black"/>
<path d="M58.0087 26.7251L54.6337 20.8801C54.5011 20.6502 54.4652 20.3772 54.5339 20.1209C54.6026 19.8646 54.7704 19.6462 55.0002 19.5136C55.23 19.3809 55.5031 19.3451 55.7593 19.4138C56.0156 19.4825 56.2341 19.6502 56.3667 19.8801L59.7417 25.7251C59.8073 25.8388 59.8499 25.9645 59.8671 26.0947C59.8842 26.225 59.8755 26.3573 59.8414 26.4842C59.8074 26.6111 59.7487 26.73 59.6687 26.8343C59.5887 26.9385 59.489 27.0259 59.3752 27.0916C59.2614 27.1572 59.1358 27.1998 59.0055 27.2169C58.8753 27.2341 58.7429 27.2253 58.616 27.1913C58.4891 27.1573 58.3702 27.0986 58.266 27.0186C58.1618 26.9386 58.0743 26.8388 58.0087 26.7251Z" fill="black"/>
<path d="M64.2367 37.5119L60.8617 31.6659C60.7291 31.4361 60.6932 31.1631 60.7619 30.9068C60.8307 30.6505 60.9984 30.432 61.2282 30.2994C61.458 30.1668 61.7311 30.1309 61.9873 30.1997C62.2436 30.2684 62.4621 30.4361 62.5947 30.6659L65.9697 36.5119C66.098 36.7427 66.1314 37.0143 66.0629 37.2693C65.9944 37.5243 65.8294 37.7426 65.6027 37.8779C65.4948 37.9626 65.3686 38.021 65.2342 38.0485C65.0997 38.076 64.9608 38.0719 64.8282 38.0364C64.6957 38.0008 64.5732 37.935 64.4706 37.844C64.3679 37.7529 64.2878 37.6393 64.2367 37.5119Z" fill="black"/>
<path d="M70.6646 48.646L67.2936 42.801C67.161 42.5711 67.1251 42.2981 67.1938 42.0418C67.2626 41.7855 67.4303 41.5671 67.6601 41.4345C67.8899 41.3018 68.163 41.266 68.4192 41.3347C68.6755 41.4034 68.894 41.5711 69.0266 41.801L72.3936 47.646C72.4594 47.7597 72.5021 47.8853 72.5194 48.0156C72.5366 48.1459 72.528 48.2784 72.494 48.4053C72.46 48.5323 72.4013 48.6513 72.3213 48.7556C72.2412 48.8598 72.1414 48.9473 72.0276 49.013C71.796 49.1349 71.5268 49.1648 71.2741 49.0968C71.0213 49.0287 70.8036 48.8677 70.6646 48.646Z" fill="black"/>
<path d="M76.9326 59.5029L73.5576 53.6569C73.425 53.4271 73.3891 53.154 73.4579 52.8978C73.5266 52.6415 73.6943 52.423 73.9241 52.2904C74.1539 52.1578 74.427 52.1219 74.6833 52.1906C74.9395 52.2594 75.158 52.4271 75.2906 52.6569L78.6656 58.5029C78.7982 58.7327 78.8341 59.0058 78.7654 59.2621C78.6966 59.5183 78.5289 59.7368 78.2991 59.8694C78.0693 60.002 77.7962 60.0379 77.54 59.9692C77.2837 59.9004 77.0652 59.7327 76.9326 59.5029Z" fill="black"/>
<path d="M106.934 65.79C106.379 65.0094 105.608 64.4074 104.717 64.0576C103.825 63.7077 102.851 63.6252 101.914 63.82C100.304 64.13 98.6636 64.48 96.9636 64.85C96.7548 64.0583 96.308 63.3497 95.6836 62.82C95.2269 62.4321 94.688 62.1531 94.1077 62.0042C93.5273 61.8552 92.9207 61.8401 92.3336 61.96L74.6536 65.44C73.7846 65.6127 72.9972 66.0685 72.4147 66.7361C71.8321 67.4037 71.4871 68.2456 71.4336 69.13L71.3936 69.77C65.6326 70.5875 59.8223 71.0085 54.0036 71.03C41.7336 71.03 29.9736 68.87 19.3236 66.63V17.1C19.3236 16.8348 19.429 16.5804 19.6165 16.3929C19.804 16.2053 20.0584 16.1 20.3236 16.1H22.9136C21.9557 20.4087 22.4261 24.9122 24.2536 28.93C24.4978 29.4748 24.8592 29.9589 25.3121 30.3478C25.765 30.7368 26.2982 31.0209 26.8736 31.18C27.2187 31.2756 27.5755 31.3227 27.9336 31.32C28.75 31.3227 29.5469 31.0711 30.2136 30.6L56.7736 12C57.2543 11.6668 57.6551 11.2312 57.9474 10.7246C58.2396 10.218 58.4159 9.65289 58.4636 9.06998C58.5119 8.47337 58.4276 7.87345 58.2167 7.31328C58.0057 6.7531 57.6734 6.24656 57.2436 5.82998C55.1628 3.80034 52.6744 2.23599 49.9434 1.24057C47.2123 0.245153 44.3009 -0.158617 41.4021 0.0560076C38.5032 0.270633 35.6831 1.09875 33.1284 2.48551C30.5737 3.87228 28.3429 5.78602 26.5836 8.09998H16.3236C14.9975 8.09998 13.7258 8.62677 12.7881 9.56445C11.8504 10.5021 11.3236 11.7739 11.3236 13.1V64.9C9.51361 64.51 7.76361 64.1467 6.07361 63.81C5.13402 63.6252 4.16112 63.7141 3.27058 64.0661C2.38003 64.4181 1.60931 65.0185 1.05003 65.7958C0.490757 66.5731 0.166453 67.4946 0.115678 68.4509C0.0649027 69.4071 0.289793 70.3578 0.76361 71.19L1.28361 72.11C2.89204 74.9324 4.01436 78.0053 4.60361 81.2L7.60361 97.48C8.67785 103.313 11.7622 108.585 16.3205 112.379C20.8787 116.174 26.6226 118.251 32.5536 118.25H75.4436C81.3746 118.251 87.1185 116.174 91.6768 112.379C96.235 108.585 99.3194 103.313 100.394 97.48L103.404 81.16C103.994 77.9562 105.123 74.8758 106.744 72.05L107.224 71.2C107.704 70.3669 107.932 69.4123 107.881 68.452C107.829 67.4917 107.5 66.5669 106.934 65.79ZM73.4336 69.25C73.459 68.8079 73.6311 68.3868 73.9227 68.0536C74.2143 67.7203 74.6088 67.4938 75.0436 67.41C75.0436 67.41 92.6816 63.88 93.1136 63.88C93.3797 63.8812 93.6428 63.9356 93.8876 64.0398C94.1324 64.144 94.354 64.296 94.5393 64.4869C94.7246 64.6778 94.87 64.9038 94.9669 65.1516C95.0638 65.3994 95.1103 65.664 95.1036 65.93L94.2936 99.77C94.2854 100.241 94.1099 100.694 93.7985 101.048C93.487 101.401 93.0599 101.632 92.5936 101.7C88.3004 102.181 84.1993 103.743 80.6736 106.24C78.4045 107.771 75.6262 108.352 72.9336 107.86C72.4536 107.771 72.0229 107.509 71.7227 107.124C71.4224 106.739 71.2734 106.257 71.3036 105.77L73.4336 69.25ZM28.3436 9.10998C29.5023 7.69055 30.8362 6.42377 32.3136 5.33998C35.8433 2.86391 40.128 1.70043 44.4253 2.05108C48.7226 2.40173 52.762 4.24443 55.8436 7.25998C56.0631 7.46955 56.2327 7.72569 56.34 8.00952C56.4473 8.29336 56.4895 8.59765 56.4636 8.89998C56.4438 9.19005 56.3589 9.47192 56.2152 9.72467C56.0715 9.97742 55.8727 10.1946 55.6336 10.36L29.0636 28.96C28.827 29.131 28.5546 29.246 28.267 29.2963C27.9794 29.3465 27.6842 29.3307 27.4036 29.25C27.1114 29.1702 26.8405 29.0266 26.6105 28.8294C26.3805 28.6323 26.1971 28.3866 26.0736 28.11C24.3636 24.3456 23.9692 20.1156 24.9536 16.1C25.6396 13.5796 26.7892 11.2092 28.3436 9.10998ZM13.3236 13.1C13.3236 12.3043 13.6397 11.5413 14.2023 10.9787C14.7649 10.4161 15.528 10.1 16.3236 10.1H25.2636C24.8914 10.731 24.5543 11.382 24.2536 12.05C23.9549 12.7192 23.6913 13.4034 23.4636 14.1H20.3236C19.528 14.1 18.7649 14.4161 18.2023 14.9787C17.6397 15.5413 17.3236 16.3043 17.3236 17.1V66.2L13.3236 65.34V13.1ZM105.484 70.21L105.004 71.05C103.278 74.0782 102.072 77.3737 101.434 80.8L98.4336 97.12C97.4405 102.492 94.5972 107.347 90.3976 110.842C86.1979 114.336 80.907 116.25 75.4436 116.25H32.5536C27.0913 116.25 21.8017 114.336 17.6037 110.841C13.4056 107.347 10.5644 102.492 9.57361 97.12L6.56361 80.83C5.93742 77.4174 4.74066 74.1348 3.02361 71.12L2.50361 70.2C2.21777 69.7018 2.08145 69.1319 2.11093 68.5584C2.14042 67.9848 2.33447 67.4319 2.66988 66.9657C3.00529 66.4995 3.46787 66.1397 4.00231 65.9295C4.53676 65.7192 5.12045 65.6673 5.68361 65.78C7.49361 66.14 9.36361 66.53 11.3236 66.95L13.2036 67.36C14.7936 67.7 19.0236 68.6 19.3236 68.66V68.67C29.9736 70.9 41.6836 73.03 54.0036 73.03C59.781 73.0086 65.5506 72.601 71.2736 71.81L69.3036 105.66C69.2489 106.634 69.5506 107.594 70.1524 108.361C70.7542 109.129 71.6149 109.651 72.5736 109.83C73.31 109.958 74.0562 110.022 74.8036 110.02C77.3083 110.037 79.7581 109.287 81.8236 107.87C85.0939 105.548 88.9057 104.106 92.8936 103.68C93.8238 103.539 94.6745 103.075 95.2964 102.369C95.9182 101.663 96.2713 100.76 96.2936 99.82L97.0836 66.87C98.8736 66.48 100.614 66.11 102.304 65.78C102.868 65.6675 103.452 65.72 103.988 65.9311C104.523 66.1422 104.986 66.503 105.321 66.9703C105.657 67.4376 105.85 67.9917 105.879 68.5662C105.908 69.1408 105.771 69.7114 105.484 70.21Z" fill="black"/>
</svg>
