<svg width="81" height="123" viewBox="0 0 81 123" fill="none" xmlns="http://www.w3.org/2000/svg">
<path d="M61.4526 77.17H52.7526V70.62C52.7526 69.9357 52.4808 69.2795 51.9969 68.7957C51.5131 68.3118 50.8568 68.04 50.1726 68.04C49.3807 68.0358 48.5913 68.1298 47.8226 68.32V66.79C52.702 65.2735 56.9694 62.2377 60.0023 58.1255C63.0352 54.0133 64.675 49.0397 64.6826 43.93V37.25C64.8828 37.0629 65.0428 36.8369 65.1529 36.5859C65.2629 36.3349 65.3206 36.0641 65.3226 35.79V5C65.3205 3.67457 64.793 2.40403 63.8558 1.4668C62.9185 0.529579 61.648 0.00211562 60.3226 0H21.1826C19.8571 0.00211562 18.5866 0.529579 17.6494 1.4668C16.7122 2.40403 16.1847 3.67457 16.1826 5V35.79C16.1845 36.0641 16.2423 36.3349 16.3523 36.5859C16.4623 36.8369 16.6223 37.0629 16.8226 37.25V43.93C16.8302 49.0397 18.47 54.0133 21.5029 58.1255C24.5358 62.2377 28.8031 65.2735 33.6826 66.79V68.2C33.0989 68.0913 32.5063 68.0378 31.9126 68.04C31.5735 68.0391 31.2376 68.1052 30.9242 68.2345C30.6107 68.3638 30.3259 68.5538 30.0862 68.7936C29.8464 69.0334 29.6564 69.3181 29.5271 69.6316C29.3978 69.945 29.3317 70.2809 29.3326 70.62V77.17H20.0526C14.9078 77.1745 9.97496 79.2195 6.33614 82.8565C2.69732 86.4934 0.649726 91.4253 0.642578 96.57V118.74C0.645744 119.8 1.06819 120.815 1.81765 121.565C2.56711 122.314 3.58269 122.737 4.64258 122.74H76.8626C77.9225 122.737 78.938 122.314 79.6875 121.565C80.437 120.815 80.8594 119.8 80.8626 118.74V96.57C80.8554 91.4253 78.8078 86.4934 75.169 82.8565C71.5302 79.2195 66.5973 77.1745 61.4526 77.17ZM50.1726 70.04C50.3264 70.04 50.4739 70.1011 50.5827 70.2099C50.6915 70.3186 50.7526 70.4662 50.7526 70.62V77.17H42.1026C42.2714 75.9495 42.7012 74.7796 43.3626 73.74C44.1187 72.575 45.1623 71.6244 46.3926 70.98C46.4626 70.94 47.3126 70.56 47.3126 70.56C48.226 70.213 49.1954 70.0367 50.1726 70.04ZM18.1826 5C18.1826 4.20435 18.4987 3.44129 19.0613 2.87868C19.6239 2.31607 20.3869 2 21.1826 2H60.3226C61.1182 2 61.8813 2.31607 62.4439 2.87868C63.0065 3.44129 63.3226 4.20435 63.3226 5V24.07H18.1826V5ZM18.1826 26.07H63.3226V29H18.1826V26.07ZM18.1826 31H63.3226V35.79H18.1826V31ZM18.8226 43.93V37.79H62.6826V43.93C62.677 49.0169 60.9049 53.944 57.6692 57.8692C54.4335 61.7944 49.935 64.474 44.9426 65.45C42.176 65.9967 39.3292 65.9967 36.5626 65.45C31.5702 64.474 27.0717 61.7944 23.836 57.8692C20.6003 53.944 18.8282 49.0169 18.8226 43.93ZM31.3326 70.62C31.3326 70.4662 31.3937 70.3186 31.5025 70.2099C31.6112 70.1011 31.7588 70.04 31.9126 70.04C33.9059 70.0324 35.8307 70.7667 37.3126 72.1C38.3714 73.0239 39.1623 74.2155 39.6026 75.55C39.7725 76.0789 39.8996 76.6207 39.9826 77.17H31.3326V70.62ZM40.0426 120.74H4.64258C4.11263 120.738 3.60484 120.527 3.23011 120.152C2.85538 119.778 2.64416 119.27 2.64258 118.74V96.57C2.64814 91.9552 4.48451 87.5312 7.7486 84.269C11.0127 81.0067 15.4378 79.1729 20.0526 79.17H40.0426V120.74ZM41.0426 73.78C40.9026 73.5 40.7526 73.22 40.5926 72.96C40.0353 72.0311 39.3331 71.1973 38.5126 70.49C38.3856 70.39 37.6626 69.83 37.4126 69.67C36.8668 69.314 36.2874 69.0125 35.6826 68.77V67.45H36.3826C39.2703 67.9967 42.2349 67.9967 45.1226 67.45H45.8226V69.02C45.5727 69.1374 45.329 69.2675 45.0926 69.41C44.3311 69.8483 43.6316 70.3864 43.0126 71.01C42.2137 71.8235 41.5488 72.7584 41.0426 73.78ZM78.8626 118.74C78.861 119.27 78.6498 119.778 78.275 120.152C77.9003 120.527 77.3925 120.738 76.8626 120.74H42.0426V79.17H61.4526C66.0674 79.1729 70.4925 81.0067 73.7566 84.269C77.0207 87.5312 78.857 91.9552 78.8626 96.57V118.74Z" fill="black"/>
<path d="M63.8225 91.4299H48.8225C48.0269 91.4299 47.2638 91.746 46.7012 92.3086C46.1386 92.8712 45.8225 93.6343 45.8225 94.4299V96.5699C45.8225 97.3656 46.1386 98.1286 46.7012 98.6913C47.2638 99.2539 48.0269 99.5699 48.8225 99.5699H63.8225C64.6182 99.5699 65.3812 99.2539 65.9438 98.6913C66.5064 98.1286 66.8225 97.3656 66.8225 96.5699V94.4299C66.8225 93.6343 66.5064 92.8712 65.9438 92.3086C65.3812 91.746 64.6182 91.4299 63.8225 91.4299ZM64.8225 96.5699C64.8225 96.8351 64.7172 97.0895 64.5296 97.277C64.3421 97.4646 64.0877 97.5699 63.8225 97.5699H48.8225C48.5573 97.5699 48.3029 97.4646 48.1154 97.277C47.9279 97.0895 47.8225 96.8351 47.8225 96.5699V94.4299C47.8225 94.1647 47.9279 93.9104 48.1154 93.7228C48.3029 93.5353 48.5573 93.4299 48.8225 93.4299H63.8225C64.0877 93.4299 64.3421 93.5353 64.5296 93.7228C64.7172 93.9104 64.8225 94.1647 64.8225 94.4299V96.5699Z" fill="black"/>
<path d="M47.3926 54.15C47.3926 55.8355 46.7231 57.4519 45.5313 58.6437C44.3395 59.8355 42.7231 60.505 41.0376 60.505C39.3522 60.505 37.7357 59.8355 36.544 58.6437C35.3522 57.4519 34.6826 55.8355 34.6826 54.15C34.6826 53.8848 34.788 53.6305 34.9755 53.4429C35.163 53.2554 35.4174 53.15 35.6826 53.15C35.9478 53.15 36.2022 53.2554 36.3897 53.4429C36.5773 53.6305 36.6826 53.8848 36.6826 54.15C36.6826 55.305 37.1414 56.4128 37.9582 57.2295C38.7749 58.0462 39.8826 58.505 41.0376 58.505C42.1926 58.505 43.3003 58.0462 44.1171 57.2295C44.9338 56.4128 45.3926 55.305 45.3926 54.15C45.3926 53.8848 45.498 53.6305 45.6855 53.4429C45.873 53.2554 46.1274 53.15 46.3926 53.15C46.6578 53.15 46.9122 53.2554 47.0997 53.4429C47.2873 53.6305 47.3926 53.8848 47.3926 54.15Z" fill="black"/>
</svg>
