<svg width="123" height="86" viewBox="0 0 123 86" fill="none" xmlns="http://www.w3.org/2000/svg">
<path d="M0.72867 30.44C0.60679 30.3864 0.497308 30.3083 0.40711 30.2103C0.316912 30.1124 0.247948 29.9969 0.204556 29.8711C0.161164 29.7452 0.144282 29.6117 0.154972 29.479C0.165661 29.3463 0.203691 29.2173 0.26667 29.1C6.1182 17.04 15.4477 7.00896 27.0527 0.300004C27.1665 0.22765 27.2938 0.179069 27.4268 0.15718C27.5599 0.135291 27.6961 0.140546 27.8271 0.172633C27.9581 0.20472 28.0812 0.262974 28.1891 0.34389C28.297 0.424806 28.3874 0.52671 28.4549 0.643476C28.5224 0.760241 28.5656 0.889453 28.5819 1.02334C28.5981 1.15722 28.5871 1.29301 28.5495 1.42254C28.512 1.55207 28.4486 1.67266 28.3632 1.77705C28.2778 1.88145 28.1722 1.96749 28.0527 2.03001C16.7674 8.5087 7.70771 18.252 2.06567 29.978C1.94541 30.2126 1.73916 30.3916 1.49002 30.4777C1.24087 30.5638 0.968095 30.5503 0.72867 30.44Z" fill="black"/>
<path d="M120.151 30.091C114.746 18.9144 106.263 9.51283 95.6986 2.99102C95.4813 2.84778 95.3285 2.62548 95.2725 2.37133C95.2165 2.11718 95.2617 1.85121 95.3987 1.62991C95.5356 1.40861 95.7534 1.24942 96.0059 1.18614C96.2583 1.12286 96.5255 1.16049 96.7506 1.29103C107.638 8.01447 116.381 17.7057 121.951 29.226C122.008 29.3443 122.041 29.4726 122.049 29.6038C122.056 29.7349 122.038 29.8663 121.995 29.9904C121.952 30.1144 121.885 30.2288 121.797 30.3269C121.71 30.425 121.604 30.5049 121.486 30.562C121.246 30.6742 120.971 30.6876 120.722 30.5996C120.472 30.5115 120.267 30.3288 120.151 30.091Z" fill="black"/>
<path d="M8.9727 31.811C8.85581 31.75 8.75231 31.6662 8.6683 31.5646C8.58429 31.4629 8.52147 31.3455 8.48354 31.2193C8.44561 31.093 8.43334 30.9604 8.44745 30.8293C8.46156 30.6982 8.50176 30.5713 8.5657 30.456C13.9076 20.5188 21.974 12.3122 31.8177 6.79995C31.9322 6.73529 32.0584 6.69387 32.189 6.67804C32.3195 6.66222 32.4519 6.6723 32.5786 6.70772C32.7053 6.74315 32.8237 6.80321 32.9271 6.88446C33.0305 6.96572 33.1169 7.06659 33.1813 7.18127C33.2457 7.29596 33.2868 7.42223 33.3023 7.55283C33.3178 7.68344 33.3074 7.81582 33.2717 7.9424C33.236 8.06898 33.1756 8.18727 33.0941 8.29049C33.0126 8.39372 32.9115 8.47985 32.7967 8.54395C23.2846 13.8695 15.4894 21.7985 10.3267 31.4C10.2648 31.5159 10.1807 31.6185 10.0792 31.7019C9.97763 31.7853 9.86064 31.8479 9.73489 31.8861C9.60914 31.9243 9.4771 31.9373 9.34631 31.9244C9.21553 31.9115 9.08857 31.8729 8.9727 31.811Z" fill="black"/>
<path d="M112.053 31.812C107.245 22.7066 100.076 15.0622 91.2977 9.68002C91.09 9.53336 90.9459 9.31306 90.8948 9.06394C90.8437 8.81482 90.8894 8.55559 91.0227 8.339C91.156 8.1224 91.3667 7.96472 91.6122 7.89804C91.8576 7.83135 92.1192 7.86066 92.3437 7.98001C101.427 13.5494 108.845 21.4589 113.821 30.88C113.886 30.9952 113.927 31.1226 113.941 31.2542C113.955 31.3858 113.943 31.5189 113.904 31.6454C113.865 31.7719 113.8 31.8891 113.714 31.9898C113.628 32.0905 113.523 32.1726 113.404 32.231C113.168 32.3466 112.896 32.3676 112.645 32.2897C112.394 32.2118 112.182 32.041 112.053 31.812Z" fill="black"/>
<path d="M104.959 64.8201C105.73 64.8211 106.493 64.6601 107.199 64.3476C107.904 64.0351 108.536 63.5779 109.053 63.0058C109.571 62.4336 109.962 61.7591 110.203 61.026C110.443 60.293 110.527 59.5176 110.449 58.7501C109.332 47.5054 104.395 36.9831 96.4617 28.9366C88.5281 20.8901 78.0765 15.8055 66.8487 14.5301V12.9601C66.8487 11.4298 66.2408 9.96214 65.1587 8.88006C64.0766 7.79797 62.609 7.19006 61.0787 7.19006C59.5484 7.19006 58.0808 7.79797 56.9987 8.88006C55.9166 9.96214 55.3087 11.4298 55.3087 12.9601V14.5301C44.081 15.8055 33.6294 20.8901 25.6957 28.9366C17.7621 36.9831 12.8255 47.5054 11.7087 58.7501C11.6328 59.5171 11.7183 60.2915 11.9595 61.0236C12.2008 61.7557 12.5925 62.4292 13.1095 63.0008C13.6266 63.5725 14.2575 64.0297 14.9617 64.343C15.6659 64.6563 16.4279 64.8188 17.1987 64.8201H23.1387V71.7501H17.3287C16.2688 71.7532 15.2533 72.1757 14.5038 72.9251C13.7543 73.6746 13.3319 74.6902 13.3287 75.7501V81.8301C13.33 82.8905 13.7519 83.9072 14.5018 84.657C15.2516 85.4069 16.2683 85.8287 17.3287 85.8301H104.829C105.89 85.8301 106.907 85.4086 107.657 84.6585C108.407 83.9083 108.829 82.8909 108.829 81.8301V75.7501C108.827 74.6896 108.406 73.673 107.656 72.9231C106.906 72.1732 105.889 71.7514 104.829 71.7501H99.0287V64.8201H104.959ZM57.3087 12.9601C57.3087 11.9602 57.7059 11.0013 58.4129 10.2943C59.1199 9.58726 60.0789 9.19006 61.0787 9.19006C62.0786 9.19006 63.0375 9.58726 63.7445 10.2943C64.4515 11.0013 64.8487 11.9602 64.8487 12.9601V14.3401C62.3469 13.9998 59.8105 13.9998 57.3087 14.3401V12.9601ZM25.1387 64.8201H97.0287V71.7501H25.1387V64.8201ZM104.829 73.7501C105.359 73.7501 105.868 73.9608 106.243 74.3358C106.618 74.7109 106.829 75.2196 106.829 75.7501V81.8301C106.83 82.093 106.779 82.3534 106.678 82.5965C106.578 82.8396 106.431 83.0604 106.245 83.2463C106.059 83.4322 105.838 83.5795 105.595 83.6797C105.352 83.7799 105.092 83.831 104.829 83.8301H17.3287C16.7983 83.8301 16.2896 83.6194 15.9145 83.2443C15.5394 82.8692 15.3287 82.3605 15.3287 81.8301V75.7501C15.3303 75.2201 15.5415 74.7123 15.9163 74.3376C16.291 73.9629 16.7988 73.7516 17.3287 73.7501H104.829ZM17.1987 62.8201C16.708 62.82 16.2226 62.7173 15.774 62.5184C15.3253 62.3196 14.9232 62.029 14.5935 61.6655C14.2639 61.3019 14.014 60.8734 13.8599 60.4075C13.7058 59.9415 13.6509 59.4485 13.6987 58.9601C14.7829 48.0176 19.6354 37.7919 27.4262 30.0321C35.2171 22.2723 45.4621 17.4605 56.4087 16.4201C58.7318 16.1033 61.083 16.0463 63.4187 16.2501C64.1577 16.3031 66.8487 16.5301 66.8487 16.5301C77.5797 17.8062 87.5535 22.7075 95.12 30.4231C102.687 38.1387 107.392 48.2062 108.459 58.9601C108.51 59.4475 108.458 59.9403 108.304 60.4058C108.151 60.8714 107.9 61.2989 107.569 61.6601C107.239 62.0257 106.837 62.3179 106.387 62.5177C105.937 62.7176 105.451 62.8206 104.959 62.8201H17.1987Z" fill="black"/>
</svg>
