<svg width="124" height="120" viewBox="0 0 124 120" fill="none" xmlns="http://www.w3.org/2000/svg">
<path d="M80.1886 108.52L39.3586 67.69L48.3586 58.69C48.6938 58.3553 48.9447 57.9458 49.0907 57.4952C49.2366 57.0446 49.2736 56.5658 49.1984 56.0982C49.1232 55.6305 48.9381 55.1874 48.6582 54.8052C48.3784 54.4231 48.0118 54.1129 47.5886 53.9L45.1486 52.66C44.7858 52.4787 44.4886 52.1885 44.2986 51.83L41.8286 47.28C41.4446 46.5757 40.8598 46.0014 40.1486 45.63L35.9586 43.47C35.5946 43.2809 35.2977 42.9841 35.1086 42.62L32.8886 38.38C32.5105 37.6519 31.9168 37.0582 31.1886 36.68L26.9786 34.5C26.6167 34.3081 26.3206 34.012 26.1286 33.65L24.6986 30.93C24.4795 30.5139 24.1657 30.155 23.7826 29.8822C23.3995 29.6094 22.9577 29.4303 22.4928 29.3593C22.0278 29.2883 21.5527 29.3274 21.1057 29.4734C20.6586 29.6194 20.252 29.8683 19.9186 30.2L10.8286 39.29C10.0034 38.7186 9.02238 38.4148 8.01863 38.42C7.36058 38.4181 6.7087 38.5471 6.10096 38.7994C5.49322 39.0518 4.94174 39.4225 4.47863 39.89L2.25863 42.11C1.32372 43.049 0.798828 44.32 0.798828 45.645C0.798828 46.9701 1.32372 48.2411 2.25863 49.18L70.8986 117.82C71.5067 118.442 72.2321 118.937 73.0327 119.276C73.8334 119.615 74.6934 119.792 75.563 119.797C76.4326 119.801 77.2944 119.633 78.0986 119.302C78.9027 118.972 79.6333 118.484 80.2478 117.869C80.8624 117.254 81.3488 116.523 81.6788 115.718C82.0088 114.914 82.1759 114.052 82.1704 113.182C82.1649 112.313 81.9869 111.453 81.6467 110.653C81.3065 109.852 80.8109 109.127 80.1886 108.52ZM21.3386 31.62C21.449 31.5079 21.5848 31.4239 21.7345 31.3751C21.8842 31.3264 22.0433 31.3144 22.1986 31.34C22.3535 31.3607 22.5009 31.4189 22.6281 31.5095C22.7553 31.6001 22.8585 31.7205 22.9286 31.86L24.3586 34.58C24.7372 35.3054 25.3311 35.8958 26.0586 36.27L30.2686 38.46C30.6327 38.6491 30.9295 38.946 31.1186 39.31L33.3386 43.55C33.7178 44.2809 34.3156 44.8752 35.0486 45.25L39.2286 47.41C39.586 47.5909 39.8792 47.8772 40.0686 48.23L42.5386 52.79C42.9281 53.5032 43.5242 54.0819 44.2486 54.45L46.6886 55.68C46.8283 55.7539 46.9489 55.8592 47.0409 55.9876C47.1328 56.116 47.1937 56.2641 47.2186 56.42C47.2443 56.5753 47.2323 56.7345 47.1835 56.8842C47.1348 57.0339 47.0508 57.1696 46.9386 57.28L37.9486 66.28L12.3086 40.64L21.3386 31.62ZM78.7786 116.4C77.9207 117.258 76.757 117.74 75.5436 117.74C74.3303 117.74 73.1666 117.258 72.3086 116.4L3.66863 47.77C3.11105 47.2033 2.79856 46.4401 2.79856 45.645C2.79856 44.85 3.11105 44.0868 3.66863 43.52L5.89863 41.3C6.17676 41.0211 6.50718 40.7999 6.87097 40.6489C7.23476 40.4979 7.62476 40.4202 8.01863 40.4202C8.41251 40.4202 8.80251 40.4979 9.1663 40.6489C9.53009 40.7999 9.86051 41.0211 10.1386 41.3L78.7786 109.94C79.2034 110.364 79.5404 110.867 79.7703 111.422C80.0002 111.976 80.1186 112.57 80.1186 113.17C80.1186 113.77 80.0002 114.364 79.7703 114.919C79.5404 115.473 79.2034 115.976 78.7786 116.4Z" fill="black"/>
<path d="M121.759 68.7901L61.2386 14.7101C60.3032 13.8747 59.0881 13.4213 57.8341 13.4398C56.5801 13.4583 55.3789 13.9474 54.4686 14.8101L51.1286 11.4601L51.7586 10.8301C52.2245 10.3668 52.5943 9.81599 52.8466 9.20932C53.0989 8.60266 53.2288 7.9521 53.2288 7.29506C53.2288 6.63802 53.0989 5.98746 52.8466 5.3808C52.5943 4.77413 52.2245 4.22333 51.7586 3.76006L49.7186 1.72006C48.7797 0.785146 47.5086 0.260254 46.1836 0.260254C44.8586 0.260254 43.5875 0.785146 42.6486 1.72006L28.5086 15.8601C27.5713 16.7977 27.0447 18.0692 27.0447 19.3951C27.0447 20.7209 27.5713 21.9924 28.5086 22.9301L30.5486 24.9801C31.4875 25.915 32.7586 26.4399 34.0836 26.4399C35.4086 26.4399 36.6797 25.915 37.6186 24.9801L38.2486 24.3401L41.5986 27.6901C40.7338 28.5972 40.2432 29.7973 40.2246 31.0505C40.2061 32.3037 40.6611 33.5177 41.4986 34.4501L95.5786 94.9701C96.0234 95.4856 96.5725 95.901 97.1896 96.1888C97.8067 96.4767 98.4778 96.6305 99.1586 96.6401C99.8423 96.6805 100.527 96.5697 101.163 96.3156C101.799 96.0615 102.371 95.6704 102.839 95.1701L121.959 76.0501C122.439 75.569 122.816 74.9953 123.067 74.3638C123.318 73.7323 123.437 73.0564 123.419 72.3771C123.4 71.6978 123.243 71.0294 122.958 70.4128C122.672 69.7961 122.264 69.2439 121.759 68.7901ZM36.2086 23.5601C35.6372 24.1087 34.8758 24.4151 34.0836 24.4151C33.2914 24.4151 32.53 24.1087 31.9586 23.5601L29.9186 21.5201C29.3568 20.9576 29.0413 20.1951 29.0413 19.4001C29.0413 18.6051 29.3568 17.8426 29.9186 17.2801L44.0586 3.13006C44.6254 2.57247 45.3886 2.25998 46.1836 2.25998C46.9787 2.25998 47.7419 2.57247 48.3086 3.13006L50.3486 5.18006C50.6275 5.45819 50.8488 5.78861 50.9998 6.1524C51.1507 6.51618 51.2285 6.90619 51.2285 7.30006C51.2285 7.69393 51.1507 8.08394 50.9998 8.44772C50.8488 8.81151 50.6275 9.14193 50.3486 9.42006L36.2086 23.5601ZM39.6686 22.9301L49.7186 12.8801L53.0586 16.2201L43.0086 26.2701L39.6686 22.9301ZM120.549 74.6401L101.429 93.7601C101.143 94.0541 100.798 94.2845 100.418 94.4362C100.037 94.5878 99.6282 94.6573 99.2186 94.6401C98.811 94.6287 98.41 94.5341 98.0403 94.3621C97.6706 94.1902 97.3399 93.9445 97.0686 93.6401L42.9886 33.1201C42.4938 32.5663 42.222 31.8488 42.2257 31.1062C42.2294 30.3636 42.5083 29.6488 43.0086 29.1001L55.7886 16.3201C56.0655 16.0395 56.3957 15.8172 56.7598 15.666C57.1238 15.5149 57.5144 15.4381 57.9086 15.4401C58.646 15.439 59.358 15.7095 59.9086 16.2001L120.419 70.2801C120.722 70.5524 120.968 70.8835 121.139 71.2535C121.311 71.6234 121.406 72.0245 121.418 72.4322C121.43 72.8399 121.36 73.2459 121.21 73.6254C121.061 74.0049 120.836 74.3501 120.549 74.6401Z" fill="black"/>
</svg>
