<svg width="116" height="94" viewBox="0 0 116 94" fill="none" xmlns="http://www.w3.org/2000/svg">
<path d="M111.809 0.189941H4.40869C3.44644 0.191528 2.52405 0.574483 1.84364 1.2549C1.16323 1.93531 0.780273 2.85769 0.778687 3.81994C0.783081 8.05873 2.45183 12.1263 5.42564 15.1469C8.39945 18.1674 12.4405 19.8994 16.6787 19.9699V28.4699C16.6798 29.255 16.9104 30.0225 17.3421 30.6782C17.7739 31.3338 18.3879 31.8489 19.1087 32.1599V54.7999C19.1087 65.1434 23.2176 75.0632 30.5315 82.3771C37.8454 89.691 47.7652 93.7999 58.1087 93.7999C68.4521 93.7999 78.3719 89.691 85.6859 82.3771C92.9998 75.0632 97.1087 65.1434 97.1087 54.7999V32.1599C97.8294 31.8489 98.4435 31.3338 98.8753 30.6782C99.307 30.0225 99.5376 29.255 99.5387 28.4699V19.9699C103.777 19.8994 107.818 18.1674 110.792 15.1469C113.766 12.1263 115.434 8.05873 115.439 3.81994C115.437 2.85769 115.054 1.93531 114.374 1.2549C113.693 0.574483 112.771 0.191528 111.809 0.189941ZM95.1087 54.7999C95.1087 64.613 91.2105 74.024 84.2716 80.9629C77.3328 87.9017 67.9217 91.7999 58.1087 91.7999C48.2957 91.7999 38.8846 87.9017 31.9457 80.9629C25.0069 74.024 21.1087 64.613 21.1087 54.7999V32.4699H95.1087V54.7999ZM97.5387 28.4699C97.5387 29.0004 97.328 29.5091 96.9529 29.8842C96.5778 30.2592 96.0691 30.4699 95.5387 30.4699H20.6787C20.1483 30.4699 19.6395 30.2592 19.2645 29.8842C18.8894 29.5091 18.6787 29.0004 18.6787 28.4699V19.9799H97.5387V28.4699ZM99.2787 17.9799H16.9387C13.1843 17.9765 9.58463 16.4835 6.92986 13.8288C4.27509 11.174 2.78213 7.57435 2.77869 3.81994C2.78053 3.38821 2.95285 2.97468 3.25814 2.66939C3.56342 2.36411 3.97695 2.19178 4.40869 2.18994H111.809C112.24 2.19178 112.654 2.36411 112.959 2.66939C113.265 2.97468 113.437 3.38821 113.439 3.81994C113.435 7.57435 111.942 11.174 109.288 13.8288C106.633 16.4835 103.033 17.9765 99.2787 17.9799Z" fill="black"/>
<path d="M58.1087 63.6889C57.0701 63.6889 56.0549 63.3809 55.1914 62.8039C54.3278 62.227 53.6548 61.4069 53.2574 60.4474C52.8599 59.4879 52.756 58.4321 52.9586 57.4135C53.1612 56.3949 53.6613 55.4592 54.3957 54.7249C55.13 53.9905 56.0657 53.4904 57.0843 53.2878C58.1028 53.0852 59.1586 53.1892 60.1181 53.5866C61.0776 53.984 61.8977 54.6571 62.4747 55.5206C63.0517 56.3841 63.3597 57.3993 63.3597 58.4379C63.3581 59.8301 62.8043 61.1647 61.8199 62.1492C60.8355 63.1336 59.5008 63.6873 58.1087 63.6889ZM58.1087 55.1889C57.4657 55.1889 56.8371 55.3796 56.3025 55.7368C55.7679 56.094 55.3512 56.6018 55.1051 57.1958C54.8591 57.7898 54.7947 58.4435 54.9201 59.0741C55.0456 59.7048 55.3552 60.284 55.8099 60.7387C56.2645 61.1934 56.8438 61.503 57.4744 61.6284C58.1051 61.7539 58.7587 61.6895 59.3528 61.4434C59.9468 61.1974 60.4546 60.7807 60.8118 60.2461C61.169 59.7114 61.3597 59.0829 61.3597 58.4399C61.3594 57.5776 61.0169 56.7506 60.4073 56.1407C59.7977 55.5307 58.971 55.1877 58.1087 55.1869V55.1889Z" fill="black"/>
<path d="M74.4987 50.2799H69.6687C68.3641 48.4262 66.6329 46.9134 64.6209 45.8692C62.609 44.8249 60.3755 44.2798 58.1087 44.2798C55.842 44.2798 53.6085 44.8249 51.5966 45.8692C49.5847 46.9134 47.8534 48.4262 46.5487 50.2799H41.7188C40.9231 50.2799 40.16 50.5959 39.5974 51.1586C39.0348 51.7212 38.7188 52.4842 38.7188 53.2799V63.5999C38.7188 64.3955 39.0348 65.1586 39.5974 65.7212C40.16 66.2838 40.9231 66.5999 41.7188 66.5999H46.5487C47.8534 68.4536 49.5847 69.9664 51.5966 71.0106C53.6085 72.0549 55.842 72.6 58.1087 72.6C60.3755 72.6 62.609 72.0549 64.6209 71.0106C66.6329 69.9664 68.3641 68.4536 69.6687 66.5999H74.4987C75.2944 66.5999 76.0575 66.2838 76.6201 65.7212C77.1827 65.1586 77.4987 64.3955 77.4987 63.5999V53.2799C77.4987 52.4842 77.1827 51.7212 76.6201 51.1586C76.0575 50.5959 75.2944 50.2799 74.4987 50.2799ZM43.9987 59.5299C44.1385 61.29 44.603 63.0089 45.3687 64.5999H41.7188C41.4535 64.5999 41.1992 64.4945 41.0116 64.307C40.8241 64.1195 40.7188 63.8651 40.7188 63.5999V53.2799C40.7188 53.0147 40.8241 52.7603 41.0116 52.5728C41.1992 52.3852 41.4535 52.2799 41.7188 52.2799H45.3687C44.3052 54.5414 43.8338 57.0362 43.9987 59.5299ZM68.0888 65.3699C66.972 66.9835 65.4806 68.3023 63.7424 69.2132C62.0043 70.1241 60.0711 70.5999 58.1087 70.5999C56.1464 70.5999 54.2132 70.1241 52.4751 69.2132C50.7369 68.3023 49.2455 66.9835 48.1287 65.3699C46.7345 63.3254 45.9761 60.9143 45.9487 58.4399C45.9504 55.8856 46.7558 53.3965 48.251 51.3255C49.7462 49.2545 51.8553 47.7066 54.2793 46.9012C56.7033 46.0958 59.3193 46.0737 61.7566 46.838C64.1939 47.6024 66.3288 49.1145 67.8587 51.1599C69.1797 53.0087 69.9965 55.1696 70.2288 57.4299C70.4475 60.2437 69.6919 63.0471 68.0888 65.3699ZM75.4987 63.5999C75.4987 63.8651 75.3934 64.1195 75.2059 64.307C75.0183 64.4945 74.764 64.5999 74.4987 64.5999H70.8487C71.6234 63.0123 72.0884 61.2916 72.2188 59.5299C72.407 57.0348 71.9344 54.5342 70.8487 52.2799H74.4987C74.764 52.2799 75.0183 52.3852 75.2059 52.5728C75.3934 52.7603 75.4987 53.0147 75.4987 53.2799V63.5999Z" fill="black"/>
</svg>
