<svg width="68" height="124" viewBox="0 0 68 124" fill="none" xmlns="http://www.w3.org/2000/svg">
<path d="M65.0386 0.910004C64.6047 0.757233 64.1448 0.691691 63.6854 0.717141C63.2261 0.742592 62.7763 0.858533 62.3619 1.05831C61.9475 1.25808 61.5766 1.53776 61.2706 1.88127C60.9645 2.22478 60.7294 2.62536 60.5786 3.06L51.3286 29.41H34.1986C33.8322 26.2891 32.5947 23.3344 30.6276 20.8839C28.6604 18.4335 26.0432 16.5863 23.0753 15.5537C20.1075 14.5212 16.9089 14.345 13.8456 15.0454C10.7823 15.7457 7.978 17.2942 5.75364 19.5138C3.52928 21.7334 1.9747 24.5343 1.26777 27.5961C0.560854 30.6579 0.730154 33.8569 1.7563 36.8269C2.78245 39.797 4.624 42.4182 7.07021 44.3906C9.51642 46.363 12.4685 47.6069 15.5886 47.98V49.57C15.5813 54.9023 17.376 60.0806 20.6815 64.2647C23.987 68.4488 28.6094 71.3931 33.7986 72.62C34.2431 72.7082 34.6442 72.9457 34.9352 73.2931C35.2262 73.6405 35.3897 74.0769 35.3986 74.53V111.47C35.397 112 35.1858 112.508 34.8111 112.882C34.4363 113.257 33.9285 113.468 33.3986 113.47H32.6286C31.3059 113.468 29.9958 113.727 28.7738 114.233C27.5518 114.74 26.4421 115.483 25.5086 116.42C24.7975 117.139 24.1946 117.958 23.7186 118.85C23.4718 119.315 23.3503 119.836 23.3661 120.362C23.3818 120.888 23.5344 121.401 23.8086 121.85C24.072 122.291 24.4457 122.655 24.8928 122.908C25.3399 123.16 25.8451 123.292 26.3586 123.29H52.4386C52.9521 123.292 53.4573 123.16 53.9044 122.908C54.3515 122.655 54.7252 122.291 54.9886 121.85C55.2627 121.403 55.4152 120.891 55.431 120.367C55.4468 119.843 55.3253 119.323 55.0786 118.86C54.2282 117.233 52.9479 115.87 51.3769 114.92C49.806 113.969 48.0046 113.468 46.1686 113.47H45.3986C44.8687 113.468 44.3609 113.257 43.9861 112.882C43.6114 112.508 43.4002 112 43.3986 111.47V74.56C43.407 74.1037 43.5728 73.6642 43.868 73.3161C44.1633 72.9681 44.5697 72.7327 45.0186 72.65C55.5586 70.39 63.2086 60.69 63.2086 49.57V34.41C63.2079 33.1744 62.7497 31.9829 61.9225 31.0652C61.0952 30.1474 59.9575 29.5685 58.7286 29.44L67.1786 5.37C67.4857 4.49477 67.4328 3.53343 67.0315 2.69716C66.6303 1.8609 65.9135 1.21811 65.0386 0.910004ZM52.7386 31.41H55.9086L51.6886 43.44C51.6886 43.44 50.1286 43.69 49.8186 43.73C49.6386 43.75 48.4286 43.85 48.3686 43.85L52.7386 31.41ZM53.1886 45.22L56.0486 44.76C56.1915 44.7342 56.3383 44.7405 56.4784 44.7786C56.6185 44.8166 56.7484 44.8854 56.8586 44.98C56.9697 45.075 57.0585 45.1931 57.119 45.3262C57.1795 45.4592 57.2101 45.6039 57.2086 45.75V48.57C57.2077 50.9668 56.7232 53.3388 55.7843 55.544C54.8453 57.7493 53.4711 59.7424 51.744 61.4042C50.0168 63.066 47.9721 64.3624 45.7324 65.2156C43.4926 66.0688 41.1037 66.4615 38.7086 66.37C29.2686 66.02 21.5886 57.82 21.5886 48.11V45.06C21.5895 44.8266 21.6719 44.6009 21.8217 44.4219C21.9714 44.243 22.179 44.122 22.4086 44.08L26.5486 43.33C27.8449 43.0903 29.1604 42.9698 30.4786 42.97C32.4797 42.9683 34.4715 43.2408 36.3986 43.78L40.7686 45C42.3338 45.4331 43.9385 45.7078 45.5586 45.82C45.8186 45.84 47.1386 45.88 47.2286 45.88C48.5148 45.8782 49.7988 45.7745 51.0686 45.57L53.1886 45.23V45.22ZM15.5886 34.41V45.97C12.8674 45.5987 10.3041 44.4744 8.18782 42.724C6.07152 40.9736 4.48644 38.6666 3.61134 36.0634C2.73624 33.4601 2.60594 30.6641 3.23516 27.9908C3.86437 25.3174 5.22805 22.8731 7.17239 20.9334C9.11673 18.9938 11.5644 17.636 14.2392 17.0132C16.9141 16.3905 19.7098 16.5275 22.3109 17.4089C24.912 18.2903 27.2151 19.8809 28.9604 22.0014C30.7058 24.1219 31.8239 26.6879 32.1886 29.41H29.1786C28.8285 27.3198 27.9119 25.3656 26.5286 23.76C26.4432 23.6602 26.3391 23.5782 26.222 23.5186C26.1049 23.4591 25.9773 23.4232 25.8464 23.413C25.7155 23.4028 25.5838 23.4184 25.4589 23.4591C25.334 23.4998 25.2184 23.5646 25.1186 23.65C25.0188 23.7354 24.9368 23.8395 24.8772 23.9566C24.8177 24.0737 24.7818 24.2013 24.7716 24.3322C24.7614 24.4632 24.777 24.5948 24.8177 24.7197C24.8584 24.8446 24.9232 24.9602 25.0086 25.06C26.0775 26.3036 26.8077 27.8018 27.1286 29.41H20.5886C19.2625 29.41 17.9907 29.9368 17.0531 30.8745C16.1154 31.8122 15.5886 33.0839 15.5886 34.41ZM61.2086 34.41V49.57C61.2532 54.4542 59.6321 59.2077 56.6127 63.047C53.5932 66.8863 49.3557 69.5821 44.5986 70.69C43.7002 70.8661 42.8906 71.3478 42.3072 72.0533C41.7238 72.7588 41.4028 73.6446 41.3986 74.56V111.47C41.3999 112.53 41.8218 113.547 42.5716 114.297C43.3215 115.047 44.3381 115.469 45.3986 115.47H46.1686C47.6403 115.467 49.0847 115.868 50.3439 116.63C51.603 117.392 52.6286 118.485 53.3086 119.79C53.3925 119.948 53.4339 120.125 53.4286 120.304C53.4234 120.483 53.3717 120.657 53.2786 120.81C53.1933 120.957 53.0707 121.079 52.9232 121.163C52.7757 121.247 52.6085 121.291 52.4386 121.29H26.3586C26.1886 121.292 26.0212 121.248 25.8736 121.164C25.726 121.079 25.6035 120.957 25.5186 120.81C25.4255 120.655 25.3738 120.479 25.3686 120.299C25.3633 120.119 25.4047 119.94 25.4886 119.78C25.8653 119.063 26.3511 118.408 26.9286 117.84C27.6739 117.087 28.5618 116.489 29.5404 116.082C30.519 115.675 31.5688 115.467 32.6286 115.47H33.3986C34.4591 115.469 35.4757 115.047 36.2256 114.297C36.9754 113.547 37.3973 112.53 37.3986 111.47V74.53C37.3929 73.6222 37.0761 72.7438 36.501 72.0413C35.926 71.3389 35.1274 70.8549 34.2386 70.67C29.4911 69.5448 25.2632 66.8483 22.2408 63.0182C19.2185 59.1881 17.579 54.449 17.5886 49.57V34.41C17.5886 33.6144 17.9047 32.8513 18.4673 32.2887C19.0299 31.7261 19.793 31.41 20.5886 31.41H50.6186L46.2486 43.86C44.5775 43.7826 42.9205 43.5176 41.3086 43.07L36.9386 41.85C33.4414 40.8788 29.7697 40.7113 26.1986 41.36L22.0486 42.11C21.3576 42.2349 20.7325 42.5988 20.2827 43.1381C19.833 43.6774 19.5873 44.3578 19.5886 45.06V48.11C19.5886 58.89 28.1286 67.97 38.6386 68.37C38.8886 68.38 39.1486 68.39 39.4086 68.39C44.6597 68.3781 49.692 66.2855 53.4032 62.5705C57.1144 58.8555 59.202 53.8211 59.2086 48.57V45.75C59.2112 45.3147 59.1184 44.8841 58.9369 44.4884C58.7555 44.0927 58.4896 43.7415 58.158 43.4595C57.8264 43.1775 57.4371 42.9714 57.0174 42.8557C56.5978 42.7401 56.1579 42.7176 55.7286 42.79L53.9386 43.08L58.0386 31.41H58.2086C59.0042 31.41 59.7673 31.7261 60.3299 32.2887C60.8925 32.8513 61.2086 33.6144 61.2086 34.41ZM65.2886 4.71L56.6186 29.41H53.4386L62.4586 3.72C62.5931 3.3438 62.8695 3.03514 63.2286 2.86C63.5929 2.70498 64.0002 2.68372 64.3786 2.8C64.5643 2.86488 64.7354 2.9659 64.8818 3.09726C65.0282 3.22861 65.1472 3.38768 65.2318 3.56527C65.3164 3.74287 65.365 3.93548 65.3748 4.13196C65.3845 4.32844 65.3552 4.52491 65.2886 4.71Z" fill="#8a6b3e"/>
<path d="M9.76264 23.949C9.66369 23.8566 9.5865 23.7434 9.53667 23.6176C9.48684 23.4918 9.46561 23.3564 9.47451 23.2214C9.48341 23.0864 9.52222 22.955 9.58814 22.8368C9.65406 22.7186 9.74543 22.6165 9.85564 22.538C11.9951 20.6621 14.7433 19.6276 17.5886 19.627C17.8539 19.627 18.1082 19.7323 18.2957 19.9198C18.4833 20.1074 18.5886 20.3617 18.5886 20.627C18.5886 20.8922 18.4833 21.1465 18.2957 21.3341C18.1082 21.5216 17.8539 21.627 17.5886 21.627C15.2282 21.6273 12.9483 22.4855 11.1736 24.042C10.9626 24.1882 10.7081 24.2586 10.4519 24.2418C10.1957 24.2249 9.95269 24.1217 9.76264 23.949Z" fill="#8a6b3e"/>
<path d="M9.96962 40.316C8.67509 39.2138 7.63528 37.8437 6.92205 36.3003C6.20882 34.7569 5.83916 33.0771 5.83862 31.377C5.83862 31.1117 5.94398 30.8574 6.13152 30.6698C6.31905 30.4823 6.57341 30.377 6.83862 30.377C7.10384 30.377 7.35819 30.4823 7.54573 30.6698C7.73327 30.8574 7.83862 31.1117 7.83862 31.377C7.83908 32.7879 8.14603 34.1819 8.73826 35.4625C9.33049 36.7431 10.1939 37.8798 11.2686 38.794C11.3735 38.8759 11.4602 38.9788 11.5231 39.096C11.5861 39.2133 11.624 39.3424 11.6345 39.475C11.6449 39.6077 11.6277 39.7411 11.5838 39.8668C11.5399 39.9924 11.4704 40.1076 11.3796 40.205C11.1995 40.3938 10.956 40.5095 10.6958 40.53C10.4357 40.5505 10.1771 40.4743 9.96962 40.316Z" fill="#8a6b3e"/>
<path d="M29.5236 54.68C28.8907 54.68 28.272 54.4924 27.7458 54.1407C27.2196 53.7891 26.8094 53.2893 26.5672 52.7046C26.325 52.1199 26.2616 51.4765 26.3851 50.8557C26.5086 50.235 26.8133 49.6648 27.2609 49.2173C27.7084 48.7698 28.2786 48.465 28.8993 48.3415C29.5201 48.218 30.1635 48.2814 30.7482 48.5236C31.3329 48.7658 31.8327 49.176 32.1843 49.7022C32.5359 50.2284 32.7236 50.8471 32.7236 51.48C32.7236 52.3287 32.3865 53.1427 31.7864 53.7428C31.1862 54.3429 30.3723 54.68 29.5236 54.68ZM29.5236 50.288C29.2863 50.288 29.0543 50.3584 28.8569 50.4903C28.6596 50.6221 28.5058 50.8095 28.415 51.0288C28.3241 51.2481 28.3004 51.4894 28.3467 51.7221C28.393 51.9549 28.5073 52.1687 28.6751 52.3366C28.8429 52.5044 29.0567 52.6187 29.2895 52.665C29.5223 52.7113 29.7636 52.6875 29.9828 52.5967C30.2021 52.5059 30.3895 52.3521 30.5214 52.1547C30.6532 51.9574 30.7236 51.7254 30.7236 51.488C30.7236 51.1698 30.5972 50.8645 30.3721 50.6395C30.1471 50.4145 29.8419 50.288 29.5236 50.288Z" fill="#8a6b3e"/>
<path d="M33.4346 61.18C32.9822 61.1802 32.5398 61.0462 32.1636 60.7948C31.7875 60.5435 31.4943 60.1862 31.3213 59.7681C31.1483 59.3501 31.1032 58.8901 31.1918 58.4465C31.2804 58.0028 31.4986 57.5954 31.8189 57.2758C32.1392 56.9563 32.5471 56.7389 32.9909 56.6513C33.4348 56.5637 33.8947 56.6098 34.3123 56.7837C34.73 56.9576 35.0867 57.2515 35.3372 57.6283C35.5877 58.005 35.7208 58.4476 35.7196 58.9C35.7175 59.5049 35.4759 60.0844 35.0477 60.5117C34.6195 60.9389 34.0395 61.1792 33.4346 61.18ZM33.4346 58.609C33.378 58.6088 33.3226 58.6254 33.2754 58.6567C33.2282 58.6881 33.1914 58.7327 33.1696 58.7849C33.1478 58.8371 33.142 58.8947 33.1529 58.9502C33.1639 59.0058 33.191 59.0568 33.231 59.0969C33.2709 59.137 33.3219 59.1643 33.3774 59.1755C33.4329 59.1866 33.4905 59.181 33.5428 59.1594C33.5951 59.1377 33.6398 59.1011 33.6713 59.054C33.7028 59.007 33.7196 58.9516 33.7196 58.895C33.7196 58.8194 33.6896 58.7468 33.6362 58.6932C33.5827 58.6395 33.5103 58.6093 33.4346 58.609Z" fill="#8a6b3e"/>
</svg>
