<svg width="118" height="94" viewBox="0 0 118 94" fill="none" xmlns="http://www.w3.org/2000/svg">
<path d="M112.579 0H22.5386C21.2132 0.00211562 19.9426 0.529579 19.0054 1.4668C18.0682 2.40403 17.5407 3.67457 17.5386 5V29.34L4.35859 32.85C3.07808 33.1902 1.98496 34.0248 1.31934 35.1704C0.65372 36.3161 0.470021 37.679 0.808593 38.96L2.35859 44.81L5.56859 56.91H5.57859L14.2186 89.45C14.5021 90.5152 15.1291 91.4571 16.0023 92.1296C16.8756 92.8022 17.9463 93.1679 19.0486 93.17C19.484 93.1676 19.9174 93.1105 20.3386 93L107.349 69.88C107.986 69.7128 108.584 69.4207 109.107 69.0208C109.631 68.6208 110.07 68.1209 110.399 67.55C110.73 66.9835 110.945 66.3564 111.031 65.7055C111.117 65.0546 111.072 64.3932 110.899 63.76L110.499 62.23H112.579C113.905 62.23 115.176 61.7032 116.114 60.7655C117.052 59.8279 117.579 58.5561 117.579 57.23V5C117.579 3.67392 117.052 2.40215 116.114 1.46447C115.176 0.526784 113.905 0 112.579 0ZM2.73859 38.45C2.5359 37.6809 2.64625 36.8629 3.04548 36.175C3.44471 35.4871 4.10027 34.9855 4.86859 34.78L17.5386 31.41V40.77L4.28859 44.3L2.73859 38.45ZM4.80859 46.23L17.5386 42.84V51.66L6.98859 54.46L4.80859 46.23ZM108.669 66.55C108.267 67.2372 107.608 67.737 106.839 67.94L19.8186 91.06C19.4393 91.1635 19.0431 91.1902 18.6534 91.1387C18.2636 91.0872 17.888 90.9585 17.5486 90.76C17.2064 90.562 16.9065 90.2985 16.6663 89.9845C16.4261 89.6704 16.2501 89.3121 16.1486 88.93L7.50859 56.39L17.5386 53.72V57.23C17.5407 58.5554 18.0682 59.826 19.0054 60.7632C19.9426 61.7004 21.2132 62.2279 22.5386 62.23H75.4086C76.248 63.9676 77.6666 65.3584 79.4205 66.1633C81.1744 66.9681 83.1539 67.1367 85.0186 66.64C86.1721 66.3292 87.2456 65.7748 88.1668 65.014C89.0879 64.2533 89.8353 63.304 90.3586 62.23H108.429L108.969 64.27C109.072 64.6509 109.099 65.0487 109.048 65.4402C108.996 65.8316 108.867 66.2089 108.669 66.55ZM77.7186 62.23H88.0386C87.4576 63.0594 86.6853 63.7365 85.7871 64.204C84.8889 64.6714 83.8912 64.9155 82.8786 64.9155C81.866 64.9155 80.8683 64.6714 79.9701 64.204C79.0719 63.7365 78.2995 63.0594 77.7186 62.23ZM115.579 57.23C115.576 58.0249 115.259 58.7866 114.697 59.3487C114.135 59.9108 113.374 60.2276 112.579 60.23H22.5386C21.7437 60.2276 20.982 59.9108 20.4199 59.3487C19.8578 58.7866 19.541 58.0249 19.5386 57.23V23.56H115.579V57.23ZM115.579 21.56H19.5386V13.04H115.579V21.56ZM115.579 11.04H19.5386V5C19.5386 4.20435 19.8547 3.44129 20.4173 2.87868C20.9799 2.31607 21.7429 2 22.5386 2H112.579C113.374 2 114.137 2.31607 114.7 2.87868C115.263 3.44129 115.579 4.20435 115.579 5V11.04Z" fill="black"/>
<path d="M99.8286 36.74C98.426 36.7368 97.0459 37.0913 95.8186 37.77C94.5983 37.0918 93.2247 36.7372 91.8286 36.74C89.6246 36.74 87.5109 37.6155 85.9525 39.174C84.3941 40.7324 83.5186 42.8461 83.5186 45.05C83.5186 47.254 84.3941 49.3676 85.9525 50.9261C87.5109 52.4845 89.6246 53.36 91.8286 53.36C93.2247 53.3628 94.5983 53.0083 95.8186 52.33C96.929 52.9419 98.1647 53.2916 99.4311 53.3524C100.697 53.4133 101.961 53.1835 103.125 52.6808C104.289 52.1781 105.322 51.4158 106.146 50.4522C106.97 49.4886 107.563 48.3492 107.879 47.1213C108.194 45.8935 108.225 44.6096 107.968 43.368C107.712 42.1264 107.174 40.96 106.397 39.9581C105.62 38.9562 104.625 38.1453 103.486 37.5875C102.347 37.0298 101.096 36.7398 99.8286 36.74ZM93.9986 50.98C93.0454 51.3267 92.0227 51.4384 91.0171 51.3059C90.0115 51.1733 89.0527 50.8003 88.222 50.2184C87.3912 49.6365 86.7129 48.863 86.2447 47.9633C85.7764 47.0636 85.5319 46.0643 85.5319 45.05C85.5319 44.0357 85.7764 43.0364 86.2447 42.1367C86.7129 41.237 87.3912 40.4635 88.222 39.8816C89.0527 39.2998 90.0115 38.9267 91.0171 38.7942C92.0227 38.6616 93.0454 38.7734 93.9986 39.12C93.8814 39.2267 93.7743 39.3438 93.6786 39.47C92.6273 40.5697 91.9305 41.9597 91.6786 43.46C91.2903 45.4056 91.617 47.4259 92.5985 49.15C92.9838 49.8182 93.4544 50.4334 93.9986 50.98ZM99.8286 51.36C98.6057 51.3404 97.412 50.984 96.3785 50.33C95.6832 49.8529 95.0773 49.2572 94.5886 48.57C93.7943 47.3651 93.428 45.9281 93.5486 44.49C93.6627 43.4364 94.0186 42.4235 94.5886 41.53C95.1872 40.6919 95.9719 40.0039 96.881 39.5198C97.7901 39.0358 98.799 38.7688 99.8286 38.74C101.502 38.74 103.107 39.4048 104.29 40.5882C105.474 41.7715 106.139 43.3765 106.139 45.05C106.139 46.7235 105.474 48.3285 104.29 49.5119C103.107 50.6952 101.502 51.36 99.8286 51.36Z" fill="black"/>
</svg>
