<svg width="116" height="122" viewBox="0 0 116 122" fill="none" xmlns="http://www.w3.org/2000/svg">
<path d="M111.089 104.41V55.1C111.087 53.7746 110.559 52.504 109.622 51.5668C108.685 50.6296 107.414 50.1021 106.089 50.1H101.009C101.362 49.4925 101.548 48.8026 101.549 48.1V45.17C101.547 44.3979 101.323 43.6427 100.903 42.9951C100.482 42.3476 99.8834 41.8353 99.1787 41.52C99.8789 40.6389 100.209 39.52 100.099 38.4C99.2721 30.0707 95.6287 22.2727 89.7704 16.2943C83.9121 10.316 76.1895 6.51524 67.8787 5.52V4.59C67.8787 3.3899 67.4019 2.23895 66.5533 1.39034C65.7047 0.541742 64.5538 0.0650024 63.3537 0.0650024C62.1536 0.0650024 61.0026 0.541742 60.154 1.39034C59.3054 2.23895 58.8287 3.3899 58.8287 4.59V5.52C50.5161 6.51329 42.7913 10.3132 36.931 16.2917C31.0707 22.2701 27.4258 30.0693 26.5987 38.4C26.4858 39.525 26.8199 40.6492 27.5287 41.53C26.832 41.8503 26.2416 42.3632 25.827 43.0082C25.4123 43.6532 25.1909 44.4033 25.1887 45.17V48.1C25.1881 48.8041 25.3782 49.4952 25.7387 50.1H21.6487V33.17C21.645 30.7842 20.6956 28.4972 19.0085 26.8101C17.3215 25.1231 15.0345 24.1737 12.6487 24.17H5.63867C4.31259 24.17 3.04082 24.6968 2.10314 25.6345C1.16546 26.5721 0.638672 27.8439 0.638672 29.17C0.638672 30.4961 1.16546 31.7679 2.10314 32.7055C3.04082 33.6432 4.31259 34.17 5.63867 34.17H9.64867C10.1791 34.17 10.6878 34.3807 11.0629 34.7558C11.438 35.1309 11.6487 35.6396 11.6487 36.17V104.41C9.8977 105.497 8.54864 107.125 7.80583 109.047C7.06302 110.97 6.96692 113.082 7.53208 115.064C8.09724 117.046 9.29288 118.79 10.9379 120.031C12.5829 121.273 14.5877 121.944 16.6487 121.944C18.7096 121.944 20.7144 121.273 22.3594 120.031C24.0045 118.79 25.2001 117.046 25.7653 115.064C26.3304 113.082 26.2343 110.97 25.4915 109.047C24.7487 107.125 23.3996 105.497 21.6487 104.41V101.78C21.6487 101.515 21.754 101.26 21.9416 101.073C22.1291 100.885 22.3835 100.78 22.6487 100.78H100.089C100.354 100.78 100.608 100.885 100.796 101.073C100.983 101.26 101.089 101.515 101.089 101.78V104.41C99.3347 105.497 97.9829 107.127 97.2382 109.051C96.4935 110.976 96.3964 113.091 96.9616 115.075C97.5269 117.06 98.7237 118.806 100.371 120.05C102.018 121.293 104.025 121.966 106.089 121.966C108.152 121.966 110.16 121.293 111.807 120.05C113.454 118.806 114.65 117.06 115.216 115.075C115.781 113.091 115.684 110.976 114.939 109.051C114.194 107.127 112.843 105.497 111.089 104.41ZM60.8287 4.59C60.8287 4.25841 60.894 3.93007 61.0209 3.62373C61.1478 3.31738 61.3338 3.03903 61.5682 2.80456C61.8027 2.57009 62.0811 2.3841 62.3874 2.25721C62.6937 2.13031 63.0221 2.065 63.3537 2.065C63.6853 2.065 64.0136 2.13031 64.3199 2.25721C64.6263 2.3841 64.9046 2.57009 65.1391 2.80456C65.3736 3.03903 65.5596 3.31738 65.6865 3.62373C65.8134 3.93007 65.8787 4.25841 65.8787 4.59V5.32C65.0287 5.27 64.1887 5.24 63.3487 5.24C62.5087 5.24 61.6687 5.27 60.8287 5.32V4.59ZM59.9187 7.4C59.9687 7.4 61.1087 7.3 61.6387 7.28C62.7812 7.22 63.9261 7.22 65.0687 7.28C65.5787 7.3 66.7187 7.39 66.7787 7.4C74.8063 8.167 82.3187 11.6972 88.0328 17.3875C93.7469 23.0779 97.3083 30.5756 98.1087 38.6C98.1416 38.9254 98.1058 39.254 98.0036 39.5647C97.9014 39.8753 97.7351 40.1611 97.5154 40.4034C97.2958 40.6456 97.0277 40.8391 96.7285 40.9711C96.4293 41.1032 96.1057 41.171 95.7787 41.17H30.9187C30.5921 41.1724 30.2688 41.1049 29.9704 40.9721C29.672 40.8393 29.4055 40.6442 29.1887 40.4C28.9682 40.1587 28.8008 39.8738 28.6974 39.5638C28.5941 39.2537 28.557 38.9253 28.5887 38.6C29.3866 30.5747 32.9472 23.0757 38.6618 17.3848C44.3764 11.694 51.8901 8.1646 59.9187 7.4ZM27.1887 45.17C27.1903 44.6401 27.4015 44.1323 27.7762 43.7575C28.1509 43.3828 28.6587 43.1716 29.1887 43.17H97.5487C98.0791 43.17 98.5878 43.3807 98.9629 43.7558C99.338 44.1309 99.5487 44.6396 99.5487 45.17V48.1C99.5487 48.6304 99.338 49.1391 98.9629 49.5142C98.5878 49.8893 98.0791 50.1 97.5487 50.1H29.1887C28.6587 50.0984 28.1509 49.8872 27.7762 49.5125C27.4015 49.1377 27.1903 48.6299 27.1887 48.1V45.17ZM24.1287 112.46C24.1276 113.707 23.8149 114.933 23.219 116.028C22.6232 117.123 21.7631 118.052 20.7169 118.73C19.6708 119.408 18.4717 119.814 17.2288 119.911C15.9859 120.007 14.7385 119.792 13.6001 119.284C12.4617 118.776 11.4683 117.991 10.7103 117.001C9.95223 116.012 9.4536 114.848 9.2597 113.617C9.0658 112.385 9.18278 111.125 9.6 109.95C10.0172 108.775 10.7215 107.723 11.6487 106.89V108.14C11.6363 109.404 12.0906 110.629 12.9246 111.579C13.7585 112.529 14.9136 113.138 16.1687 113.29C16.8628 113.357 17.5632 113.278 18.225 113.058C18.8868 112.838 19.4953 112.482 20.0114 112.013C20.5274 111.544 20.9397 110.973 21.2217 110.335C21.5037 109.697 21.6491 109.007 21.6487 108.31V106.9C22.4295 107.6 23.0539 108.458 23.4812 109.416C23.9085 110.374 24.1291 111.411 24.1287 112.46ZM100.089 98.78H22.6487C21.8538 98.7824 21.0921 99.0992 20.53 99.6613C19.9679 100.223 19.651 100.985 19.6487 101.78V108.31C19.6489 108.728 19.5619 109.141 19.3932 109.524C19.2244 109.906 18.9776 110.249 18.6687 110.53C18.3603 110.815 17.9948 111.031 17.5965 111.164C17.1983 111.296 16.7763 111.343 16.3587 111.3C15.5976 111.198 14.9005 110.82 14.4006 110.237C13.9008 109.654 13.6331 108.908 13.6487 108.14V36.17C13.6473 35.1095 13.2255 34.0929 12.4756 33.343C11.7258 32.5932 10.7091 32.1713 9.64867 32.17H5.63867C4.84302 32.17 4.07996 31.8539 3.51735 31.2913C2.95474 30.7287 2.63867 29.9656 2.63867 29.17C2.63867 28.3744 2.95474 27.6113 3.51735 27.0487C4.07996 26.4861 4.84302 26.17 5.63867 26.17H12.6487C14.5045 26.1721 16.2838 26.9103 17.5961 28.2226C18.9084 29.5349 19.6466 31.3141 19.6487 33.17V50.1C19.6487 50.6304 19.8594 51.1391 20.2345 51.5142C20.6095 51.8893 21.1182 52.1 21.6487 52.1H106.089C106.884 52.1 107.647 52.4161 108.21 52.9787C108.773 53.5413 109.089 54.3044 109.089 55.1V108.31C109.089 108.728 109.002 109.141 108.833 109.524C108.664 109.906 108.418 110.249 108.109 110.53C107.851 110.768 107.553 110.958 107.229 111.09C107.169 111.11 107.119 111.13 107.059 111.15C106.654 111.291 106.225 111.342 105.799 111.3C105.038 111.198 104.341 110.82 103.841 110.237C103.341 109.654 103.073 108.908 103.089 108.14V101.78C103.089 101.386 103.011 100.996 102.86 100.632C102.71 100.268 102.489 99.9373 102.21 99.6587C101.931 99.3801 101.601 99.1591 101.237 99.0084C100.873 98.8576 100.483 98.78 100.089 98.78ZM106.099 119.94C104.585 119.942 103.106 119.485 101.857 118.629C100.609 117.772 99.6496 116.557 99.1066 115.144C98.5636 113.731 98.4624 112.186 98.8163 110.714C99.1702 109.242 99.9626 107.912 101.089 106.9V108.14C101.076 109.404 101.531 110.629 102.365 111.579C103.199 112.529 104.354 113.138 105.609 113.29C106.303 113.357 107.003 113.278 107.665 113.058C108.327 112.838 108.935 112.482 109.451 112.013C109.967 111.544 110.38 110.973 110.662 110.335C110.944 109.697 111.089 109.007 111.089 108.31V106.89C112.217 107.9 113.012 109.229 113.369 110.701C113.726 112.173 113.627 113.718 113.086 115.133C112.545 116.547 111.588 117.764 110.34 118.623C109.092 119.481 107.613 119.941 106.099 119.94Z" fill="black"/>
<path d="M99.0887 58.1H23.6487C22.5888 58.1031 21.5732 58.5256 20.8237 59.275C20.0743 60.0245 19.6518 61.0401 19.6487 62.1V88.78C19.65 89.8404 20.0719 90.8571 20.8217 91.6069C21.5716 92.3568 22.5882 92.7787 23.6487 92.78H99.0887C100.15 92.78 101.167 92.3586 101.917 91.6084C102.667 90.8583 103.089 89.8408 103.089 88.78V62.1C103.087 61.0395 102.666 60.0229 101.916 59.273C101.166 58.5232 100.149 58.1013 99.0887 58.1ZM101.089 88.78C101.089 89.3104 100.878 89.8191 100.503 90.1942C100.128 90.5693 99.6191 90.78 99.0887 90.78H23.6487C23.1187 90.7784 22.6109 90.5672 22.2362 90.1924C21.8615 89.8177 21.6503 89.3099 21.6487 88.78V82.54L29.2187 80.61C33.8682 79.4186 38.7409 79.4014 43.3987 80.56L44.8587 80.92C49.7906 82.1467 54.9484 82.1433 59.8787 80.91L61.4087 80.53C65.9629 79.3885 70.7264 79.3714 75.2887 80.48L77.6887 81.06C82.3853 82.193 87.2812 82.217 91.9887 81.13L101.089 79.02V88.78ZM101.089 76.97L91.5387 79.18C87.1341 80.1952 82.554 80.1747 78.1587 79.12L75.7587 78.53C70.8794 77.3547 65.7883 77.3753 60.9187 78.59L59.3987 78.97C54.7834 80.1233 49.9556 80.1267 45.3387 78.98L43.8887 78.62C38.9057 77.3814 33.6933 77.3985 28.7187 78.67L21.6487 80.47V62.1C21.6503 61.57 21.8615 61.0622 22.2362 60.6875C22.6109 60.3128 23.1187 60.1016 23.6487 60.1H99.0887C99.6191 60.1 100.128 60.3107 100.503 60.6858C100.878 61.0608 101.089 61.5695 101.089 62.1V76.97Z" fill="black"/>
</svg>
