<svg width="119" height="107" viewBox="0 0 119 107" fill="none" xmlns="http://www.w3.org/2000/svg">
<path d="M66.8383 67.9374H51.3745L47.5098 32.9343H70.7079L66.8383 67.9374Z" stroke="black" stroke-width="2" stroke-miterlimit="10" stroke-linecap="round" stroke-linejoin="round"/>
<path d="M39.7751 25.0614V28.5637L43.6401 35.5601H47.7964L47.5096 32.9343H70.7078L70.4187 35.5601H74.5748L78.4421 28.5637V25.0614H39.7751Z" stroke="black" stroke-width="2" stroke-miterlimit="10" stroke-linecap="round" stroke-linejoin="round"/>
<path d="M70.7078 65.3116H67.1321L66.8382 67.9373H51.3744L51.0852 65.3116H47.5097L43.6401 70.563V73.1887H74.5749V70.563L70.7078 65.3116Z" stroke="black" stroke-width="2" stroke-miterlimit="10" stroke-linecap="round" stroke-linejoin="round"/>
<path d="M30.1087 92.8755H1.10864V106H30.1087V92.8755Z" stroke="black" stroke-width="2" stroke-miterlimit="10" stroke-linecap="round" stroke-linejoin="round"/>
<path d="M5.54712 92.8754H25.6703C24.6149 91.0838 22.6377 89.8115 20.2914 89.62C20.7688 88.888 21.0462 88.041 21.0462 87.1346V83.4407C21.0462 81.4023 19.2195 79.7468 16.9673 79.7468H14.2499C11.9979 79.7468 10.1735 81.4023 10.1735 83.4407V87.1346C10.1735 88.041 10.4462 88.888 10.9258 89.62C8.57972 89.8074 6.60035 91.0838 5.54712 92.8754Z" stroke="black" stroke-width="2" stroke-miterlimit="10" stroke-linecap="round" stroke-linejoin="round"/>
<path d="M20.047 79.751H40.1678C39.1146 77.9594 37.1377 76.6869 34.7915 76.4954C35.2664 75.7634 35.5437 74.9164 35.5437 74.01V70.3161C35.5437 68.2779 33.7194 66.6266 31.4673 66.6266H28.7498C26.4954 66.6266 24.6711 68.2779 24.6711 70.3161V74.01C24.6711 74.9164 24.9461 75.7634 25.4256 76.4954C23.0796 76.6827 21.1002 77.9594 20.047 79.751Z" stroke="black" stroke-width="2" stroke-miterlimit="10" stroke-linecap="round" stroke-linejoin="round"/>
<path d="M59.1087 92.8755H30.1086V106H59.1087V92.8755Z" stroke="black" stroke-width="2" stroke-miterlimit="10" stroke-linecap="round" stroke-linejoin="round"/>
<path d="M34.5471 92.8754H54.668C53.6126 91.0838 51.6379 89.8115 49.2916 89.62C49.769 88.888 50.0464 88.041 50.0464 87.1346V83.4407C50.0464 81.4023 48.2197 79.7468 45.9675 79.7468H43.2499C40.9979 79.7468 39.1735 81.4023 39.1735 83.4407V87.1346C39.1735 88.041 39.4462 88.888 39.9258 89.62C37.5797 89.8074 35.6004 91.0838 34.5471 92.8754Z" stroke="black" stroke-width="2" stroke-miterlimit="10" stroke-linecap="round" stroke-linejoin="round"/>
<path d="M88.1063 92.8755H59.1088V106H88.1063V92.8755Z" stroke="black" stroke-width="2" stroke-miterlimit="10" stroke-linecap="round" stroke-linejoin="round"/>
<path d="M63.547 92.8754H83.6678C82.6146 91.0838 80.6377 89.8115 78.2915 89.62C78.7687 88.888 79.046 88.041 79.046 87.1346V83.4407C79.046 81.4023 77.2196 79.7468 74.9673 79.7468H72.2498C69.9954 79.7468 68.1711 81.4023 68.1711 83.4407V87.1346C68.1711 88.041 68.4484 88.888 68.9256 89.62C66.5796 89.8074 64.6002 91.0838 63.547 92.8754Z" stroke="black" stroke-width="2" stroke-miterlimit="10" stroke-linecap="round" stroke-linejoin="round"/>
<path d="M117.109 92.8755H88.1063V106H117.109V92.8755Z" stroke="black" stroke-width="2" stroke-miterlimit="10" stroke-linecap="round" stroke-linejoin="round"/>
<path d="M92.5496 92.8754H112.67C111.617 91.0838 109.638 89.8115 107.292 89.62C107.769 88.888 108.046 88.041 108.046 87.1346V83.4407C108.046 81.4023 106.222 79.7468 103.968 79.7468H101.25C98.998 79.7468 97.1714 81.4023 97.1714 83.4407V87.1346C97.1714 88.041 97.4487 88.888 97.9259 89.62C95.5797 89.8074 93.6026 91.0838 92.5496 92.8754Z" stroke="black" stroke-width="2" stroke-miterlimit="10" stroke-linecap="round" stroke-linejoin="round"/>
<path d="M34.5472 92.8754C35.6004 91.0838 37.5798 89.8071 39.9258 89.6199C39.4463 88.888 39.1736 88.041 39.1736 87.1346V83.4407C39.1736 81.4106 40.9837 79.7637 43.2242 79.751H16.991C19.2338 79.7637 21.0464 81.4106 21.0464 83.4407V87.1346C21.0464 88.041 20.7691 88.888 20.2916 89.6199C22.6379 89.8115 24.6149 91.0836 25.6705 92.8754H34.5472Z" stroke="black" stroke-width="2" stroke-miterlimit="10" stroke-linecap="round" stroke-linejoin="round"/>
<path d="M78.0494 79.751H98.168C97.1149 77.9594 95.1356 76.6869 92.7916 76.4954C93.269 75.7634 93.5439 74.9164 93.5439 74.01V70.3161C93.5439 68.2779 91.7195 66.6266 89.4652 66.6266H86.7476C84.4956 66.6266 82.6712 68.2779 82.6712 70.3161V74.01C82.6712 74.9164 82.9464 75.7634 83.426 76.4954C81.082 76.6827 79.1004 77.9594 78.0494 79.751Z" stroke="black" stroke-width="2" stroke-miterlimit="10" stroke-linecap="round" stroke-linejoin="round"/>
<path d="M92.5495 92.8754C93.6027 91.0838 95.5796 89.8071 97.9258 89.6199C97.4486 88.888 97.1713 88.041 97.1713 87.1346V83.4407C97.1713 81.4106 98.9837 79.7637 101.226 79.751H74.991C77.2338 79.7637 79.0462 81.4106 79.0462 83.4407V87.1346C79.0462 88.041 78.7689 88.888 78.2916 89.6199C80.6379 89.8115 82.6147 91.0836 83.668 92.8754H92.5495Z" stroke="black" stroke-width="2" stroke-miterlimit="10" stroke-linecap="round" stroke-linejoin="round"/>
<path d="M53.2928 19.0481L52.4607 25.0614L53.2928 19.0481Z" stroke="black" stroke-width="2" stroke-miterlimit="10" stroke-linecap="round" stroke-linejoin="round"/>
<path d="M64.9225 19.0481L65.7546 25.0614L64.9225 19.0481Z" stroke="black" stroke-width="2" stroke-miterlimit="10" stroke-linecap="round" stroke-linejoin="round"/>
<path d="M63.7938 5.97457C64.4074 6.17032 64.8471 6.69379 64.8471 7.31086C64.8471 8.52792 64.1628 9.51105 63.3166 9.54939C62.534 11.7241 60.9448 13.2178 59.1087 13.2178C57.2726 13.2178 55.6811 11.7241 54.9006 9.54521C54.0542 9.51122 53.3724 8.52809 53.3724 7.31103C53.3724 6.69396 53.8098 6.1705 54.4232 5.97474V4.75332C54.7078 2.63838 56.6966 1 59.1085 1C61.5204 1 63.5092 2.63838 63.7937 4.75332V5.97457H63.7938Z" stroke="black" stroke-width="2" stroke-miterlimit="10" stroke-linecap="round" stroke-linejoin="round"/>
<path d="M69.9083 19.3291C69.9083 18.3758 69.4828 17.5119 68.7892 16.8863L62.5572 14.5456C62.2845 14.4476 62.0399 14.2988 61.8379 14.1116C61.436 13.7499 61.1891 13.2477 61.1891 12.6944V12.5284C60.5592 12.9668 59.8562 13.2179 59.1086 13.2179C58.361 13.2179 57.6558 12.9668 57.028 12.5284V12.6944C57.028 13.2477 56.7813 13.7499 56.3768 14.1116C56.1746 14.2988 55.9302 14.4478 55.6575 14.5456L49.4277 16.8863C48.7365 17.5119 48.3086 18.3758 48.3086 19.3291V25.0616H69.9081V19.3291H69.9083Z" stroke="black" stroke-width="2" stroke-miterlimit="10" stroke-linecap="round" stroke-linejoin="round"/>
</svg>
