<svg width="118" height="116" viewBox="0 0 118 116" fill="none" xmlns="http://www.w3.org/2000/svg">
<path d="M104.269 88.14H37.6087V85.69C37.6087 84.0987 36.9765 82.5726 35.8513 81.4473C34.7261 80.3221 33.2 79.69 31.6087 79.69H29.6387V36.45L35.7087 39.7C36.2823 40.0251 36.9175 40.2268 37.5736 40.2923C38.2296 40.3577 38.8922 40.2854 39.5187 40.08C40.464 39.7927 41.3031 39.2318 41.9299 38.468C42.5568 37.7043 42.9433 36.7719 43.0406 35.7887C43.138 34.8054 42.9418 33.8154 42.477 32.9435C42.0121 32.0717 41.2993 31.3571 40.4287 30.89L24.3087 22.26C24.0768 22.1312 23.9048 21.9164 23.83 21.6619C23.7551 21.4075 23.7834 21.1338 23.9087 20.9L30.7287 8.14997C31.0412 7.57356 31.2358 6.94066 31.3011 6.28821C31.3663 5.63577 31.3009 4.97686 31.1087 4.34997C30.8226 3.40401 30.2626 2.56404 29.4994 1.93615C28.7363 1.30826 27.8041 0.920616 26.8208 0.822173C25.8374 0.723731 24.847 0.918908 23.9745 1.38305C23.102 1.8472 22.3866 2.55949 21.9187 3.42997L12.2587 21.47C11.6334 22.6386 11.497 24.0075 11.8794 25.2766C12.2618 26.5457 13.1318 27.6113 14.2987 28.24L19.6387 31.1V79.69H17.6587C16.0683 79.6929 14.5438 80.326 13.4192 81.4505C12.2947 82.5751 11.6616 84.0996 11.6587 85.69V88.34C8.31612 88.9121 5.31023 90.7185 3.23608 93.4014C1.16193 96.0843 0.170725 99.4482 0.458695 102.827C0.746664 106.206 2.29281 109.354 4.79105 111.647C7.28929 113.94 10.5575 115.212 13.9487 115.21H104.269C106.046 115.21 107.806 114.86 109.448 114.18C111.09 113.499 112.583 112.503 113.839 111.246C115.096 109.989 116.093 108.497 116.773 106.855C117.454 105.212 117.804 103.452 117.804 101.675C117.804 99.8975 117.454 98.1375 116.773 96.4954C116.093 94.8532 115.096 93.3611 113.839 92.1043C112.583 90.8474 111.09 89.8505 109.448 89.1703C107.806 88.4901 106.046 88.14 104.269 88.14ZM15.2487 26.48C14.5477 26.1015 14.025 25.4611 13.7945 24.6986C13.5641 23.936 13.6446 23.1133 14.0187 22.41L23.6787 4.37997C23.9468 3.90984 24.3315 3.51663 24.7956 3.23817C25.2597 2.9597 25.7877 2.80536 26.3287 2.78997C26.8215 2.7894 27.3065 2.91323 27.7387 3.14997C28.4401 3.52531 28.9638 4.16389 29.1944 4.92527C29.4251 5.68664 29.3439 6.50846 28.9687 7.20997L22.1387 19.96C21.7635 20.6615 21.6823 21.4833 21.9129 22.2447C22.1436 23.0061 22.6672 23.6446 23.3687 24.02L39.4887 32.65C39.8368 32.835 40.1445 33.0878 40.3935 33.3935C40.6425 33.6992 40.8279 34.0516 40.9387 34.43C41.0573 34.8053 41.0989 35.2006 41.0611 35.5924C41.0233 35.9842 40.9069 36.3643 40.7187 36.71C40.5335 37.058 40.2814 37.3659 39.9769 37.6162C39.6724 37.8665 39.3215 38.0542 38.9442 38.1685C38.567 38.2828 38.1709 38.3214 37.7787 38.2822C37.3864 38.243 37.0058 38.1267 36.6587 37.94L29.6387 34.18L19.6387 28.83L15.2487 26.48ZM27.6387 35.38V79.69H21.6387V32.17L27.6387 35.38ZM13.6587 85.69C13.66 84.6295 14.0819 83.6129 14.8317 82.863C15.5816 82.1132 16.5982 81.6913 17.6587 81.69H31.6087C32.6695 81.69 33.687 82.1114 34.4371 82.8615C35.1872 83.6117 35.6087 84.6291 35.6087 85.69V88.14H13.6587V85.69ZM104.269 113.21H13.9487C10.8894 113.21 7.95543 111.995 5.7922 109.831C3.62897 107.668 2.41368 104.734 2.41368 101.675C2.41368 98.6157 3.62897 95.6817 5.7922 93.5185C7.95543 91.3553 10.8894 90.14 13.9487 90.14H104.269C105.783 90.14 107.283 90.4383 108.683 91.018C110.082 91.5977 111.354 92.4474 112.425 93.5185C113.496 94.5896 114.346 95.8612 114.926 97.2607C115.505 98.6602 115.804 100.16 115.804 101.675C115.804 103.19 115.505 104.69 114.926 106.089C114.346 107.489 113.496 108.76 112.425 109.831C111.354 110.903 110.082 111.752 108.683 112.332C107.283 112.912 105.783 113.21 104.269 113.21Z" fill="black"/>
<path d="M109.709 100.65C109.469 99.3825 108.794 98.2384 107.801 97.4151C106.808 96.5918 105.559 96.1408 104.269 96.14H13.9487C12.6587 96.1408 11.4094 96.5918 10.4163 97.4151C9.42316 98.2384 8.74851 99.3825 8.50867 100.65C8.47623 100.815 8.45286 100.982 8.43867 101.15C8.38784 101.664 8.41142 102.183 8.50867 102.69C8.74806 103.959 9.42228 105.104 10.4152 105.929C11.4082 106.754 12.6577 107.207 13.9487 107.21H104.269C105.562 107.217 106.817 106.767 107.812 105.94C108.806 105.114 109.478 103.963 109.709 102.69C109.816 102.014 109.816 101.326 109.709 100.65ZM13.4687 104.73C12.8095 104.731 12.1676 104.519 11.6381 104.126C11.1086 103.734 10.7196 103.181 10.5287 102.55C10.3933 101.975 10.3933 101.375 10.5287 100.8C10.6903 100.257 10.9998 99.769 11.4225 99.3914C11.8452 99.0138 12.3646 98.7611 12.9226 98.6616C13.4806 98.562 14.0553 98.6195 14.5826 98.8276C15.1098 99.0358 15.5688 99.3863 15.9083 99.8402C16.2479 100.294 16.4546 100.833 16.5054 101.398C16.5562 101.963 16.4491 102.53 16.196 103.037C15.943 103.544 15.5539 103.971 15.0723 104.27C14.5907 104.569 14.0355 104.728 13.4687 104.73ZM101.139 105.21H17.0787C18.0018 104.265 18.5187 102.996 18.5187 101.675C18.5187 100.354 18.0018 99.0851 17.0787 98.14H101.139C100.215 99.0851 99.6987 100.354 99.6987 101.675C99.6987 102.996 100.215 104.265 101.139 105.21ZM107.689 102.55C107.506 103.186 107.119 103.744 106.588 104.138C106.057 104.532 105.41 104.74 104.749 104.73C104.183 104.728 103.629 104.568 103.148 104.269C102.668 103.97 102.279 103.544 102.027 103.037C101.775 102.531 101.668 101.964 101.719 101.4C101.77 100.837 101.976 100.298 102.315 99.845C102.654 99.3919 103.113 99.0418 103.639 98.8338C104.165 98.6258 104.739 98.5682 105.296 98.6672C105.853 98.7662 106.372 99.0181 106.795 99.3947C107.217 99.7713 107.527 100.258 107.689 100.8C107.852 101.372 107.852 101.978 107.689 102.55Z" fill="black"/>
</svg>
