<svg width="124" height="112" viewBox="0 0 124 112" fill="none" xmlns="http://www.w3.org/2000/svg">
<path d="M58.4567 20.733C58.1655 20.7328 57.8778 20.6689 57.6138 20.5458C57.3498 20.4228 57.1158 20.2436 56.9283 20.0207C56.7408 19.7979 56.6042 19.5367 56.5281 19.2556C56.452 18.9744 56.4382 18.6801 56.4877 18.393L57.0067 15.365L54.8067 13.221C54.5393 12.9606 54.3501 12.6305 54.2606 12.2681C54.171 11.9058 54.1846 11.5256 54.2999 11.1705C54.4152 10.8155 54.6276 10.4999 54.9129 10.2592C55.1983 10.0186 55.5453 9.86267 55.9147 9.80903L58.9547 9.36703L60.3137 6.61203C60.4783 6.27679 60.7339 5.99468 61.0514 5.79801C61.3689 5.60135 61.7353 5.49807 62.1087 5.50003C62.4822 5.49849 62.8485 5.60229 63.1657 5.79951C63.4828 5.99674 63.7379 6.27939 63.9017 6.61503L65.2617 9.36903L68.3017 9.81103C68.6704 9.86524 69.0167 10.0214 69.3013 10.2619C69.586 10.5024 69.7979 10.8176 69.913 11.172C70.0281 11.5265 70.0419 11.906 69.9528 12.2679C69.8637 12.6298 69.6752 12.9595 69.4087 13.22L67.2087 15.365L67.7277 18.393C67.7905 18.7606 67.7492 19.1383 67.6087 19.4837C67.4681 19.829 67.2338 20.1282 66.9322 20.3474C66.6306 20.5666 66.2737 20.6972 65.9019 20.7243C65.53 20.7515 65.158 20.6741 64.8277 20.501L62.1087 19.071L59.3897 20.5C59.1023 20.6524 58.782 20.7324 58.4567 20.733ZM62.1087 17.072C62.4326 17.0719 62.7517 17.1501 63.0387 17.3L64.8617 18.259C64.9443 18.3026 65.0374 18.3221 65.1306 18.3155C65.2237 18.3088 65.3131 18.2762 65.3887 18.2214C65.4642 18.1665 65.5229 18.0916 65.5581 18.0051C65.5933 17.9187 65.6035 17.824 65.5877 17.732L65.2387 15.7C65.1839 15.3805 65.2076 15.0524 65.3078 14.7441C65.408 14.4357 65.5816 14.1564 65.8137 13.93L67.2887 12.5C67.3553 12.4349 67.4023 12.3524 67.4245 12.262C67.4468 12.1715 67.4433 12.0767 67.4145 11.9881C67.3857 11.8995 67.3327 11.8208 67.2616 11.7607C67.1904 11.7006 67.1039 11.6616 67.0117 11.648L64.9737 11.348C64.6539 11.3005 64.3503 11.1762 64.0891 10.9856C63.8279 10.7951 63.6167 10.5441 63.4737 10.254L62.5617 8.40803C62.5208 8.32349 62.4569 8.2522 62.3773 8.20231C62.2977 8.15243 62.2057 8.12597 62.1117 8.12597C62.0178 8.12597 61.9258 8.15243 61.8462 8.20231C61.7666 8.2522 61.7027 8.32349 61.6617 8.40803L60.7507 10.253C60.6079 10.5449 60.3962 10.7976 60.1338 10.9893C59.8714 11.181 59.5662 11.3058 59.2447 11.353L57.2067 11.653C57.1144 11.6664 57.0276 11.7054 56.9563 11.7656C56.8849 11.8257 56.8319 11.9047 56.803 11.9934C56.7742 12.0822 56.7708 12.1772 56.7932 12.2678C56.8156 12.3584 56.8629 12.4409 56.9297 12.506L58.4027 13.941C58.6353 14.1675 58.8093 14.4471 58.9097 14.7559C59.01 15.0646 59.0337 15.3931 58.9787 15.713L58.6317 17.742C58.616 17.8339 58.6264 17.9284 58.6615 18.0147C58.6966 18.101 58.7552 18.1758 58.8306 18.2306C58.906 18.2854 58.9952 18.3181 59.0882 18.3249C59.1812 18.3316 59.2742 18.3123 59.3567 18.269L61.1787 17.311C61.4648 17.1572 61.7839 17.0752 62.1087 17.072Z" fill="black"/>
<path d="M74.5617 20.733C74.3434 20.7328 74.1277 20.6849 73.9297 20.5927C73.7318 20.5005 73.5564 20.3662 73.4157 20.1992C73.275 20.0322 73.1726 19.8364 73.1154 19.6257C73.0582 19.4149 73.0478 19.1942 73.0847 18.979L73.2997 17.723L72.3887 16.835C72.1882 16.6397 72.0463 16.3923 71.9791 16.1206C71.9119 15.8489 71.922 15.5638 72.0084 15.2975C72.0947 15.0313 72.2538 14.7945 72.4677 14.614C72.6816 14.4335 72.9418 14.3164 73.2187 14.276L74.4797 14.093L75.0427 12.952C75.1665 12.7008 75.3582 12.4893 75.596 12.3414C75.8337 12.1934 76.1082 12.1151 76.3882 12.1151C76.6683 12.1151 76.9427 12.1934 77.1805 12.3414C77.4183 12.4893 77.61 12.7008 77.7337 12.952L78.2967 14.093L79.5557 14.276C79.8327 14.3162 80.0928 14.4331 80.3068 14.6134C80.5208 14.7938 80.6801 15.0304 80.7666 15.2965C80.8532 15.5626 80.8635 15.8476 80.7966 16.1193C80.7296 16.391 80.588 16.6386 80.3877 16.834L79.4767 17.723L79.6917 18.978C79.7393 19.254 79.7086 19.5378 79.6032 19.7973C79.4978 20.0567 79.3219 20.2815 79.0953 20.4462C78.8688 20.6108 78.6006 20.7087 78.3213 20.7288C78.042 20.749 77.7626 20.6905 77.5147 20.56L76.3877 19.967L75.2607 20.56C75.0452 20.6736 74.8053 20.733 74.5617 20.733ZM76.3877 17.9C76.6317 17.8994 76.8721 17.9588 77.0877 18.073L77.5497 18.316L77.4617 17.8C77.4207 17.5604 77.4385 17.3145 77.5136 17.0833C77.5886 16.8522 77.7188 16.6427 77.8927 16.473L78.2677 16.108L77.7497 16.033C77.5095 15.998 77.2813 15.9052 77.0848 15.7625C76.8883 15.6198 76.7294 15.4316 76.6217 15.214L76.3887 14.744L76.1567 15.214C76.049 15.4313 75.8902 15.6192 75.6939 15.7617C75.4976 15.9042 75.2697 15.9969 75.0297 16.032L74.5107 16.108L74.8847 16.473C75.0591 16.6427 75.1895 16.8523 75.2647 17.0837C75.34 17.315 75.3578 17.5612 75.3167 17.801L75.2277 18.316L75.6907 18.072C75.9057 17.9591 76.1449 17.9001 76.3877 17.9Z" fill="black"/>
<path d="M46.0087 21.354C45.7898 21.3547 45.5734 21.3075 45.3747 21.2157C45.176 21.1238 44.9999 20.9896 44.8585 20.8225C44.7172 20.6554 44.6142 20.4593 44.5567 20.2481C44.4992 20.037 44.4886 19.8157 44.5257 19.6L44.7407 18.344L43.8297 17.456C43.6291 17.2607 43.4872 17.0131 43.42 16.7414C43.3529 16.4696 43.3631 16.1844 43.4496 15.9182C43.536 15.6519 43.6953 15.4151 43.9093 15.2347C44.1233 15.0542 44.3836 14.9373 44.6607 14.897L45.9207 14.714L46.4847 13.572C46.6085 13.3211 46.8002 13.1098 47.0379 12.9621C47.2755 12.8144 47.5498 12.7361 47.8297 12.7361C48.1095 12.7361 48.3838 12.8144 48.6215 12.9621C48.8591 13.1098 49.0508 13.3211 49.1747 13.572L49.7377 14.713L50.9977 14.896C51.2747 14.9363 51.535 15.0532 51.749 15.2337C51.963 15.4141 52.1223 15.6509 52.2088 15.9172C52.2952 16.1834 52.3054 16.4686 52.2383 16.7404C52.1711 17.0121 52.0292 17.2597 51.8287 17.455L50.9177 18.343L51.1327 19.598C51.1799 19.8738 51.149 20.1573 51.0435 20.4165C50.938 20.6756 50.7622 20.9001 50.5358 21.0646C50.3095 21.229 50.0416 21.3269 49.7626 21.3471C49.4835 21.3674 49.2044 21.3091 48.9567 21.179L47.8297 20.586L46.7027 21.179C46.4888 21.2925 46.2507 21.3525 46.0087 21.354ZM47.8357 18.523C48.0794 18.5223 48.3197 18.581 48.5357 18.694L49.0007 18.938L48.9117 18.423C48.8706 18.1835 48.8884 17.9375 48.9635 17.7064C49.0386 17.4752 49.1687 17.2657 49.3427 17.096L49.7177 16.73L49.1997 16.655C48.9595 16.6201 48.7314 16.5274 48.5349 16.3849C48.3384 16.2425 48.1795 16.0545 48.0717 15.837L47.8397 15.366L47.6077 15.834C47.4999 16.0524 47.3407 16.2413 47.1436 16.3843C46.9466 16.5273 46.7177 16.6203 46.4767 16.655L45.9607 16.73L46.3357 17.095C46.5098 17.2648 46.64 17.4745 46.7151 17.7058C46.7902 17.9372 46.8079 18.1833 46.7667 18.423L46.6787 18.938L47.1407 18.695C47.3538 18.584 47.5903 18.525 47.8307 18.523H47.8357Z" fill="black"/>
<path d="M56.3597 51.449H44.2347C43.4391 51.449 42.676 51.1329 42.1134 50.5703C41.5508 50.0077 41.2347 49.2446 41.2347 48.449V36.324C41.2347 35.5283 41.5508 34.7653 42.1134 34.2027C42.676 33.64 43.4391 33.324 44.2347 33.324H56.3597C57.1554 33.324 57.9185 33.64 58.4811 34.2027C59.0437 34.7653 59.3597 35.5283 59.3597 36.324V48.449C59.3597 49.2446 59.0437 50.0077 58.4811 50.5703C57.9185 51.1329 57.1554 51.449 56.3597 51.449ZM44.2347 35.324C43.9695 35.324 43.7152 35.4293 43.5276 35.6169C43.3401 35.8044 43.2347 36.0588 43.2347 36.324V48.449C43.2347 48.7142 43.3401 48.9685 43.5276 49.1561C43.7152 49.3436 43.9695 49.449 44.2347 49.449H56.3597C56.625 49.449 56.8793 49.3436 57.0668 49.1561C57.2544 48.9685 57.3597 48.7142 57.3597 48.449V36.324C57.3597 36.0588 57.2544 35.8044 57.0668 35.6169C56.8793 35.4293 56.625 35.324 56.3597 35.324H44.2347Z" fill="black"/>
<path d="M79.9827 51.449H67.8577C67.062 51.449 66.299 51.1329 65.7363 50.5703C65.1737 50.0077 64.8577 49.2446 64.8577 48.449V36.324C64.8577 35.5283 65.1737 34.7653 65.7363 34.2027C66.299 33.64 67.062 33.324 67.8577 33.324H79.9827C80.7783 33.324 81.5414 33.64 82.104 34.2027C82.6666 34.7653 82.9827 35.5283 82.9827 36.324V48.449C82.9827 49.2446 82.6666 50.0077 82.104 50.5703C81.5414 51.1329 80.7783 51.449 79.9827 51.449ZM67.8577 35.324C67.5924 35.324 67.3381 35.4293 67.1506 35.6169C66.963 35.8044 66.8577 36.0588 66.8577 36.324V48.449C66.8577 48.7142 66.963 48.9685 67.1506 49.1561C67.3381 49.3436 67.5924 49.449 67.8577 49.449H79.9827C80.2479 49.449 80.5022 49.3436 80.6898 49.1561C80.8773 48.9685 80.9827 48.7142 80.9827 48.449V36.324C80.9827 36.0588 80.8773 35.8044 80.6898 35.6169C80.5022 35.4293 80.2479 35.324 79.9827 35.324H67.8577Z" fill="black"/>
<path d="M56.3597 73.574H44.2347C43.4391 73.574 42.676 73.2579 42.1134 72.6953C41.5508 72.1327 41.2347 71.3696 41.2347 70.574V58.449C41.2347 57.6533 41.5508 56.8903 42.1134 56.3277C42.676 55.765 43.4391 55.449 44.2347 55.449H56.3597C57.1554 55.449 57.9185 55.765 58.4811 56.3277C59.0437 56.8903 59.3597 57.6533 59.3597 58.449V70.574C59.3597 71.3696 59.0437 72.1327 58.4811 72.6953C57.9185 73.2579 57.1554 73.574 56.3597 73.574ZM44.2347 57.449C43.9695 57.449 43.7152 57.5543 43.5276 57.7419C43.3401 57.9294 43.2347 58.1838 43.2347 58.449V70.574C43.2347 70.8392 43.3401 71.0935 43.5276 71.2811C43.7152 71.4686 43.9695 71.574 44.2347 71.574H56.3597C56.625 71.574 56.8793 71.4686 57.0668 71.2811C57.2544 71.0935 57.3597 70.8392 57.3597 70.574V58.449C57.3597 58.1838 57.2544 57.9294 57.0668 57.7419C56.8793 57.5543 56.625 57.449 56.3597 57.449H44.2347Z" fill="black"/>
<path d="M79.9827 73.574H67.8577C67.062 73.574 66.299 73.2579 65.7363 72.6953C65.1737 72.1327 64.8577 71.3696 64.8577 70.574V58.449C64.8577 57.6533 65.1737 56.8903 65.7363 56.3277C66.299 55.765 67.062 55.449 67.8577 55.449H79.9827C80.7783 55.449 81.5414 55.765 82.104 56.3277C82.6666 56.8903 82.9827 57.6533 82.9827 58.449V70.574C82.9827 71.3696 82.6666 72.1327 82.104 72.6953C81.5414 73.2579 80.7783 73.574 79.9827 73.574ZM67.8577 57.449C67.5924 57.449 67.3381 57.5543 67.1506 57.7419C66.963 57.9294 66.8577 58.1838 66.8577 58.449V70.574C66.8577 70.8392 66.963 71.0935 67.1506 71.2811C67.3381 71.4686 67.5924 71.574 67.8577 71.574H79.9827C80.2479 71.574 80.5022 71.4686 80.6898 71.2811C80.8773 71.0935 80.9827 70.8392 80.9827 70.574V58.449C80.9827 58.1838 80.8773 57.9294 80.6898 57.7419C80.5022 57.5543 80.2479 57.449 79.9827 57.449H67.8577Z" fill="black"/>
<path d="M118.429 42.28H96.9787V28.32C96.9785 27.2143 96.6111 26.14 95.9342 25.2658C95.2572 24.3916 94.3091 23.767 93.2387 23.49V16.51C93.2387 15.1839 92.7119 13.9121 91.7742 12.9745C90.8365 12.0368 89.5648 11.51 88.2387 11.51H83.9887C83.5145 11.5041 83.0482 11.3881 82.6265 11.1712C82.2048 10.9543 81.8392 10.6424 81.5587 10.26C79.3061 7.22296 76.3736 4.75562 72.9961 3.05559C69.6186 1.35557 65.8899 0.470093 62.1087 0.470093C58.3275 0.470093 54.5988 1.35557 51.2213 3.05559C47.8438 4.75562 44.9113 7.22296 42.6587 10.26C42.3782 10.6424 42.0126 10.9543 41.5909 11.1712C41.1692 11.3881 40.7029 11.5041 40.2287 11.51H35.9787C34.6526 11.51 33.3808 12.0368 32.4432 12.9745C31.5055 13.9121 30.9787 15.1839 30.9787 16.51V23.49C29.9083 23.767 28.9602 24.3916 28.2832 25.2658C27.6063 26.14 27.2389 27.2143 27.2387 28.32V42.28H5.7887C4.46261 42.28 3.19084 42.8068 2.25316 43.7445C1.31548 44.6821 0.788696 45.9539 0.788696 47.28V108.53C0.788696 109.326 1.10477 110.089 1.66738 110.651C2.22998 111.214 2.99305 111.53 3.7887 111.53H120.429C121.224 111.53 121.987 111.214 122.55 110.651C123.113 110.089 123.429 109.326 123.429 108.53V47.28C123.429 45.9539 122.902 44.6821 121.964 43.7445C121.027 42.8068 119.755 42.28 118.429 42.28ZM27.2387 109.53H3.7887C3.52348 109.53 3.26913 109.425 3.08159 109.237C2.89405 109.05 2.7887 108.795 2.7887 108.53V47.28C2.7887 46.4843 3.10477 45.7213 3.66738 45.1587C4.22998 44.5961 4.99305 44.28 5.7887 44.28H27.2387V109.53ZM32.9787 16.51C32.9787 15.7144 33.2948 14.9513 33.8574 14.3887C34.42 13.8261 35.183 13.51 35.9787 13.51H40.2287C41.0145 13.5046 41.7882 13.3155 42.4879 12.9578C43.1877 12.6001 43.7941 12.0838 44.2587 11.45C46.3269 8.66409 49.0184 6.40094 52.118 4.84165C55.2175 3.28236 58.639 2.47022 62.1087 2.47022C65.5784 2.47022 68.9999 3.28236 72.0994 4.84165C75.199 6.40094 77.8905 8.66409 79.9587 11.45C80.4233 12.0838 81.0297 12.6001 81.7295 12.9578C82.4292 13.3155 83.2029 13.5046 83.9887 13.51H88.2387C89.0343 13.51 89.7974 13.8261 90.36 14.3887C90.9226 14.9513 91.2387 15.7144 91.2387 16.51V23.32H32.9787V16.51ZM51.2987 109.53V91.02C51.2987 88.153 52.4376 85.4034 54.4649 83.3762C56.4921 81.3489 59.2417 80.21 62.1087 80.21C64.9757 80.21 67.7253 81.3489 69.7525 83.3762C71.7798 85.4034 72.9187 88.153 72.9187 91.02V109.53H51.2987ZM94.9787 109.53H74.9187V91.02C74.9187 87.6226 73.5691 84.3643 71.1667 81.962C68.7644 79.5596 65.5061 78.21 62.1087 78.21C58.7113 78.21 55.453 79.5596 53.0507 81.962C50.6483 84.3643 49.2987 87.6226 49.2987 91.02V109.53H29.2387V28.32C29.2387 27.5244 29.5548 26.7613 30.1174 26.1987C30.68 25.6361 31.443 25.32 32.2387 25.32H91.9787C92.7743 25.32 93.5374 25.6361 94.1 26.1987C94.6626 26.7613 94.9787 27.5244 94.9787 28.32V109.53ZM121.429 108.53C121.429 108.795 121.323 109.05 121.136 109.237C120.948 109.425 120.694 109.53 120.429 109.53H96.9787V44.28H118.429C119.224 44.28 119.987 44.5961 120.55 45.1587C121.113 45.7213 121.429 46.4843 121.429 47.28V108.53Z" fill="black"/>
<path d="M19.2087 63.669H10.8157C10.02 63.669 9.25696 63.3529 8.69435 62.7903C8.13174 62.2277 7.81567 61.4646 7.81567 60.669V52.277C7.81567 51.4813 8.13174 50.7183 8.69435 50.1557C9.25696 49.593 10.02 49.277 10.8157 49.277H19.2087C20.0043 49.277 20.7674 49.593 21.33 50.1557C21.8926 50.7183 22.2087 51.4813 22.2087 52.277V60.669C22.2087 61.4646 21.8926 62.2277 21.33 62.7903C20.7674 63.3529 20.0043 63.669 19.2087 63.669ZM10.8157 51.277C10.5505 51.277 10.2961 51.3823 10.1086 51.5699C9.92103 51.7574 9.81567 52.0118 9.81567 52.277V60.669C9.81567 60.9342 9.92103 61.1885 10.1086 61.3761C10.2961 61.5636 10.5505 61.669 10.8157 61.669H19.2087C19.4739 61.669 19.7282 61.5636 19.9158 61.3761C20.1033 61.1885 20.2087 60.9342 20.2087 60.669V52.277C20.2087 52.0118 20.1033 51.7574 19.9158 51.5699C19.7282 51.3823 19.4739 51.277 19.2087 51.277H10.8157Z" fill="black"/>
<path d="M19.2087 83.062H10.8157C10.02 83.062 9.25696 82.7459 8.69435 82.1833C8.13174 81.6207 7.81567 80.8577 7.81567 80.062V71.669C7.81567 70.8734 8.13174 70.1103 8.69435 69.5477C9.25696 68.9851 10.02 68.669 10.8157 68.669H19.2087C20.0043 68.669 20.7674 68.9851 21.33 69.5477C21.8926 70.1103 22.2087 70.8734 22.2087 71.669V80.062C22.2087 80.8577 21.8926 81.6207 21.33 82.1833C20.7674 82.7459 20.0043 83.062 19.2087 83.062ZM10.8157 70.669C10.5505 70.669 10.2961 70.7744 10.1086 70.9619C9.92103 71.1494 9.81567 71.4038 9.81567 71.669V80.062C9.81567 80.3272 9.92103 80.5816 10.1086 80.7691C10.2961 80.9566 10.5505 81.062 10.8157 81.062H19.2087C19.4739 81.062 19.7282 80.9566 19.9158 80.7691C20.1033 80.5816 20.2087 80.3272 20.2087 80.062V71.669C20.2087 71.4038 20.1033 71.1494 19.9158 70.9619C19.7282 70.7744 19.4739 70.669 19.2087 70.669H10.8157Z" fill="black"/>
<path d="M19.2087 102.454H10.8157C10.02 102.454 9.25696 102.138 8.69435 101.575C8.13174 101.013 7.81567 100.25 7.81567 99.454V91.062C7.81567 90.2664 8.13174 89.5033 8.69435 88.9407C9.25696 88.3781 10.02 88.062 10.8157 88.062H19.2087C20.0043 88.062 20.7674 88.3781 21.33 88.9407C21.8926 89.5033 22.2087 90.2664 22.2087 91.062V99.454C22.2087 100.25 21.8926 101.013 21.33 101.575C20.7674 102.138 20.0043 102.454 19.2087 102.454ZM10.8157 90.062C10.5505 90.062 10.2961 90.1674 10.1086 90.3549C9.92103 90.5424 9.81567 90.7968 9.81567 91.062V99.454C9.81567 99.7192 9.92103 99.9736 10.1086 100.161C10.2961 100.349 10.5505 100.454 10.8157 100.454H19.2087C19.4739 100.454 19.7282 100.349 19.9158 100.161C20.1033 99.9736 20.2087 99.7192 20.2087 99.454V91.062C20.2087 90.7968 20.1033 90.5424 19.9158 90.3549C19.7282 90.1674 19.4739 90.062 19.2087 90.062H10.8157Z" fill="black"/>
<path d="M113.402 63.669H105.009C104.213 63.669 103.45 63.3529 102.887 62.7903C102.325 62.2277 102.009 61.4646 102.009 60.669V52.277C102.009 51.4813 102.325 50.7183 102.887 50.1557C103.45 49.593 104.213 49.277 105.009 49.277H113.401C114.196 49.277 114.959 49.593 115.522 50.1557C116.085 50.7183 116.401 51.4813 116.401 52.277V60.669C116.401 61.4645 116.085 62.2274 115.522 62.7899C114.96 63.3525 114.197 63.6687 113.402 63.669ZM105.009 51.277C104.743 51.277 104.489 51.3823 104.302 51.5699C104.114 51.7574 104.009 52.0118 104.009 52.277V60.669C104.009 60.9342 104.114 61.1885 104.302 61.3761C104.489 61.5636 104.743 61.669 105.009 61.669H113.401C113.666 61.669 113.92 61.5636 114.108 61.3761C114.295 61.1885 114.401 60.9342 114.401 60.669V52.277C114.401 52.0118 114.295 51.7574 114.108 51.5699C113.92 51.3823 113.666 51.277 113.401 51.277H105.009Z" fill="black"/>
<path d="M113.402 83.062H105.009C104.213 83.062 103.45 82.7459 102.887 82.1833C102.325 81.6207 102.009 80.8577 102.009 80.062V71.669C102.009 70.8734 102.325 70.1103 102.887 69.5477C103.45 68.9851 104.213 68.669 105.009 68.669H113.401C114.196 68.669 114.959 68.9851 115.522 69.5477C116.085 70.1103 116.401 70.8734 116.401 71.669V80.062C116.401 80.8575 116.085 81.6204 115.522 82.183C114.96 82.7456 114.197 83.0617 113.402 83.062ZM105.009 70.669C104.743 70.669 104.489 70.7744 104.302 70.9619C104.114 71.1494 104.009 71.4038 104.009 71.669V80.062C104.009 80.3272 104.114 80.5816 104.302 80.7691C104.489 80.9566 104.743 81.062 105.009 81.062H113.401C113.666 81.062 113.92 80.9566 114.108 80.7691C114.295 80.5816 114.401 80.3272 114.401 80.062V71.669C114.401 71.4038 114.295 71.1494 114.108 70.9619C113.92 70.7744 113.666 70.669 113.401 70.669H105.009Z" fill="black"/>
<path d="M113.402 102.454H105.009C104.213 102.454 103.45 102.138 102.887 101.575C102.325 101.013 102.009 100.25 102.009 99.454V91.062C102.009 90.2664 102.325 89.5033 102.887 88.9407C103.45 88.3781 104.213 88.062 105.009 88.062H113.401C114.196 88.062 114.959 88.3781 115.522 88.9407C116.085 89.5033 116.401 90.2664 116.401 91.062V99.454C116.401 100.249 116.085 101.012 115.522 101.575C114.96 102.138 114.197 102.454 113.402 102.454ZM105.009 90.062C104.743 90.062 104.489 90.1674 104.302 90.3549C104.114 90.5424 104.009 90.7968 104.009 91.062V99.454C104.009 99.7192 104.114 99.9736 104.302 100.161C104.489 100.349 104.743 100.454 105.009 100.454H113.401C113.666 100.454 113.92 100.349 114.108 100.161C114.295 99.9736 114.401 99.7192 114.401 99.454V91.062C114.401 90.7968 114.295 90.5424 114.108 90.3549C113.92 90.1674 113.666 90.062 113.401 90.062H105.009Z" fill="black"/>
</svg>
