<svg width="124" height="82" viewBox="0 0 124 82" fill="none" xmlns="http://www.w3.org/2000/svg">
<path d="M120.179 69.33C121.441 68.56 122.417 67.3985 122.958 66.0224C123.499 64.6464 123.576 63.1312 123.176 61.7076C122.776 60.2841 121.922 59.0302 120.744 58.137C119.565 57.2438 118.127 56.7602 116.649 56.76H116.389C117.049 55.8998 117.404 54.8444 117.399 53.76L117.389 32.6V23.51C117.383 17.3048 114.916 11.3552 110.529 6.96657C106.142 2.57789 100.194 0.108447 93.9886 0.0999756H53.3186C51.9925 0.0999756 50.7208 0.62676 49.7831 1.56444C48.8454 2.50212 48.3186 3.77389 48.3186 5.09998V7.09998C48.3186 8.42606 48.8454 9.69783 49.7831 10.6355C50.7208 11.5732 51.9925 12.1 53.3186 12.1H93.8886C96.7652 12.1023 99.5367 13.1813 101.658 15.1245C103.779 17.0678 105.095 19.7346 105.349 22.6H60.8686C56.5422 22.6088 52.2669 23.5349 48.3247 25.3173C44.3825 27.0996 40.8631 29.6977 37.9986 32.94C37.4686 33.55 36.9586 34.17 36.4886 34.81C35.4387 36.2307 34.5024 37.732 33.6886 39.3V39.31C32.8744 40.9335 32.1986 42.6228 31.6686 44.36C30.8181 47.1919 30.3869 50.1331 30.3886 53.09V53.76C30.3843 54.8425 30.7356 55.8965 31.3886 56.76H7.56861C6.08999 56.7602 4.65197 57.2438 3.47362 58.137C2.29526 59.0302 1.44114 60.2841 1.04137 61.7076C0.641592 63.1312 0.718076 64.6464 1.25917 66.0224C1.80026 67.3985 2.7763 68.56 4.03861 69.33C2.7763 70.1 1.80026 71.2615 1.25917 72.6375C0.718076 74.0136 0.641592 75.5288 1.04137 76.9523C1.44114 78.3759 2.29526 79.6298 3.47362 80.523C4.65197 81.4162 6.08999 81.8997 7.56861 81.9H116.649C118.127 81.8997 119.565 81.4162 120.744 80.523C121.922 79.6298 122.776 78.3759 123.176 76.9523C123.576 75.5288 123.499 74.0136 122.958 72.6375C122.417 71.2615 121.441 70.1 120.179 69.33ZM39.4986 34.26C40.463 33.1915 41.4952 32.186 42.5886 31.25C47.7138 26.9586 54.184 24.6048 60.8686 24.6H107.389V23.6C107.39 21.8266 107.043 20.0703 106.365 18.4316C105.687 16.7928 104.693 15.3039 103.439 14.0499C102.185 12.796 100.696 11.8016 99.057 11.1238C97.4183 10.4461 95.662 10.0981 93.8886 10.1H53.3186C52.5237 10.0976 51.762 9.78077 51.1999 9.21867C50.6378 8.65658 50.321 7.89489 50.3186 7.09998V5.09998C50.321 4.30506 50.6378 3.54337 51.1999 2.98128C51.762 2.41918 52.5237 2.10235 53.3186 2.09998H93.9886C99.6639 2.10686 105.105 4.36508 109.117 8.37903C113.129 12.393 115.384 17.8347 115.389 23.51V42.36H34.4786C35.6791 39.3941 37.3768 36.6548 39.4986 34.26ZM32.3886 53.09C32.3861 50.1263 32.8484 47.1805 33.7586 44.36H115.399V53.76C115.399 54.5556 115.083 55.3187 114.52 55.8813C113.957 56.4439 113.194 56.76 112.399 56.76H35.3886C34.593 56.76 33.8299 56.4439 33.2673 55.8813C32.7047 55.3187 32.3886 54.5556 32.3886 53.76V53.09ZM2.78861 63.54C2.7902 62.2727 3.29431 61.0578 4.19039 60.1618C5.08647 59.2657 6.30136 58.7616 7.56861 58.76H116.649C117.918 58.76 119.135 59.2641 120.032 60.1615C120.929 61.0588 121.434 62.2759 121.434 63.545C121.434 64.814 120.929 66.0311 120.032 66.9285C119.135 67.8258 117.918 68.33 116.649 68.33H7.56861C6.94012 68.3297 6.31785 68.2056 5.73738 67.9646C5.15691 67.7237 4.62963 67.3707 4.18569 66.9258C3.74175 66.481 3.38985 65.9529 3.15013 65.372C2.91041 64.791 2.78756 64.1685 2.78861 63.54ZM116.649 79.9H7.56861C6.29955 79.9 5.08247 79.3958 4.1851 78.4985C3.28774 77.6011 2.78361 76.384 2.78361 75.115C2.78361 73.8459 3.28774 72.6288 4.1851 71.7315C5.08247 70.8341 6.29955 70.33 7.56861 70.33H116.649C117.918 70.33 119.135 70.8341 120.032 71.7315C120.929 72.6288 121.434 73.8459 121.434 75.115C121.434 76.384 120.929 77.6011 120.032 78.4985C119.135 79.3958 117.918 79.9 116.649 79.9Z" fill="black"/>
</svg>
