<svg width="116" height="97" viewBox="0 0 116 97" fill="none" xmlns="http://www.w3.org/2000/svg">
<path d="M112.419 22.29L73.0386 2.26002C71.8554 1.66283 70.4836 1.55906 69.224 1.97143C67.9644 2.38381 66.9196 3.2787 66.3186 4.46002L64.9686 7.12002C60.9873 3.65432 56.1118 1.3777 50.8986 0.550017C43.0886 -0.819983 35.5186 0.720019 30.9986 4.61002C29.2968 4.36632 27.575 4.29262 25.8586 4.39002C22.0951 4.58402 18.4164 5.57955 15.0686 7.31002C11.7177 9.06764 8.77134 11.5065 6.41862 14.47C2.64165 19.239 0.605289 25.1541 0.646236 31.2374C0.687182 37.3207 2.80298 43.2079 6.64381 47.9255C10.4846 52.6432 15.8205 55.9088 21.7691 57.1825C27.7177 58.4561 33.9229 57.6615 39.3586 54.93C39.914 54.6598 40.5404 54.5714 41.1489 54.6773C41.7575 54.7832 42.3172 55.078 42.7486 55.52L59.0986 71.87L55.2486 75.73C54.8219 76.1477 54.4841 76.6474 54.2555 77.1991C54.027 77.7507 53.9124 78.3429 53.9186 78.94C53.918 79.5843 54.054 80.2214 54.3178 80.8092C54.5815 81.397 54.9669 81.9221 55.4486 82.35C56.3493 83.1099 57.5048 83.4996 58.6817 83.4402C59.8586 83.3808 60.9691 82.8768 61.7886 82.03L65.5286 78.3L68.5286 81.31L60.6586 89.18C60.2351 89.5996 59.9001 90.0999 59.6734 90.6513C59.4467 91.2026 59.3328 91.7939 59.3386 92.39C59.338 93.0343 59.474 93.6714 59.7378 94.2592C60.0015 94.847 60.3869 95.3722 60.8686 95.8C61.6867 96.5111 62.7347 96.9019 63.8186 96.9C65.0919 96.8934 66.3108 96.3829 67.2086 95.48L74.9586 87.73L79.1786 91.95C80.3147 93.1095 81.8381 93.8096 83.4579 93.9166C85.0776 94.0236 86.6799 93.53 87.9586 92.53C88.6492 91.9601 89.2131 91.2523 89.6143 90.4518C90.0155 89.6514 90.2451 88.776 90.2884 87.8817C90.3317 86.9874 90.1878 86.0939 89.8658 85.2584C89.5438 84.423 89.0509 83.664 88.4186 83.03L51.8286 46.44C51.3848 46.0054 51.0896 45.4415 50.9855 44.8291C50.8813 44.2167 50.9734 43.587 51.2486 43.03C53.3884 38.7816 54.3452 34.0356 54.0186 29.29C54.6186 29.23 55.2086 29.16 55.7886 29.07C56.2432 30.1597 57.0734 31.0503 58.1286 31.58L97.5086 51.61C98.2081 51.9688 98.9825 52.1572 99.7686 52.16C100.298 52.1559 100.824 52.0717 101.329 51.91C101.953 51.7073 102.53 51.3828 103.028 50.9554C103.526 50.528 103.934 50.0061 104.229 49.42L114.609 29.01C115.209 27.8284 115.315 26.4568 114.904 25.1967C114.494 23.9367 113.6 22.8912 112.419 22.29ZM49.4586 42.13C48.9951 43.0629 48.8384 44.1184 49.0108 45.1457C49.1832 46.173 49.676 47.1196 50.4186 47.85L87.0086 84.44C87.4402 84.8792 87.7773 85.4021 87.9992 85.9765C88.221 86.551 88.3229 87.1647 88.2986 87.78C88.2698 88.399 88.1107 89.0049 87.8315 89.558C87.5523 90.1112 87.1594 90.5992 86.6786 90.99C85.7851 91.6769 84.6695 92.0099 83.5456 91.925C82.4218 91.8401 81.3688 91.3434 80.5886 90.53L74.9586 84.9L65.7886 94.06C65.3288 94.5419 64.7049 94.8339 64.0403 94.8784C63.3757 94.9228 62.7185 94.7164 62.1986 94.3C61.9387 94.0695 61.7284 93.7884 61.5808 93.4739C61.4332 93.1594 61.3512 92.8181 61.34 92.4708C61.3288 92.1236 61.3885 91.7777 61.5155 91.4543C61.6425 91.1309 61.8341 90.8368 62.0786 90.59L71.3586 81.31L65.5286 75.47L60.3786 80.62C59.9142 81.0985 59.2884 81.3871 58.623 81.4296C57.9576 81.4721 57.3001 81.2655 56.7786 80.85C56.5187 80.6195 56.3084 80.3384 56.1608 80.0239C56.0132 79.7094 55.9312 79.3681 55.92 79.0208C55.9088 78.6736 55.9685 78.3277 56.0955 78.0043C56.2225 77.6809 56.4141 77.3868 56.6586 77.14L61.9286 71.87L44.1686 54.11C43.4394 53.3691 42.4953 52.8766 41.4703 52.7025C40.4454 52.5284 39.3917 52.6815 38.4586 53.14C33.7967 55.4737 28.5156 56.2714 23.3725 55.4186C18.2293 54.5659 13.4882 52.1066 9.82885 48.3933C6.16952 44.68 3.7799 39.9034 3.00259 34.7483C2.22528 29.5932 3.10018 24.3243 5.50188 19.6971C7.90358 15.0699 11.7087 11.3219 16.3718 8.99057C21.0348 6.65922 26.3163 5.8642 31.4591 6.71949C36.6018 7.57477 41.3417 10.0364 44.9992 13.7516C48.6567 17.4667 51.0439 22.2445 51.8186 27.4C49.9551 27.4164 48.0941 27.2624 46.2586 26.94C45.1588 26.7468 44.0705 26.4931 42.9986 26.18C41.738 22.1072 38.945 18.6832 35.2086 16.6298C31.4723 14.5765 27.0845 14.0544 22.9706 15.1736C18.8567 16.2928 15.3383 18.9659 13.1571 22.6292C10.976 26.2924 10.3027 30.6595 11.2792 34.8096C12.2557 38.9597 14.8056 42.5684 18.3914 44.8747C21.9771 47.181 26.3184 48.0048 30.4997 47.1722C34.681 46.3396 38.3756 43.9157 40.8044 40.4118C43.2332 36.9078 44.2063 32.5976 43.5186 28.39C44.2986 28.59 45.0986 28.77 45.9086 28.91C47.925 29.2667 49.9712 29.4275 52.0186 29.39C52.3249 33.7895 51.4406 38.1903 49.4586 42.13ZM41.3586 27.76C41.9318 30.1993 41.8577 32.7459 41.1438 35.1478C40.4299 37.5496 39.1008 39.7232 37.2883 41.4533C35.4758 43.1834 33.2427 44.4099 30.8103 45.0114C28.3778 45.6129 25.8305 45.5684 23.4205 44.8824C21.0106 44.1964 18.8217 42.8927 17.0706 41.1004C15.3196 39.3081 14.0672 37.0894 13.4375 34.6642C12.8078 32.2389 12.8227 29.6912 13.4806 27.2734C14.1386 24.8557 15.4168 22.6518 17.1886 20.88C19.9886 18.08 23.0886 16.93 27.7986 16.68C29.6886 21.46 34.8286 25.59 41.3586 27.76ZM30.1186 16.93C32.4142 17.3806 34.5654 18.3837 36.3862 19.8526C38.207 21.3214 39.6426 23.2117 40.5686 25.36C35.7186 23.46 31.8986 20.43 30.1186 16.93ZM55.9386 24.86C55.5799 25.5595 55.3914 26.3339 55.3886 27.12C54.8786 27.2 54.3486 27.26 53.8186 27.3C53.0639 22.0089 50.7392 17.0659 47.1452 13.11C43.5513 9.15419 38.8533 6.36741 33.6586 5.11002C37.8086 2.41002 44.1686 1.39002 50.5586 2.52002C55.5846 3.29744 60.268 5.5452 64.0186 8.98002L55.9386 24.86ZM112.829 28.11L102.449 48.51C102.273 48.8632 102.029 49.1778 101.73 49.4353C101.431 49.6929 101.084 49.8883 100.709 50.01C99.9512 50.2525 99.1289 50.1878 98.4186 49.83L59.0386 29.8C58.5343 29.5448 58.1117 29.1533 57.8186 28.67C62.4486 27.57 66.1886 25.26 68.1986 22.13C68.4356 22.1781 68.6768 22.2015 68.9186 22.2C69.4363 22.2012 69.9481 22.0901 70.4186 21.8743C70.8892 21.6584 71.3073 21.3431 71.6441 20.95C71.9809 20.5568 72.2284 20.0953 72.3695 19.5972C72.5106 19.0992 72.5419 18.5764 72.4613 18.065C72.3807 17.5537 72.1902 17.0659 71.9027 16.6353C71.6153 16.2048 71.2378 15.8418 70.7964 15.5713C70.355 15.3008 69.8602 15.1293 69.3461 15.0687C68.832 15.008 68.3108 15.0597 67.8186 15.22C67.3706 15.3639 66.9555 15.5949 66.5972 15.8998C66.2388 16.2047 65.9443 16.5775 65.7306 16.9966C65.5168 17.4158 65.388 17.8731 65.3517 18.3422C65.3153 18.8113 65.372 19.2829 65.5186 19.73C65.705 20.2834 66.0164 20.7864 66.4286 21.2C64.7086 23.83 61.4686 25.78 57.4286 26.74C57.4667 26.402 57.5649 26.0735 57.7186 25.77L68.0986 5.36002C68.4776 4.66786 69.0964 4.13799 69.8386 3.87002C70.5966 3.63279 71.417 3.69727 72.1286 4.05002L111.509 24.07C112.219 24.4308 112.758 25.0591 113.005 25.8167C113.253 26.5743 113.189 27.3992 112.829 28.11ZM67.5086 17.9C67.5678 17.7818 67.6454 17.6738 67.7386 17.58C67.7286 17.77 67.4186 19.12 67.4186 19.11C67.2876 18.7106 67.32 18.2756 67.5086 17.9ZM69.1786 20.18C69.3833 19.6251 69.5372 19.0527 69.6386 18.47C69.7088 18.0803 69.7489 17.6858 69.7586 17.29C70.0302 17.4597 70.2435 17.7081 70.3703 18.0021C70.4971 18.2961 70.5313 18.6217 70.4683 18.9356C70.4053 19.2496 70.2481 19.5368 70.0177 19.7591C69.7873 19.9814 69.4946 20.1283 69.1786 20.18Z" fill="black"/>
</svg>
