<svg width="98" height="120" viewBox="0 0 98 120" fill="none" xmlns="http://www.w3.org/2000/svg">
<path d="M49.1087 96.013C44.9143 96.0132 40.814 94.7695 37.3264 92.4392C33.8389 90.1089 31.1207 86.7967 29.5157 82.9215C27.9107 79.0463 27.4909 74.7821 28.3095 70.6683C29.1281 66.5546 31.1483 62.7759 34.1146 59.8103C37.0809 56.8448 40.86 54.8255 44.974 54.0078C49.088 53.1902 53.352 53.6109 57.2269 55.2169C61.1017 56.8228 64.4133 59.5417 66.7427 63.0299C69.0722 66.518 70.3149 70.6186 70.3137 74.813C70.3058 80.434 68.069 85.8225 64.0939 89.7967C60.1187 93.7709 54.7298 96.0064 49.1087 96.013ZM49.1087 55.6C45.3099 55.5988 41.596 56.7242 38.4368 58.8339C35.2776 60.9436 32.815 63.9427 31.3604 67.452C29.9059 70.9614 29.5247 74.8233 30.265 78.5492C31.0054 82.2752 32.8342 85.698 35.5199 88.3846C38.2057 91.0712 41.6279 92.901 45.3536 93.6425C49.0794 94.3841 52.9414 94.0041 56.4512 92.5506C59.961 91.0971 62.9609 88.6355 65.0715 85.4769C67.1822 82.3184 68.3087 78.6049 68.3087 74.806C68.3032 69.715 66.2787 64.834 62.6794 61.2336C59.0801 57.6331 54.1997 55.6072 49.1087 55.6Z" fill="black"/>
<path d="M23.8587 38.9H13.3947C12.599 38.9 11.8359 38.584 11.2733 38.0214C10.7107 37.4588 10.3947 36.6957 10.3947 35.9V31.735C10.3947 30.9394 10.7107 30.1763 11.2733 29.6137C11.8359 29.0511 12.599 28.735 13.3947 28.735H23.8587C24.6543 28.735 25.4174 29.0511 25.98 29.6137C26.5426 30.1763 26.8587 30.9394 26.8587 31.735V35.9C26.8587 36.6957 26.5426 37.4588 25.98 38.0214C25.4174 38.584 24.6543 38.9 23.8587 38.9ZM13.3947 30.735C13.1294 30.735 12.8751 30.8404 12.6875 31.0279C12.5 31.2155 12.3947 31.4698 12.3947 31.735V35.9C12.3947 36.1653 12.5 36.4196 12.6875 36.6072C12.8751 36.7947 13.1294 36.9 13.3947 36.9H23.8587C24.1239 36.9 24.3782 36.7947 24.5658 36.6072C24.7533 36.4196 24.8587 36.1653 24.8587 35.9V31.735C24.8587 31.4698 24.7533 31.2155 24.5658 31.0279C24.3782 30.8404 24.1239 30.735 23.8587 30.735H13.3947Z" fill="black"/>
<path d="M39.0957 38.9H34.9297C34.134 38.9 33.371 38.584 32.8084 38.0214C32.2458 37.4588 31.9297 36.6957 31.9297 35.9V31.735C31.9297 30.9394 32.2458 30.1763 32.8084 29.6137C33.371 29.0511 34.134 28.735 34.9297 28.735H39.0957C39.8913 28.735 40.6544 29.0511 41.217 29.6137C41.7796 30.1763 42.0957 30.9394 42.0957 31.735V35.9C42.0957 36.6957 41.7796 37.4588 41.217 38.0214C40.6544 38.584 39.8913 38.9 39.0957 38.9ZM34.9297 30.734C34.6645 30.734 34.4101 30.8394 34.2226 31.0269C34.035 31.2145 33.9297 31.4688 33.9297 31.734V35.9C33.9297 36.1653 34.035 36.4196 34.2226 36.6072C34.4101 36.7947 34.6645 36.9 34.9297 36.9H39.0957C39.3609 36.9 39.6153 36.7947 39.8028 36.6072C39.9903 36.4196 40.0957 36.1653 40.0957 35.9V31.735C40.0957 31.4698 39.9903 31.2155 39.8028 31.0279C39.6153 30.8404 39.3609 30.735 39.0957 30.735L34.9297 30.734Z" fill="black"/>
<path d="M92.3087 19.34H87.6787C88.1863 18.7388 88.5624 18.0379 88.7828 17.2825C89.0032 16.5271 89.0631 15.734 88.9585 14.9541C88.854 14.1742 88.5873 13.4248 88.1757 12.7541C87.7641 12.0835 87.2167 11.5064 86.5687 11.06C87.5595 10.3779 88.3061 9.39666 88.6994 8.25983C89.0926 7.123 89.1119 5.89018 88.7543 4.74162C88.3968 3.59305 87.6812 2.58898 86.7122 1.8762C85.7432 1.16341 84.5716 0.779307 83.3687 0.78003H14.8487C13.6458 0.779307 12.4742 1.16341 11.5051 1.8762C10.5361 2.58898 9.82057 3.59305 9.46304 4.74162C9.10551 5.89018 9.12477 7.123 9.51803 8.25983C9.91128 9.39666 10.6579 10.3779 11.6487 11.06C10.8972 11.5786 10.2827 12.2717 9.85773 13.0798C9.43277 13.8879 9.21007 14.787 9.20869 15.7C9.20615 17.0345 9.68151 18.3257 10.5487 19.34H5.90869C4.58326 19.3421 3.31272 19.8696 2.37549 20.8068C1.43827 21.7441 0.910807 23.0146 0.908691 24.34V114.22C0.912648 115.545 1.4407 116.814 2.37753 117.751C3.31435 118.688 4.58383 119.216 5.90869 119.22H92.3087C93.6336 119.216 94.903 118.688 95.8399 117.751C96.7767 116.814 97.3047 115.545 97.3087 114.22V24.34C97.3066 23.0146 96.7791 21.7441 95.8419 20.8068C94.9047 19.8696 93.6341 19.3421 92.3087 19.34ZM11.2087 6.42003C11.2105 5.45521 11.5946 4.53044 12.2769 3.84821C12.9591 3.16597 13.8839 2.78188 14.8487 2.78003H83.3687C83.8467 2.78003 84.32 2.87418 84.7617 3.05711C85.2033 3.24004 85.6046 3.50816 85.9426 3.84616C86.2806 4.18417 86.5487 4.58544 86.7316 5.02706C86.9145 5.46869 87.0087 5.94202 87.0087 6.42003C87.0087 6.89804 86.9145 7.37137 86.7316 7.813C86.5487 8.25462 86.2806 8.65589 85.9426 8.9939C85.6046 9.3319 85.2033 9.60003 84.7617 9.78295C84.32 9.96588 83.8467 10.06 83.3687 10.06H14.8487C13.8833 10.06 12.9575 9.67653 12.2748 8.9939C11.5922 8.31127 11.2087 7.38542 11.2087 6.42003ZM14.8487 12.06H83.3687C83.8467 12.06 84.32 12.1542 84.7617 12.3371C85.2033 12.52 85.6046 12.7882 85.9426 13.1262C86.2806 13.4642 86.5487 13.8654 86.7316 14.3071C86.9145 14.7487 87.0087 15.222 87.0087 15.7C87.0087 16.178 86.9145 16.6514 86.7316 17.093C86.5487 17.5346 86.2806 17.9359 85.9426 18.2739C85.6046 18.6119 85.2033 18.88 84.7617 19.063C84.32 19.2459 83.8467 19.34 83.3687 19.34H14.8487C13.8833 19.34 12.9575 18.9565 12.2748 18.2739C11.5922 17.5913 11.2087 16.6654 11.2087 15.7C11.2087 14.7346 11.5922 13.8088 12.2748 13.1262C12.9575 12.4435 13.8833 12.06 14.8487 12.06ZM95.3087 114.22C95.3063 115.015 94.9895 115.777 94.4274 116.339C93.8653 116.901 93.1036 117.218 92.3087 117.22H5.90869C5.11377 117.218 4.35209 116.901 3.78999 116.339C3.2279 115.777 2.91106 115.015 2.90869 114.22V24.34C2.91106 23.5451 3.2279 22.7834 3.78999 22.2213C4.35209 21.6592 5.11377 21.3424 5.90869 21.34H92.3087C93.1036 21.3424 93.8653 21.6592 94.4274 22.2213C94.9895 22.7834 95.3063 23.5451 95.3087 24.34V114.22Z" fill="black"/>
<path d="M82.2287 67.62H78.1987C77.9452 67.6175 77.6927 67.6512 77.4487 67.72C75.7196 60.8054 71.5216 54.7618 65.6455 50.7278C59.7694 46.6938 52.621 44.9479 45.5469 45.819C38.4728 46.6901 31.9614 50.118 27.2395 55.457C22.5176 60.796 19.9111 67.6775 19.9111 74.805C19.9111 81.9326 22.5176 88.8141 27.2395 94.1531C31.9614 99.4921 38.4728 102.92 45.5469 103.791C52.621 104.662 59.7694 102.916 65.6455 98.8823C71.5216 94.8483 75.7196 88.8046 77.4487 81.89C77.6927 81.9589 77.9452 81.9926 78.1987 81.99H82.2287C83.0244 81.99 83.7874 81.674 84.35 81.1114C84.9126 80.5488 85.2287 79.7857 85.2287 78.99V70.62C85.2287 69.8244 84.9126 69.0613 84.35 68.4987C83.7874 67.9361 83.0244 67.62 82.2287 67.62ZM76.1887 77.51C76.1387 77.96 76.0787 78.41 76.0187 78.85C75.9587 79.29 75.8787 79.74 75.7787 80.18C75.7587 80.3 75.7387 80.42 75.7087 80.54C74.2952 87.1091 70.5014 92.9231 65.0578 96.8625C59.6143 100.802 52.9058 102.588 46.224 101.877C39.5423 101.167 33.3597 98.0091 28.8666 93.0128C24.3735 88.0164 21.8877 81.5345 21.8877 74.815C21.8877 68.0956 24.3735 61.6137 28.8666 56.6173C33.3597 51.621 39.5423 48.4635 46.224 47.7527C52.9058 47.042 59.6143 48.8282 65.0578 52.7676C70.5014 56.707 74.2952 62.5209 75.7087 69.09L75.7787 69.43V69.44C75.8787 69.88 75.9587 70.32 76.0187 70.76C76.0787 71.2 76.1387 71.65 76.1887 72.1C76.2687 73 76.3187 73.9 76.3187 74.81C76.3187 75.72 76.2687 76.61 76.1887 77.51ZM83.2287 78.99C83.23 79.1217 83.2051 79.2524 83.1553 79.3743C83.1055 79.4962 83.0319 79.607 82.9388 79.7001C82.8457 79.7933 82.7349 79.8669 82.613 79.9166C82.491 79.9664 82.3604 79.9914 82.2287 79.99H78.1987C78.0836 79.9889 77.9693 79.972 77.8587 79.94C77.8687 79.87 77.8787 79.81 77.8887 79.74C77.9487 79.44 77.9887 79.14 78.0287 78.84C78.0487 78.71 78.0687 78.58 78.0787 78.46C78.1287 78.1 78.1687 77.74 78.1987 77.38C78.2787 76.52 78.3187 75.66 78.3187 74.81C78.3187 73.96 78.2787 73.08 78.1987 72.22C78.1687 71.87 78.1287 71.52 78.0787 71.17C78.0687 71.04 78.0487 70.91 78.0287 70.78C77.9887 70.48 77.9487 70.18 77.8887 69.88C77.8787 69.81 77.8687 69.75 77.8587 69.68C77.9676 69.64 78.0827 69.6196 78.1987 69.62H82.2287C82.4939 69.62 82.7483 69.7254 82.9358 69.9129C83.1234 70.1005 83.2287 70.3548 83.2287 70.62V78.99Z" fill="black"/>
</svg>
