<svg width="128" height="128" viewBox="0 0 128 128" fill="none" xmlns="http://www.w3.org/2000/svg">
<path d="M127.4 59.2C127.3 59.1 124.6 57.9 122.3 59.3C121.1 60 120.3 61.3 119.8 63C119.2 59.9 118.4 57.5 117.3 56.4C116.8 55.9 116.3 55.7 115.9 55.6C119.1 53.4 121.3 49.5 121.3 45.1C121.3 38.2 116.2 32.7 109.8 32.7C103.4 32.7 98.3 38.3 98.3 45.1C98.3 51.7 103.1 57.1 109.1 57.5C107.4 58.2 105.8 59 105.3 59.2C105.1 59.3 104.9 59.5 104.8 59.7C103.6 62.2 100.7 68.9 100 77.2H98.7L92.5 54.9C92.4 54.5 92 54.2 91.5 54.2H82.8L80.8 41.5C80.8 40.5 80.4 39.7 79.9 39C79.9 38.7 79.8 38.5 79.6 38.3C79.2 38 78.8 37.8 78.3 37.6C77.7 37.2 77 36.9 76.3 36.6L68.9 33.3C71 31.6 72.7 29 73.3 26.5C74.8 21.8 74.8 18.5 73.5 16.7C73 16 72.4 15.7 72 15.6C71 13.8 68.5 12.7 65.3 12.5C61.4 12.3 56.2 13.6 54 17.9C52.1 21.6 53.6 25.3 53.8 25.8C54.4 28.8 56.3 31.6 58.7 33.3L49.7 37.4C48 37.8 46.8 39.4 46.7 41.4L44.7 54.1H36C35.6 54.1 35.2 54.4 35 54.8L28.8 77.1H27.5C26.8 68.8 24 62.2 22.7 59.6C22.6 59.4 22.4 59.2 22.2 59.1C21.6 58.8 20.1 58.1 18.4 57.4C24.4 57 29.2 51.6 29.2 45C29.2 38.1 24.1 32.6 17.7 32.6C11.3 32.6 6.6 38.2 6.6 45.1C6.6 49.5 8.8 53.4 12 55.6C11.6 55.7 11.1 55.9 10.6 56.4C9.5 57.5 8.7 60 8.1 63C7.6 61.3 6.8 60 5.6 59.3C3.3 57.8 0.6 59.1 0.5 59.2C0.2 59.4 0 59.7 0 60.1V100.1C0 103.8 3 106.8 6.7 106.8H20.9L19.1 113.2V113.3C19.1 113.4 19.1 113.4 19.1 113.5V119.1C19.1 119.7 19.5 120.1 20.1 120.1H107.9C108.5 120.1 108.9 119.7 108.9 119.1V113.5C108.9 113.4 108.9 113.4 108.9 113.3V113.2L107.1 106.8H121.3C125 106.8 128 103.8 128 100.1V60.1C128 59.7 127.8 59.4 127.4 59.2ZM103.2 92.6H117.8C117.7 95.1 117.1 96.4 115.6 97.1C113.7 98.1 110 98.3 104.8 98.3L103.2 92.6ZM100.5 45.1C100.5 39.4 104.7 34.7 110 34.7C115.2 34.7 119.5 39.4 119.5 45.1C119.5 50.8 115.3 55.5 110 55.5C104.7 55.5 100.5 50.8 100.5 45.1ZM106.6 60.9C109.4 59.5 114.1 57.5 115.4 57.5C115.5 57.5 115.6 57.5 115.9 57.8C118.1 60.1 119 70.2 119.2 80.2C119.2 84.9 119.2 88.9 119.1 90.7H102.6L101.6 87.1L113.4 86.9C113.9 86.9 114.3 86.5 114.4 86L116.5 69.7C116.6 69.2 116.2 68.7 115.6 68.6C115 68.5 114.6 68.9 114.5 69.5L112.5 84.9L95.2 85.2V79.2H98.1L105.3 79.1C105.8 79.1 106.2 78.7 106.3 78.2L108.6 62C108.7 61.5 108.3 60.9 107.8 60.9C107.2 60.8 106.7 61.2 106.7 61.7L104.5 77H102.2C102.9 69.4 105.5 63.1 106.6 60.9ZM81.3 55.8V59.6H67V56.9C67.2 56.6 67.3 56.3 67.1 56C67.1 55.9 67 55.9 67 55.8V55.6H76.9C77.5 55.6 77.9 55.2 77.9 54.6C77.9 54 77.5 53.6 76.9 53.6H76.4L75.4 44.6C75.3 44.1 74.8 43.7 74.3 43.7C73.8 43.8 73.4 44.3 73.4 44.8L74.4 53.6H66C65.9 53.6 65.9 53.6 65.8 53.6C69 46.7 70.2 39.3 70.6 36.2L77.7 39.3H77.8C79 40.1 79.2 40.8 79.2 41.5V41.6L81.3 55.8ZM63 59.6V58.7L64.9 57.9V59.6H63V59.6ZM64.5 35.2L65 50.3C64.7 51 64.4 51.7 64.1 52.5C63.8 51.8 63.5 51 63.2 50.3L63.6 35.2H64.5V35.2ZM63.1 55.3C63.1 55.4 63.2 55.4 63.2 55.4C63.2 55.4 63.2 55.4 63.2 55.5C63.3 55.6 63.4 55.7 63.5 55.7H63.6H63.7C63.8 55.7 63.9 55.7 64 55.7C64.1 55.7 64.3 55.7 64.4 55.6C64.5 55.5 64.6 55.5 64.7 55.4C64.7 55.4 64.7 55.4 64.7 55.3L64.8 55.2C64.8 55.1 64.9 55.1 64.9 55V55.5L63 56.5V55.2C63.1 55.2 63.1 55.2 63.1 55.3ZM68.6 35.2C68.5 36.6 68 40.4 66.8 44.8L66.5 34.7C66.7 34.6 66.9 34.5 67.1 34.5L68.6 35.2ZM56 18.7C57.7 15.4 62 14.2 65.4 14.4C68 14.6 70.1 15.5 70.6 16.8C70.7 17.2 71.1 17.4 71.5 17.4C71.5 17.4 71.9 17.4 72.2 17.9C72.6 18.4 73.2 20 72 24.4C71.9 24.3 71.8 24.2 71.7 24.1C71.6 24 71.5 23.9 71.3 23.8C71.2 23.7 71.2 23.7 71.1 23.6C70.4 22.9 69.6 22.1 68.9 21.3C68.9 21.3 68.9 21.3 68.8 21.2C68.6 21 68.4 20.7 68.3 20.4C68.3 20.3 68.2 20.3 68.2 20.2C68 19.9 67.9 19.6 67.8 19.3C67.8 19.2 67.7 19.1 67.7 19.1C67.5 18.9 67.3 18.8 67.1 18.7C67 18.7 67 18.7 66.9 18.7C66.8 18.7 66.7 18.7 66.5 18.8C66.5 18.8 66.5 18.8 66.4 18.8C66.3 18.9 66.2 18.9 66.1 19C66.1 19 66 19.1 65.7 19.4C65.7 19.4 65.7 19.4 65.6 19.5C65.5 19.6 65.5 19.6 65.4 19.7L65.3 19.8C65.2 19.9 65.1 19.9 65 20C64.9 20 64.9 20.1 64.8 20.1C64.7 20.2 64.6 20.2 64.5 20.3C64.4 20.3 64.4 20.4 64.3 20.5C64.2 20.6 64.1 20.7 64 20.7C63.9 20.8 63.8 20.8 63.7 20.9C63.6 21 63.5 21.1 63.3 21.1C63.2 21.2 63.1 21.2 63 21.3C62.9 21.4 62.7 21.5 62.6 21.5C62.5 21.6 62.4 21.6 62.3 21.7C62.1 21.8 62 21.9 61.8 21.9C61.7 22 61.5 22 61.4 22.1C61.2 22.2 61.1 22.3 60.9 22.3C60.8 22.4 60.6 22.4 60.5 22.5C60.3 22.6 60.1 22.7 59.9 22.7C59.7 22.8 59.6 22.8 59.4 22.9C59.2 23 59 23 58.8 23.1C58.6 23.2 58.5 23.2 58.3 23.3C58.1 23.4 57.9 23.4 57.6 23.5C57.4 23.6 57.2 23.6 57 23.7C57 24 56.8 24 56.6 24.1C56.4 24.1 56.2 24.2 56 24.2C55.9 24.2 55.8 24.2 55.7 24.3C55.3 23.2 54.9 20.9 56 18.7ZM56.2 26.2C56.9 26.1 57.5 25.9 58.1 25.8C58.2 25.8 58.2 25.8 58.3 25.8C58.9 25.6 59.4 25.5 59.9 25.3C60 25.3 60 25.3 60.1 25.2C60.6 25 61.1 24.8 61.5 24.7C61.6 24.7 61.6 24.6 61.7 24.6C62.1 24.4 62.5 24.2 62.9 24C63 24 63 23.9 63.1 23.9C63.5 23.7 63.8 23.5 64.2 23.3L64.3 23.2C64.6 23 64.9 22.8 65.2 22.6C65.2 22.6 65.3 22.6 65.3 22.5C65.6 22.3 65.8 22.1 66.1 22C66.1 22 66.1 22 66.2 22C66.4 21.8 66.6 21.7 66.8 21.5C66.9 21.7 67.1 22 67.3 22.2C67.4 22.3 67.4 22.4 67.5 22.4C67.6 22.6 67.8 22.8 67.9 23C68 23.1 68.1 23.2 68.2 23.3C68.3 23.4 68.4 23.5 68.5 23.7C68.6 23.8 68.7 23.9 68.8 24C68.9 24.1 69 24.2 69.1 24.3C69.3 24.5 69.5 24.7 69.7 24.8C69.8 24.9 69.8 24.9 69.9 25C70.3 25.4 70.7 25.7 71 25.9L71.1 26C71.3 26.1 71.4 26.3 71.6 26.4L71.7 26.5C71.7 26.5 71.7 26.5 71.8 26.5C70.7 29.8 67.7 33.2 64.4 33.2C61.1 33.2 57.4 30.3 56.2 26.2ZM61.6 34.8L61.4 44.5C60.2 40 59.8 36.5 59.6 35.2L61 34.5C61.2 34.6 61.4 34.7 61.6 34.8ZM48.9 41.7V41.6C48.9 40.4 49.6 39.6 50.4 39.5C50.5 39.5 50.6 39.5 50.6 39.4L57.6 36.2C57.9 38.7 58.8 44.4 61.2 51C61.5 51.9 61.9 52.8 62.3 53.7C62.2 53.7 62.1 53.6 62 53.6H53.6L54.6 44.8C54.7 44.3 54.3 43.8 53.7 43.7C53.2 43.6 52.7 44 52.6 44.6L51.6 53.6H51.1C50.5 53.6 50.1 54 50.1 54.6C50.1 55.2 50.5 55.6 51.1 55.6H61V58V59.6H46.7V55.8L48.9 41.7ZM37 56.1H44.7V60.5C44.7 61.1 45.1 61.5 45.7 61.5H62H66H66.2H82.3C82.9 61.5 83.3 61.1 83.3 60.5V56.1H91L96.8 77.1H94.2C93.7 77.1 93.3 77.5 93.2 78H88.9C87.3 78 86.1 79.3 86.1 80.8V84C86.1 85.6 87.4 86.8 88.9 86.8H93.4C93.4 86.8 93.4 86.9 93.5 86.9C93.7 87.1 93.9 87.2 94.2 87.2L99.5 87.1L106.5 112.5H21.4L28.4 87.1L33.7 87.2C34 87.2 34.2 87.1 34.4 86.9L34.5 86.8H39C40.6 86.8 41.8 85.5 41.8 84V80.9C41.8 79.3 40.5 78.1 39 78.1H34.7C34.6 77.6 34.2 77.2 33.7 77.2H31.1L37 56.1ZM88.9 84.8C88.5 84.8 88.1 84.4 88.1 84V80.9C88.1 80.5 88.5 80.1 88.9 80.1H93.2V84.8H88.9V84.8ZM23.2 98.4C18 98.4 14.3 98.1 12.4 97.2C10.9 96.5 10.3 95.2 10.2 92.7H24.8L23.2 98.4ZM39.1 80.1C39.5 80.1 39.9 80.5 39.9 80.9V84C39.9 84.4 39.5 84.8 39.1 84.8H34.8V80.1H39.1ZM8.6 45.1C8.6 39.4 12.8 34.7 18.1 34.7C23.3 34.7 27.6 39.4 27.6 45.1C27.6 50.8 23.4 55.5 18.1 55.5C12.9 55.5 8.6 50.8 8.6 45.1ZM12.1 57.8C12.4 57.5 12.6 57.5 12.6 57.5C13.9 57.5 18.6 59.5 21.4 60.9C22.4 63.1 25.1 69.4 25.8 77.1H23.5L21.3 61.8C21.2 61.3 20.7 60.9 20.2 61C19.7 61.1 19.3 61.6 19.4 62.1L21.7 78.3C21.8 78.8 22.2 79.2 22.7 79.2L29.9 79.3H32.8V85.3L15.5 85L13.5 69.6C13.4 69.1 12.9 68.7 12.4 68.7C11.9 68.8 11.5 69.3 11.5 69.8L13.6 86.1C13.7 86.6 14.1 87 14.6 87H26.4L25.4 90.6H8.8C8.8 88.8 8.8 84.9 8.7 80.1C9 70.2 9.9 60 12.1 57.8ZM6.7 104.8C4.1 104.8 2 102.7 2 100.1V60.8C2.6 60.6 3.7 60.5 4.6 61C6 61.9 6.7 64.2 6.7 67.8C6.7 71.9 6.7 76.3 6.7 80.2C6.6 85.8 6.7 90.4 6.8 91.7C6.8 91.8 6.8 91.8 6.8 91.9C6.8 92 6.8 92 6.8 92.1C6.8 92.2 6.9 92.2 6.9 92.3L7 92.4C7.1 92.5 7.1 92.5 7.2 92.5L7.3 92.6C7.4 92.6 7.5 92.7 7.7 92.7H8.1C8.2 95.6 8.9 97.7 11.4 99C13.6 100.1 17.2 100.4 22.6 100.5L21.4 104.9H6.7V104.8ZM106.9 118H21.1V114.4H106.9V118ZM126 100.1C126 102.7 123.9 104.8 121.3 104.8H106.5L105.3 100.4C110.7 100.4 114.3 100.1 116.5 98.9C119 97.6 119.7 95.5 119.8 92.6H120.2C120.3 92.6 120.5 92.6 120.6 92.5C120.6 92.5 120.7 92.5 120.7 92.4C120.8 92.4 120.9 92.3 120.9 92.3L121 92.2C121 92.1 121.1 92.1 121.1 92C121.1 91.9 121.1 91.9 121.1 91.8C121.1 91.7 121.1 91.7 121.1 91.6C121.1 90.4 121.3 85.7 121.2 80.1C121.2 76.2 121.2 71.8 121.2 67.7C121.2 64.2 121.9 61.8 123.3 60.9C124.2 60.3 125.3 60.5 125.9 60.7V100.1H126Z" fill="#8a6b3e"/>
</svg>
