<svg width="105" height="89" viewBox="0 0 105 89" fill="none" xmlns="http://www.w3.org/2000/svg">
<path d="M99.1647 0.919983H5.98474C4.65866 0.919983 3.38689 1.44677 2.44921 2.38445C1.51153 3.32213 0.984741 4.5939 0.984741 5.91998V75.33C0.984741 76.6561 1.51153 77.9278 2.44921 78.8655C3.38689 79.8032 4.65866 80.33 5.98474 80.33H20.7147C20.9957 80.8451 21.3273 81.3308 21.7047 81.78C22.3804 82.5752 23.2096 83.226 24.1426 83.6933C25.0756 84.1607 26.0933 84.435 27.1347 84.5C27.717 84.55 28.3025 84.55 28.8847 84.5C29.1114 85.0362 29.4072 85.5405 29.7647 86C30.5648 86.9592 31.5737 87.7228 32.7141 88.2323C33.8546 88.7419 35.0964 88.984 36.3447 88.94C39.0267 88.9373 41.6115 87.9354 43.5947 86.13C45.398 87.5158 47.6614 88.163 49.9247 87.94C53.7147 87.65 56.6047 84.56 57.2647 80.33H99.1647C100.491 80.33 101.763 79.8032 102.7 78.8655C103.638 77.9278 104.165 76.6561 104.165 75.33V5.91998C104.165 4.5939 103.638 3.32213 102.7 2.38445C101.763 1.44677 100.491 0.919983 99.1647 0.919983ZM20.3847 71.33C17.3619 71.3279 14.4635 70.1261 12.3261 67.9887C10.1886 65.8512 8.98686 62.9528 8.98474 59.93V19.32C8.98474 16.2965 10.1858 13.3969 12.3237 11.259C14.4616 9.12105 17.3613 7.91998 20.3847 7.91998C23.4082 7.91998 26.3078 9.12105 28.4458 11.259C30.5837 13.3969 31.7847 16.2965 31.7847 19.32V59.93C31.7847 62.9535 30.5837 65.8531 28.4458 67.991C26.3078 70.1289 23.4082 71.33 20.3847 71.33ZM28.3547 82.53C27.9978 82.5401 27.6406 82.5301 27.2847 82.5C25.667 82.3318 24.1732 81.5563 23.1047 80.33H28.3547C28.2695 81.0608 28.2695 81.7991 28.3547 82.53ZM30.3247 82.1C30.2742 81.5094 30.2977 80.9148 30.3947 80.33H32.7447C32.0826 81.0957 31.2551 81.7009 30.3247 82.1ZM30.9047 78.33C31.2056 77.5046 31.5735 76.7053 32.0047 75.94C32.2073 75.4547 32.5303 75.0292 32.9433 74.7037C33.3563 74.3782 33.8456 74.1635 34.3647 74.08H34.3747C34.5202 74.0725 34.6648 74.106 34.7921 74.1767C34.9194 74.2475 35.0243 74.3525 35.0947 74.48C35.4147 75.07 35.3447 76.38 34.1947 78.33H30.9047ZM38.6247 86.64C35.7347 87.41 32.8047 86.65 31.3447 84.77C31.1694 84.5447 31.0155 84.3037 30.8847 84.05C32.701 83.2994 34.2362 81.9984 35.2747 80.33H40.6747C40.7126 81.9082 41.2481 83.4342 42.2047 84.69C41.1741 85.6022 39.9501 86.2689 38.6247 86.64ZM43.5847 83.19C43.0232 82.3389 42.7083 81.349 42.6747 80.33H44.9247C44.6824 81.3663 44.2259 82.3405 43.5847 83.19ZM42.7947 78.33C43.0847 76.56 43.7547 75.74 44.1447 75.54C44.1954 75.5113 44.253 75.497 44.3111 75.4988C44.3693 75.5006 44.4259 75.5183 44.4747 75.55C44.7877 75.766 45.2147 76.61 45.1547 78.33H42.7947ZM49.7747 85.94C48.072 86.1347 46.3584 85.6813 44.9747 84.67C45.993 83.414 46.6775 81.9212 46.9647 80.33H55.2347C54.6447 83.51 52.5647 85.73 49.7747 85.94ZM102.165 75.33C102.165 76.1256 101.849 76.8887 101.286 77.4513C100.723 78.0139 99.9604 78.33 99.1647 78.33H57.4147C57.3377 76.5728 56.8441 74.859 55.9747 73.33H92.1647C93.756 73.33 95.2822 72.6978 96.4074 71.5726C97.5326 70.4474 98.1647 68.9213 98.1647 67.33V11.92C98.1647 10.3287 97.5326 8.80256 96.4074 7.67734C95.2822 6.55212 93.756 5.91998 92.1647 5.91998H47.0047C45.4134 5.91998 43.8873 6.55212 42.7621 7.67734C41.6369 8.80256 41.0047 10.3287 41.0047 11.92V67.33C41.0047 68.9213 41.6369 70.4474 42.7621 71.5726C43.8873 72.6978 45.4134 73.33 47.0047 73.33H53.6047C54.6732 74.7896 55.3013 76.5247 55.4147 78.33H47.1647C47.2147 76.25 46.6947 74.69 45.6547 73.94C45.3134 73.6803 44.9041 73.5251 44.4764 73.4931C44.0487 73.4612 43.6209 73.5539 43.2447 73.76C41.9547 74.41 41.0747 76.07 40.7847 78.33H36.4547C37.6647 75.79 37.2447 74.25 36.8447 73.51C36.6023 73.0692 36.2442 72.7031 35.8088 72.4511C35.3735 72.1991 34.8777 72.0707 34.3747 72.08H34.3647C33.487 72.1611 32.6459 72.4706 31.9248 72.9776C31.2038 73.4846 30.628 74.1715 30.2547 74.97C29.647 76.0347 29.1543 77.161 28.7847 78.33H21.9947C21.4394 76.7111 21.215 74.9972 21.3347 73.29C24.7146 73.0498 27.8779 71.5381 30.188 69.0592C32.498 66.5803 33.7832 63.3184 33.7847 59.93V19.32C33.7847 15.7661 32.373 12.3577 29.86 9.84475C27.347 7.33176 23.9386 5.91998 20.3847 5.91998C16.8308 5.91998 13.4225 7.33176 10.9095 9.84475C8.39652 12.3577 6.98474 15.7661 6.98474 19.32V59.93C6.98695 63.3006 8.25935 66.5466 10.5483 69.0208C12.8372 71.4951 15.9745 73.0159 19.3347 73.28C19.2431 74.9833 19.4357 76.69 19.9047 78.33H5.98474C5.18909 78.33 4.42603 78.0139 3.86342 77.4513C3.30081 76.8887 2.98474 76.1256 2.98474 75.33V5.91998C2.98474 5.12433 3.30081 4.36127 3.86342 3.79866C4.42603 3.23605 5.18909 2.91998 5.98474 2.91998H99.1647C99.9604 2.91998 100.723 3.23605 101.286 3.79866C101.849 4.36127 102.165 5.12433 102.165 5.91998V75.33ZM47.0047 71.33C45.9439 71.33 44.9265 70.9086 44.1763 70.1584C43.4262 69.4083 43.0047 68.3909 43.0047 67.33V11.92C43.0047 10.8591 43.4262 9.8417 44.1763 9.09156C44.9265 8.34141 45.9439 7.91998 47.0047 7.91998H92.1647C93.2256 7.91998 94.243 8.34141 94.9932 9.09156C95.7433 9.8417 96.1647 10.8591 96.1647 11.92V67.33C96.1647 68.3909 95.7433 69.4083 94.9932 70.1584C94.243 70.9086 93.2256 71.33 92.1647 71.33H47.0047Z" fill="black"/>
<path d="M86.1668 24.624H53.0038C51.9429 24.624 50.9255 24.2025 50.1754 23.4524C49.4252 22.7022 49.0038 21.6848 49.0038 20.624V17.916C49.0038 16.8551 49.4252 15.8377 50.1754 15.0875C50.9255 14.3374 51.9429 13.916 53.0038 13.916H86.1668C87.2277 13.916 88.2451 14.3374 88.9952 15.0875C89.7454 15.8377 90.1668 16.8551 90.1668 17.916V20.624C90.1655 21.6844 89.7436 22.7011 88.9938 23.4509C88.2439 24.2008 87.2272 24.6226 86.1668 24.624ZM53.0038 15.916C52.4734 15.916 51.9646 16.1267 51.5896 16.5017C51.2145 16.8768 51.0038 17.3855 51.0038 17.916V20.624C51.0038 21.1544 51.2145 21.6631 51.5896 22.0382C51.9646 22.4132 52.4734 22.624 53.0038 22.624H86.1668C86.6972 22.624 87.2059 22.4132 87.581 22.0382C87.9561 21.6631 88.1668 21.1544 88.1668 20.624V17.916C88.1668 17.3855 87.9561 16.8768 87.581 16.5017C87.2059 16.1267 86.6972 15.916 86.1668 15.916H53.0038Z" fill="black"/>
<path d="M87.0747 65.331H80.7147C79.9191 65.331 79.156 65.0149 78.5934 64.4523C78.0308 63.8897 77.7147 63.1266 77.7147 62.331V56.248C77.7147 55.4523 78.0308 54.6893 78.5934 54.1267C79.156 53.5641 79.9191 53.248 80.7147 53.248H87.0747C87.8704 53.248 88.6334 53.5641 89.196 54.1267C89.7587 54.6893 90.0747 55.4523 90.0747 56.248V62.331C90.0747 63.1266 89.7587 63.8897 89.196 64.4523C88.6334 65.0149 87.8704 65.331 87.0747 65.331ZM80.7147 55.248C80.4495 55.248 80.1952 55.3533 80.0076 55.5409C79.8201 55.7284 79.7147 55.9828 79.7147 56.248V62.331C79.7147 62.5962 79.8201 62.8506 80.0076 63.0381C80.1952 63.2256 80.4495 63.331 80.7147 63.331H87.0747C87.3399 63.331 87.5943 63.2256 87.7818 63.0381C87.9694 62.8506 88.0747 62.5962 88.0747 62.331V56.248C88.0747 55.9828 87.9694 55.7284 87.7818 55.5409C87.5943 55.3533 87.3399 55.248 87.0747 55.248H80.7147Z" fill="black"/>
<path d="M87.0747 38.992H80.7147C79.9191 38.992 79.156 38.6759 78.5934 38.1133C78.0308 37.5507 77.7147 36.7876 77.7147 35.992V29.909C77.7147 29.1133 78.0308 28.3503 78.5934 27.7877C79.156 27.2251 79.9191 26.909 80.7147 26.909H87.0747C87.8704 26.909 88.6334 27.2251 89.196 27.7877C89.7587 28.3503 90.0747 29.1133 90.0747 29.909V35.992C90.0747 36.7876 89.7587 37.5507 89.196 38.1133C88.6334 38.6759 87.8704 38.992 87.0747 38.992ZM80.7147 28.909C80.4495 28.909 80.1952 29.0144 80.0076 29.2019C79.8201 29.3894 79.7147 29.6438 79.7147 29.909V35.992C79.7147 36.2572 79.8201 36.5116 80.0076 36.6991C80.1952 36.8866 80.4495 36.992 80.7147 36.992H87.0747C87.3399 36.992 87.5943 36.8866 87.7818 36.6991C87.9694 36.5116 88.0747 36.2572 88.0747 35.992V29.909C88.0747 29.6438 87.9694 29.3894 87.7818 29.2019C87.5943 29.0144 87.3399 28.909 87.0747 28.909H80.7147Z" fill="black"/>
<path d="M87.0747 52.248H80.7147C79.9191 52.248 79.156 51.9319 78.5934 51.3693C78.0308 50.8067 77.7147 50.0437 77.7147 49.248V42.992C77.7147 42.1964 78.0308 41.4333 78.5934 40.8707C79.156 40.3081 79.9191 39.992 80.7147 39.992H87.0747C87.8704 39.992 88.6334 40.3081 89.196 40.8707C89.7587 41.4333 90.0747 42.1964 90.0747 42.992V49.248C90.0747 50.0437 89.7587 50.8067 89.196 51.3693C88.6334 51.9319 87.8704 52.248 87.0747 52.248ZM80.7147 41.992C80.4495 41.992 80.1952 42.0974 80.0076 42.2849C79.8201 42.4724 79.7147 42.7268 79.7147 42.992V49.248C79.7147 49.5132 79.8201 49.7676 80.0076 49.9551C80.1952 50.1426 80.4495 50.248 80.7147 50.248H87.0747C87.3399 50.248 87.5943 50.1426 87.7818 49.9551C87.9694 49.7676 88.0747 49.5132 88.0747 49.248V42.992C88.0747 42.7268 87.9694 42.4724 87.7818 42.2849C87.5943 42.0974 87.3399 41.992 87.0747 41.992H80.7147Z" fill="black"/>
<path d="M58.4577 65.331H52.0967C51.301 65.331 50.538 65.0149 49.9754 64.4523C49.4128 63.8897 49.0967 63.1266 49.0967 62.331V56.248C49.0967 55.4523 49.4128 54.6893 49.9754 54.1267C50.538 53.5641 51.301 53.248 52.0967 53.248H58.4577C59.2533 53.248 60.0164 53.5641 60.579 54.1267C61.1416 54.6893 61.4577 55.4523 61.4577 56.248V62.331C61.4577 63.1266 61.1416 63.8897 60.579 64.4523C60.0164 65.0149 59.2533 65.331 58.4577 65.331ZM52.0967 55.248C51.8315 55.248 51.5771 55.3533 51.3896 55.5409C51.202 55.7284 51.0967 55.9828 51.0967 56.248V62.331C51.0967 62.5962 51.202 62.8506 51.3896 63.0381C51.5771 63.2256 51.8315 63.331 52.0967 63.331H58.4577C58.7229 63.331 58.9772 63.2256 59.1648 63.0381C59.3523 62.8506 59.4577 62.5962 59.4577 62.331V56.248C59.4577 55.9828 59.3523 55.7284 59.1648 55.5409C58.9772 55.3533 58.7229 55.248 58.4577 55.248H52.0967Z" fill="black"/>
<path d="M58.4577 38.992H52.0967C51.301 38.992 50.538 38.6759 49.9754 38.1133C49.4128 37.5507 49.0967 36.7876 49.0967 35.992V29.909C49.0967 29.1133 49.4128 28.3503 49.9754 27.7877C50.538 27.2251 51.301 26.909 52.0967 26.909H58.4577C59.2533 26.909 60.0164 27.2251 60.579 27.7877C61.1416 28.3503 61.4577 29.1133 61.4577 29.909V35.992C61.4577 36.7876 61.1416 37.5507 60.579 38.1133C60.0164 38.6759 59.2533 38.992 58.4577 38.992ZM52.0967 28.909C51.8315 28.909 51.5771 29.0144 51.3896 29.2019C51.202 29.3894 51.0967 29.6438 51.0967 29.909V35.992C51.0967 36.2572 51.202 36.5116 51.3896 36.6991C51.5771 36.8866 51.8315 36.992 52.0967 36.992H58.4577C58.7229 36.992 58.9772 36.8866 59.1648 36.6991C59.3523 36.5116 59.4577 36.2572 59.4577 35.992V29.909C59.4577 29.6438 59.3523 29.3894 59.1648 29.2019C58.9772 29.0144 58.7229 28.909 58.4577 28.909H52.0967Z" fill="black"/>
<path d="M58.4577 52.248H52.0967C51.301 52.248 50.538 51.9319 49.9754 51.3693C49.4128 50.8067 49.0967 50.0437 49.0967 49.248V42.992C49.0967 42.1964 49.4128 41.4333 49.9754 40.8707C50.538 40.3081 51.301 39.992 52.0967 39.992H58.4577C59.2533 39.992 60.0164 40.3081 60.579 40.8707C61.1416 41.4333 61.4577 42.1964 61.4577 42.992V49.248C61.4577 50.0437 61.1416 50.8067 60.579 51.3693C60.0164 51.9319 59.2533 52.248 58.4577 52.248ZM52.0967 41.992C51.8315 41.992 51.5771 42.0974 51.3896 42.2849C51.202 42.4724 51.0967 42.7268 51.0967 42.992V49.248C51.0967 49.5132 51.202 49.7676 51.3896 49.9551C51.5771 50.1426 51.8315 50.248 52.0967 50.248H58.4577C58.7229 50.248 58.9772 50.1426 59.1648 49.9551C59.3523 49.7676 59.4577 49.5132 59.4577 49.248V42.992C59.4577 42.7268 59.3523 42.4724 59.1648 42.2849C58.9772 42.0974 58.7229 41.992 58.4577 41.992H52.0967Z" fill="black"/>
<path d="M72.7128 65.331H66.4578C65.6621 65.331 64.8991 65.0149 64.3364 64.4523C63.7738 63.8897 63.4578 63.1266 63.4578 62.331V56.248C63.4578 55.4523 63.7738 54.6893 64.3364 54.1267C64.8991 53.5641 65.6621 53.248 66.4578 53.248H72.7128C73.5084 53.248 74.2715 53.5641 74.8341 54.1267C75.3967 54.6893 75.7128 55.4523 75.7128 56.248V62.331C75.7128 63.1266 75.3967 63.8897 74.8341 64.4523C74.2715 65.0149 73.5084 65.331 72.7128 65.331ZM66.4578 55.248C66.1925 55.248 65.9382 55.3533 65.7507 55.5409C65.5631 55.7284 65.4578 55.9828 65.4578 56.248V62.331C65.4578 62.5962 65.5631 62.8506 65.7507 63.0381C65.9382 63.2256 66.1925 63.331 66.4578 63.331H72.7128C72.978 63.331 73.2323 63.2256 73.4199 63.0381C73.6074 62.8506 73.7128 62.5962 73.7128 62.331V56.248C73.7128 55.9828 73.6074 55.7284 73.4199 55.5409C73.2323 55.3533 72.978 55.248 72.7128 55.248H66.4578Z" fill="black"/>
<path d="M72.7128 38.992H66.4578C65.6621 38.992 64.8991 38.6759 64.3364 38.1133C63.7738 37.5507 63.4578 36.7876 63.4578 35.992V29.909C63.4578 29.1133 63.7738 28.3503 64.3364 27.7877C64.8991 27.2251 65.6621 26.909 66.4578 26.909H72.7128C73.5084 26.909 74.2715 27.2251 74.8341 27.7877C75.3967 28.3503 75.7128 29.1133 75.7128 29.909V35.992C75.7128 36.7876 75.3967 37.5507 74.8341 38.1133C74.2715 38.6759 73.5084 38.992 72.7128 38.992ZM66.4578 28.909C66.1925 28.909 65.9382 29.0144 65.7507 29.2019C65.5631 29.3894 65.4578 29.6438 65.4578 29.909V35.992C65.4578 36.2572 65.5631 36.5116 65.7507 36.6991C65.9382 36.8866 66.1925 36.992 66.4578 36.992H72.7128C72.978 36.992 73.2323 36.8866 73.4199 36.6991C73.6074 36.5116 73.7128 36.2572 73.7128 35.992V29.909C73.7128 29.6438 73.6074 29.3894 73.4199 29.2019C73.2323 29.0144 72.978 28.909 72.7128 28.909H66.4578Z" fill="black"/>
<path d="M72.7128 52.248H66.4578C65.6621 52.248 64.8991 51.9319 64.3364 51.3693C63.7738 50.8067 63.4578 50.0437 63.4578 49.248V42.992C63.4578 42.1964 63.7738 41.4333 64.3364 40.8707C64.8991 40.3081 65.6621 39.992 66.4578 39.992H72.7128C73.5084 39.992 74.2715 40.3081 74.8341 40.8707C75.3967 41.4333 75.7128 42.1964 75.7128 42.992V49.248C75.7128 50.0437 75.3967 50.8067 74.8341 51.3693C74.2715 51.9319 73.5084 52.248 72.7128 52.248ZM66.4578 41.992C66.1925 41.992 65.9382 42.0974 65.7507 42.2849C65.5631 42.4724 65.4578 42.7268 65.4578 42.992V49.248C65.4578 49.5132 65.5631 49.7676 65.7507 49.9551C65.9382 50.1426 66.1925 50.248 66.4578 50.248H72.7128C72.978 50.248 73.2323 50.1426 73.4199 49.9551C73.6074 49.7676 73.7128 49.5132 73.7128 49.248V42.992C73.7128 42.7268 73.6074 42.4724 73.4199 42.2849C73.2323 42.0974 72.978 41.992 72.7128 41.992H66.4578Z" fill="black"/>
</svg>
