<svg width="109" height="100" viewBox="0 0 109 100" fill="none" xmlns="http://www.w3.org/2000/svg">
<path d="M108.255 54.14C107.888 53.4705 107.347 52.9131 106.688 52.5273C106.029 52.1416 105.278 51.9421 104.515 51.95H4.63468C3.87138 51.9421 3.12027 52.1416 2.46156 52.5273C1.80284 52.9131 1.26127 53.4705 0.894677 54.14C0.562379 54.7579 0.407085 55.4555 0.445903 56.156C0.484721 56.8565 0.716145 57.5326 1.11468 58.11L3.88468 62.21C4.47839 63.069 5.27403 63.7691 6.20166 64.2486C7.12929 64.7281 8.16051 64.9724 9.20468 64.96H18.0347C11.0847 69.09 11.0647 77.18 11.0647 77.28L11.1947 83.41H10.0847C9.02422 83.4113 8.00757 83.8332 7.25771 84.583C6.50785 85.3329 6.086 86.3495 6.08468 87.41V95.08C6.08468 96.1409 6.5061 97.1583 7.25625 97.9084C8.00639 98.6586 9.02381 99.08 10.0847 99.08H38.0247C39.0855 99.08 40.103 98.6586 40.8531 97.9084C41.6032 97.1583 42.0247 96.1409 42.0247 95.08V87.41C42.0234 86.3495 41.6015 85.3329 40.8516 84.583C40.1018 83.8332 39.0851 83.4113 38.0247 83.41H37.2847C37.9047 81.62 39.9047 78.27 46.2047 78.27C56.1847 78.27 71.0247 76.34 77.5947 73.22C81.5226 71.0946 85.049 68.2993 88.0147 64.96H99.9447C100.99 64.9727 102.022 64.7275 102.95 64.2461C103.878 63.7646 104.673 63.0619 105.265 62.2L108.035 58.11C108.433 57.5326 108.665 56.8565 108.703 56.156C108.742 55.4555 108.587 54.7579 108.255 54.14ZM38.0247 85.41C38.5546 85.4116 39.0624 85.6228 39.4371 85.9975C39.8119 86.3723 40.0231 86.8801 40.0247 87.41V95.08C40.0231 95.6099 39.8119 96.1177 39.4371 96.4925C39.0624 96.8672 38.5546 97.0784 38.0247 97.08H10.0847C9.55424 97.08 9.04554 96.8693 8.67046 96.4942C8.29539 96.1191 8.08468 95.6104 8.08468 95.08V87.41C8.08468 86.8796 8.29539 86.3709 8.67046 85.9958C9.04554 85.6207 9.55424 85.41 10.0847 85.41H38.0247ZM86.9647 63.18C86.8847 63.27 86.8047 63.35 86.7347 63.44C83.9158 66.6875 80.5267 69.392 76.7347 71.42C70.4147 74.42 55.9747 76.27 46.2047 76.27C38.0247 76.27 35.7847 81.31 35.2147 83.41H13.1847L13.0647 77.26C13.0647 76.71 13.1347 65.47 26.3647 64.64C32.3647 64.26 40.8147 64.57 48.9847 64.86C60.8947 65.29 71.1847 65.66 74.6247 64.14C75.2847 63.85 75.9647 63.54 76.6647 63.23C81.3347 61.13 87.1347 58.52 89.4647 59.19C89.4747 59.88 88.5047 61.4 86.9647 63.18ZM106.375 56.99L103.615 61.08C103.203 61.6696 102.654 62.1493 102.014 62.4771C101.374 62.8049 100.664 62.9707 99.9447 62.96H89.6547C90.8147 61.39 91.5147 59.98 91.4547 58.98C91.4457 58.606 91.3192 58.2443 91.093 57.9463C90.8668 57.6483 90.5525 57.4292 90.1947 57.32C87.2047 56.31 81.4247 58.9 75.8447 61.4C75.1547 61.71 74.4747 62.02 73.8147 62.31C70.7947 63.64 59.7447 63.25 49.0647 62.86C40.8447 62.57 32.3447 62.26 26.2347 62.64C25.3426 62.6957 24.4545 62.8025 23.5747 62.96H9.20468C8.48584 62.9707 7.77536 62.8049 7.13551 62.4771C6.49566 62.1493 5.94599 61.6696 5.53468 61.08L2.77468 56.99C2.57943 56.7138 2.46561 56.3884 2.44617 56.0507C2.42672 55.7131 2.50243 55.3768 2.66468 55.08C2.85767 54.729 3.14359 54.4378 3.49108 54.2385C3.83857 54.0392 4.23422 53.9394 4.63468 53.95H104.515C104.915 53.9394 105.311 54.0392 105.658 54.2385C106.006 54.4378 106.292 54.729 106.485 55.08C106.647 55.3768 106.723 55.7131 106.703 56.0507C106.684 56.3884 106.57 56.7138 106.375 56.99Z" fill="black"/>
<path d="M43.1867 44.2C42.5872 44.1984 41.9953 44.0661 41.4521 43.8124C40.9089 43.5586 40.4276 43.1896 40.0416 42.7309C39.6556 42.2722 39.3743 41.7348 39.2171 41.1563C39.06 40.5778 39.0308 39.9719 39.1317 39.381L40.7507 29.937C40.8088 29.5983 40.7837 29.2505 40.6774 28.9236C40.5711 28.5968 40.3869 28.3007 40.1407 28.061L33.2797 21.37C32.7292 20.8336 32.3397 20.1539 32.1554 19.4077C31.9712 18.6615 31.9994 17.8786 32.237 17.1477C32.4745 16.4167 32.9119 15.7668 33.4996 15.2715C34.0874 14.7762 34.802 14.4552 35.5627 14.345L45.0457 12.967C45.3863 12.9178 45.7099 12.7866 45.9886 12.5847C46.2673 12.3829 46.4928 12.1163 46.6457 11.808L50.8867 3.21499C51.2264 2.52551 51.7524 1.9449 52.4051 1.5389C53.0577 1.1329 53.811 0.917725 54.5797 0.917725C55.3483 0.917725 56.1016 1.1329 56.7543 1.5389C57.407 1.9449 57.9329 2.52551 58.2727 3.21499L62.5137 11.808C62.666 12.1158 62.8907 12.382 63.1685 12.5839C63.4463 12.7857 63.7689 12.9172 64.1087 12.967L73.5917 14.345C74.3523 14.4552 75.067 14.7762 75.6547 15.2715C76.2425 15.7668 76.6798 16.4167 76.9174 17.1477C77.155 17.8786 77.1832 18.6615 76.9989 19.4077C76.8146 20.1539 76.4252 20.8336 75.8747 21.37L69.0137 28.058C68.7674 28.2977 68.5832 28.5938 68.4769 28.9206C68.3707 29.2475 68.3455 29.5953 68.4037 29.934L70.0227 39.378C70.1529 40.1355 70.0685 40.9144 69.7791 41.6265C69.4896 42.3385 69.0066 42.9553 68.3848 43.4072C67.7629 43.859 67.0271 44.1277 66.2604 44.183C65.4937 44.2383 64.7269 44.0779 64.0467 43.72L55.5647 39.261C55.2609 39.1014 54.9229 39.018 54.5797 39.018C54.2365 39.018 53.8985 39.1014 53.5947 39.261L45.1077 43.72C44.5159 44.0339 43.8565 44.1986 43.1867 44.2ZM54.5747 2.91799C54.1782 2.91334 53.7887 3.02214 53.4521 3.23156C53.1155 3.44099 52.8457 3.74231 52.6747 4.09999L48.4337 12.693C48.1382 13.2915 47.7017 13.8093 47.1616 14.2016C46.6216 14.5939 45.9943 14.849 45.3337 14.945L35.8507 16.323C35.4589 16.3792 35.0907 16.544 34.7879 16.7987C34.485 17.0535 34.2596 17.388 34.1372 17.7643C34.0147 18.1407 34.0002 18.5438 34.0952 18.928C34.1902 19.3122 34.391 19.6621 34.6747 19.938L41.5357 26.626C42.0138 27.092 42.3714 27.6673 42.5775 28.3023C42.7836 28.9374 42.8321 29.613 42.7187 30.271L41.0997 39.716C41.0331 40.1057 41.0769 40.5062 41.226 40.8723C41.3751 41.2385 41.6235 41.5556 41.9434 41.788C42.2632 42.0203 42.6416 42.1586 43.0359 42.1873C43.4302 42.2159 43.8246 42.1337 44.1747 41.95L52.6557 37.491C53.2469 37.1801 53.9048 37.0177 54.5727 37.0177C55.2406 37.0177 55.8985 37.1801 56.4897 37.491L64.9747 41.95C65.3247 42.1337 65.7192 42.2159 66.1134 42.1873C66.5077 42.1586 66.8862 42.0203 67.206 41.788C67.5258 41.5556 67.7743 41.2385 67.9234 40.8723C68.0725 40.5062 68.1162 40.1057 68.0497 39.716L66.4307 30.271C66.3173 29.613 66.3658 28.9374 66.5719 28.3023C66.778 27.6673 67.1355 27.092 67.6137 26.626L74.4747 19.938C74.7584 19.6623 74.9591 19.3126 75.0543 18.9287C75.1495 18.5447 75.1352 18.1417 75.0131 17.7655C74.891 17.3892 74.666 17.0546 74.3635 16.7997C74.061 16.5448 73.6932 16.3796 73.3017 16.323L63.8187 14.945C63.1581 14.849 62.5308 14.5939 61.9907 14.2016C61.4507 13.8093 61.0141 13.2915 60.7187 12.693L56.4747 4.09999C56.3037 3.74231 56.0339 3.44099 55.6973 3.23156C55.3606 3.02214 54.9711 2.91334 54.5747 2.91799Z" fill="black"/>
<path d="M98.3067 43.836C97.8905 43.8345 97.481 43.7315 97.1137 43.536L92.8747 41.31C92.7944 41.2676 92.705 41.2454 92.6142 41.2454C92.5234 41.2454 92.434 41.2676 92.3537 41.31L88.1137 43.539C87.6908 43.7617 87.214 43.8615 86.7374 43.8271C86.2607 43.7928 85.8031 43.6256 85.4166 43.3446C85.03 43.0636 84.7299 42.6799 84.5501 42.2371C84.3704 41.7942 84.3183 41.3099 84.3997 40.839L85.2097 36.117C85.2247 36.0279 85.218 35.9364 85.1901 35.8504C85.1623 35.7644 85.1141 35.6864 85.0497 35.623L81.6177 32.277C81.2761 31.9436 81.0345 31.5213 80.9203 31.0578C80.806 30.5943 80.8237 30.1081 80.9711 29.6541C81.1186 29.2001 81.3901 28.7964 81.7549 28.4886C82.1197 28.1807 82.5633 27.981 83.0357 27.912L87.7777 27.224C87.8673 27.2104 87.9524 27.1754 88.0257 27.1219C88.099 27.0685 88.1583 26.9982 88.1987 26.917L90.3187 22.617C90.5299 22.1887 90.8569 21.828 91.2624 21.5758C91.668 21.3237 92.1361 21.19 92.6137 21.19C93.0913 21.19 93.5593 21.3237 93.9649 21.5758C94.3705 21.828 94.6974 22.1887 94.9087 22.617L97.0287 26.917C97.0694 26.9983 97.1291 27.0687 97.2027 27.1221C97.2763 27.1756 97.3617 27.2105 97.4517 27.224L102.192 27.912C102.664 27.9805 103.108 28.1799 103.474 28.4877C103.839 28.7954 104.11 29.1992 104.258 29.6534C104.406 30.1075 104.423 30.594 104.309 31.0576C104.195 31.5213 103.953 31.9436 103.611 32.277L100.175 35.624C100.109 35.6879 100.06 35.7668 100.032 35.854C100.004 35.9411 99.9977 36.0338 100.014 36.124L100.824 40.845C100.886 41.2123 100.868 41.5889 100.77 41.9485C100.673 42.3081 100.498 42.642 100.258 42.9271C100.018 43.2122 99.7186 43.4416 99.3809 43.5992C99.0433 43.7569 98.6753 43.839 98.3027 43.84L98.3067 43.836ZM92.6127 23.2C92.5083 23.199 92.4057 23.2278 92.3172 23.2831C92.2286 23.3383 92.1576 23.4178 92.1127 23.512L89.9927 27.812C89.8092 28.184 89.538 28.5058 89.2025 28.7497C88.867 28.9936 88.4772 29.1523 88.0667 29.212L83.3247 29.901C83.2213 29.9161 83.1243 29.9598 83.0445 30.0272C82.9647 30.0945 82.9053 30.1829 82.873 30.2822C82.8408 30.3815 82.837 30.4879 82.862 30.5893C82.887 30.6907 82.9399 30.7831 83.0147 30.856L86.4457 34.2C86.743 34.4894 86.9654 34.8469 87.0934 35.2415C87.2215 35.6362 87.2514 36.0561 87.1807 36.465L86.3747 41.179C86.3569 41.282 86.3684 41.3878 86.4076 41.4846C86.4469 41.5815 86.5125 41.6654 86.597 41.7268C86.6815 41.7883 86.7815 41.825 86.8857 41.8326C86.9899 41.8402 87.0941 41.8185 87.1867 41.77L91.4267 39.54C91.7938 39.3464 92.2026 39.2453 92.6177 39.2453C93.0327 39.2453 93.4415 39.3464 93.8087 39.54L98.0497 41.77C98.1422 41.8185 98.2465 41.8402 98.3507 41.8326C98.4549 41.825 98.5549 41.7883 98.6394 41.7268C98.7238 41.6654 98.7894 41.5815 98.8287 41.4846C98.868 41.3878 98.8794 41.282 98.8617 41.179L98.0517 36.457C97.9813 36.0476 98.0117 35.6272 98.1403 35.2322C98.2689 34.8372 98.4918 34.4795 98.7897 34.19L102.219 30.848C102.293 30.775 102.346 30.6825 102.371 30.5811C102.396 30.4796 102.392 30.3732 102.36 30.2738C102.328 30.1745 102.268 30.0861 102.188 30.0188C102.108 29.9515 102.011 29.9079 101.908 29.893L97.1677 29.204C96.7569 29.1444 96.3667 28.9859 96.0309 28.742C95.695 28.4981 95.4235 28.1762 95.2397 27.804L93.1197 23.504C93.0732 23.4101 93.0007 23.3315 92.9108 23.2776C92.8209 23.2237 92.7174 23.1968 92.6127 23.2Z" fill="black"/>
<path d="M10.8427 43.836C10.47 43.8351 10.1021 43.7529 9.76442 43.5952C9.42678 43.4376 9.12755 43.2082 8.88758 42.9232C8.64762 42.6381 8.47267 42.3041 8.37494 41.9445C8.2772 41.5849 8.25902 41.2083 8.32166 40.841L9.13166 36.119C9.14703 36.03 9.1405 35.9386 9.11262 35.8527C9.08474 35.7668 9.03636 35.689 8.97166 35.626L5.53966 32.279C5.1977 31.9457 4.95581 31.5234 4.84134 31.0598C4.72687 30.5963 4.74439 30.1099 4.89193 29.6558C5.03946 29.2016 5.31111 28.7978 5.67617 28.49C6.04122 28.1822 6.48512 27.9827 6.95766 27.914L11.6997 27.226C11.7894 27.2124 11.8746 27.1774 11.9481 27.1239C12.0215 27.0705 12.081 27.0002 12.1217 26.919L14.2417 22.619C14.4529 22.1907 14.7798 21.83 15.1854 21.5779C15.591 21.3257 16.0591 21.192 16.5367 21.192C17.0142 21.192 17.4823 21.3257 17.8879 21.5779C18.2935 21.83 18.6204 22.1907 18.8317 22.619L20.9517 26.919C20.9921 27.0003 21.0516 27.0707 21.1251 27.1241C21.1986 27.1776 21.2838 27.2125 21.3737 27.226L26.1137 27.914C26.5863 27.9825 27.0303 28.1819 27.3955 28.4897C27.7607 28.7974 28.0325 29.2012 28.1801 29.6554C28.3277 30.1095 28.3454 30.596 28.2309 31.0596C28.1165 31.5233 27.8746 31.9457 27.5327 32.279L24.1017 35.624C24.037 35.6875 23.9886 35.7656 23.9605 35.8518C23.9325 35.938 23.9257 36.0296 23.9407 36.119L24.7507 40.841C24.8319 41.3118 24.7797 41.796 24.6 42.2386C24.4204 42.6813 24.1203 43.0649 23.7339 43.3459C23.3475 43.6268 22.8902 43.794 22.4137 43.8285C21.9372 43.863 21.4605 43.7634 21.0377 43.541L16.7967 41.31C16.7165 41.2676 16.6273 41.2455 16.5367 41.2455C16.446 41.2455 16.3568 41.2676 16.2767 41.31L12.0347 43.539C11.6674 43.7336 11.2583 43.8356 10.8427 43.836ZM16.5367 39.245C16.9521 39.2469 17.3609 39.3498 17.7277 39.545L21.9687 41.775C22.0612 41.8233 22.1653 41.8447 22.2693 41.837C22.3734 41.8292 22.4732 41.7925 22.5575 41.7311C22.6418 41.6696 22.7073 41.5859 22.7465 41.4892C22.7858 41.3925 22.7973 41.2868 22.7797 41.184L21.9747 36.457C21.9038 36.0479 21.9339 35.6277 22.0621 35.2329C22.1904 34.838 22.413 34.4804 22.7107 34.191L26.1407 30.848C26.2154 30.775 26.2683 30.6826 26.2933 30.5811C26.3183 30.4796 26.3144 30.3732 26.282 30.2738C26.2496 30.1745 26.1901 30.0862 26.1102 30.0189C26.0303 29.9516 25.9331 29.908 25.8297 29.893L21.0897 29.204C20.679 29.1444 20.289 28.9859 19.9533 28.742C19.6176 28.4981 19.3462 28.1762 19.1627 27.804L17.0427 23.504C16.996 23.4114 16.9245 23.3337 16.8362 23.2793C16.748 23.225 16.6463 23.1962 16.5427 23.1962C16.439 23.1962 16.3374 23.225 16.2491 23.2793C16.1608 23.3337 16.0893 23.4114 16.0427 23.504L13.9227 27.804C13.739 28.1761 13.4676 28.4979 13.1319 28.7418C12.7962 28.9857 12.4063 29.1443 11.9957 29.204L7.25366 29.893C7.15032 29.9081 7.05327 29.9518 6.97346 30.0192C6.89365 30.0865 6.83427 30.1749 6.80203 30.2742C6.76978 30.3736 6.76596 30.4799 6.79098 30.5813C6.81601 30.6827 6.86889 30.7751 6.94366 30.848L10.3747 34.192C10.6722 34.4812 10.8947 34.8387 11.0228 35.2334C11.1509 35.6282 11.1807 36.0482 11.1097 36.457L10.3007 41.179C10.2827 41.2819 10.2939 41.3878 10.333 41.4847C10.3721 41.5816 10.4376 41.6656 10.5221 41.7271C10.6065 41.7886 10.7065 41.8253 10.8107 41.8329C10.9149 41.8404 11.0192 41.8187 11.1117 41.77L15.3537 39.54C15.7185 39.3478 16.1243 39.2466 16.5367 39.245Z" fill="black"/>
</svg>
