<svg width="81" height="115" viewBox="0 0 81 115" fill="none" xmlns="http://www.w3.org/2000/svg">
<path d="M71.7557 90.9201H56.7557C55.9601 90.9201 55.197 90.604 54.6344 90.0414C54.0718 89.4788 53.7557 88.7157 53.7557 87.9201V85.7781C53.7557 84.9824 54.0718 84.2194 54.6344 83.6568C55.197 83.0941 55.9601 82.7781 56.7557 82.7781H71.7557C72.5514 82.7781 73.3145 83.0941 73.8771 83.6568C74.4397 84.2194 74.7557 84.9824 74.7557 85.7781V87.9201C74.7557 88.7157 74.4397 89.4788 73.8771 90.0414C73.3145 90.604 72.5514 90.9201 71.7557 90.9201ZM56.7557 84.7781C56.4905 84.7781 56.2362 84.8834 56.0486 85.071C55.8611 85.2585 55.7557 85.5129 55.7557 85.7781V87.9201C55.7557 88.1853 55.8611 88.4396 56.0486 88.6272C56.2362 88.8147 56.4905 88.9201 56.7557 88.9201H71.7557C72.021 88.9201 72.2753 88.8147 72.4628 88.6272C72.6504 88.4396 72.7557 88.1853 72.7557 87.9201V85.7781C72.7557 85.5129 72.6504 85.2585 72.4628 85.071C72.2753 84.8834 72.021 84.7781 71.7557 84.7781H56.7557Z" fill="black"/>
<path d="M40.9717 57.8571C39.2867 57.855 37.6714 57.1846 36.48 55.9931C35.2887 54.8015 34.6186 53.1861 34.6167 51.5011C34.6167 51.2359 34.7221 50.9815 34.9096 50.794C35.0971 50.6065 35.3515 50.5011 35.6167 50.5011C35.8819 50.5011 36.1363 50.6065 36.3238 50.794C36.5113 50.9815 36.6167 51.2359 36.6167 51.5011C36.6079 52.0786 36.7141 52.6521 36.9291 53.1882C37.1441 53.7243 37.4635 54.2123 37.8688 54.6238C38.2741 55.0353 38.7572 55.3621 39.29 55.5852C39.8228 55.8082 40.3946 55.9231 40.9722 55.9231C41.5498 55.9231 42.1216 55.8082 42.6544 55.5852C43.1872 55.3621 43.6703 55.0353 44.0756 54.6238C44.4809 54.2123 44.8003 53.7243 45.0153 53.1882C45.2303 52.6521 45.3364 52.0786 45.3277 51.5011C45.3277 51.2359 45.4331 50.9815 45.6206 50.794C45.8081 50.6065 46.0625 50.5011 46.3277 50.5011C46.5929 50.5011 46.8473 50.6065 47.0348 50.794C47.2223 50.9815 47.3277 51.2359 47.3277 51.5011C47.3258 53.1862 46.6556 54.8018 45.464 55.9934C44.2724 57.185 42.6568 57.8552 40.9717 57.8571Z" fill="black"/>
<path d="M61.3847 68.5141H56.7847V67.8441C56.7903 67.1285 56.6051 66.4243 56.2484 65.8039C55.8916 65.1835 55.376 64.6693 54.7547 64.3141C54.1862 63.9917 53.5407 63.8297 52.8873 63.8456C52.2338 63.8614 51.597 64.0545 51.0447 64.4041V64.3941L47.7547 66.4241V64.1341C51.0722 63.1025 54.1262 61.3629 56.7057 59.0355C59.2851 56.7081 61.3285 53.8485 62.6947 50.6541C64.4674 50.4556 66.104 49.6083 67.2893 48.2753C68.4746 46.9423 69.1248 45.2179 69.1147 43.4341V42.1941C69.1145 41.511 68.9306 40.8405 68.5822 40.2529C68.2339 39.6653 67.7339 39.1821 67.1347 38.8541C68.4242 35.5305 69.0952 31.9991 69.1147 28.4341C69.1153 24.2509 68.1928 20.1191 66.4129 16.3334C64.633 12.5478 62.0396 9.20153 58.8177 6.53342C55.5958 3.86532 51.8248 1.94109 47.7737 0.898006C43.7226 -0.14508 39.4913 -0.281321 35.3815 0.499002C31.2717 1.27932 27.3847 2.95698 23.9979 5.4123C20.611 7.86761 17.8078 11.0401 15.788 14.7034C13.7683 18.3667 12.5818 22.4306 12.3133 26.6052C12.0448 30.7798 12.7009 34.9622 14.2347 38.8541C13.6355 39.1821 13.1355 39.6653 12.7872 40.2529C12.4388 40.8405 12.2549 41.511 12.2547 42.1941V43.4341C12.2446 45.2179 12.8948 46.9423 14.0801 48.2753C15.2654 49.6083 16.902 50.4556 18.6747 50.6541C20.0409 53.8485 22.0843 56.7081 24.6637 59.0355C27.2432 61.3629 30.2972 63.1025 33.6147 64.1341V66.4341L30.3247 64.4041C29.7725 64.0545 29.1356 63.8614 28.4822 63.8456C27.8287 63.8297 27.1833 63.9917 26.6147 64.3141C25.9934 64.6693 25.4778 65.1835 25.1211 65.8039C24.7643 66.4243 24.5792 67.1285 24.5847 67.8441V68.5141H19.9847C14.8384 68.5192 9.90431 70.5658 6.26532 74.2047C2.62633 77.8437 0.579737 82.7778 0.574707 87.9241V110.084C0.57603 111.145 0.997883 112.161 1.74774 112.911C2.4976 113.661 3.51425 114.083 4.57471 114.084H76.7947C77.8552 114.083 78.8718 113.661 79.6217 112.911C80.3715 112.161 80.7934 111.145 80.7947 110.084V87.9241C80.7897 82.7778 78.7431 77.8437 75.1041 74.2047C71.4651 70.5658 66.531 68.5192 61.3847 68.5141ZM52.0947 66.1041C52.3833 65.952 52.7072 65.8795 53.0331 65.894C53.359 65.9085 53.6751 66.0096 53.949 66.1867C54.2229 66.3639 54.4447 66.6108 54.5916 66.9021C54.7385 67.1934 54.8051 67.5186 54.7847 67.8441V76.2141C54.7933 76.5746 54.705 76.9309 54.5291 77.2457C54.3532 77.5605 54.0962 77.8224 53.7847 78.0041C53.5263 78.1526 53.2321 78.2274 52.9341 78.2203C52.6362 78.2133 52.3458 78.1247 52.0947 77.9641L43.9847 72.9641V71.1041L52.0947 66.1041ZM41.9847 70.4941V73.5741C41.9727 74.1353 41.7445 74.6701 41.3476 75.067C40.9507 75.4639 40.4159 75.6921 39.8547 75.7041C39.4376 75.6933 39.0319 75.5658 38.6837 75.336C38.3355 75.1062 38.0587 74.7833 37.8847 74.4041C37.779 74.1398 37.7214 73.8587 37.7147 73.5741V70.4941C37.7362 70.1076 37.8534 69.7325 38.0559 69.4026C38.2584 69.0726 38.5398 68.7982 38.8747 68.6041C39.1765 68.4444 39.5132 68.362 39.8547 68.3641C40.4182 68.3686 40.9574 68.5944 41.3559 68.9929C41.7544 69.3914 41.9803 69.9306 41.9847 70.4941ZM39.8547 66.3641C39.1827 66.3698 38.522 66.5373 37.9285 66.8523C37.3349 67.1674 36.826 67.6208 36.4447 68.1741H36.4347V68.1641L35.6147 67.6641V64.7941C35.6147 64.7941 38.8067 65.1871 40.7827 65.2361C42.4472 65.1859 44.1074 65.0383 45.7547 64.7941V67.6641L43.6847 68.9341L43.6747 68.9441C43.493 68.5852 43.2893 68.2379 43.0647 67.9041C42.6829 67.4192 42.1951 67.0282 41.6386 66.7613C41.0821 66.4943 40.4719 66.3584 39.8547 66.3641ZM67.1147 43.4341C67.12 44.5422 66.7747 45.6237 66.128 46.5236C65.4814 47.4235 64.5667 48.0957 63.5147 48.4441C63.9657 46.9967 64.2804 45.5102 64.4547 44.0041C64.5817 43.1841 64.6147 40.3841 64.6147 40.3841H65.3047C65.7848 40.3841 66.2451 40.5748 66.5846 40.9143C66.924 41.2537 67.1147 41.7141 67.1147 42.1941V43.4341ZM14.2547 43.4341V42.1941C14.2547 41.9564 14.3015 41.7211 14.3925 41.5015C14.4834 41.2819 14.6168 41.0823 14.7848 40.9143C14.9529 40.7462 15.1525 40.6129 15.3721 40.5219C15.5917 40.4309 15.827 40.3841 16.0647 40.3841H16.7547V41.2741C16.7893 42.7144 16.9189 44.1509 17.1427 45.5741C17.2327 45.9241 17.4597 47.0301 17.8547 48.4441C16.8028 48.0957 15.888 47.4235 15.2414 46.5236C14.5947 45.6237 14.2494 44.5422 14.2547 43.4341ZM16.0447 38.0141C14.6375 34.3941 14.0453 30.5085 14.3103 26.6336C14.5753 22.7588 15.6909 18.9899 17.5778 15.5952C19.4647 12.2004 22.0765 9.26321 25.2274 6.99245C28.3783 4.72169 31.9909 3.1732 35.8083 2.45712C39.6256 1.74105 43.5538 1.87499 47.3135 2.84942C51.0731 3.82385 54.5719 5.61482 57.5608 8.09494C60.5498 10.575 62.9554 13.6834 64.6067 17.1987C66.258 20.7141 67.1143 24.5502 67.1147 28.4341C67.088 31.608 66.5164 34.7537 65.4247 37.7341C64.0551 37.4792 62.8017 36.7964 61.8447 35.7841C58.1347 31.8641 53.7047 22.3241 53.6647 22.2241L52.9447 20.6641L51.9447 22.0641C47.5597 27.3211 41.6397 34.2581 21.7347 37.1041C20.4587 37.2861 16.5147 37.9441 16.0447 38.0141ZM20.2947 49.3441C19.8801 48.2293 19.5328 47.0906 19.2547 45.9341C18.8302 43.8592 18.6622 41.74 18.7547 39.6241C24.5664 38.8919 30.2955 37.6095 35.8647 35.7941C42.4311 33.7993 48.2438 29.8719 52.5447 24.5241C53.9747 27.4441 57.3247 33.9241 60.3847 37.1541C61.0113 37.8439 61.7695 38.4015 62.6147 38.7941C62.6147 38.7941 62.8347 44.2631 61.7747 47.2741C61.5924 47.9803 61.3585 48.6722 61.0747 49.3441C59.6975 52.7639 57.4895 55.7863 54.6505 58.1382C51.8115 60.4901 48.431 62.0972 44.8147 62.8141C42.0806 63.2738 39.2889 63.2738 36.5547 62.8141C32.9434 62.085 29.5687 60.4733 26.7315 58.123C23.8944 55.7727 21.683 52.7567 20.2947 49.3441ZM26.5847 67.8441C26.5762 67.485 26.6645 67.1301 26.8405 66.8169C27.0164 66.5037 27.2735 66.2437 27.5847 66.0641C27.8495 65.9368 28.1407 65.874 28.4345 65.8809C28.7283 65.8879 29.0162 65.9644 29.2747 66.1041L33.6147 68.7741L35.7347 70.0741V70.0841H35.7447V70.0941C35.7247 70.2341 35.7247 73.8341 35.7447 73.9741L35.7347 73.9841L33.2447 75.5141H33.2347L29.2747 77.9641C29.0236 78.1247 28.7333 78.2133 28.4353 78.2203C28.1373 78.2274 27.8431 78.1526 27.5847 78.0041C27.2732 77.8224 27.0162 77.5605 26.8403 77.2457C26.6644 76.9309 26.5762 76.5746 26.5847 76.2141V67.8441ZM39.6847 112.084H4.57471C4.04476 112.083 3.53697 111.871 3.16224 111.497C2.78751 111.122 2.57629 110.614 2.57471 110.084V87.9241C2.58 83.3083 4.41596 78.8831 7.67982 75.6192C10.9437 72.3554 15.3689 70.5194 19.9847 70.5141H22.7847L24.5847 73.8941V76.2141C24.5778 76.9314 24.7623 77.6375 25.1191 78.2597C25.4759 78.882 25.9922 79.3978 26.6147 79.7541C27.024 79.9806 27.4714 80.1297 27.9347 80.1941H27.9447L39.6847 102.254V112.084ZM30.0047 79.8341C30.1147 79.7841 36.4347 75.8941 36.4347 75.8941C36.8554 76.5131 37.4363 77.0063 38.1153 77.3211C38.7944 77.6358 39.5461 77.7603 40.2904 77.6813C41.0347 77.6022 41.7435 77.3226 42.3413 76.8723C42.9391 76.4219 43.4034 75.8177 43.6847 75.1241C43.6847 75.1241 51.2547 79.7841 51.3647 79.8341L40.6847 99.8741L30.0047 79.8341ZM78.7947 110.084C78.7931 110.614 78.5819 111.122 78.2072 111.497C77.8324 111.871 77.3247 112.083 76.7947 112.084H41.6847V102.254L53.4247 80.1941H53.4347C53.898 80.1297 54.3454 79.9806 54.7547 79.7541C55.3772 79.3978 55.8935 78.882 56.2503 78.2597C56.6072 77.6375 56.7916 76.9314 56.7847 76.2141V73.8941L58.5847 70.5141H61.3847C66.0005 70.5194 70.4257 72.3554 73.6896 75.6192C76.9535 78.8831 78.7894 83.3083 78.7947 87.9241V110.084Z" fill="black"/>
</svg>
