<svg width="118" height="114" viewBox="0 0 118 114" fill="none" xmlns="http://www.w3.org/2000/svg">
<path d="M112.303 30.89H100.813C100.784 30.6633 100.717 30.4433 100.613 30.24C100.219 29.491 99.6279 28.8639 98.9035 28.4268C98.179 27.9896 97.3487 27.759 96.5026 27.76C96.5026 27.76 96.0026 27.881 95.9926 27.55V18.73C95.9953 18.6848 96.0138 18.642 96.0449 18.6091C96.076 18.5762 96.1176 18.5553 96.1626 18.55C98.3871 18.0358 100.37 16.7788 101.784 14.9864C103.199 13.194 103.96 10.9731 103.943 8.69V2.61C103.943 1.91951 103.669 1.25716 103.182 0.767978C102.694 0.278794 102.033 0.00264554 101.343 0H86.2326C85.5405 0.0005297 84.877 0.275681 84.3876 0.765037C83.8983 1.25439 83.6231 1.91795 83.6226 2.61V8.69C83.6203 10.967 84.3876 13.178 85.7998 14.9642C87.212 16.7504 89.1864 18.007 91.4026 18.53C91.4495 18.537 91.4928 18.5595 91.5254 18.5939C91.558 18.6284 91.5782 18.6728 91.5826 18.72V27.55C91.5826 27.881 91.0626 27.76 91.0626 27.76C89.8369 27.7835 88.6653 28.2693 87.7826 29.12C87.2758 29.5968 86.921 30.2125 86.7626 30.89H73.3126L74.4426 29.64C74.848 29.1995 75.1107 28.6468 75.1964 28.0543C75.2821 27.4618 75.1866 26.8573 74.9226 26.32C74.6628 25.7834 74.2494 25.3362 73.7347 25.0353C73.2201 24.7343 72.6276 24.5933 72.0326 24.63L71.1126 24.69C71.1292 24.5842 71.1359 24.4771 71.1326 24.37C71.1299 22.9413 70.5612 21.5719 69.551 20.5616C68.5407 19.5514 67.1713 18.9826 65.7426 18.98C65.1244 18.9809 64.5113 19.0926 63.9326 19.31C63.4331 18.6078 62.7722 18.036 62.0056 17.6426C61.2389 17.2493 60.3889 17.0461 59.5272 17.05C58.6655 17.0539 57.8174 17.2649 57.0543 17.6652C56.2913 18.0655 55.6356 18.6433 55.1426 19.35C54.5256 19.1035 53.867 18.9779 53.2026 18.98C51.7739 18.9826 50.4044 19.5514 49.3942 20.5616C48.3839 21.5719 47.8152 22.9413 47.8126 24.37C47.8126 24.5 47.8226 24.63 47.8326 24.76C47.1726 24.71 46.5326 24.67 45.9126 24.63C45.3168 24.5925 44.7233 24.7337 44.2082 25.0354C43.693 25.3371 43.2796 25.7856 43.0208 26.3236C42.762 26.8616 42.6697 27.4646 42.7555 28.0553C42.8413 28.6461 43.1014 29.1979 43.5026 29.64L44.6326 30.89H31.1826C31.1544 30.6633 31.0867 30.4433 30.9826 30.24C30.5911 29.4914 30.0019 28.8644 29.2791 28.4272C28.5562 27.99 27.7274 27.7592 26.8826 27.76C26.8826 27.76 26.3566 27.881 26.3626 27.55V18.73C26.3658 18.6833 26.3859 18.6394 26.4189 18.6063C26.452 18.5733 26.4959 18.5533 26.5426 18.55C28.7662 18.0341 30.7481 16.7767 32.1621 14.9847C33.5761 13.1926 34.338 10.9727 34.3226 8.69V2.61C34.322 1.91795 34.0469 1.25439 33.5575 0.765037C33.0682 0.275681 32.4046 0.0005297 31.7126 0H16.6026C15.9121 0.00264554 15.2508 0.278794 14.7635 0.767978C14.2762 1.25716 14.0026 1.91951 14.0026 2.61V8.69C13.9978 10.9677 14.7641 13.1799 16.1768 14.9666C17.5894 16.7533 19.5652 18.0093 21.7826 18.53C21.8276 18.5391 21.8685 18.5625 21.8991 18.5968C21.9298 18.631 21.9485 18.6742 21.9526 18.72V27.55C21.9636 27.868 21.4426 27.76 21.4426 27.76C20.8329 27.757 20.2287 27.8757 19.6655 28.1093C19.1022 28.3428 18.5913 28.6864 18.1626 29.12C17.6617 29.603 17.305 30.2159 17.1326 30.89H5.64258C4.31715 30.8921 3.0466 31.4196 2.10938 32.3568C1.17216 33.294 0.644694 34.5646 0.642578 35.89V45.14C0.642578 46.4661 1.16936 47.7379 2.10704 48.6755C3.04473 49.6132 4.3165 50.14 5.64258 50.14H10.9726V110.39C10.9726 111.186 11.2886 111.949 11.8513 112.511C12.4139 113.074 13.1769 113.39 13.9726 113.39H103.973C104.768 113.39 105.531 113.074 106.094 112.511C106.657 111.949 106.973 111.186 106.973 110.39V50.14H112.303C113.629 50.14 114.9 49.6132 115.838 48.6755C116.776 47.7379 117.303 46.4661 117.303 45.14V35.89C117.3 34.5646 116.773 33.294 115.836 32.3568C114.899 31.4196 113.628 30.8921 112.303 30.89ZM89.2026 30.53C89.4462 30.2849 89.7361 30.0906 90.0554 29.9585C90.3746 29.8263 90.717 29.7588 91.0626 29.76H91.3726C91.9586 29.7597 92.5206 29.5268 92.935 29.1124C93.3494 28.698 93.5823 28.136 93.5826 27.55V18.72C93.582 18.2178 93.4088 17.7311 93.092 17.3415C92.7752 16.9519 92.3341 16.683 91.8426 16.58C90.0679 16.1591 88.4877 15.1506 87.3585 13.7183C86.2293 12.2859 85.6176 10.5139 85.6226 8.69V2.61C85.6231 2.44838 85.6875 2.29353 85.8018 2.17925C85.9161 2.06496 86.071 2.00053 86.2326 2H101.343C101.422 1.99999 101.501 2.01583 101.575 2.04661C101.648 2.07739 101.715 2.12248 101.77 2.17926C101.826 2.23604 101.87 2.30336 101.9 2.37732C101.929 2.45127 101.944 2.53037 101.943 2.61V8.69C101.963 10.5144 101.361 12.2912 100.235 13.7274C99.1101 15.1635 97.5289 16.1733 95.7526 16.59C95.2567 16.6876 94.8101 16.9543 94.4891 17.3446C94.1681 17.7349 93.9926 18.2246 93.9926 18.73V27.55C93.9923 28.1345 94.2237 28.6952 94.636 29.1095C95.0484 29.5237 95.6081 29.7576 96.1926 29.76H96.5026C96.929 29.7571 97.3497 29.8586 97.7279 30.0556C98.1061 30.2525 98.4304 30.539 98.6726 30.89H88.8926C88.985 30.761 89.0888 30.6406 89.2026 30.53ZM64.9426 22.44C64.946 21.9976 64.8888 21.5568 64.7726 21.13C65.0863 21.0307 65.4135 20.9801 65.7426 20.98C66.2284 20.9699 66.7105 21.0666 67.1549 21.2631C67.5993 21.4596 67.9952 21.7513 68.3146 22.1174C68.634 22.4836 68.8693 22.9154 69.0037 23.3823C69.1381 23.8493 69.1685 24.34 69.0926 24.82C67.2726 24.94 65.6526 25.03 64.2326 25.1C64.7061 24.2941 64.9515 23.3746 64.9426 22.44ZM56.5726 20.83C56.8596 20.2955 57.2854 19.8482 57.805 19.5351C58.3246 19.222 58.919 19.0545 59.5257 19.0505C60.1324 19.0464 60.729 19.2057 61.2528 19.5118C61.7766 19.8179 62.2083 20.2594 62.5026 20.79C62.9305 21.5608 63.0451 22.4669 62.8226 23.32C62.6169 24.1037 62.129 24.7839 61.4526 25.23C61.4426 25.23 59.6326 25.29 58.9726 25.29C58.6226 25.29 58.1926 25.28 57.7326 25.27H57.7126C57.5982 25.1971 57.491 25.1134 57.3926 25.02C56.7907 24.5254 56.3797 23.8368 56.2301 23.0723C56.0805 22.3078 56.2015 21.515 56.5726 20.83ZM53.2026 20.98C53.5815 20.9806 53.9573 21.0483 54.3126 21.18C54.2239 21.5945 54.1737 22.0163 54.1626 22.44C54.1632 23.3976 54.4223 24.3374 54.9126 25.16C53.4926 25.1 51.8026 25 49.8626 24.89C49.8315 24.7183 49.8148 24.5444 49.8126 24.37C49.8134 23.4712 50.1708 22.6094 50.8064 21.9738C51.4419 21.3382 52.3037 20.9808 53.2026 20.98ZM44.8226 27.19C44.9015 27.0231 45.026 26.882 45.1817 26.7829C45.3374 26.6838 45.518 26.6308 45.7026 26.63C45.7026 26.63 47.4726 26.74 48.3626 26.8L49.0226 26.84C50.7526 26.95 52.3026 27.03 53.6526 27.1C53.9926 27.12 57.7726 27.27 57.7726 27.27C58.8106 27.307 61.8126 27.22 61.8126 27.22C64.6356 27.085 70.6126 26.73 70.6126 26.73C71.1426 26.7 71.6626 26.67 72.1626 26.63C72.3609 26.6182 72.5582 26.6658 72.7294 26.7667C72.9006 26.8675 73.0378 27.017 73.1237 27.1962C73.2095 27.3754 73.24 27.5761 73.2113 27.7727C73.1826 27.9692 73.096 28.1528 72.9626 28.3L71.2026 30.24C71.0156 30.4466 70.7872 30.6112 70.5321 30.7233C70.277 30.8353 70.0012 30.8921 69.7226 30.89H48.2226C47.944 30.8921 47.6681 30.8353 47.4131 30.7233C47.158 30.6112 46.9295 30.4466 46.7426 30.24L44.9826 28.3C44.846 28.1533 44.7576 27.9684 44.729 27.77C44.7004 27.5717 44.733 27.3693 44.8226 27.19ZM19.5726 30.53C19.8176 30.284 20.1091 30.0892 20.4302 29.957C20.7512 29.8248 21.0954 29.7578 21.4426 29.76H21.7526C22.3371 29.7576 22.8968 29.5237 23.3091 29.1095C23.7215 28.6952 23.9528 28.1345 23.9526 27.55V18.72C23.952 18.2178 23.7788 17.7311 23.462 17.3415C23.1452 16.9519 22.7041 16.683 22.2126 16.58C20.439 16.1586 18.8601 15.1497 17.7326 13.7172C16.6051 12.2847 15.9954 10.5129 16.0026 8.69V2.61C16.0013 2.53037 16.0158 2.45127 16.0453 2.37732C16.0749 2.30336 16.1189 2.23604 16.1747 2.17926C16.2306 2.12248 16.2972 2.07739 16.3706 2.04661C16.4441 2.01583 16.5229 1.99999 16.6026 2H31.7126C31.8742 2.00053 32.029 2.06496 32.1433 2.17925C32.2576 2.29353 32.3221 2.44838 32.3226 2.61V8.69C32.3409 10.5154 31.7367 12.2926 30.6097 13.7286C29.4827 15.1647 27.9 16.1739 26.1226 16.59C25.6267 16.6876 25.1801 16.9543 24.8591 17.3446C24.5381 17.7349 24.3626 18.2246 24.3626 18.73V27.55C24.3628 28.136 24.5958 28.698 25.0102 29.1124C25.4246 29.5268 25.9865 29.7597 26.5726 29.76H26.8826C27.3088 29.7583 27.729 29.8603 28.107 30.0572C28.4851 30.254 28.8096 30.5399 29.0526 30.89H19.2726C19.3615 30.7612 19.4619 30.6407 19.5726 30.53ZM26.3726 111.39C26.6083 110.17 27.261 109.07 28.2188 108.278C29.1766 107.486 30.3799 107.052 31.6226 107.05H38.7926C40.0337 107.054 41.235 107.489 42.1908 108.28C43.1467 109.072 43.7977 110.171 44.0326 111.39H26.3726ZM34.2626 72.5H36.1426V105.05H34.2626V72.5ZM22.4226 70.5C21.5792 70.5 20.7703 70.165 20.174 69.5686C19.5776 68.9722 19.2426 68.1634 19.2426 67.32C19.2426 66.4766 19.5776 65.6678 20.174 65.0714C20.7703 64.475 21.5792 64.14 22.4226 64.14H47.9826C48.826 64.14 49.6348 64.475 50.2312 65.0714C50.8275 65.6678 51.1626 66.4766 51.1626 67.32C51.1626 68.1634 50.8275 68.9722 50.2312 69.5686C49.6348 70.165 48.826 70.5 47.9826 70.5H22.4226ZM73.9126 111.39C74.1474 110.171 74.7985 109.072 75.7543 108.28C76.7102 107.489 77.9115 107.054 79.1526 107.05H86.3226C87.5653 107.052 88.7686 107.486 89.7264 108.278C90.6842 109.07 91.3368 110.17 91.5726 111.39H73.9126ZM81.8026 72.5H83.6826V105.05H81.8026V72.5ZM69.9626 70.5C69.1192 70.5 68.3103 70.165 67.714 69.5686C67.1176 68.9722 66.7826 68.1634 66.7826 67.32C66.7826 66.4766 67.1176 65.6678 67.714 65.0714C68.3103 64.475 69.1192 64.14 69.9626 64.14H95.5226C96.366 64.14 97.1748 64.475 97.7712 65.0714C98.3675 65.6678 98.7026 66.4766 98.7026 67.32C98.7026 68.1634 98.3675 68.9722 97.7712 69.5686C97.1748 70.165 96.366 70.5 95.5226 70.5H69.9626ZM104.973 110.39C104.973 110.655 104.867 110.91 104.68 111.097C104.492 111.285 104.238 111.39 103.973 111.39H93.5826C93.342 109.635 92.4744 108.026 91.1399 106.86C89.8054 105.695 88.0943 105.052 86.3226 105.05H85.6826V72.5H95.5226C96.8964 72.5 98.214 71.9542 99.1854 70.9828C100.157 70.0114 100.703 68.6938 100.703 67.32C100.703 65.9462 100.157 64.6286 99.1854 63.6572C98.214 62.6857 96.8964 62.14 95.5226 62.14H69.9626C68.5888 62.14 67.2712 62.6857 66.2998 63.6572C65.3283 64.6286 64.7826 65.9462 64.7826 67.32C64.7826 68.6938 65.3283 70.0114 66.2998 70.9828C67.2712 71.9542 68.5888 72.5 69.9626 72.5H79.8026V105.05H79.1526C77.3813 105.053 75.6709 105.697 74.3368 106.862C73.0026 108.027 72.1345 109.635 71.8926 111.39H46.0526C45.8106 109.635 44.9426 108.027 43.6084 106.862C42.2742 105.697 40.5639 105.053 38.7926 105.05H38.1426V72.5H47.9826C49.3564 72.5 50.674 71.9542 51.6454 70.9828C52.6168 70.0114 53.1626 68.6938 53.1626 67.32C53.1626 65.9462 52.6168 64.6286 51.6454 63.6572C50.674 62.6857 49.3564 62.14 47.9826 62.14H22.4226C21.0488 62.14 19.7312 62.6857 18.7598 63.6572C17.7883 64.6286 17.2426 65.9462 17.2426 67.32C17.2426 68.6938 17.7883 70.0114 18.7598 70.9828C19.7312 71.9542 21.0488 72.5 22.4226 72.5H32.2626V105.05H31.6226C29.8509 105.052 28.1397 105.695 26.8053 106.86C25.4708 108.026 24.6031 109.635 24.3626 111.39H13.9726C13.7074 111.39 13.453 111.285 13.2655 111.097C13.0779 110.91 12.9726 110.655 12.9726 110.39V50.14H104.973V110.39ZM115.303 45.14C115.303 45.9356 114.987 46.6987 114.424 47.2613C113.861 47.8239 113.098 48.14 112.303 48.14H5.64258C4.84693 48.14 4.08387 47.8239 3.52126 47.2613C2.95865 46.6987 2.64258 45.9356 2.64258 45.14V35.89C2.64495 35.0951 2.96178 34.3334 3.52388 33.7713C4.08598 33.2092 4.84766 32.8924 5.64258 32.89H112.303C113.098 32.8924 113.859 33.2092 114.421 33.7713C114.983 34.3334 115.3 35.0951 115.303 35.89V45.14Z" fill="black"/>
</svg>
