<svg width="116" height="108" viewBox="0 0 116 108" fill="none" xmlns="http://www.w3.org/2000/svg">
<path d="M111.089 90.41V41.1C111.087 39.7746 110.559 38.504 109.622 37.5668C108.685 36.6296 107.414 36.1021 106.089 36.1H101.719C102.776 34.9896 103.364 33.5135 103.359 31.98V28.19C105.094 27.7368 106.628 26.7196 107.722 25.2985C108.815 23.8774 109.405 22.1331 109.399 20.34V14.5C109.397 13.3123 108.925 12.1735 108.085 11.3336C107.245 10.4938 106.106 10.0213 104.919 10.02H103.359V4.06002C103.358 3.21936 103.024 2.41321 102.43 1.81878C101.835 1.22435 101.029 0.890281 100.189 0.890016H73.2787C72.7167 0.889568 72.1647 1.03868 71.6793 1.32204C71.194 1.60541 70.7928 2.01282 70.5169 2.50245C70.2411 2.99209 70.1005 3.54631 70.1096 4.10824C70.1187 4.67017 70.2771 5.21956 70.5687 5.70002L71.3487 6.98002C72.2409 8.4634 72.6172 10.2004 72.4187 11.92L72.3587 12.44L70.1687 31.29C70.0744 32.1302 70.1574 32.9809 70.4123 33.787C70.6672 34.5931 71.0884 35.3368 71.6487 35.97C71.6869 36.0182 71.7305 36.0618 71.7787 36.1H65.4587C65.8969 35.5629 66.2212 34.9421 66.4118 34.2756C66.6024 33.6091 66.6553 32.9107 66.5674 32.2231C66.4795 31.5355 66.2525 30.8729 65.9003 30.2758C65.548 29.6788 65.078 29.1596 64.5187 28.75C65.3882 28.1128 66.0339 27.2169 66.3634 26.1905C66.6929 25.1641 66.6892 24.0597 66.353 23.0355C66.0168 22.0113 65.3652 21.1196 64.4915 20.4882C63.6177 19.8568 62.5667 19.5179 61.4887 19.52H27.7587C26.6819 19.5204 25.6328 19.8608 24.7608 20.4925C23.8888 21.1243 23.2386 22.0152 22.9027 23.0383C22.5669 24.0613 22.5626 25.1643 22.8905 26.1899C23.2184 27.2155 23.8617 28.1115 24.7287 28.75C24.1712 29.1612 23.703 29.6812 23.3524 30.2787C23.0019 30.8762 22.7763 31.5386 22.6894 32.2258C22.6024 32.913 22.6559 33.6108 22.8466 34.2767C23.0373 34.9427 23.3612 35.563 23.7987 36.1H22.6487C22.3835 36.1 22.1291 35.9947 21.9416 35.8071C21.754 35.6196 21.6487 35.3652 21.6487 35.1V19.17C21.6468 16.7836 20.698 14.4955 19.0106 12.8081C17.3232 11.1207 15.0351 10.1719 12.6487 10.17H5.63867C4.31259 10.17 3.04082 10.6968 2.10314 11.6345C1.16546 12.5722 0.638672 13.8439 0.638672 15.17C0.638672 16.4961 1.16546 17.7679 2.10314 18.7055C3.04082 19.6432 4.31259 20.17 5.63867 20.17H9.64867C10.1791 20.17 10.6878 20.3807 11.0629 20.7558C11.438 21.1309 11.6487 21.6396 11.6487 22.17V90.41C9.97918 91.4432 8.67195 92.9696 7.90776 94.7781C7.14358 96.5866 6.96018 98.5878 7.38295 100.505C7.80571 102.422 8.81375 104.161 10.2677 105.48C11.7216 106.8 13.5495 107.635 15.4987 107.87C15.8734 107.918 16.2509 107.942 16.6287 107.94C18.6912 107.945 20.6991 107.277 22.3477 106.038C23.9962 104.798 25.1954 103.055 25.7632 101.072C26.3311 99.0892 26.2365 96.9753 25.4939 95.051C24.7514 93.1268 23.4013 91.4974 21.6487 90.41V87.33C21.65 87.1846 21.7083 87.0454 21.8112 86.9426C21.9141 86.8397 22.0532 86.7813 22.1987 86.78H100.539C100.611 86.7797 100.683 86.7938 100.749 86.8213C100.816 86.8489 100.877 86.8894 100.928 86.9405C100.979 86.9916 101.02 87.0524 101.047 87.1192C101.075 87.1861 101.089 87.2577 101.089 87.33V90.41C99.4206 91.4449 98.115 92.9723 97.3524 94.7811C96.5899 96.59 96.4079 98.5911 96.8316 100.508C97.2554 102.425 98.2639 104.162 99.718 105.481C101.172 106.8 103 107.635 104.949 107.87C105.32 107.918 105.694 107.942 106.069 107.94C108.133 107.948 110.143 107.282 111.794 106.043C113.444 104.804 114.645 103.059 115.214 101.075C115.782 99.0907 115.686 96.9751 114.942 95.0499C114.197 93.1248 112.844 91.4956 111.089 90.41ZM103.359 12.02H104.919C105.576 12.02 106.207 12.2813 106.672 12.7464C107.137 13.2115 107.399 13.8423 107.399 14.5V20.34C107.39 21.5957 106.999 22.8188 106.277 23.8463C105.555 24.8737 104.537 25.6564 103.359 26.09V12.02ZM72.2787 4.66002C72.1689 4.4854 72.109 4.28405 72.1054 4.07781C72.1019 3.87156 72.1549 3.66829 72.2587 3.49002C72.3578 3.30652 72.5053 3.15364 72.6851 3.04788C72.8648 2.94213 73.0701 2.88754 73.2787 2.89002H100.189C100.499 2.89028 100.796 3.01363 101.016 3.23299C101.235 3.45235 101.358 3.74979 101.359 4.06002V11.12C98.7048 11.3573 96.123 12.1115 93.7587 13.34C92.3587 13.96 90.7787 14.66 88.8887 15.29C84.8587 16.63 78.0987 14.45 74.2987 13.13L74.4087 12.15C74.6562 9.98776 74.1816 7.80435 73.0587 5.94002L72.2787 4.66002ZM72.1587 31.52L74.0587 15.15C79.7487 17.09 85.4487 18.55 89.5187 17.19C91.5087 16.53 93.1387 15.8 94.5687 15.17C96.6816 14.0624 98.9858 13.3667 101.359 13.12V31.98C101.358 33.0415 100.936 34.0593 100.187 34.8108C99.4369 35.5623 98.4201 35.9863 97.3587 35.99H76.1387C75.5741 35.9878 75.0163 35.8667 74.5016 35.6346C73.9869 35.4025 73.5269 35.0646 73.1514 34.643C72.776 34.2213 72.4935 33.7253 72.3225 33.1872C72.1514 32.6491 72.0956 32.0811 72.1587 31.52ZM24.6487 24.63C24.6495 23.8054 24.9774 23.0149 25.5604 22.4318C26.1435 21.8487 26.9341 21.5208 27.7587 21.52H61.4887C61.8977 21.52 62.3028 21.6006 62.6807 21.7571C63.0587 21.9137 63.4021 22.1431 63.6913 22.4324C63.9806 22.7216 64.21 23.065 64.3666 23.443C64.5231 23.8209 64.6037 24.2259 64.6037 24.635C64.6037 25.0441 64.5231 25.4491 64.3666 25.8271C64.21 26.205 63.9806 26.5484 63.6913 26.8377C63.4021 27.1269 63.0587 27.3564 62.6807 27.5129C62.3028 27.6694 61.8977 27.75 61.4887 27.75H27.7587C27.3496 27.7494 26.9447 27.6681 26.567 27.511C26.1893 27.3538 25.8463 27.1238 25.5575 26.8341C25.2687 26.5444 25.0398 26.2006 24.8839 25.8225C24.7279 25.4443 24.648 25.0391 24.6487 24.63ZM27.7587 29.75H61.4887C61.8984 29.75 62.3041 29.8307 62.6826 29.9875C63.0612 30.1443 63.4051 30.3741 63.6948 30.6638C63.9846 30.9536 64.2144 31.2975 64.3712 31.676C64.528 32.0546 64.6087 32.4603 64.6087 32.87C64.6087 33.2797 64.528 33.6855 64.3712 34.064C64.2144 34.4425 63.9846 34.7865 63.6948 35.0762C63.4051 35.3659 63.0612 35.5957 62.6826 35.7525C62.3041 35.9093 61.8984 35.99 61.4887 35.99H27.7587C26.9312 35.99 26.1376 35.6613 25.5525 35.0762C24.9674 34.4911 24.6387 33.6975 24.6387 32.87C24.6387 32.0425 24.9674 31.249 25.5525 30.6638C26.1376 30.0787 26.9312 29.75 27.7587 29.75ZM24.1287 98.46C24.127 99.7073 23.8136 100.934 23.2169 102.03C22.6202 103.125 21.7592 104.054 20.7121 104.732C19.665 105.41 18.4651 105.815 17.2215 105.911C15.9779 106.007 14.73 105.79 13.5913 105.281C12.4526 104.772 11.4593 103.986 10.7016 102.996C9.94388 102.005 9.44587 100.84 9.25283 99.6081C9.0598 98.3758 9.17786 97.1148 9.59628 95.9398C10.0147 94.7648 10.7202 93.7129 11.6487 92.88V94.14C11.6363 95.4042 12.0906 96.6286 12.9246 97.5787C13.7585 98.5289 14.9136 99.1382 16.1687 99.29C16.8628 99.357 17.5632 99.278 18.225 99.0581C18.8868 98.8383 19.4953 98.4824 20.0114 98.0134C20.5274 97.5444 20.9397 96.9727 21.2217 96.3349C21.5037 95.6971 21.6491 95.0074 21.6487 94.31V92.9C22.4295 93.6005 23.0539 94.4577 23.4812 95.4157C23.9085 96.3737 24.1291 97.411 24.1287 98.46ZM100.539 84.78H22.1987C21.5233 84.7829 20.8763 85.0525 20.3987 85.5301C19.9212 86.0077 19.6516 86.6546 19.6487 87.33V94.31C19.6492 94.7288 19.5621 95.143 19.3929 95.5261C19.2238 95.9091 18.9763 96.2525 18.6664 96.5342C18.3565 96.8158 17.991 97.0295 17.5936 97.1614C17.1961 97.2933 16.7755 97.3405 16.3587 97.3C15.5976 97.1984 14.9005 96.8201 14.4006 96.2372C13.9008 95.6543 13.6331 94.9077 13.6487 94.14V22.17C13.6473 21.1096 13.2255 20.0929 12.4756 19.3431C11.7258 18.5932 10.7091 18.1713 9.64867 18.17H5.63867C4.84302 18.17 4.07996 17.8539 3.51735 17.2913C2.95474 16.7287 2.63867 15.9657 2.63867 15.17C2.63867 14.3744 2.95474 13.6113 3.51735 13.0487C4.07996 12.4861 4.84302 12.17 5.63867 12.17H12.6487C14.5045 12.1721 16.2838 12.9103 17.5961 14.2226C18.9084 15.5349 19.6466 17.3141 19.6487 19.17V35.1C19.6487 35.8957 19.9647 36.6587 20.5274 37.2213C21.09 37.7839 21.853 38.1 22.6487 38.1H106.089C106.884 38.1 107.647 38.4161 108.21 38.9787C108.773 39.5413 109.089 40.3044 109.089 41.1V94.31C109.089 94.7288 109.002 95.143 108.833 95.5261C108.664 95.9091 108.416 96.2525 108.106 96.5342C107.796 96.8158 107.431 97.0295 107.034 97.1614C106.636 97.2933 106.215 97.3405 105.799 97.3C105.038 97.1984 104.341 96.8201 103.841 96.2372C103.341 95.6543 103.073 94.9077 103.089 94.14V87.33C103.088 86.654 102.819 86.0061 102.341 85.5281C101.863 85.0501 101.215 84.7811 100.539 84.78ZM111.069 104.05C110.275 104.759 109.339 105.29 108.323 105.607C107.307 105.925 106.235 106.021 105.179 105.89C103.583 105.683 102.094 104.972 100.931 103.861C99.7669 102.749 98.9884 101.295 98.7087 99.71C98.4967 98.4647 98.6039 97.1861 99.0201 95.9934C99.4363 94.8008 100.148 93.733 101.089 92.89V94.14C101.075 95.4047 101.528 96.63 102.362 97.5806C103.197 98.5311 104.353 99.1399 105.609 99.29C106.303 99.357 107.003 99.278 107.665 99.0581C108.327 98.8383 108.935 98.4824 109.451 98.0134C109.967 97.5444 110.38 96.9727 110.662 96.3349C110.944 95.6971 111.089 95.0074 111.089 94.31V92.89C111.874 93.5928 112.502 94.4537 112.931 95.4161C113.36 96.3785 113.581 97.4207 113.579 98.4745C113.577 99.5283 113.352 100.57 112.92 101.531C112.487 102.491 111.856 103.35 111.069 104.05Z" fill="black"/>
<path d="M99.0887 44.1H23.6487C22.5888 44.1031 21.5732 44.5256 20.8237 45.275C20.0743 46.0245 19.6518 47.0401 19.6487 48.1V74.78C19.65 75.8404 20.0719 76.8571 20.8217 77.6069C21.5716 78.3568 22.5882 78.7787 23.6487 78.78H99.0887C100.15 78.78 101.167 78.3586 101.917 77.6084C102.667 76.8583 103.089 75.8408 103.089 74.78V48.1C103.087 47.0395 102.666 46.0229 101.916 45.273C101.166 44.5232 100.149 44.1013 99.0887 44.1ZM101.089 74.78C101.087 75.3099 100.876 75.8177 100.501 76.1924C100.126 76.5672 99.6186 76.7784 99.0887 76.78H23.6487C23.1187 76.7784 22.6109 76.5672 22.2362 76.1924C21.8615 75.8177 21.6503 75.3099 21.6487 74.78V68.54L29.2187 66.61C33.8682 65.4186 38.7409 65.4014 43.3987 66.56L44.8587 66.92C49.7906 68.1467 54.9484 68.1433 59.8787 66.91L61.4087 66.53C65.9635 65.3935 70.7258 65.3764 75.2887 66.48L77.6887 67.06C82.3853 68.193 87.2812 68.217 91.9887 67.13L101.089 65.02V74.78ZM101.089 62.97L91.5387 65.18C87.1341 66.1952 82.554 66.1747 78.1587 65.12L75.7587 64.53C70.8794 63.3547 65.7883 63.3753 60.9187 64.59L59.3987 64.97C54.7834 66.1233 49.9556 66.1267 45.3387 64.98L43.8887 64.62C38.9057 63.3814 33.6933 63.3985 28.7187 64.67L21.6487 66.47V48.1C21.6503 47.57 21.8615 47.0622 22.2362 46.6875C22.6109 46.3128 23.1187 46.1016 23.6487 46.1H99.0887C99.6186 46.1016 100.126 46.3128 100.501 46.6875C100.876 47.0622 101.087 47.57 101.089 48.1V62.97Z" fill="black"/>
</svg>
