<svg width="84" height="124" viewBox="0 0 84 124" fill="none" xmlns="http://www.w3.org/2000/svg">
<path d="M78.9897 123.6H5.22766C3.90207 123.598 2.63122 123.071 1.69388 122.134C0.756544 121.196 0.229249 119.926 0.227661 118.6V5.40002C0.229249 4.07443 0.756544 2.80358 1.69388 1.86624C2.63122 0.928906 3.90207 0.401612 5.22766 0.400024H78.9897C80.3152 0.401612 81.5861 0.928906 82.5234 1.86624C83.4608 2.80358 83.9881 4.07443 83.9897 5.40002V118.6C83.9881 119.926 83.4608 121.196 82.5234 122.134C81.5861 123.071 80.3152 123.598 78.9897 123.6ZM5.22766 2.40002C4.43201 2.40002 3.66895 2.71609 3.10634 3.2787C2.54373 3.84131 2.22766 4.60437 2.22766 5.40002V118.6C2.22766 119.396 2.54373 120.159 3.10634 120.721C3.66895 121.284 4.43201 121.6 5.22766 121.6H78.9897C79.7853 121.6 80.5484 121.284 81.111 120.721C81.6736 120.159 81.9897 119.396 81.9897 118.6V5.40002C81.9897 4.60437 81.6736 3.84131 81.111 3.2787C80.5484 2.71609 79.7853 2.40002 78.9897 2.40002H5.22766Z" fill="black"/>
<path d="M72.9897 115.6H11.2277C10.432 115.6 9.66895 115.284 9.10634 114.721C8.54373 114.159 8.22766 113.396 8.22766 112.6V11.4C8.22766 10.6044 8.54373 9.84131 9.10634 9.2787C9.66895 8.7161 10.432 8.40002 11.2277 8.40002H72.9897C73.7853 8.40002 74.5484 8.7161 75.111 9.2787C75.6736 9.84131 75.9897 10.6044 75.9897 11.4V112.6C75.9897 113.396 75.6736 114.159 75.111 114.721C74.5484 115.284 73.7853 115.6 72.9897 115.6ZM11.2277 10.4C10.9624 10.4 10.7081 10.5054 10.5206 10.6929C10.333 10.8805 10.2277 11.1348 10.2277 11.4V112.6C10.2277 112.865 10.333 113.12 10.5206 113.307C10.7081 113.495 10.9624 113.6 11.2277 113.6H72.9897C73.2549 113.6 73.5092 113.495 73.6968 113.307C73.8843 113.12 73.9897 112.865 73.9897 112.6V11.4C73.9897 11.1348 73.8843 10.8805 73.6968 10.6929C73.5092 10.5054 73.2549 10.4 72.9897 10.4H11.2277Z" fill="black"/>
<path d="M61.9087 42.625H22.3137C21.2529 42.625 20.2354 42.2035 19.4853 41.4534C18.7351 40.7033 18.3137 39.6858 18.3137 38.625V22.225C18.3137 21.1641 18.7351 20.1467 19.4853 19.3965C20.2354 18.6464 21.2529 18.225 22.3137 18.225H61.9087C62.9696 18.225 63.987 18.6464 64.7371 19.3965C65.4873 20.1467 65.9087 21.1641 65.9087 22.225V38.625C65.9087 39.6858 65.4873 40.7033 64.7371 41.4534C63.987 42.2035 62.9696 42.625 61.9087 42.625ZM22.3187 20.225C21.7883 20.225 21.2796 20.4357 20.9045 20.8108C20.5294 21.1858 20.3187 21.6945 20.3187 22.225V38.625C20.3187 39.1554 20.5294 39.6641 20.9045 40.0392C21.2796 40.4143 21.7883 40.625 22.3187 40.625H61.9087C62.4392 40.625 62.9479 40.4143 63.3229 40.0392C63.698 39.6641 63.9087 39.1554 63.9087 38.625V22.225C63.9087 21.6945 63.698 21.1858 63.3229 20.8108C62.9479 20.4357 62.4392 20.225 61.9087 20.225H22.3187Z" fill="black"/>
<path d="M64.9657 84.786H62.5377C61.7421 84.786 60.979 84.4699 60.4164 83.9073C59.8538 83.3447 59.5377 82.5817 59.5377 81.786V69.5C59.5377 68.7044 59.8538 67.9413 60.4164 67.3787C60.979 66.8161 61.7421 66.5 62.5377 66.5H64.9657C65.7614 66.5 66.5244 66.8161 67.087 67.3787C67.6496 67.9413 67.9657 68.7044 67.9657 69.5V81.786C67.9657 82.5817 67.6496 83.3447 67.087 83.9073C66.5244 84.4699 65.7614 84.786 64.9657 84.786ZM62.5377 68.5C62.2725 68.5 62.0181 68.6054 61.8306 68.7929C61.6431 68.9804 61.5377 69.2348 61.5377 69.5V81.786C61.5377 82.0512 61.6431 82.3056 61.8306 82.4931C62.0181 82.6806 62.2725 82.786 62.5377 82.786H64.9657C65.2309 82.786 65.4853 82.6806 65.6728 82.4931C65.8604 82.3056 65.9657 82.0512 65.9657 81.786V69.5C65.9657 69.2348 65.8604 68.9804 65.6728 68.7929C65.4853 68.6054 65.2309 68.5 64.9657 68.5H62.5377Z" fill="black"/>
<path d="M34.2606 37.091C33.9954 37.091 33.741 36.9857 33.5535 36.7981C33.366 36.6106 33.2606 36.3562 33.2606 36.091V26.612L30.7916 28.238C30.57 28.3839 30.2996 28.4358 30.0397 28.3822C29.7799 28.3287 29.552 28.1741 29.4061 27.9525C29.2602 27.7309 29.2084 27.4605 29.2619 27.2007C29.3155 26.9408 29.47 26.7129 29.6916 26.567L32.9196 24.443C33.1507 24.2909 33.4188 24.2042 33.6952 24.1922C33.9717 24.1803 34.2462 24.2434 34.4896 24.375C34.7211 24.4978 34.915 24.681 35.0508 24.9052C35.1865 25.1293 35.259 25.386 35.2606 25.648V36.091C35.2606 36.3562 35.1553 36.6106 34.9677 36.7981C34.7802 36.9857 34.5258 37.091 34.2606 37.091Z" fill="black"/>
<path d="M53.9757 37.0911C53.7104 37.0911 53.4561 36.9857 53.2686 36.7982C53.081 36.6106 52.9757 36.3563 52.9757 36.0911V26.6121L50.5087 28.2381C50.2871 28.3839 50.0166 28.4358 49.7568 28.3823C49.497 28.3287 49.269 28.1742 49.1232 27.9526C48.9773 27.731 48.9254 27.4605 48.979 27.2007C49.0325 26.9409 49.1871 26.7129 49.4087 26.5671L52.6347 24.4431C52.8664 24.291 53.1349 24.2043 53.4118 24.1924C53.6887 24.1804 53.9637 24.2435 54.2077 24.3751C54.439 24.498 54.6327 24.6812 54.7682 24.9054C54.9038 25.1295 54.9762 25.3861 54.9777 25.6481V36.0911C54.9777 36.2226 54.9517 36.3528 54.9013 36.4742C54.851 36.5957 54.7771 36.706 54.6841 36.7989C54.591 36.8918 54.4805 36.9654 54.359 37.0155C54.2374 37.0657 54.1071 37.0913 53.9757 37.0911Z" fill="black"/>
<path d="M43.8087 37.0911H41.4307C40.635 37.0911 39.872 36.775 39.3093 36.2124C38.7467 35.6498 38.4307 34.8867 38.4307 34.0911V26.7571C38.4307 25.9614 38.7467 25.1984 39.3093 24.6358C39.872 24.0732 40.635 23.7571 41.4307 23.7571H43.8087C44.6043 23.7571 45.3674 24.0732 45.93 24.6358C46.4926 25.1984 46.8087 25.9614 46.8087 26.7571V34.0911C46.8087 34.8867 46.4926 35.6498 45.93 36.2124C45.3674 36.775 44.6043 37.0911 43.8087 37.0911ZM41.4307 25.7571C41.1654 25.7571 40.9111 25.8624 40.7236 26.05C40.536 26.2375 40.4307 26.4919 40.4307 26.7571V34.0911C40.4307 34.3563 40.536 34.6107 40.7236 34.7982C40.9111 34.9857 41.1654 35.0911 41.4307 35.0911H43.8087C44.0739 35.0911 44.3282 34.9857 44.5158 34.7982C44.7033 34.6107 44.8087 34.3563 44.8087 34.0911V26.7571C44.8087 26.4919 44.7033 26.2375 44.5158 26.05C44.3282 25.8624 44.0739 25.7571 43.8087 25.7571H41.4307Z" fill="black"/>
</svg>
