<svg width="120" height="100" viewBox="0 0 120 100" fill="none" xmlns="http://www.w3.org/2000/svg">
<path d="M116.209 36.44C116.608 36.4402 117.003 36.3616 117.372 36.2089C117.741 36.0562 118.076 35.8323 118.359 35.5499C118.641 35.2676 118.865 34.9325 119.017 34.5636C119.17 34.1947 119.249 33.7993 119.249 33.4001V27.3C119.245 24.8664 118.277 22.5334 116.556 20.8126C114.835 19.0918 112.502 18.1235 110.069 18.12H104.079C103.273 18.1214 102.5 18.4421 101.93 19.0119C101.361 19.5817 101.04 20.3542 101.039 21.16V21.19H90.8986L84.9286 3.98005C84.5802 2.98097 83.9305 2.11456 83.069 1.50024C82.2075 0.885922 81.1767 0.553937 80.1186 0.550049H40.0986C39.0406 0.553937 38.0097 0.885922 37.1483 1.50024C36.2868 2.11456 35.637 2.98097 35.2886 3.98005L29.3186 21.19H19.1786V21.16C19.1773 20.3542 18.8566 19.5817 18.2868 19.0119C17.7169 18.4421 16.9445 18.1214 16.1386 18.12H10.1486C7.715 18.1235 5.38203 19.0918 3.66119 20.8126C1.94035 22.5334 0.972068 24.8664 0.968629 27.3V33.4001C0.968498 33.7993 1.04704 34.1947 1.19977 34.5636C1.3525 34.9325 1.57642 35.2676 1.85873 35.5499C2.14105 35.8323 2.47623 36.0562 2.84512 36.2089C3.21401 36.3616 3.60937 36.4402 4.00863 36.44H4.03863V81.12H4.00863C3.20121 81.1219 2.42753 81.4442 1.85754 82.016C1.28754 82.5879 0.967832 83.3626 0.968629 84.17V90.27C0.972068 92.7037 1.94035 95.0366 3.66119 96.7575C5.38203 98.4783 7.715 99.4466 10.1486 99.45H16.1386C16.9461 99.4482 17.7197 99.1259 18.2897 98.5541C18.8597 97.9822 19.1794 97.2075 19.1786 96.4V96.38H78.4986V96.54H87.7286V96.38H101.039V96.4C101.038 97.2075 101.358 97.9822 101.928 98.5541C102.498 99.1259 103.271 99.4482 104.079 99.45H110.069C112.502 99.4466 114.835 98.4783 116.556 96.7575C118.277 95.0366 119.245 92.7037 119.249 90.27V84.17C119.249 83.3626 118.93 82.5879 118.36 82.016C117.79 81.4442 117.016 81.1219 116.209 81.12H116.179V36.44H116.209ZM4.00863 34.44C3.73329 34.4385 3.46968 34.3284 3.27498 34.1337C3.08028 33.939 2.9702 33.6754 2.96863 33.4001V27.3C2.97048 25.3964 3.72754 23.5712 5.07365 22.2251C6.41976 20.879 8.24494 20.1219 10.1486 20.12H16.1386C16.2752 20.1199 16.4105 20.1467 16.5368 20.1989C16.663 20.2512 16.7777 20.3278 16.8743 20.4244C16.9709 20.521 17.0475 20.6357 17.0997 20.7619C17.1519 20.8881 17.1788 21.0234 17.1786 21.16V33.4001C17.1788 33.5367 17.1519 33.672 17.0997 33.7982C17.0475 33.9244 16.9709 34.0391 16.8743 34.1357C16.7777 34.2323 16.663 34.3089 16.5368 34.3612C16.4105 34.4134 16.2752 34.4402 16.1386 34.44H4.00863ZM17.1786 96.4C17.1798 96.5374 17.1538 96.6737 17.1021 96.8009C17.0504 96.9282 16.974 97.044 16.8773 97.1416C16.7806 97.2392 16.6656 97.3167 16.5388 97.3697C16.412 97.4226 16.276 97.4499 16.1386 97.45H10.1486C8.24543 97.4466 6.42117 96.689 5.0754 95.3433C3.72963 93.9975 2.97207 92.1732 2.96863 90.27V84.17C2.96809 83.8931 3.07717 83.6273 3.27204 83.4305C3.46691 83.2338 3.73172 83.1222 4.00863 83.12H16.1386C16.276 83.1202 16.412 83.1475 16.5388 83.2004C16.6656 83.2534 16.7806 83.3309 16.8773 83.4285C16.974 83.5261 17.0504 83.6419 17.1021 83.7691C17.1538 83.8964 17.1798 84.0327 17.1786 84.17V96.4ZM32.4886 94.38H19.1786V84.17C19.1794 83.3626 18.8597 82.5879 18.2897 82.016C17.7197 81.4442 16.9461 81.1219 16.1386 81.12H6.03863V36.44H16.1386C16.5379 36.4402 16.9333 36.3616 17.3021 36.2089C17.671 36.0562 18.0062 35.8323 18.2885 35.5499C18.5708 35.2676 18.7948 34.9325 18.9475 34.5636C19.1002 34.1947 19.1788 33.7993 19.1786 33.4001V23.19H32.4886V94.38ZM39.7186 94.38H34.4886V23.19H39.7186V94.38ZM37.9286 21.19L41.7886 10.08C41.9293 9.67469 42.1926 9.32313 42.542 9.07408C42.8914 8.82503 43.3096 8.69082 43.7386 8.69005H76.4786C76.9077 8.69082 77.3259 8.82503 77.6753 9.07408C78.0247 9.32313 78.288 9.67469 78.4286 10.08L82.2886 21.19H37.9286ZM85.7286 23.34V94.54H80.4986V23.34H85.7286ZM41.7186 94.38V23.19H78.4986V94.38H41.7186ZM84.3986 21.19L80.3186 9.42005C80.0402 8.6233 79.5212 7.93268 78.8333 7.44364C78.1454 6.9546 77.3226 6.69128 76.4786 6.69005H43.7386C42.8946 6.69128 42.0718 6.9546 41.384 7.44364C40.6961 7.93268 40.1771 8.6233 39.8986 9.42005L35.8186 21.19H31.4386L37.1786 4.63005C37.3915 4.02456 37.7863 3.49969 38.309 3.12733C38.8318 2.75496 39.4568 2.55333 40.0986 2.55005H80.1186C80.7604 2.55333 81.3855 2.75496 81.9082 3.12733C82.431 3.49969 82.8258 4.02456 83.0386 4.63005L88.7786 21.19H84.3986ZM101.039 84.17V94.38H87.7286V23.19H101.039V33.4001C101.038 33.7993 101.117 34.1947 101.27 34.5636C101.422 34.9325 101.646 35.2676 101.929 35.5499C102.211 35.8323 102.546 36.0562 102.915 36.2089C103.284 36.3616 103.679 36.4402 104.079 36.44H114.179V81.12H104.079C103.271 81.1219 102.498 81.4442 101.928 82.016C101.358 82.5879 101.038 83.3626 101.039 84.17ZM116.209 83.12C116.486 83.1222 116.75 83.2338 116.945 83.4305C117.14 83.6273 117.249 83.8931 117.249 84.17V90.27C117.245 92.1732 116.488 93.9975 115.142 95.3433C113.796 96.689 111.972 97.4466 110.069 97.45H104.079C103.802 97.4479 103.537 97.3363 103.342 97.1396C103.147 96.9428 103.038 96.677 103.039 96.4V84.17C103.038 83.8931 103.147 83.6273 103.342 83.4305C103.537 83.2338 103.802 83.1222 104.079 83.12H116.209ZM104.079 34.44C103.803 34.4385 103.54 34.3284 103.345 34.1337C103.15 33.939 103.04 33.6754 103.039 33.4001V21.16C103.04 20.8847 103.15 20.6211 103.345 20.4264C103.54 20.2317 103.803 20.1216 104.079 20.12H110.069C111.972 20.1219 113.798 20.879 115.144 22.2251C116.49 23.5712 117.247 25.3964 117.249 27.3V33.4001C117.247 33.6754 117.137 33.939 116.942 34.1337C116.748 34.3284 116.484 34.4385 116.209 34.44H104.079Z" fill="black"/>
</svg>
