<svg width="116" height="114" viewBox="0 0 116 114" fill="none" xmlns="http://www.w3.org/2000/svg">
<path d="M109.569 40.3H83.7487V9.54004C83.745 7.15423 82.7956 4.86719 81.1086 3.18017C79.4215 1.49314 77.1345 0.543742 74.7487 0.540039H61.3787C60.0526 0.540039 58.7808 1.06682 57.8431 2.00451C56.9055 2.94219 56.3787 4.21396 56.3787 5.54004V7.54004C56.3787 8.86612 56.9055 10.1379 57.8431 11.0756C58.7808 12.0133 60.0526 12.54 61.3787 12.54H69.7487C70.2786 12.5416 70.7864 12.7528 71.1611 13.1276C71.5359 13.5023 71.7471 14.0101 71.7487 14.54V21.4C71.7487 21.6653 71.6433 21.9196 71.4558 22.1071C71.2682 22.2947 71.0139 22.4 70.7487 22.4H47.8987C47.6335 22.4 47.3791 22.2947 47.1916 22.1071C47.004 21.9196 46.8987 21.6653 46.8987 21.4V9.54004C46.895 7.15423 45.9456 4.86719 44.2586 3.18017C42.5715 1.49314 40.2845 0.543742 37.8987 0.540039H24.5187C23.1926 0.540039 21.9208 1.06682 20.9831 2.00451C20.0455 2.94219 19.5187 4.21396 19.5187 5.54004V7.54004C19.5187 8.86612 20.0455 10.1379 20.9831 11.0756C21.9208 12.0133 23.1926 12.54 24.5187 12.54H32.8987C33.4286 12.5416 33.9364 12.7528 34.3111 13.1276C34.6859 13.5023 34.8971 14.0101 34.8987 14.54V40.3H6.64868C5.05828 40.3029 3.53384 40.936 2.40925 42.0606C1.28466 43.1852 0.651589 44.7096 0.648682 46.3V107.46C0.648682 109.051 1.28082 110.577 2.40604 111.703C3.53126 112.828 5.05738 113.46 6.64868 113.46H109.569C111.16 113.46 112.686 112.828 113.811 111.703C114.937 110.577 115.569 109.051 115.569 107.46V46.3C115.566 44.7096 114.933 43.1852 113.808 42.0606C112.684 40.936 111.159 40.3029 109.569 40.3ZM32.8987 10.54H24.5187C23.7238 10.5377 22.9621 10.2208 22.4 9.65874C21.8379 9.09664 21.5211 8.33496 21.5187 7.54004V5.54004C21.5187 4.74439 21.8348 3.98133 22.3974 3.41872C22.96 2.85611 23.723 2.54004 24.5187 2.54004H37.8987C39.7545 2.54216 41.5338 3.28033 42.8461 4.59263C44.1584 5.90493 44.8966 7.68417 44.8987 9.54004V21.4C44.9011 22.195 45.2179 22.9566 45.78 23.5187C46.3421 24.0808 47.1038 24.3977 47.8987 24.4H70.7487C71.5436 24.3977 72.3053 24.0808 72.8674 23.5187C73.4295 22.9566 73.7463 22.195 73.7487 21.4V14.54C73.7487 13.4792 73.3273 12.4618 72.5771 11.7116C71.827 10.9615 70.8095 10.54 69.7487 10.54H61.3787C60.5838 10.5377 59.8221 10.2208 59.26 9.65874C58.6979 9.09664 58.3811 8.33496 58.3787 7.54004V5.54004C58.3787 4.74439 58.6948 3.98133 59.2574 3.41872C59.82 2.85611 60.583 2.54004 61.3787 2.54004H74.7487C76.6045 2.54216 78.3838 3.28033 79.6961 4.59263C81.0084 5.90493 81.7466 7.68417 81.7487 9.54004V68.98C80.638 69.8671 79.3443 70.4968 77.961 70.8236C76.5776 71.1504 75.1389 71.1663 73.7487 70.87V61.02C73.7463 60.2251 73.4295 59.4634 72.8674 58.9013C72.3053 58.3392 71.5436 58.0224 70.7487 58.02H47.8987C47.1038 58.0224 46.3421 58.3392 45.78 58.9013C45.2179 59.4634 44.9011 60.2251 44.8987 61.02V70.39C43.5372 70.7462 42.1137 70.7964 40.7305 70.5371C39.3473 70.2777 38.0387 69.7152 36.8987 68.89V14.54C36.8987 13.4792 36.4773 12.4618 35.7271 11.7116C34.977 10.9615 33.9595 10.54 32.8987 10.54ZM71.7487 61.02V70.17C70.7605 69.6975 69.8634 69.0543 69.0987 68.27L67.1587 66.3C65.0373 64.1402 62.1461 62.9094 59.1188 62.8775C56.0915 62.8457 53.1751 64.0153 51.0087 66.13L49.0587 68.04C48.4162 68.6652 47.6891 69.1971 46.8987 69.62V61.02C46.8987 60.7548 47.004 60.5005 47.1916 60.3129C47.3791 60.1254 47.6335 60.02 47.8987 60.02H70.7487C71.0139 60.02 71.2682 60.1254 71.4558 60.3129C71.6433 60.5005 71.7487 60.7548 71.7487 61.02ZM113.569 107.46C113.569 108.521 113.147 109.538 112.397 110.288C111.647 111.039 110.63 111.46 109.569 111.46H6.64868C5.58782 111.46 4.5704 111.039 3.82025 110.288C3.07011 109.538 2.64868 108.521 2.64868 107.46V46.3C2.65 45.2396 3.07186 44.2229 3.82172 43.4731C4.57158 42.7232 5.58822 42.3014 6.64868 42.3H34.8987V67.04L33.7887 65.91C31.6669 63.7546 28.7781 62.5268 25.7538 62.495C22.7294 62.4631 19.8154 63.6298 17.6487 65.74L15.7187 67.62C15.53 67.8075 15.4231 68.062 15.4212 68.328C15.4193 68.594 15.5227 68.8499 15.7087 69.04C15.8947 69.2276 16.1474 69.334 16.4116 69.3358C16.6758 69.3377 16.93 69.235 17.1187 69.05L19.0487 67.17C20.8358 65.4304 23.2387 64.4687 25.7326 64.4949C28.2264 64.5212 30.6086 65.5332 32.3587 67.31L34.3187 69.3C34.9711 69.9271 35.6771 70.496 36.4287 71C37.7555 71.8052 39.2292 72.3383 40.764 72.5683C42.2989 72.7984 43.8641 72.7208 45.3687 72.34C45.8942 72.2209 46.4067 72.0501 46.8987 71.83C48.2228 71.2735 49.4305 70.473 50.4587 69.47L52.4087 67.56C54.1955 65.8159 56.6008 64.8512 59.0976 64.8775C61.5944 64.9037 63.979 65.9187 65.7287 67.7L67.6687 69.67C69.1157 71.1536 70.9411 72.2127 72.9471 72.7327C74.9531 73.2528 77.0632 73.2138 79.0487 72.62C80.8357 72.0893 82.4684 71.1357 83.8087 69.84L85.7587 67.94C87.5455 66.1959 89.9508 65.2313 92.4476 65.2575C94.9444 65.2837 97.3289 66.2987 99.0787 68.08C99.2662 68.2687 99.5206 68.3757 99.7866 68.3775C100.053 68.3794 100.309 68.2761 100.499 68.09C100.686 67.904 100.793 67.6513 100.794 67.3871C100.796 67.1229 100.694 66.8687 100.509 66.68C98.3861 64.5223 95.4953 63.2931 92.4688 63.2612C89.4422 63.2294 86.5262 64.3975 84.3587 66.51L83.7487 67.11V42.3H109.569C110.629 42.3014 111.646 42.7232 112.396 43.4731C113.146 44.2229 113.567 45.2396 113.569 46.3V107.46Z" fill="black"/>
<path d="M42.3957 94.9381C40.8996 94.9414 39.4175 94.6498 38.0342 94.0799C36.6508 93.5101 35.3934 92.6732 34.3337 91.6171L32.3587 89.6501C30.5875 87.8919 28.1924 86.9064 25.6968 86.909C23.2012 86.9117 20.8081 87.9022 19.0407 89.6641L17.1407 91.5641C17.0484 91.6596 16.9381 91.7358 16.8161 91.7882C16.6941 91.8406 16.5629 91.8682 16.4301 91.8693C16.2973 91.8705 16.1656 91.8452 16.0427 91.7949C15.9198 91.7446 15.8082 91.6704 15.7143 91.5765C15.6204 91.4826 15.5461 91.3709 15.4959 91.248C15.4456 91.1251 15.4203 90.9935 15.4214 90.8607C15.4226 90.7279 15.4502 90.5967 15.5026 90.4747C15.555 90.3527 15.6312 90.2423 15.7267 90.1501L17.6267 88.2501C19.7691 86.1148 22.6697 84.9144 25.6945 84.911C28.7193 84.9076 31.6224 86.1016 33.7697 88.2321L35.7447 90.2001C37.5159 91.9576 39.9107 92.9427 42.4059 92.9403C44.9011 92.9379 47.2939 91.9481 49.0617 90.1871L50.9937 88.2551C53.1366 86.1186 56.0385 84.9177 59.0645 84.9153C62.0905 84.9129 64.9943 86.109 67.1407 88.2421L69.0977 90.1931C70.8686 91.9528 73.2642 92.9396 75.7607 92.9377C78.2572 92.9358 80.6514 91.9454 82.4197 90.1831L84.3457 88.2551C86.4888 86.1185 89.3908 84.9177 92.417 84.9152C95.4432 84.9128 98.3472 86.109 100.494 88.2421C100.589 88.3342 100.666 88.4444 100.718 88.5664C100.771 88.6883 100.799 88.8195 100.8 88.9522C100.801 89.085 100.776 89.2167 100.726 89.3397C100.676 89.4626 100.602 89.5744 100.508 89.6684C100.414 89.7624 100.303 89.8369 100.18 89.8873C100.057 89.9378 99.9255 89.9632 99.7927 89.9623C99.6599 89.9613 99.5287 89.9339 99.4066 89.8817C99.2845 89.8295 99.1741 89.7535 99.0817 89.6581C97.3108 87.8983 94.915 86.9115 92.4184 86.9136C89.9218 86.9156 87.5277 87.9064 85.7597 89.6691L83.8337 91.6001C81.6908 93.7373 78.7886 94.9384 75.7622 94.9407C72.7357 94.9429 69.8317 93.7461 67.6857 91.6121L65.7287 89.6571C63.958 87.8973 61.5623 86.9106 59.0659 86.9126C56.5695 86.9147 54.1755 87.9054 52.4077 89.6681L50.4757 91.6001C49.415 92.6612 48.1553 93.5023 46.7687 94.0751C45.382 94.6479 43.8959 94.9412 42.3957 94.9381Z" fill="black"/>
<path d="M70.7487 32.4H47.8987C47.1038 32.4024 46.3421 32.7192 45.78 33.2813C45.2179 33.8434 44.9011 34.6051 44.8987 35.4V47.02C44.9011 47.8149 45.2179 48.5766 45.78 49.1387C46.3421 49.7008 47.1038 50.0176 47.8987 50.02H70.7487C71.5436 50.0176 72.3053 49.7008 72.8674 49.1387C73.4295 48.5766 73.7463 47.8149 73.7487 47.02V35.4C73.7463 34.6051 73.4295 33.8434 72.8674 33.2813C72.3053 32.7192 71.5436 32.4024 70.7487 32.4ZM46.8987 35.4C46.8987 35.1348 47.004 34.8805 47.1916 34.6929C47.3791 34.5054 47.6335 34.4 47.8987 34.4H70.7487C71.0139 34.4 71.2683 34.5054 71.4558 34.6929C71.6433 34.8805 71.7487 35.1348 71.7487 35.4V40.3H46.8987V35.4ZM71.7487 47.02C71.7487 47.2852 71.6433 47.5396 71.4558 47.7271C71.2683 47.9147 71.0139 48.02 70.7487 48.02H47.8987C47.6335 48.02 47.3791 47.9147 47.1916 47.7271C47.004 47.5396 46.8987 47.2852 46.8987 47.02V42.3H71.7487V47.02Z" fill="black"/>
</svg>
