<svg width="66" height="114" viewBox="0 0 66 114" fill="none" xmlns="http://www.w3.org/2000/svg">
<path d="M65.3987 57.55L56.7087 4.42003C56.5225 3.24808 55.9231 2.18143 55.0189 1.41295C54.1147 0.644471 52.9653 0.224875 51.7787 0.230027H14.4387C13.2521 0.224875 12.1027 0.644471 11.1985 1.41295C10.2943 2.18143 9.69492 3.24808 9.5087 4.42003L0.818697 57.55C0.699858 58.2655 0.738332 58.9982 0.931438 59.6972C1.12454 60.3963 1.46765 61.0449 1.93687 61.5979C2.4061 62.1508 2.99018 62.5949 3.64847 62.8993C4.30677 63.2036 5.02346 63.3608 5.7487 63.36H27.1087V80.09C24.0074 80.9603 21.1324 82.4947 18.6833 84.5868C16.2341 86.679 14.2692 89.2788 12.925 92.206C11.5808 95.1333 10.8894 98.3178 10.8986 101.539C10.9079 104.76 11.6177 107.941 12.9787 110.86C13.3856 111.727 14.03 112.46 14.8372 112.976C15.6444 113.491 16.5812 113.766 17.5387 113.77H48.6787C49.629 113.768 50.5596 113.498 51.3629 112.99C52.1662 112.482 52.8095 111.758 53.2187 110.9C54.7988 107.561 55.5108 103.877 55.2887 100.19C54.9774 95.5886 53.2578 91.1944 50.3632 87.6039C47.4686 84.0134 43.5393 81.4005 39.1087 80.12V63.36H55.5387V80.04C54.4872 80.2854 53.5626 80.909 52.9409 81.7919C52.3193 82.6748 52.0441 83.7555 52.1676 84.8282C52.2911 85.9009 52.8047 86.8907 53.6108 87.6093C54.4168 88.3278 55.4589 88.7249 56.5387 88.7249C57.6185 88.7249 58.6606 88.3278 59.4666 87.6093C60.2726 86.8907 60.7863 85.9009 60.9098 84.8282C61.0333 83.7555 60.7581 82.6748 60.1365 81.7919C59.5148 80.909 58.5902 80.2854 57.5387 80.04V63.36H60.4687C61.1939 63.3608 61.9106 63.2036 62.5689 62.8993C63.2272 62.5949 63.8113 62.1508 64.2805 61.5979C64.7497 61.0449 65.0928 60.3963 65.286 59.6972C65.4791 58.9982 65.5175 58.2655 65.3987 57.55ZM53.2887 100.3C53.3087 100.71 53.3287 101.11 53.3287 101.51C53.33 104.464 52.6741 107.381 51.4087 110.05C51.1618 110.565 50.7746 110.999 50.2916 111.303C49.8086 111.608 49.2495 111.77 48.6787 111.77H17.5387C16.961 111.766 16.3962 111.599 15.9095 111.287C15.4229 110.976 15.0343 110.533 14.7887 110.01C13.5691 107.383 12.9275 104.524 12.9075 101.628C12.8874 98.7316 13.4892 95.8646 14.6722 93.2207C15.8553 90.5768 17.5921 88.2177 19.7651 86.3026C21.9382 84.3876 24.497 82.9613 27.2687 82.12H27.2887C29.1734 81.554 31.1309 81.2677 33.0987 81.27C34.8524 81.3051 36.5966 81.5365 38.2987 81.96C42.3913 83.0839 46.0329 85.4531 48.7188 88.7392C51.4047 92.0254 53.0018 96.0656 53.2887 100.3ZM29.1087 79.65V63.36H37.1087V79.65C34.4618 79.1907 31.7556 79.1907 29.1087 79.65ZM58.9387 84.32C58.9397 84.7961 58.7993 85.2618 58.5355 85.6581C58.2716 86.0543 57.896 86.3633 57.4564 86.546C57.0167 86.7286 56.5327 86.7767 56.0657 86.6841C55.5987 86.5914 55.1698 86.3623 54.8331 86.0256C54.4965 85.689 54.2673 85.26 54.1747 84.793C54.082 84.326 54.1301 83.842 54.3127 83.4024C54.4954 82.9627 54.8044 82.5872 55.2007 82.3233C55.5969 82.0594 56.0626 81.919 56.5387 81.92C57.1752 81.92 57.7857 82.1729 58.2358 82.623C58.6858 83.0731 58.9387 83.6835 58.9387 84.32ZM62.7587 60.3C62.4778 60.6335 62.1271 60.9012 61.7314 61.0844C61.3358 61.2675 60.9047 61.3616 60.4687 61.36H5.7487C5.31424 61.3598 4.88501 61.2653 4.49069 61.0829C4.09637 60.9005 3.74636 60.6347 3.46488 60.3037C3.18339 59.9728 2.97715 59.5847 2.8604 59.1662C2.74365 58.7477 2.71918 58.3089 2.7887 57.88L11.4787 4.74003C11.5927 4.03786 11.9534 3.39937 12.4959 2.9393C13.0385 2.47922 13.7273 2.22774 14.4387 2.23003H51.7787C52.4901 2.22774 53.1789 2.47922 53.7215 2.9393C54.264 3.39937 54.6247 4.03786 54.7387 4.74003L63.4287 57.88C63.4993 58.3079 63.4759 58.7459 63.3602 59.1638C63.2445 59.5817 63.0393 59.9694 62.7587 60.3Z" fill="black"/>
</svg>
