<svg width="90" height="118" viewBox="0 0 90 118" fill="none" xmlns="http://www.w3.org/2000/svg">
<path d="M87.7486 54.7L46.1086 30.04V24.7C46.1149 24.5062 46.1914 24.3213 46.3238 24.1796C46.4563 24.038 46.6356 23.9493 46.8286 23.93C49.0933 23.6005 51.2157 22.6272 52.943 21.1259C54.6703 19.6245 55.9298 17.6584 56.5715 15.4617C57.2133 13.2649 57.2102 10.93 56.5627 8.73493C55.9152 6.53986 54.6505 4.5771 52.9193 3.08031C51.188 1.58353 49.0631 0.615775 46.7975 0.292271C44.5319 -0.0312323 42.2211 0.30314 40.1401 1.25558C38.0591 2.20802 36.2957 3.7384 35.0597 5.66454C33.8237 7.59067 33.1673 9.83141 33.1686 12.12C33.1686 12.3852 33.2739 12.6396 33.4615 12.8271C33.649 13.0146 33.9034 13.12 34.1686 13.12C34.4338 13.12 34.6882 13.0146 34.8757 12.8271C35.0632 12.6396 35.1686 12.3852 35.1686 12.12C35.1695 10.7822 35.4403 9.4583 35.9648 8.22761C36.4893 6.99691 37.2568 5.88472 38.2213 4.9576C39.1858 4.03048 40.3274 3.3075 41.5778 2.83196C42.8283 2.35641 44.1618 2.13806 45.4986 2.18999C47.9861 2.32137 50.3371 3.36865 52.0985 5.13007C53.8599 6.89149 54.9072 9.24243 55.0386 11.73C55.1381 14.1819 54.3254 16.5837 52.7573 18.4713C51.1892 20.3589 48.9772 21.5983 46.5486 21.95C45.8775 22.0344 45.26 22.3599 44.8111 22.8658C44.3622 23.3718 44.1125 24.0236 44.1086 24.7V30.04L2.46859 54.7C1.71493 55.1472 1.12898 55.8295 0.800813 56.6421C0.472644 57.4547 0.420414 58.3526 0.652151 59.1977C0.883888 60.0429 1.38677 60.7886 2.08349 61.3201C2.78022 61.8517 3.63224 62.1397 4.50859 62.14H8.80859V104.75C8.80672 105.508 8.98972 106.254 9.34173 106.925C9.69374 107.596 10.2041 108.171 10.8286 108.6C11.5884 109.116 12.4802 109.404 13.3986 109.43V111.63C13.397 112.209 13.5366 112.779 13.8053 113.292C14.0739 113.804 14.4635 114.244 14.9403 114.572C15.417 114.9 15.9666 115.106 16.5413 115.174C17.1161 115.242 17.6987 115.168 18.2386 114.96C22.0202 113.527 26.1448 113.262 30.0786 114.2L43.7186 117.47C44.7053 117.701 45.7152 117.818 46.7286 117.82C48.0339 117.823 49.3321 117.627 50.5786 117.24L58.5586 114.75C59.46 114.468 60.3786 114.245 61.3086 114.08C64.7042 113.511 68.189 113.824 71.4286 114.99C71.4286 114.99 73.9656 115.821 75.3086 114.77C75.7663 114.431 76.1404 113.991 76.4021 113.485C76.6638 112.979 76.8063 112.42 76.8186 111.85V109.54C77.7552 109.531 78.6664 109.234 79.4286 108.69C80.0403 108.256 80.5392 107.682 80.8837 107.015C81.2281 106.349 81.4081 105.61 81.4086 104.86V62.14H85.7086C86.5849 62.1397 87.437 61.8517 88.1337 61.3201C88.8304 60.7886 89.3333 60.0429 89.565 59.1977C89.7968 58.3526 89.7445 57.4547 89.4164 56.6421C89.0882 55.8295 88.5023 55.1472 87.7486 54.7ZM74.8186 111.85C74.8185 112.102 74.7579 112.35 74.6419 112.573C74.5259 112.797 74.358 112.989 74.1522 113.134C73.9464 113.279 73.7087 113.373 73.4592 113.407C73.2098 113.441 72.9557 113.415 72.7186 113.33L72.0986 113.1C68.5403 111.828 64.7157 111.487 60.9886 112.11C59.9666 112.285 58.9576 112.529 57.9686 112.84L49.9786 115.33C48.1007 115.912 46.1006 115.978 44.1886 115.52L30.5486 112.26C26.2231 111.221 21.6847 111.514 17.5286 113.1C17.2906 113.189 17.0345 113.219 16.7823 113.188C16.53 113.157 16.289 113.065 16.0798 112.921C15.8706 112.777 15.6995 112.584 15.5808 112.359C15.4622 112.134 15.3997 111.884 15.3986 111.63V109.02L19.8786 107.32C22.7919 106.203 25.9758 105.997 29.0086 106.73L42.6586 110C45.724 110.728 48.9286 110.621 51.9386 109.69L60.0386 107.17C63.2545 106.175 66.7058 106.245 69.8786 107.37L74.8186 109.14V111.85ZM79.4086 104.86C79.4126 105.289 79.3118 105.713 79.1149 106.095C78.918 106.477 78.6309 106.804 78.2786 107.05C77.9243 107.288 77.52 107.442 77.097 107.499C76.674 107.556 76.2434 107.515 75.8386 107.38L70.5586 105.49C66.9739 104.215 63.073 104.135 59.4386 105.26L51.3486 107.77C48.6803 108.602 45.8372 108.698 43.1186 108.05L29.4786 104.78C26.0496 103.959 22.4525 104.192 19.1586 105.45L14.4286 107.25C14.3286 107.29 14.2386 107.31 14.1386 107.34H14.1286C13.7604 107.438 13.3751 107.454 13.0001 107.387C12.625 107.32 12.2694 107.17 11.9586 106.95C11.601 106.706 11.3091 106.377 11.1085 105.994C10.908 105.61 10.8049 105.183 10.8086 104.75V98.48C10.8186 98.49 10.8186 98.5 10.8286 98.5C11.4509 98.9299 12.1685 99.2018 12.9194 99.2924C13.6702 99.383 14.4319 99.2895 15.1386 99.02L19.8786 97.22C22.7919 96.103 25.9758 95.8972 29.0086 96.63L42.6586 99.89C43.9906 100.217 45.3571 100.381 46.7286 100.38C48.4958 100.379 50.2525 100.109 51.9386 99.58L60.0386 97.07C63.2545 96.0749 66.7058 96.1451 69.8786 97.27L75.1686 99.16C75.8689 99.4139 76.6203 99.4947 77.3586 99.3955C78.0969 99.2962 78.8002 99.0199 79.4086 98.59V104.86ZM79.4086 94.76C79.4103 95.1888 79.3086 95.6117 79.112 95.9928C78.9155 96.374 78.63 96.7021 78.2796 96.9494C77.9293 97.1967 77.5245 97.3558 77.0996 97.4134C76.6746 97.4709 76.2421 97.4252 75.8386 97.28L70.5586 95.39C66.9729 94.1205 63.0737 94.0398 59.4386 95.16L51.3486 97.67C48.6803 98.5016 45.8372 98.5983 43.1186 97.95L29.4786 94.68C28.1385 94.3616 26.7659 94.2005 25.3886 94.2C23.259 94.1989 21.1474 94.5887 19.1586 95.35L14.4286 97.15C14.024 97.304 13.588 97.3574 13.1581 97.3054C12.7283 97.2535 12.3176 97.0977 11.9613 96.8517C11.6051 96.6057 11.314 96.2767 11.1132 95.8932C10.9124 95.5096 10.8078 95.0829 10.8086 94.65V93.89C10.8086 93.9 10.8186 93.9 10.8286 93.91C11.4519 94.3376 12.1694 94.6082 12.9198 94.6987C13.6702 94.7892 14.4315 94.6971 15.1386 94.43L19.8786 92.63C22.7919 91.513 25.9758 91.3072 29.0086 92.04L42.6586 95.3C45.723 96.0385 48.9303 95.9313 51.9386 94.99L60.0386 92.48C63.2538 91.48 66.7067 91.5501 69.8786 92.68L75.1686 94.57C75.8689 94.8209 76.6189 94.901 77.3564 94.8036C78.0939 94.7062 78.7975 94.4342 79.4086 94.01V94.76ZM79.4086 90.17C79.4115 90.5992 79.3102 91.0228 79.1134 91.4042C78.9166 91.7857 78.6301 92.1137 78.2786 92.36C77.9299 92.6103 77.5251 92.7713 77.0997 92.8288C76.6743 92.8864 76.2413 92.8387 75.8386 92.69L70.5586 90.8C66.9749 89.5221 63.074 89.4379 59.4386 90.56L51.3486 93.08C48.6803 93.9116 45.8372 94.0083 43.1186 93.36L29.4786 90.09C26.0496 89.2686 22.4525 89.5021 19.1586 90.76L14.4286 92.56C14.024 92.714 13.588 92.7674 13.1581 92.7154C12.7283 92.6635 12.3176 92.5078 11.9613 92.2617C11.6051 92.0157 11.314 91.6867 11.1132 91.3031C10.9124 90.9196 10.8078 90.4929 10.8086 90.06V57.58C10.8091 57.116 10.9937 56.6712 11.3217 56.3431C11.6498 56.0151 12.0946 55.8305 12.5586 55.83H77.6586C78.1226 55.8305 78.5674 56.0151 78.8954 56.3431C79.2235 56.6712 79.4081 57.116 79.4086 57.58V90.17ZM87.6386 58.67C87.5337 59.0989 87.2849 59.4788 86.9336 59.7464C86.5824 60.0139 86.1499 60.1529 85.7086 60.14H81.4086V57.58C81.4083 56.5855 81.0131 55.6318 80.3099 54.9286C79.6067 54.2254 78.6531 53.8303 77.6586 53.83H12.5586C11.5641 53.8303 10.6104 54.2254 9.90723 54.9286C9.20403 55.6318 8.80886 56.5855 8.80859 57.58V60.14H4.50859C4.07041 60.1399 3.6444 59.9958 3.29604 59.7301C2.94768 59.4643 2.69624 59.0914 2.58037 58.6689C2.4645 58.2463 2.49062 57.7973 2.6547 57.391C2.81879 56.9848 3.11176 56.6436 3.48859 56.42L44.9486 31.87L45.1086 31.78L45.2686 31.87L86.7286 56.42C87.1151 56.634 87.4164 56.9743 87.5821 57.3838C87.7477 57.7934 87.7677 58.2475 87.6386 58.67Z" fill="black"/>
</svg>
