<svg width="120" height="124" viewBox="0 0 120 124" fill="none" xmlns="http://www.w3.org/2000/svg">
<path d="M115.719 90.7H113.039V53.77C113.039 39.7321 107.462 26.2691 97.5358 16.3428C87.6095 6.4165 74.1466 0.839966 60.1087 0.839966C46.0707 0.839966 32.6078 6.4165 22.6815 16.3428C12.7552 26.2691 7.17866 39.7321 7.17866 53.77V90.7H4.49866C3.43877 90.7031 2.42319 91.1256 1.67373 91.875C0.924267 92.6245 0.501823 93.6401 0.498657 94.7V96.7C0.49998 97.7604 0.921833 98.7771 1.67169 99.5269C2.42155 100.277 3.4382 100.699 4.49866 100.7H7.53866V105.62C5.78768 106.707 4.43863 108.335 3.69582 110.257C2.95301 112.18 2.85691 114.292 3.42207 116.274C3.98723 118.256 5.18287 120 6.82789 121.241C8.47292 122.483 10.4777 123.154 12.5387 123.154C14.5996 123.154 16.6044 122.483 18.2494 121.241C19.8944 120 21.0901 118.256 21.6552 116.274C22.2204 114.292 22.1243 112.18 21.3815 110.257C20.6387 108.335 19.2896 106.707 17.5387 105.62V100.7H103.399V105.61C101.644 106.695 100.291 108.323 99.5451 110.247C98.7988 112.17 98.6998 114.284 99.263 116.269C99.8263 118.254 101.021 120.001 102.666 121.245C104.312 122.49 106.318 123.165 108.381 123.167C110.444 123.169 112.452 122.498 114.1 121.257C115.747 120.015 116.946 118.271 117.513 116.287C118.08 114.304 117.985 112.189 117.243 110.264C116.501 108.339 115.151 106.709 113.399 105.62V100.7H115.719C116.779 100.699 117.796 100.277 118.546 99.5269C119.295 98.7771 119.717 97.7604 119.719 96.7V94.7C119.715 93.6401 119.293 92.6245 118.544 91.875C117.794 91.1256 116.779 90.7031 115.719 90.7ZM9.17866 53.77C9.17866 40.2625 14.5445 27.3082 24.0957 17.757C33.6469 8.20579 46.6012 2.83997 60.1087 2.83997C73.6161 2.83997 86.5704 8.20579 96.1216 17.757C105.673 27.3082 111.039 40.2625 111.039 53.77V90.7H9.17866V53.77ZM15.5387 109.67C15.5387 110.466 15.2226 111.229 14.66 111.791C14.0974 112.354 13.3343 112.67 12.5387 112.67C11.743 112.67 10.9799 112.354 10.4173 111.791C9.85473 111.229 9.53866 110.466 9.53866 109.67V100.7H15.5387V109.67ZM20.0187 113.67C20.0192 114.917 19.7079 116.145 19.1132 117.241C18.5184 118.337 17.659 119.267 16.6132 119.946C15.5674 120.625 14.3683 121.032 13.125 121.13C11.8818 121.228 10.6338 121.013 9.49465 120.506C8.35549 119.998 7.3613 119.214 6.60252 118.224C5.84374 117.235 5.34445 116.071 5.15008 114.839C4.9557 113.607 5.0724 112.346 5.48957 111.171C5.90673 109.996 6.61112 108.944 7.53866 108.11V109.67C7.53866 110.996 8.06544 112.268 9.00312 113.206C9.94081 114.143 11.2126 114.67 12.5387 114.67C13.8647 114.67 15.1365 114.143 16.0742 113.206C17.0119 112.268 17.5387 110.996 17.5387 109.67V108.11C18.3195 108.81 18.9439 109.668 19.3712 110.626C19.7985 111.584 20.0191 112.621 20.0187 113.67ZM115.879 113.67C115.881 114.919 115.571 116.148 114.977 117.247C114.382 118.345 113.522 119.277 112.476 119.958C111.429 120.64 110.228 121.048 108.983 121.146C107.738 121.245 106.488 121.03 105.348 120.522C104.207 120.013 103.211 119.228 102.452 118.236C101.692 117.245 101.193 116.079 100.999 114.846C100.806 113.612 100.924 112.349 101.343 111.173C101.762 109.996 102.469 108.943 103.399 108.11V109.67C103.399 110.996 103.925 112.268 104.863 113.206C105.801 114.143 107.073 114.67 108.399 114.67C109.725 114.67 110.997 114.143 111.934 113.206C112.872 112.268 113.399 110.996 113.399 109.67V108.11C114.179 108.81 114.804 109.668 115.231 110.626C115.659 111.584 115.879 112.621 115.879 113.67ZM105.399 109.67V100.7H111.399V109.67C111.399 110.466 111.083 111.229 110.52 111.791C109.957 112.354 109.194 112.67 108.399 112.67C107.603 112.67 106.84 112.354 106.277 111.791C105.715 111.229 105.399 110.466 105.399 109.67ZM117.719 96.7C117.719 97.2304 117.508 97.7391 117.133 98.1142C116.758 98.4893 116.249 98.7 115.719 98.7H4.49866C3.96822 98.7 3.45952 98.4893 3.08444 98.1142C2.70937 97.7391 2.49866 97.2304 2.49866 96.7V94.7C2.50024 94.17 2.71146 93.6622 3.08619 93.2875C3.46092 92.9128 3.96871 92.7015 4.49866 92.7H115.719C116.249 92.7015 116.756 92.9128 117.131 93.2875C117.506 93.6622 117.717 94.17 117.719 94.7V96.7Z" fill="black"/>
<path d="M60.1087 8.84998C48.1981 8.86268 36.7789 13.5991 28.3559 22.0202C19.9329 30.4413 15.194 41.8594 15.1786 53.77V84.7H105.039V53.77C105.023 41.8594 100.284 30.4413 91.8614 22.0202C83.4384 13.5991 72.0192 8.86268 60.1087 8.84998ZM36.3987 81.1C36.4001 81.1139 36.3985 81.128 36.3941 81.1413C36.3897 81.1546 36.3826 81.1669 36.3731 81.1772C36.3637 81.1876 36.3522 81.1959 36.3394 81.2015C36.3265 81.2072 36.3127 81.21 36.2986 81.21H33.0486C32.1394 81.2084 31.2679 80.8465 30.625 80.2036C29.9821 79.5607 29.6202 78.6892 29.6186 77.78V74.48C29.6189 74.4509 29.6306 74.4231 29.6512 74.4025C29.6717 74.3819 29.6996 74.3702 29.7286 74.37H36.2986C36.3127 74.3699 36.3265 74.3728 36.3394 74.3784C36.3522 74.3841 36.3637 74.3923 36.3731 74.4027C36.3826 74.4131 36.3897 74.4253 36.3941 74.4386C36.3985 74.4519 36.4001 74.466 36.3987 74.48V81.1ZM36.2986 72.37H31.2786V49.09H36.2986C36.8567 49.0879 37.3911 48.8646 37.7848 48.469C38.1784 48.0735 38.3992 47.538 38.3987 46.98V41.91H44.6887V79.55H38.3987V74.48C38.4 74.2034 38.3466 73.9292 38.2417 73.6733C38.1367 73.4173 37.9823 73.1846 37.7871 72.9886C37.592 72.7925 37.36 72.6369 37.1046 72.5308C36.8492 72.4246 36.5753 72.37 36.2986 72.37ZM36.3987 46.98C36.4001 46.9939 36.3985 47.008 36.3941 47.0213C36.3897 47.0346 36.3826 47.0469 36.3731 47.0572C36.3637 47.0676 36.3522 47.0759 36.3394 47.0815C36.3265 47.0872 36.3127 47.09 36.2986 47.09H29.7286C29.6996 47.0897 29.6717 47.078 29.6512 47.0575C29.6306 47.0369 29.6189 47.0091 29.6186 46.98V43.68C29.6202 42.7708 29.9821 41.8993 30.625 41.2563C31.2679 40.6134 32.1394 40.2516 33.0486 40.25H36.2986C36.312 40.2491 36.3254 40.2511 36.3379 40.2558C36.3505 40.2605 36.3619 40.2678 36.3713 40.2773C36.3808 40.2868 36.3881 40.2982 36.3928 40.3107C36.3976 40.3232 36.3995 40.3366 36.3987 40.35V46.98ZM37.6687 82.7C38.0154 82.4016 38.2543 81.9976 38.3487 81.55H81.8687C81.963 81.9976 82.2019 82.4016 82.5487 82.7H37.6687ZM71.4886 33.84C71.3047 33.3188 70.9634 32.8676 70.512 32.5488C70.0606 32.2299 69.5213 32.0591 68.9687 32.06H51.2486C50.696 32.0591 50.1567 32.2299 49.7053 32.5488C49.2539 32.8676 48.9126 33.3188 48.7286 33.84L46.6287 39.91H45.2286L48.1287 31.55C48.2112 31.3107 48.3664 31.1031 48.5725 30.9561C48.7787 30.8091 49.0255 30.7301 49.2786 30.73H70.9387C71.1918 30.7301 71.4386 30.8091 71.6448 30.9561C71.8509 31.1031 72.0061 31.3107 72.0887 31.55L74.9886 39.91H73.5887L71.4886 33.84ZM73.5286 41.99V79.63H71.6087V41.99H73.5286ZM48.7387 39.91L50.6186 34.5C50.6648 34.3702 50.7503 34.2581 50.8633 34.1792C50.9762 34.1003 51.1109 34.0587 51.2486 34.06H68.9687C69.1064 34.0587 69.2411 34.1003 69.354 34.1792C69.467 34.2581 69.5525 34.3702 69.5986 34.5L71.4787 39.91H48.7387ZM69.6087 41.91V79.55H50.6087V41.91H69.6087ZM48.6087 41.91V79.55H46.6887V41.91H48.6087ZM83.9186 49.09H88.9387V72.37H83.9186C83.642 72.37 83.3681 72.4246 83.1127 72.5308C82.8573 72.6369 82.6253 72.7925 82.4302 72.9886C82.235 73.1846 82.0806 73.4173 81.9756 73.6733C81.8707 73.9292 81.8173 74.2034 81.8186 74.48V79.55H75.5286V41.91H81.8186V46.98C81.8181 47.538 82.0389 48.0735 82.4325 48.469C82.8262 48.8646 83.3606 49.0879 83.9186 49.09ZM83.8186 46.98V40.35C83.8178 40.3366 83.8197 40.3232 83.8245 40.3107C83.8292 40.2982 83.8365 40.2868 83.846 40.2773C83.8554 40.2678 83.8668 40.2605 83.8794 40.2558C83.8919 40.2511 83.9053 40.2491 83.9186 40.25H87.1686C88.0779 40.2516 88.9494 40.6134 89.5923 41.2563C90.2352 41.8993 90.5971 42.7708 90.5986 43.68V46.98C90.5984 47.0091 90.5867 47.0369 90.5661 47.0575C90.5456 47.078 90.5177 47.0897 90.4886 47.09H83.9186C83.9046 47.09 83.8908 47.0872 83.8779 47.0815C83.8651 47.0759 83.8536 47.0676 83.8442 47.0572C83.8347 47.0469 83.8276 47.0346 83.8232 47.0213C83.8188 47.008 83.8172 46.9939 83.8186 46.98ZM83.9186 81.21C83.9046 81.21 83.8908 81.2072 83.8779 81.2015C83.8651 81.1959 83.8536 81.1876 83.8442 81.1772C83.8347 81.1669 83.8276 81.1546 83.8232 81.1413C83.8188 81.128 83.8172 81.1139 83.8186 81.1V74.48C83.8172 74.466 83.8188 74.4519 83.8232 74.4386C83.8276 74.4253 83.8347 74.4131 83.8442 74.4027C83.8536 74.3923 83.8651 74.3841 83.8779 74.3784C83.8908 74.3728 83.9046 74.3699 83.9186 74.37H90.4886C90.5177 74.3702 90.5456 74.3819 90.5661 74.4025C90.5867 74.4231 90.5984 74.4509 90.5986 74.48V77.78C90.5971 78.6892 90.2352 79.5607 89.5923 80.2036C88.9494 80.8465 88.0779 81.2084 87.1686 81.21H83.9186ZM103.039 82.7H89.4486C90.3888 82.2664 91.185 81.5726 91.7433 80.7007C92.3015 79.8288 92.5983 78.8153 92.5986 77.78V74.48C92.5979 73.9989 92.433 73.5325 92.1312 73.1579C91.8293 72.7833 91.4086 72.5229 90.9387 72.42V49.04C91.4079 48.9357 91.8278 48.675 92.1294 48.3007C92.431 47.9264 92.5965 47.4607 92.5986 46.98V43.68C92.5973 42.2403 92.0248 40.8599 91.0068 39.8418C89.9887 38.8238 88.6084 38.2513 87.1686 38.25H83.9186C83.4376 38.2507 82.9711 38.4156 82.5965 38.7175C82.2219 39.0193 81.9616 39.44 81.8587 39.91H77.1087L73.9787 30.9C73.7606 30.267 73.3506 29.7178 72.8057 29.3288C72.2608 28.9398 71.6081 28.7305 70.9387 28.73H49.2786C48.6106 28.7305 47.9591 28.9387 47.4145 29.3256C46.8699 29.7126 46.459 30.2593 46.2387 30.89L43.1087 39.91H38.3587C38.2557 39.44 37.9954 39.0193 37.6208 38.7175C37.2462 38.4156 36.7797 38.2507 36.2986 38.25H33.0486C31.6089 38.2513 30.2286 38.8238 29.2105 39.8418C28.1925 40.8599 27.62 42.2403 27.6187 43.68V46.98C27.6208 47.4607 27.7863 47.9264 28.0879 48.3007C28.3895 48.675 28.8094 48.9357 29.2786 49.04V72.42C28.8087 72.5229 28.388 72.7833 28.0861 73.1579C27.7843 73.5325 27.6193 73.9989 27.6187 74.48V77.78C27.619 78.8153 27.9158 79.8288 28.474 80.7007C29.0323 81.5726 29.8285 82.2664 30.7687 82.7H17.1786V53.77C17.1786 42.3842 21.7016 31.4648 29.7526 23.4139C37.8035 15.3629 48.7229 10.84 60.1087 10.84C71.4944 10.84 82.4138 15.3629 90.4647 23.4139C98.5157 31.4648 103.039 42.3842 103.039 53.77V82.7Z" fill="black"/>
</svg>
