<svg width="118" height="92" viewBox="0 0 118 92" fill="none" xmlns="http://www.w3.org/2000/svg">
<path d="M106.459 3.87001C102.033 1.3198 96.8768 0.338159 91.824 1.08409C86.7713 1.83003 82.1183 4.25985 78.6187 7.98001C77.4746 9.28772 76.4379 10.6856 75.5187 12.16L62.2387 35.17L59.1087 40.59L55.9787 35.17L42.6987 12.16C42.5287 11.86 41.7387 10.63 41.5087 10.32C40.9202 9.50187 40.2824 8.72042 39.5987 7.98001C36.1008 4.25644 31.4471 1.82443 26.393 1.0788C21.3389 0.33318 16.1811 1.31771 11.757 3.87257C7.33291 6.42744 3.90221 10.4026 2.02186 15.1528C0.141507 19.903 -0.0781019 25.1493 1.39868 30.04C1.9581 31.6835 2.65039 33.2788 3.46868 34.81L16.7487 57.82L29.5687 80.02C31.5462 83.4078 34.3794 86.2165 37.7842 88.1646C41.189 90.1127 45.046 91.1319 48.9687 91.12C52.4893 91.1233 55.9594 90.2831 59.0887 88.67C62.2389 90.3201 65.7424 91.1814 69.2987 91.18C71.2605 91.1763 73.2136 90.9175 75.1087 90.41C77.9404 89.6593 80.5951 88.3545 82.9193 86.5711C85.2434 84.7876 87.1908 82.561 88.6487 80.02L101.469 57.82L114.749 34.81C115.59 33.2903 116.284 31.6929 116.819 30.04C118.292 25.1486 118.07 19.9031 116.19 15.1533C114.31 10.4036 110.881 6.42776 106.459 3.87001ZM57.9587 42.58L55.6487 46.59H55.6387L50.7887 38.17L54.2487 36.17L57.9587 42.58ZM46.5187 70.32C46.5187 70.35 46.7947 72.432 46.8047 72.462C47.5191 76.292 49.1964 79.8771 51.6787 82.88C48.7504 83.4297 45.7239 83.0665 43.0088 81.8396C40.2937 80.6126 38.0212 78.5811 36.4987 76.02L23.6787 53.82L49.0487 39.17L54.4887 48.59L49.4187 57.37C47.1615 61.2929 46.1502 65.8092 46.5187 70.32ZM3.18868 29.01C1.96737 24.599 2.24438 19.9075 3.9763 15.6709C5.70822 11.4343 8.79711 7.89222 12.7587 5.60001C15.8836 3.78353 19.4342 2.82774 23.0487 2.83001C25.797 2.82808 28.5181 3.37457 31.0525 4.43746C33.587 5.50036 35.8839 7.05829 37.8087 9.02001L34.1887 11.11C31.5814 8.7587 28.2961 7.29393 24.8045 6.92596C21.3129 6.55799 17.7945 7.30573 14.7543 9.06186C11.7142 10.818 9.30855 13.4922 7.88282 16.7006C6.45709 19.909 6.08455 23.4867 6.81868 26.92L3.18868 29.01ZM32.3587 12.16L8.63868 25.86C8.16048 22.9226 8.58512 19.9093 9.85645 17.2184C11.1278 14.5275 13.1859 12.2859 15.7587 10.79C17.972 9.51319 20.4835 8.84394 23.0387 8.85001C26.4339 8.8468 29.7261 10.016 32.3587 12.16ZM5.19868 33.81C4.66186 32.8972 4.20355 31.9404 3.82868 30.95L7.30868 28.94L35.6887 12.55L39.1587 10.55L39.1687 10.54C39.8168 11.3771 40.4145 12.2519 40.9587 13.16L53.2487 34.44L49.7887 36.44L20.9487 53.08L17.4787 55.08L5.19868 33.81ZM31.2987 79.02L18.4787 56.82L21.9487 54.82L34.7687 77.02C36.5881 80.1374 39.3855 82.5672 42.7269 83.9324C46.0683 85.2975 49.7669 85.5216 53.2487 84.57C54.3867 85.628 55.6147 86.5849 56.9187 87.43C56.9328 87.4463 56.9497 87.4599 56.9687 87.47C52.3951 89.4313 47.2627 89.655 42.5358 88.099C37.809 86.5431 33.813 83.3145 31.2987 79.02ZM86.9187 79.02C84.3488 83.47 80.1874 86.7803 75.2734 88.2835C70.3594 89.7866 65.0583 89.3709 60.4387 87.12C60.4187 87.11 56.0197 84.987 53.9487 82.43C50.6733 78.8689 48.7363 74.2809 48.4687 69.45C48.4687 64.033 49.3687 61.603 51.1487 58.37L56.7987 48.59L60.2587 42.59L63.9687 36.17L67.4287 38.17L54.6087 60.37C52.4546 64.1149 51.8734 68.5612 52.9925 72.734C54.1116 76.9068 56.8397 80.4656 60.5787 82.63L61.1887 82.99C63.6544 84.4145 66.4511 85.1663 69.2987 85.17C70.7368 85.1666 72.1685 84.9784 73.5587 84.61C75.627 84.0613 77.566 83.108 79.2636 81.8052C80.9612 80.5024 82.3836 78.876 83.4487 77.02L96.2687 54.82L99.7387 56.82L86.9187 79.02ZM69.1687 39.17L94.5387 53.82L81.7187 76.02C79.8183 79.299 76.6954 81.6908 73.0345 82.6712C69.3736 83.6516 65.4734 83.1405 62.1887 81.25L61.5787 80.9C58.2981 79.0012 55.9049 75.8783 54.9243 72.2167C53.9438 68.5552 54.4561 64.6542 56.3487 61.37L69.1687 39.17ZM113.019 33.81L100.739 55.08L97.2687 53.08L68.4287 36.44L64.9687 34.44L77.2587 13.16C77.8005 12.2504 78.3983 11.3754 79.0487 10.54L82.5287 12.55L110.909 28.94L114.389 30.95C114.007 31.9376 113.549 32.8939 113.019 33.81ZM85.8587 12.16C88.1587 10.2696 90.9807 9.1259 93.9479 8.88173C96.9151 8.63757 99.8862 9.30455 102.464 10.7936C105.042 12.2826 107.105 14.5228 108.376 17.215C109.647 19.9071 110.067 22.9231 109.579 25.86L85.8587 12.16ZM115.039 29.01L111.399 26.92C112.133 23.4867 111.76 19.909 110.335 16.7006C108.909 13.4922 106.503 10.818 103.463 9.06186C100.423 7.30573 96.9044 6.55799 93.4128 6.92596C89.9212 7.29393 86.636 8.7587 84.0287 11.11L80.3987 9.01001C83.6087 5.74773 87.8111 3.64363 92.3463 3.02797C96.8815 2.4123 101.493 3.31992 105.456 5.60836C109.42 7.89681 112.511 11.4365 114.246 15.672C115.98 19.9075 116.259 24.5989 115.039 29.01Z" fill="black"/>
</svg>
