<svg width="35" height="35" viewBox="0 0 35 35" fill="none" xmlns="http://www.w3.org/2000/svg">
<path d="M34.3369 13.043C34.6035 12.8311 35 13.0293 35 13.3643V27.3438C35 29.1553 33.5303 30.625 31.7188 30.625H3.28125C1.46973 30.625 0 29.1553 0 27.3438V13.3711C0 13.0293 0.389648 12.8379 0.663086 13.0498C2.19434 14.2393 4.22461 15.75 11.1973 20.8154C12.6396 21.8682 15.0732 24.083 17.5 24.0693C19.9404 24.0898 22.4219 21.8271 23.8096 20.8154C30.7822 15.75 32.8057 14.2324 34.3369 13.043ZM17.5 21.875C19.0859 21.9023 21.3691 19.8789 22.5176 19.0449C31.5889 12.4619 32.2793 11.8877 34.3711 10.2471C34.7676 9.93945 35 9.46094 35 8.95508V7.65625C35 5.84473 33.5303 4.375 31.7188 4.375H3.28125C1.46973 4.375 0 5.84473 0 7.65625V8.95508C0 9.46094 0.232422 9.93262 0.628906 10.2471C2.7207 11.8809 3.41113 12.4619 12.4824 19.0449C13.6309 19.8789 15.9141 21.9023 17.5 21.875Z" fill="#007882"/>
</svg>
