<svg width="124" height="88" viewBox="0 0 124 88" fill="none" xmlns="http://www.w3.org/2000/svg">
<path d="M1.72867 31.44C1.60679 31.3864 1.49731 31.3083 1.40711 31.2103C1.31691 31.1124 1.24795 30.9969 1.20456 30.8711C1.16116 30.7452 1.14428 30.6117 1.15497 30.479C1.16566 30.3463 1.20369 30.2173 1.26667 30.1C7.1182 18.04 16.4477 8.00896 28.0527 1.3C28.1665 1.22765 28.2938 1.17907 28.4268 1.15718C28.5599 1.13529 28.6961 1.14055 28.8271 1.17263C28.9581 1.20472 29.0812 1.26297 29.1891 1.34389C29.297 1.42481 29.3874 1.52671 29.4549 1.64348C29.5224 1.76024 29.5656 1.88945 29.5819 2.02334C29.5981 2.15722 29.5871 2.29301 29.5495 2.42254C29.512 2.55207 29.4486 2.67266 29.3632 2.77705C29.2778 2.88145 29.1722 2.96749 29.0527 3.03001C17.7674 9.5087 8.70771 19.252 3.06567 30.978C2.94541 31.2126 2.73916 31.3916 2.49002 31.4777C2.24087 31.5638 1.96809 31.5503 1.72867 31.44Z" fill="black"/>
<path d="M121.151 31.091C115.746 19.9144 107.263 10.5128 96.6987 3.991C96.4814 3.84776 96.3285 3.62546 96.2725 3.37131C96.2165 3.11716 96.2618 2.85119 96.3987 2.62989C96.5357 2.40859 96.7535 2.2494 97.0059 2.18612C97.2584 2.12284 97.5255 2.16047 97.7507 2.291C108.638 9.01445 117.381 18.7057 122.951 30.226C123.008 30.3443 123.041 30.4726 123.049 30.6038C123.056 30.7349 123.038 30.8663 122.995 30.9903C122.952 31.1144 122.885 31.2288 122.797 31.3268C122.71 31.4249 122.604 31.5048 122.486 31.562C122.246 31.6741 121.972 31.6876 121.722 31.5995C121.472 31.5114 121.267 31.3288 121.151 31.091Z" fill="black"/>
<path d="M9.97267 32.811C9.85578 32.75 9.75228 32.6662 9.66827 32.5646C9.58426 32.463 9.52144 32.3456 9.48351 32.2193C9.44558 32.093 9.43331 31.9604 9.44742 31.8293C9.46153 31.6983 9.50174 31.5713 9.56567 31.456C14.9076 21.5189 22.974 13.3123 32.8177 7.8C32.9322 7.73535 33.0584 7.69392 33.1889 7.6781C33.3195 7.66227 33.4519 7.67236 33.5786 7.70778C33.7052 7.7432 33.8237 7.80326 33.9271 7.88452C34.0305 7.96578 34.1169 8.06664 34.1813 8.18133C34.2456 8.29602 34.2868 8.42228 34.3023 8.55289C34.3178 8.68349 34.3074 8.81588 34.2717 8.94245C34.2359 9.06903 34.1756 9.18732 34.0941 9.29055C34.0126 9.39377 33.9115 9.4799 33.7967 9.54401C24.2845 14.8695 16.4894 22.7986 11.3267 32.4C11.2648 32.5159 11.1807 32.6186 11.0792 32.702C10.9776 32.7854 10.8606 32.848 10.7349 32.8861C10.6091 32.9243 10.4771 32.9373 10.3463 32.9244C10.2155 32.9115 10.0885 32.873 9.97267 32.811Z" fill="black"/>
<path d="M113.053 32.812C108.245 23.7066 101.076 16.0622 92.2977 10.68C92.0899 10.5334 91.9458 10.3131 91.8947 10.0639C91.8436 9.81481 91.8894 9.55558 92.0227 9.33899C92.1559 9.12239 92.3667 8.96471 92.6121 8.89802C92.8575 8.83134 93.1191 8.86065 93.3437 8.98C102.427 14.5493 109.845 22.4589 114.821 31.88C114.886 31.9952 114.927 32.1225 114.941 32.2542C114.955 32.3858 114.943 32.5189 114.904 32.6454C114.864 32.7719 114.8 32.8891 114.714 32.9898C114.628 33.0905 114.522 33.1726 114.404 33.231C114.168 33.3466 113.896 33.3676 113.645 33.2897C113.394 33.2118 113.182 33.0409 113.053 32.812Z" fill="black"/>
<path d="M105.959 65.82C106.73 65.821 107.493 65.6601 108.199 65.3476C108.904 65.035 109.536 64.5779 110.053 64.0057C110.571 63.4335 110.962 62.7591 111.203 62.026C111.443 61.2929 111.527 60.5175 111.449 59.75C110.332 48.5054 105.395 37.983 97.4617 29.9366C89.528 21.8901 79.0764 16.8054 67.8487 15.53V13.96C67.8487 12.4297 67.2408 10.9621 66.1587 9.88C65.0766 8.79791 63.609 8.19 62.0787 8.19C60.5484 8.19 59.0807 8.79791 57.9987 9.88C56.9166 10.9621 56.3087 12.4297 56.3087 13.96V15.53C45.0809 16.8054 34.6293 21.8901 26.6957 29.9366C18.762 37.983 13.8254 48.5054 12.7087 59.75C12.6328 60.517 12.7182 61.2915 12.9595 62.0235C13.2007 62.7556 13.5924 63.4291 14.1095 64.0008C14.6265 64.5724 15.2574 65.0296 15.9616 65.3429C16.6659 65.6562 17.4279 65.8187 18.1987 65.82H24.1387V72.75H18.3287C17.2688 72.7532 16.2532 73.1756 15.5037 73.9251C14.7543 74.6745 14.3318 75.6901 14.3287 76.75V82.83C14.33 83.8905 14.7518 84.9071 15.5017 85.657C16.2516 86.4068 17.2682 86.8287 18.3287 86.83H105.829C106.89 86.83 107.907 86.4086 108.657 85.6584C109.407 84.9083 109.829 83.8909 109.829 82.83V76.75C109.827 75.6895 109.405 74.6729 108.656 73.923C107.906 73.1732 106.889 72.7513 105.829 72.75H100.029V65.82H105.959ZM58.3087 13.96C58.3087 12.9601 58.7059 12.0012 59.4129 11.2942C60.1199 10.5872 61.0788 10.19 62.0787 10.19C63.0785 10.19 64.0375 10.5872 64.7445 11.2942C65.4515 12.0012 65.8487 12.9601 65.8487 13.96V15.34C63.3468 14.9997 60.8105 14.9997 58.3087 15.34V13.96ZM26.1387 65.82H98.0287V72.75H26.1387V65.82ZM105.829 74.75C106.359 74.75 106.868 74.9607 107.243 75.3358C107.618 75.7109 107.829 76.2196 107.829 76.75V82.83C107.83 83.0929 107.778 83.3534 107.678 83.5965C107.578 83.8395 107.431 84.0604 107.245 84.2463C107.059 84.4322 106.838 84.5795 106.595 84.6796C106.352 84.7798 106.092 84.8309 105.829 84.83H18.3287C17.7982 84.83 17.2895 84.6193 16.9145 84.2442C16.5394 83.8691 16.3287 83.3604 16.3287 82.83V76.75C16.3303 76.2201 16.5415 75.7123 16.9162 75.3375C17.2909 74.9628 17.7987 74.7516 18.3287 74.75H105.829ZM18.1987 63.82C17.7079 63.82 17.2226 63.7172 16.7739 63.5184C16.3252 63.3195 15.9231 63.029 15.5935 62.6654C15.2638 62.3019 15.0139 61.8733 14.8598 61.4074C14.7057 60.9415 14.6508 60.4484 14.6987 59.96C15.7828 49.0176 20.6353 38.7918 28.4262 31.032C36.217 23.2722 46.462 18.4605 57.4087 17.42C59.7318 17.1032 62.0829 17.0462 64.4187 17.25C65.1577 17.303 67.8487 17.53 67.8487 17.53C78.5797 18.8061 88.5535 23.7074 96.12 31.423C103.686 39.1386 108.392 49.2062 109.459 59.96C109.51 60.4474 109.458 60.9403 109.304 61.4058C109.151 61.8713 108.9 62.2988 108.569 62.66C108.239 63.0256 107.837 63.3178 107.387 63.5177C106.937 63.7175 106.451 63.8205 105.959 63.82H18.1987Z" fill="black"/>
<path d="M18.1987 63.82C17.7079 63.82 17.2226 63.7172 16.7739 63.5184C16.3252 63.3195 15.9231 63.029 15.5935 62.6654C15.2638 62.3019 15.0139 61.8733 14.8598 61.4074C14.7057 60.9415 14.6508 60.4484 14.6987 59.96C15.7828 49.0176 20.6353 38.7918 28.4262 31.032C36.217 23.2722 46.462 18.4605 57.4087 17.42C59.7318 17.1032 62.0829 17.0462 64.4187 17.25C65.1577 17.303 67.8487 17.53 67.8487 17.53C78.5797 18.8061 88.5535 23.7074 96.12 31.423C103.686 39.1386 108.392 49.2062 109.459 59.96C109.51 60.4474 109.458 60.9403 109.304 61.4058C109.151 61.8713 108.9 62.2988 108.569 62.66C108.239 63.0256 107.837 63.3178 107.387 63.5177C106.937 63.7175 106.451 63.8205 105.959 63.82H18.1987Z" fill="black"/>
<path d="M105.829 74.75C106.359 74.75 106.868 74.9607 107.243 75.3358C107.618 75.7109 107.829 76.2196 107.829 76.75V82.83C107.83 83.0929 107.778 83.3534 107.678 83.5965C107.578 83.8395 107.431 84.0604 107.245 84.2463C107.059 84.4322 106.838 84.5795 106.595 84.6796C106.352 84.7798 106.092 84.8309 105.829 84.83H18.3287C17.7982 84.83 17.2895 84.6193 16.9145 84.2442C16.5394 83.8691 16.3287 83.3604 16.3287 82.83V76.75C16.3303 76.2201 16.5415 75.7123 16.9162 75.3375C17.2909 74.9628 17.7987 74.7516 18.3287 74.75H105.829Z" fill="black"/>
<path d="M1.72867 31.44C1.60679 31.3864 1.49731 31.3083 1.40711 31.2103C1.31691 31.1124 1.24795 30.9969 1.20456 30.8711C1.16116 30.7452 1.14428 30.6117 1.15497 30.479C1.16566 30.3463 1.20369 30.2173 1.26667 30.1C7.1182 18.04 16.4477 8.00896 28.0527 1.3C28.1665 1.22765 28.2938 1.17907 28.4268 1.15718C28.5599 1.13529 28.6961 1.14055 28.8271 1.17263C28.9581 1.20472 29.0812 1.26297 29.1891 1.34389C29.297 1.42481 29.3874 1.52671 29.4549 1.64348C29.5224 1.76024 29.5656 1.88945 29.5819 2.02334C29.5981 2.15722 29.5871 2.29301 29.5495 2.42254C29.512 2.55207 29.4486 2.67266 29.3632 2.77705C29.2778 2.88145 29.1722 2.96749 29.0527 3.03001C17.7674 9.5087 8.70771 19.252 3.06567 30.978C2.94541 31.2126 2.73916 31.3916 2.49002 31.4777C2.24087 31.5638 1.96809 31.5503 1.72867 31.44Z" stroke="black"/>
<path d="M121.151 31.091C115.746 19.9144 107.263 10.5128 96.6987 3.991C96.4814 3.84776 96.3285 3.62546 96.2725 3.37131C96.2165 3.11716 96.2618 2.85119 96.3987 2.62989C96.5357 2.40859 96.7535 2.2494 97.0059 2.18612C97.2584 2.12284 97.5255 2.16047 97.7507 2.291C108.638 9.01445 117.381 18.7057 122.951 30.226C123.008 30.3443 123.041 30.4726 123.049 30.6038C123.056 30.7349 123.038 30.8663 122.995 30.9903C122.952 31.1144 122.885 31.2288 122.797 31.3268C122.71 31.4249 122.604 31.5048 122.486 31.562C122.246 31.6741 121.972 31.6876 121.722 31.5995C121.472 31.5114 121.267 31.3288 121.151 31.091Z" stroke="black"/>
<path d="M9.97267 32.811C9.85578 32.75 9.75228 32.6662 9.66827 32.5646C9.58426 32.463 9.52144 32.3456 9.48351 32.2193C9.44558 32.093 9.43331 31.9604 9.44742 31.8293C9.46153 31.6983 9.50174 31.5713 9.56567 31.456C14.9076 21.5189 22.974 13.3123 32.8177 7.8C32.9322 7.73535 33.0584 7.69392 33.1889 7.6781C33.3195 7.66227 33.4519 7.67236 33.5786 7.70778C33.7052 7.7432 33.8237 7.80326 33.9271 7.88452C34.0305 7.96578 34.1169 8.06664 34.1813 8.18133C34.2456 8.29602 34.2868 8.42228 34.3023 8.55289C34.3178 8.68349 34.3074 8.81588 34.2717 8.94245C34.2359 9.06903 34.1756 9.18732 34.0941 9.29055C34.0126 9.39377 33.9115 9.4799 33.7967 9.54401C24.2845 14.8695 16.4894 22.7986 11.3267 32.4C11.2648 32.5159 11.1807 32.6186 11.0792 32.702C10.9776 32.7854 10.8606 32.848 10.7349 32.8861C10.6091 32.9243 10.4771 32.9373 10.3463 32.9244C10.2155 32.9115 10.0885 32.873 9.97267 32.811Z" stroke="black"/>
<path d="M113.053 32.812C108.245 23.7066 101.076 16.0622 92.2977 10.68C92.0899 10.5334 91.9458 10.3131 91.8947 10.0639C91.8436 9.81481 91.8894 9.55558 92.0227 9.33899C92.1559 9.12239 92.3667 8.96471 92.6121 8.89802C92.8575 8.83134 93.1191 8.86065 93.3437 8.98C102.427 14.5493 109.845 22.4589 114.821 31.88C114.886 31.9952 114.927 32.1225 114.941 32.2542C114.955 32.3858 114.943 32.5189 114.904 32.6454C114.864 32.7719 114.8 32.8891 114.714 32.9898C114.628 33.0905 114.522 33.1726 114.404 33.231C114.168 33.3466 113.896 33.3676 113.645 33.2897C113.394 33.2118 113.182 33.0409 113.053 32.812Z" stroke="black"/>
<path d="M105.959 65.82C106.73 65.821 107.493 65.6601 108.199 65.3476C108.904 65.035 109.536 64.5779 110.053 64.0057C110.571 63.4335 110.962 62.7591 111.203 62.026C111.443 61.2929 111.527 60.5175 111.449 59.75C110.332 48.5054 105.395 37.983 97.4617 29.9366C89.528 21.8901 79.0764 16.8054 67.8487 15.53V13.96C67.8487 12.4297 67.2408 10.9621 66.1587 9.88C65.0766 8.79791 63.609 8.19 62.0787 8.19C60.5484 8.19 59.0807 8.79791 57.9987 9.88C56.9166 10.9621 56.3087 12.4297 56.3087 13.96V15.53C45.0809 16.8054 34.6293 21.8901 26.6957 29.9366C18.762 37.983 13.8254 48.5054 12.7087 59.75C12.6328 60.517 12.7182 61.2915 12.9595 62.0235C13.2007 62.7556 13.5924 63.4291 14.1095 64.0008C14.6265 64.5724 15.2574 65.0296 15.9616 65.3429C16.6659 65.6562 17.4279 65.8187 18.1987 65.82H24.1387V72.75H18.3287C17.2688 72.7532 16.2532 73.1756 15.5037 73.9251C14.7543 74.6745 14.3318 75.6901 14.3287 76.75V82.83C14.33 83.8905 14.7518 84.9071 15.5017 85.657C16.2516 86.4068 17.2682 86.8287 18.3287 86.83H105.829C106.89 86.83 107.907 86.4086 108.657 85.6584C109.407 84.9083 109.829 83.8909 109.829 82.83V76.75C109.827 75.6895 109.405 74.6729 108.656 73.923C107.906 73.1732 106.889 72.7513 105.829 72.75H100.029V65.82H105.959ZM58.3087 13.96C58.3087 12.9601 58.7059 12.0012 59.4129 11.2942C60.1199 10.5872 61.0788 10.19 62.0787 10.19C63.0785 10.19 64.0375 10.5872 64.7445 11.2942C65.4515 12.0012 65.8487 12.9601 65.8487 13.96V15.34C63.3468 14.9997 60.8105 14.9997 58.3087 15.34V13.96ZM26.1387 65.82H98.0287V72.75H26.1387V65.82ZM105.829 74.75C106.359 74.75 106.868 74.9607 107.243 75.3358C107.618 75.7109 107.829 76.2196 107.829 76.75V82.83C107.83 83.0929 107.778 83.3534 107.678 83.5965C107.578 83.8395 107.431 84.0604 107.245 84.2463C107.059 84.4322 106.838 84.5795 106.595 84.6796C106.352 84.7798 106.092 84.8309 105.829 84.83H18.3287C17.7982 84.83 17.2895 84.6193 16.9145 84.2442C16.5394 83.8691 16.3287 83.3604 16.3287 82.83V76.75C16.3303 76.2201 16.5415 75.7123 16.9162 75.3375C17.2909 74.9628 17.7987 74.7516 18.3287 74.75H105.829ZM18.1987 63.82C17.7079 63.82 17.2226 63.7172 16.7739 63.5184C16.3252 63.3195 15.9231 63.029 15.5935 62.6654C15.2638 62.3019 15.0139 61.8733 14.8598 61.4074C14.7057 60.9415 14.6508 60.4484 14.6987 59.96C15.7828 49.0176 20.6353 38.7918 28.4262 31.032C36.217 23.2722 46.462 18.4605 57.4087 17.42C59.7318 17.1032 62.0829 17.0462 64.4187 17.25C65.1577 17.303 67.8487 17.53 67.8487 17.53C78.5797 18.8061 88.5535 23.7074 96.12 31.423C103.686 39.1386 108.392 49.2062 109.459 59.96C109.51 60.4474 109.458 60.9403 109.304 61.4058C109.151 61.8713 108.9 62.2988 108.569 62.66C108.239 63.0256 107.837 63.3178 107.387 63.5177C106.937 63.7175 106.451 63.8205 105.959 63.82H18.1987Z" stroke="black"/>
<path d="M18.1987 63.82C17.7079 63.82 17.2226 63.7172 16.7739 63.5184C16.3252 63.3195 15.9231 63.029 15.5935 62.6654C15.2638 62.3019 15.0139 61.8733 14.8598 61.4074C14.7057 60.9415 14.6508 60.4484 14.6987 59.96C15.7828 49.0176 20.6353 38.7918 28.4262 31.032C36.217 23.2722 46.462 18.4605 57.4087 17.42C59.7318 17.1032 62.0829 17.0462 64.4187 17.25C65.1577 17.303 67.8487 17.53 67.8487 17.53C78.5797 18.8061 88.5535 23.7074 96.12 31.423C103.686 39.1386 108.392 49.2062 109.459 59.96C109.51 60.4474 109.458 60.9403 109.304 61.4058C109.151 61.8713 108.9 62.2988 108.569 62.66C108.239 63.0256 107.837 63.3178 107.387 63.5177C106.937 63.7175 106.451 63.8205 105.959 63.82H18.1987Z" stroke="black"/>
<path d="M105.829 74.75C106.359 74.75 106.868 74.9607 107.243 75.3358C107.618 75.7109 107.829 76.2196 107.829 76.75V82.83C107.83 83.0929 107.778 83.3534 107.678 83.5965C107.578 83.8395 107.431 84.0604 107.245 84.2463C107.059 84.4322 106.838 84.5795 106.595 84.6796C106.352 84.7798 106.092 84.8309 105.829 84.83H18.3287C17.7982 84.83 17.2895 84.6193 16.9145 84.2442C16.5394 83.8691 16.3287 83.3604 16.3287 82.83V76.75C16.3303 76.2201 16.5415 75.7123 16.9162 75.3375C17.2909 74.9628 17.7987 74.7516 18.3287 74.75H105.829Z" stroke="black"/>
</svg>
