<svg width="124" height="122" viewBox="0 0 124 122" fill="none" xmlns="http://www.w3.org/2000/svg">
<path d="M80.1886 109.52L39.3586 68.6901L48.3586 59.6901C48.6938 59.3553 48.9447 58.9458 49.0907 58.4953C49.2366 58.0447 49.2736 57.5658 49.1984 57.0982C49.1232 56.6305 48.9381 56.1874 48.6582 55.8053C48.3784 55.4231 48.0118 55.1129 47.5886 54.9001L45.1486 53.6601C44.7858 53.4787 44.4886 53.1885 44.2986 52.8301L41.8286 48.2801C41.4446 47.5757 40.8598 47.0014 40.1486 46.6301L35.9586 44.4701C35.5946 44.281 35.2977 43.9841 35.1086 43.6201L32.8886 39.3801C32.5105 38.6519 31.9168 38.0582 31.1886 37.6801L26.9786 35.5001C26.6167 35.3081 26.3206 35.012 26.1286 34.6501L24.6986 31.9301C24.4795 31.5139 24.1657 31.155 23.7826 30.8822C23.3995 30.6094 22.9577 30.4303 22.4928 30.3593C22.0278 30.2883 21.5527 30.3274 21.1057 30.4734C20.6586 30.6194 20.252 30.8683 19.9186 31.2001L10.8286 40.2901C10.0034 39.7186 9.02238 39.4148 8.01863 39.4201C7.36058 39.4181 6.7087 39.5471 6.10096 39.7994C5.49322 40.0518 4.94174 40.4225 4.47863 40.8901L2.25863 43.1101C1.32372 44.049 0.798828 45.32 0.798828 46.6451C0.798828 47.9701 1.32372 49.2411 2.25863 50.1801L70.8986 118.82C71.5067 119.442 72.2321 119.937 73.0327 120.276C73.8334 120.615 74.6934 120.792 75.563 120.797C76.4326 120.801 77.2944 120.633 78.0986 120.302C78.9027 119.972 79.6333 119.484 80.2478 118.869C80.8624 118.254 81.3488 117.523 81.6788 116.718C82.0088 115.914 82.1759 115.052 82.1704 114.182C82.1649 113.313 81.9869 112.453 81.6467 111.653C81.3065 110.852 80.8109 110.127 80.1886 109.52ZM21.3386 32.6201C21.449 32.5079 21.5848 32.4239 21.7345 32.3752C21.8842 32.3264 22.0433 32.3144 22.1986 32.3401C22.3535 32.3607 22.5009 32.4189 22.6281 32.5095C22.7553 32.6002 22.8585 32.7205 22.9286 32.8601L24.3586 35.5801C24.7372 36.3054 25.3311 36.8958 26.0586 37.2701L30.2686 39.4601C30.6327 39.6492 30.9295 39.946 31.1186 40.3101L33.3386 44.5501C33.7178 45.2809 34.3156 45.8752 35.0486 46.2501L39.2286 48.4101C39.586 48.5909 39.8792 48.8772 40.0686 49.2301L42.5386 53.7901C42.9281 54.5032 43.5242 55.0819 44.2486 55.4501L46.6886 56.6801C46.8283 56.7539 46.9489 56.8592 47.0409 56.9876C47.1328 57.116 47.1937 57.2641 47.2186 57.4201C47.2443 57.5754 47.2323 57.7345 47.1835 57.8842C47.1348 58.0339 47.0508 58.1696 46.9386 58.2801L37.9486 67.2801L12.3086 41.6401L21.3386 32.6201ZM78.7786 117.4C77.9207 118.258 76.757 118.74 75.5436 118.74C74.3303 118.74 73.1666 118.258 72.3086 117.4L3.66863 48.7701C3.11105 48.2033 2.79856 47.4401 2.79856 46.6451C2.79856 45.85 3.11105 45.0868 3.66863 44.5201L5.89863 42.3001C6.17676 42.0212 6.50718 41.7999 6.87097 41.6489C7.23476 41.4979 7.62476 41.4202 8.01863 41.4202C8.41251 41.4202 8.80251 41.4979 9.1663 41.6489C9.53009 41.7999 9.86051 42.0212 10.1386 42.3001L78.7786 110.94C79.2034 111.364 79.5404 111.867 79.7703 112.422C80.0002 112.976 80.1186 113.57 80.1186 114.17C80.1186 114.77 80.0002 115.364 79.7703 115.919C79.5404 116.473 79.2034 116.976 78.7786 117.4Z" fill="black"/>
<path d="M121.759 69.7901L61.2386 15.7101C60.3033 14.8747 59.0881 14.4213 57.8341 14.4398C56.5802 14.4583 55.3789 14.9474 54.4686 15.8101L51.1286 12.4601L51.7586 11.8301C52.2246 11.3668 52.5943 10.816 52.8466 10.2093C53.0989 9.60266 53.2288 8.9521 53.2288 8.29506C53.2288 7.63802 53.0989 6.98746 52.8466 6.3808C52.5943 5.77413 52.2246 5.22333 51.7586 4.76006L49.7186 2.72006C48.7797 1.78515 47.5086 1.26025 46.1836 1.26025C44.8586 1.26025 43.5876 1.78515 42.6486 2.72006L28.5086 16.8601C27.5713 17.7977 27.0447 19.0692 27.0447 20.3951C27.0447 21.7209 27.5713 22.9924 28.5086 23.9301L30.5486 25.9801C31.4876 26.915 32.7586 27.4399 34.0836 27.4399C35.4086 27.4399 36.6797 26.915 37.6186 25.9801L38.2486 25.3401L41.5986 28.6901C40.7339 29.5972 40.2432 30.7973 40.2247 32.0505C40.2061 33.3037 40.6611 34.5177 41.4986 35.4501L95.5786 95.9701C96.0235 96.4856 96.5725 96.901 97.1896 97.1888C97.8067 97.4767 98.4778 97.6305 99.1586 97.6401C99.8424 97.6805 100.527 97.5697 101.163 97.3156C101.799 97.0615 102.371 96.6704 102.839 96.1701L121.959 77.0501C122.439 76.569 122.816 75.9953 123.067 75.3638C123.318 74.7323 123.437 74.0564 123.419 73.3771C123.4 72.6978 123.243 72.0294 122.958 71.4128C122.672 70.7961 122.264 70.2439 121.759 69.7901ZM36.2086 24.5601C35.6373 25.1087 34.8758 25.4151 34.0836 25.4151C33.2915 25.4151 32.53 25.1087 31.9586 24.5601L29.9186 22.5201C29.3568 21.9576 29.0413 21.1951 29.0413 20.4001C29.0413 19.6051 29.3568 18.8426 29.9186 18.2801L44.0586 4.13006C44.6254 3.57247 45.3886 3.25998 46.1836 3.25998C46.9787 3.25998 47.7419 3.57247 48.3086 4.13006L50.3486 6.18006C50.6275 6.45819 50.8488 6.78861 50.9998 7.1524C51.1508 7.51618 51.2285 7.90619 51.2285 8.30006C51.2285 8.69393 51.1508 9.08394 50.9998 9.44772C50.8488 9.81151 50.6275 10.1419 50.3486 10.4201L36.2086 24.5601ZM39.6686 23.9301L49.7186 13.8801L53.0586 17.2201L43.0086 27.2701L39.6686 23.9301ZM120.549 75.6401L101.429 94.7601C101.143 95.0541 100.799 95.2845 100.418 95.4362C100.037 95.5878 99.6282 95.6573 99.2186 95.6401C98.811 95.6287 98.4101 95.5341 98.0403 95.3621C97.6706 95.1902 97.34 94.9445 97.0686 94.6401L42.9886 34.1201C42.4939 33.5663 42.222 32.8488 42.2257 32.1062C42.2294 31.3636 42.5084 30.6488 43.0086 30.1001L55.7886 17.3201C56.0655 17.0395 56.3957 16.8172 56.7598 16.666C57.1239 16.5149 57.5145 16.4381 57.9086 16.4401C58.646 16.439 59.358 16.7095 59.9086 17.2001L120.419 71.2801C120.722 71.5524 120.968 71.8835 121.139 72.2535C121.311 72.6234 121.406 73.0245 121.418 73.4322C121.43 73.8399 121.36 74.2459 121.21 74.6254C121.061 75.0049 120.836 75.3501 120.549 75.6401Z" fill="black"/>
<path d="M120.549 75.6401L101.429 94.7601C101.143 95.0541 100.799 95.2845 100.418 95.4362C100.037 95.5878 99.6282 95.6573 99.2186 95.6401C98.811 95.6287 98.4101 95.5341 98.0403 95.3621C97.6706 95.1902 97.34 94.9445 97.0686 94.6401L42.9886 34.1201C42.4939 33.5663 42.222 32.8488 42.2257 32.1062C42.2294 31.3636 42.5084 30.6488 43.0086 30.1001L55.7886 17.3201C56.0655 17.0395 56.3957 16.8172 56.7598 16.666C57.1239 16.5149 57.5145 16.4381 57.9086 16.4401C58.646 16.439 59.358 16.7095 59.9086 17.2001L120.419 71.2801C120.722 71.5524 120.968 71.8835 121.139 72.2535C121.311 72.6234 121.406 73.0245 121.418 73.4322C121.43 73.8399 121.36 74.2459 121.21 74.6254C121.061 75.0049 120.836 75.3501 120.549 75.6401Z" fill="black"/>
<path d="M78.7786 117.4C77.9207 118.258 76.757 118.74 75.5436 118.74C74.3303 118.74 73.1666 118.258 72.3086 117.4L3.66863 48.7701C3.11105 48.2033 2.79856 47.4401 2.79856 46.6451C2.79856 45.85 3.11105 45.0868 3.66863 44.5201L5.89863 42.3001C6.17676 42.0212 6.50718 41.7999 6.87097 41.6489C7.23476 41.4979 7.62476 41.4202 8.01863 41.4202C8.41251 41.4202 8.80251 41.4979 9.1663 41.6489C9.53009 41.7999 9.86051 42.0212 10.1386 42.3001L78.7786 110.94C79.2034 111.364 79.5404 111.867 79.7703 112.422C80.0002 112.976 80.1186 113.57 80.1186 114.17C80.1186 114.77 80.0002 115.364 79.7703 115.919C79.5404 116.473 79.2034 116.976 78.7786 117.4Z" fill="black"/>
<path d="M80.1886 109.52L39.3586 68.6901L48.3586 59.6901C48.6938 59.3553 48.9447 58.9458 49.0907 58.4953C49.2366 58.0447 49.2736 57.5658 49.1984 57.0982C49.1232 56.6305 48.9381 56.1874 48.6582 55.8053C48.3784 55.4231 48.0118 55.1129 47.5886 54.9001L45.1486 53.6601C44.7858 53.4787 44.4886 53.1885 44.2986 52.8301L41.8286 48.2801C41.4446 47.5757 40.8598 47.0014 40.1486 46.6301L35.9586 44.4701C35.5946 44.281 35.2977 43.9841 35.1086 43.6201L32.8886 39.3801C32.5105 38.6519 31.9168 38.0582 31.1886 37.6801L26.9786 35.5001C26.6167 35.3081 26.3206 35.012 26.1286 34.6501L24.6986 31.9301C24.4795 31.5139 24.1657 31.155 23.7826 30.8822C23.3995 30.6094 22.9577 30.4303 22.4928 30.3593C22.0278 30.2883 21.5527 30.3274 21.1057 30.4734C20.6586 30.6194 20.252 30.8683 19.9186 31.2001L10.8286 40.2901C10.0034 39.7186 9.02238 39.4148 8.01863 39.4201C7.36058 39.4181 6.7087 39.5471 6.10096 39.7994C5.49322 40.0518 4.94174 40.4225 4.47863 40.8901L2.25863 43.1101C1.32372 44.049 0.798828 45.32 0.798828 46.6451C0.798828 47.9701 1.32372 49.2411 2.25863 50.1801L70.8986 118.82C71.5067 119.442 72.2321 119.937 73.0327 120.276C73.8334 120.615 74.6934 120.792 75.563 120.797C76.4326 120.801 77.2944 120.633 78.0986 120.302C78.9027 119.972 79.6333 119.484 80.2478 118.869C80.8624 118.254 81.3488 117.523 81.6788 116.718C82.0088 115.914 82.1759 115.052 82.1704 114.182C82.1649 113.313 81.9869 112.453 81.6467 111.653C81.3065 110.852 80.8109 110.127 80.1886 109.52ZM21.3386 32.6201C21.449 32.5079 21.5848 32.4239 21.7345 32.3752C21.8842 32.3264 22.0433 32.3144 22.1986 32.3401C22.3535 32.3607 22.5009 32.4189 22.6281 32.5095C22.7553 32.6002 22.8585 32.7205 22.9286 32.8601L24.3586 35.5801C24.7372 36.3054 25.3311 36.8958 26.0586 37.2701L30.2686 39.4601C30.6327 39.6492 30.9295 39.946 31.1186 40.3101L33.3386 44.5501C33.7178 45.2809 34.3156 45.8752 35.0486 46.2501L39.2286 48.4101C39.586 48.5909 39.8792 48.8772 40.0686 49.2301L42.5386 53.7901C42.9281 54.5032 43.5242 55.0819 44.2486 55.4501L46.6886 56.6801C46.8283 56.7539 46.9489 56.8592 47.0409 56.9876C47.1328 57.116 47.1937 57.2641 47.2186 57.4201C47.2443 57.5754 47.2323 57.7345 47.1835 57.8842C47.1348 58.0339 47.0508 58.1696 46.9386 58.2801L37.9486 67.2801L12.3086 41.6401L21.3386 32.6201ZM78.7786 117.4C77.9207 118.258 76.757 118.74 75.5436 118.74C74.3303 118.74 73.1666 118.258 72.3086 117.4L3.66863 48.7701C3.11105 48.2033 2.79856 47.4401 2.79856 46.6451C2.79856 45.85 3.11105 45.0868 3.66863 44.5201L5.89863 42.3001C6.17676 42.0212 6.50718 41.7999 6.87097 41.6489C7.23476 41.4979 7.62476 41.4202 8.01863 41.4202C8.41251 41.4202 8.80251 41.4979 9.1663 41.6489C9.53009 41.7999 9.86051 42.0212 10.1386 42.3001L78.7786 110.94C79.2034 111.364 79.5404 111.867 79.7703 112.422C80.0002 112.976 80.1186 113.57 80.1186 114.17C80.1186 114.77 80.0002 115.364 79.7703 115.919C79.5404 116.473 79.2034 116.976 78.7786 117.4Z" stroke="black"/>
<path d="M121.759 69.7901L61.2386 15.7101C60.3033 14.8747 59.0881 14.4213 57.8341 14.4398C56.5802 14.4583 55.3789 14.9474 54.4686 15.8101L51.1286 12.4601L51.7586 11.8301C52.2246 11.3668 52.5943 10.816 52.8466 10.2093C53.0989 9.60266 53.2288 8.9521 53.2288 8.29506C53.2288 7.63802 53.0989 6.98746 52.8466 6.3808C52.5943 5.77413 52.2246 5.22333 51.7586 4.76006L49.7186 2.72006C48.7797 1.78515 47.5086 1.26025 46.1836 1.26025C44.8586 1.26025 43.5876 1.78515 42.6486 2.72006L28.5086 16.8601C27.5713 17.7977 27.0447 19.0692 27.0447 20.3951C27.0447 21.7209 27.5713 22.9924 28.5086 23.9301L30.5486 25.9801C31.4876 26.915 32.7586 27.4399 34.0836 27.4399C35.4086 27.4399 36.6797 26.915 37.6186 25.9801L38.2486 25.3401L41.5986 28.6901C40.7339 29.5972 40.2432 30.7973 40.2247 32.0505C40.2061 33.3037 40.6611 34.5177 41.4986 35.4501L95.5786 95.9701C96.0235 96.4856 96.5725 96.901 97.1896 97.1888C97.8067 97.4767 98.4778 97.6305 99.1586 97.6401C99.8424 97.6805 100.527 97.5697 101.163 97.3156C101.799 97.0615 102.371 96.6704 102.839 96.1701L121.959 77.0501C122.439 76.569 122.816 75.9953 123.067 75.3638C123.318 74.7323 123.437 74.0564 123.419 73.3771C123.4 72.6978 123.243 72.0294 122.958 71.4128C122.672 70.7961 122.264 70.2439 121.759 69.7901ZM36.2086 24.5601C35.6373 25.1087 34.8758 25.4151 34.0836 25.4151C33.2915 25.4151 32.53 25.1087 31.9586 24.5601L29.9186 22.5201C29.3568 21.9576 29.0413 21.1951 29.0413 20.4001C29.0413 19.6051 29.3568 18.8426 29.9186 18.2801L44.0586 4.13006C44.6254 3.57247 45.3886 3.25998 46.1836 3.25998C46.9787 3.25998 47.7419 3.57247 48.3086 4.13006L50.3486 6.18006C50.6275 6.45819 50.8488 6.78861 50.9998 7.1524C51.1508 7.51618 51.2285 7.90619 51.2285 8.30006C51.2285 8.69393 51.1508 9.08394 50.9998 9.44772C50.8488 9.81151 50.6275 10.1419 50.3486 10.4201L36.2086 24.5601ZM39.6686 23.9301L49.7186 13.8801L53.0586 17.2201L43.0086 27.2701L39.6686 23.9301ZM120.549 75.6401L101.429 94.7601C101.143 95.0541 100.799 95.2845 100.418 95.4362C100.037 95.5878 99.6282 95.6573 99.2186 95.6401C98.811 95.6287 98.4101 95.5341 98.0403 95.3621C97.6706 95.1902 97.34 94.9445 97.0686 94.6401L42.9886 34.1201C42.4939 33.5663 42.222 32.8488 42.2257 32.1062C42.2294 31.3636 42.5084 30.6488 43.0086 30.1001L55.7886 17.3201C56.0655 17.0395 56.3957 16.8172 56.7598 16.666C57.1239 16.5149 57.5145 16.4381 57.9086 16.4401C58.646 16.439 59.358 16.7095 59.9086 17.2001L120.419 71.2801C120.722 71.5524 120.968 71.8835 121.139 72.2535C121.311 72.6234 121.406 73.0245 121.418 73.4322C121.43 73.8399 121.36 74.2459 121.21 74.6254C121.061 75.0049 120.836 75.3501 120.549 75.6401Z" stroke="black"/>
<path d="M120.549 75.6401L101.429 94.7601C101.143 95.0541 100.799 95.2845 100.418 95.4362C100.037 95.5878 99.6282 95.6573 99.2186 95.6401C98.811 95.6287 98.4101 95.5341 98.0403 95.3621C97.6706 95.1902 97.34 94.9445 97.0686 94.6401L42.9886 34.1201C42.4939 33.5663 42.222 32.8488 42.2257 32.1062C42.2294 31.3636 42.5084 30.6488 43.0086 30.1001L55.7886 17.3201C56.0655 17.0395 56.3957 16.8172 56.7598 16.666C57.1239 16.5149 57.5145 16.4381 57.9086 16.4401C58.646 16.439 59.358 16.7095 59.9086 17.2001L120.419 71.2801C120.722 71.5524 120.968 71.8835 121.139 72.2535C121.311 72.6234 121.406 73.0245 121.418 73.4322C121.43 73.8399 121.36 74.2459 121.21 74.6254C121.061 75.0049 120.836 75.3501 120.549 75.6401Z" stroke="black"/>
<path d="M78.7786 117.4C77.9207 118.258 76.757 118.74 75.5436 118.74C74.3303 118.74 73.1666 118.258 72.3086 117.4L3.66863 48.7701C3.11105 48.2033 2.79856 47.4401 2.79856 46.6451C2.79856 45.85 3.11105 45.0868 3.66863 44.5201L5.89863 42.3001C6.17676 42.0212 6.50718 41.7999 6.87097 41.6489C7.23476 41.4979 7.62476 41.4202 8.01863 41.4202C8.41251 41.4202 8.80251 41.4979 9.1663 41.6489C9.53009 41.7999 9.86051 42.0212 10.1386 42.3001L78.7786 110.94C79.2034 111.364 79.5404 111.867 79.7703 112.422C80.0002 112.976 80.1186 113.57 80.1186 114.17C80.1186 114.77 80.0002 115.364 79.7703 115.919C79.5404 116.473 79.2034 116.976 78.7786 117.4Z" stroke="black"/>
</svg>
