<svg width="116" height="96" viewBox="0 0 116 96" fill="none" xmlns="http://www.w3.org/2000/svg">
<path d="M111.809 1.18994H4.40869C3.44644 1.19153 2.52405 1.57448 1.84364 2.2549C1.16323 2.93531 0.780273 3.85769 0.778687 4.81994C0.783081 9.05873 2.45183 13.1263 5.42564 16.1469C8.39945 19.1674 12.4405 20.8994 16.6787 20.9699V29.4699C16.6798 30.255 16.9104 31.0225 17.3421 31.6782C17.7739 32.3338 18.3879 32.8489 19.1087 33.1599V55.7999C19.1087 66.1434 23.2176 76.0632 30.5315 83.3771C37.8454 90.691 47.7652 94.7999 58.1087 94.7999C68.4521 94.7999 78.3719 90.691 85.6859 83.3771C92.9998 76.0632 97.1087 66.1434 97.1087 55.7999V33.1599C97.8294 32.8489 98.4435 32.3338 98.8753 31.6782C99.307 31.0225 99.5376 30.255 99.5387 29.4699V20.9699C103.777 20.8994 107.818 19.1674 110.792 16.1469C113.766 13.1263 115.434 9.05873 115.439 4.81994C115.437 3.85769 115.054 2.93531 114.374 2.2549C113.693 1.57448 112.771 1.19153 111.809 1.18994ZM95.1087 55.7999C95.1087 65.613 91.2105 75.024 84.2716 81.9629C77.3328 88.9017 67.9217 92.7999 58.1087 92.7999C48.2957 92.7999 38.8846 88.9017 31.9457 81.9629C25.0069 75.024 21.1087 65.613 21.1087 55.7999V33.4699H95.1087V55.7999ZM97.5387 29.4699C97.5387 30.0004 97.328 30.5091 96.9529 30.8842C96.5778 31.2592 96.0691 31.4699 95.5387 31.4699H20.6787C20.1483 31.4699 19.6395 31.2592 19.2645 30.8842C18.8894 30.5091 18.6787 30.0004 18.6787 29.4699V20.9799H97.5387V29.4699ZM99.2787 18.9799H16.9387C13.1843 18.9765 9.58463 17.4835 6.92986 14.8288C4.27509 12.174 2.78213 8.57435 2.77869 4.81994C2.78053 4.38821 2.95285 3.97468 3.25814 3.66939C3.56342 3.36411 3.97695 3.19178 4.40869 3.18994H111.809C112.24 3.19178 112.654 3.36411 112.959 3.66939C113.265 3.97468 113.437 4.38821 113.439 4.81994C113.435 8.57435 111.942 12.174 109.288 14.8288C106.633 17.4835 103.033 18.9765 99.2787 18.9799Z" fill="black"/>
<path d="M58.1087 64.6889C57.0701 64.6889 56.0549 64.381 55.1914 63.804C54.3279 63.227 53.6548 62.4069 53.2574 61.4474C52.86 60.4879 52.756 59.4321 52.9586 58.4135C53.1612 57.3949 53.6613 56.4593 54.3957 55.7249C55.13 54.9906 56.0657 54.4904 57.0843 54.2878C58.1029 54.0852 59.1587 54.1892 60.1182 54.5866C61.0776 54.9841 61.8977 55.6571 62.4747 56.5206C63.0517 57.3842 63.3597 58.3994 63.3597 59.4379C63.3581 60.8301 62.8044 62.1648 61.82 63.1492C60.8355 64.1336 59.5009 64.6874 58.1087 64.6889ZM58.1087 56.1889C57.4657 56.1889 56.8372 56.3796 56.3025 56.7368C55.7679 57.0941 55.3512 57.6018 55.1052 58.1958C54.8591 58.7899 54.7947 59.4436 54.9202 60.0742C55.0456 60.7048 55.3552 61.2841 55.8099 61.7387C56.2645 62.1934 56.8438 62.503 57.4744 62.6285C58.1051 62.7539 58.7587 62.6895 59.3528 62.4435C59.9468 62.1974 60.4546 61.7807 60.8118 61.2461C61.169 60.7115 61.3597 60.0829 61.3597 59.4399C61.3594 58.5776 61.0169 57.7507 60.4073 57.1407C59.7977 56.5308 58.971 56.1877 58.1087 56.1869V56.1889Z" fill="black"/>
<path d="M74.4987 51.2799H69.6687C68.3641 49.4262 66.6328 47.9135 64.6209 46.8692C62.609 45.825 60.3755 45.2798 58.1087 45.2798C55.8419 45.2798 53.6084 45.825 51.5965 46.8692C49.5846 47.9135 47.8533 49.4262 46.5487 51.2799H41.7187C40.923 51.2799 40.16 51.596 39.5974 52.1586C39.0348 52.7212 38.7187 53.4843 38.7187 54.2799V64.5999C38.7187 65.3956 39.0348 66.1587 39.5974 66.7213C40.16 67.2839 40.923 67.5999 41.7187 67.5999H46.5487C47.8533 69.4536 49.5846 70.9664 51.5965 72.0107C53.6084 73.0549 55.8419 73.6 58.1087 73.6C60.3755 73.6 62.609 73.0549 64.6209 72.0107C66.6328 70.9664 68.3641 69.4536 69.6687 67.5999H74.4987C75.2943 67.5999 76.0574 67.2839 76.62 66.7213C77.1826 66.1587 77.4987 65.3956 77.4987 64.5999V54.2799C77.4987 53.4843 77.1826 52.7212 76.62 52.1586C76.0574 51.596 75.2943 51.2799 74.4987 51.2799ZM43.9987 60.5299C44.1384 62.29 44.6029 64.009 45.3687 65.5999H41.7187C41.4535 65.5999 41.1991 65.4946 41.0116 65.3071C40.824 65.1195 40.7187 64.8652 40.7187 64.5999V54.2799C40.7187 54.0147 40.824 53.7604 41.0116 53.5728C41.1991 53.3853 41.4535 53.2799 41.7187 53.2799H45.3687C44.3052 55.5415 43.8337 58.0362 43.9987 60.5299ZM68.0887 66.3699C66.9719 67.9836 65.4805 69.3024 63.7424 70.2132C62.0042 71.1241 60.0711 71.6 58.1087 71.6C56.1463 71.6 54.2132 71.1241 52.475 70.2132C50.7368 69.3024 49.2455 67.9836 48.1287 66.3699C46.7345 64.3255 45.976 61.9144 45.9487 59.4399C45.9503 56.8856 46.7558 54.3966 48.2509 52.3256C49.7461 50.2546 51.8552 48.7067 54.2792 47.9013C56.7032 47.0959 59.3193 47.0737 61.7565 47.8381C64.1938 48.6025 66.3287 50.1145 67.8587 52.1599C69.1796 54.0087 69.9964 56.1696 70.2287 58.4299C70.4474 61.2437 69.6918 64.0472 68.0887 66.3699ZM75.4987 64.5999C75.4987 64.8652 75.3933 65.1195 75.2058 65.3071C75.0183 65.4946 74.7639 65.5999 74.4987 65.5999H70.8487C71.6234 64.0124 72.0883 62.2916 72.2187 60.5299C72.4069 58.0349 71.9344 55.5343 70.8487 53.2799H74.4987C74.7639 53.2799 75.0183 53.3853 75.2058 53.5728C75.3933 53.7604 75.4987 54.0147 75.4987 54.2799V64.5999Z" fill="black"/>
<path d="M97.5387 29.4699C97.5387 30.0004 97.328 30.5091 96.9529 30.8842C96.5778 31.2592 96.0691 31.4699 95.5387 31.4699H20.6787C20.1483 31.4699 19.6395 31.2592 19.2645 30.8842C18.8894 30.5091 18.6787 30.0004 18.6787 29.4699V20.9799H97.5387V29.4699Z" fill="black"/>
<path fill-rule="evenodd" clip-rule="evenodd" d="M68.0887 66.3699C66.9719 67.9836 65.4805 69.3024 63.7424 70.2132C62.0042 71.1241 60.0711 71.6 58.1087 71.6C56.1463 71.6 54.2132 71.1241 52.475 70.2132C50.7368 69.3024 49.2455 67.9836 48.1287 66.3699C46.7345 64.3255 45.976 61.9144 45.9487 59.4399C45.9503 56.8856 46.7558 54.3966 48.2509 52.3256C49.7461 50.2546 51.8552 48.7067 54.2792 47.9013C56.7032 47.0959 59.3193 47.0737 61.7565 47.8381C64.1938 48.6025 66.3287 50.1145 67.8587 52.1599C69.1796 54.0087 69.9964 56.1696 70.2287 58.4299C70.4474 61.2437 69.6918 64.0472 68.0887 66.3699ZM55.1914 63.804C56.0549 64.381 57.0701 64.6889 58.1087 64.6889C59.5009 64.6874 60.8355 64.1336 61.82 63.1492C62.8044 62.1648 63.3581 60.8301 63.3597 59.4379C63.3597 58.3994 63.0517 57.3842 62.4747 56.5206C61.8977 55.6571 61.0776 54.9841 60.1182 54.5866C59.1587 54.1892 58.1029 54.0852 57.0843 54.2878C56.0657 54.4904 55.13 54.9906 54.3957 55.7249C53.6613 56.4593 53.1612 57.3949 52.9586 58.4135C52.756 59.4321 52.86 60.4879 53.2574 61.4474C53.6548 62.4069 54.3279 63.227 55.1914 63.804Z" fill="black"/>
<path d="M111.809 1.18994H4.40869C3.44644 1.19153 2.52405 1.57448 1.84364 2.2549C1.16323 2.93531 0.780273 3.85769 0.778687 4.81994C0.783081 9.05873 2.45183 13.1263 5.42564 16.1469C8.39945 19.1674 12.4405 20.8994 16.6787 20.9699V29.4699C16.6798 30.255 16.9104 31.0225 17.3421 31.6782C17.7739 32.3338 18.3879 32.8489 19.1087 33.1599V55.7999C19.1087 66.1434 23.2176 76.0632 30.5315 83.3771C37.8454 90.691 47.7652 94.7999 58.1087 94.7999C68.4521 94.7999 78.3719 90.691 85.6859 83.3771C92.9998 76.0632 97.1087 66.1434 97.1087 55.7999V33.1599C97.8294 32.8489 98.4435 32.3338 98.8753 31.6782C99.307 31.0225 99.5376 30.255 99.5387 29.4699V20.9699C103.777 20.8994 107.818 19.1674 110.792 16.1469C113.766 13.1263 115.434 9.05873 115.439 4.81994C115.437 3.85769 115.054 2.93531 114.374 2.2549C113.693 1.57448 112.771 1.19153 111.809 1.18994ZM95.1087 55.7999C95.1087 65.613 91.2105 75.024 84.2716 81.9629C77.3328 88.9017 67.9217 92.7999 58.1087 92.7999C48.2957 92.7999 38.8846 88.9017 31.9457 81.9629C25.0069 75.024 21.1087 65.613 21.1087 55.7999V33.4699H95.1087V55.7999ZM97.5387 29.4699C97.5387 30.0004 97.328 30.5091 96.9529 30.8842C96.5778 31.2592 96.0691 31.4699 95.5387 31.4699H20.6787C20.1483 31.4699 19.6395 31.2592 19.2645 30.8842C18.8894 30.5091 18.6787 30.0004 18.6787 29.4699V20.9799H97.5387V29.4699ZM99.2787 18.9799H16.9387C13.1843 18.9765 9.58463 17.4835 6.92986 14.8288C4.27509 12.174 2.78213 8.57435 2.77869 4.81994C2.78053 4.38821 2.95285 3.97468 3.25814 3.66939C3.56342 3.36411 3.97695 3.19178 4.40869 3.18994H111.809C112.24 3.19178 112.654 3.36411 112.959 3.66939C113.265 3.97468 113.437 4.38821 113.439 4.81994C113.435 8.57435 111.942 12.174 109.288 14.8288C106.633 17.4835 103.033 18.9765 99.2787 18.9799Z" stroke="black"/>
<path d="M58.1087 64.6889C57.0701 64.6889 56.0549 64.381 55.1914 63.804C54.3279 63.227 53.6548 62.4069 53.2574 61.4474C52.86 60.4879 52.756 59.4321 52.9586 58.4135C53.1612 57.3949 53.6613 56.4593 54.3957 55.7249C55.13 54.9906 56.0657 54.4904 57.0843 54.2878C58.1029 54.0852 59.1587 54.1892 60.1182 54.5866C61.0776 54.9841 61.8977 55.6571 62.4747 56.5206C63.0517 57.3842 63.3597 58.3994 63.3597 59.4379C63.3581 60.8301 62.8044 62.1648 61.82 63.1492C60.8355 64.1336 59.5009 64.6874 58.1087 64.6889ZM58.1087 56.1889C57.4657 56.1889 56.8372 56.3796 56.3025 56.7368C55.7679 57.0941 55.3512 57.6018 55.1052 58.1958C54.8591 58.7899 54.7947 59.4436 54.9202 60.0742C55.0456 60.7048 55.3552 61.2841 55.8099 61.7387C56.2645 62.1934 56.8438 62.503 57.4744 62.6285C58.1051 62.7539 58.7587 62.6895 59.3528 62.4435C59.9468 62.1974 60.4546 61.7807 60.8118 61.2461C61.169 60.7115 61.3597 60.0829 61.3597 59.4399C61.3594 58.5776 61.0169 57.7507 60.4073 57.1407C59.7977 56.5308 58.971 56.1877 58.1087 56.1869V56.1889Z" stroke="black"/>
<path d="M74.4987 51.2799H69.6687C68.3641 49.4262 66.6328 47.9135 64.6209 46.8692C62.609 45.825 60.3755 45.2798 58.1087 45.2798C55.8419 45.2798 53.6084 45.825 51.5965 46.8692C49.5846 47.9135 47.8533 49.4262 46.5487 51.2799H41.7187C40.923 51.2799 40.16 51.596 39.5974 52.1586C39.0348 52.7212 38.7187 53.4843 38.7187 54.2799V64.5999C38.7187 65.3956 39.0348 66.1587 39.5974 66.7213C40.16 67.2839 40.923 67.5999 41.7187 67.5999H46.5487C47.8533 69.4536 49.5846 70.9664 51.5965 72.0107C53.6084 73.0549 55.8419 73.6 58.1087 73.6C60.3755 73.6 62.609 73.0549 64.6209 72.0107C66.6328 70.9664 68.3641 69.4536 69.6687 67.5999H74.4987C75.2943 67.5999 76.0574 67.2839 76.62 66.7213C77.1826 66.1587 77.4987 65.3956 77.4987 64.5999V54.2799C77.4987 53.4843 77.1826 52.7212 76.62 52.1586C76.0574 51.596 75.2943 51.2799 74.4987 51.2799ZM43.9987 60.5299C44.1384 62.29 44.6029 64.009 45.3687 65.5999H41.7187C41.4535 65.5999 41.1991 65.4946 41.0116 65.3071C40.824 65.1195 40.7187 64.8652 40.7187 64.5999V54.2799C40.7187 54.0147 40.824 53.7604 41.0116 53.5728C41.1991 53.3853 41.4535 53.2799 41.7187 53.2799H45.3687C44.3052 55.5415 43.8337 58.0362 43.9987 60.5299ZM68.0887 66.3699C66.9719 67.9836 65.4805 69.3024 63.7424 70.2132C62.0042 71.1241 60.0711 71.6 58.1087 71.6C56.1463 71.6 54.2132 71.1241 52.475 70.2132C50.7368 69.3024 49.2455 67.9836 48.1287 66.3699C46.7345 64.3255 45.976 61.9144 45.9487 59.4399C45.9503 56.8856 46.7558 54.3966 48.2509 52.3256C49.7461 50.2546 51.8552 48.7067 54.2792 47.9013C56.7032 47.0959 59.3193 47.0737 61.7565 47.8381C64.1938 48.6025 66.3287 50.1145 67.8587 52.1599C69.1796 54.0087 69.9964 56.1696 70.2287 58.4299C70.4474 61.2437 69.6918 64.0472 68.0887 66.3699ZM75.4987 64.5999C75.4987 64.8652 75.3933 65.1195 75.2058 65.3071C75.0183 65.4946 74.7639 65.5999 74.4987 65.5999H70.8487C71.6234 64.0124 72.0883 62.2916 72.2187 60.5299C72.4069 58.0349 71.9344 55.5343 70.8487 53.2799H74.4987C74.7639 53.2799 75.0183 53.3853 75.2058 53.5728C75.3933 53.7604 75.4987 54.0147 75.4987 54.2799V64.5999Z" stroke="black"/>
<path d="M97.5387 29.4699C97.5387 30.0004 97.328 30.5091 96.9529 30.8842C96.5778 31.2592 96.0691 31.4699 95.5387 31.4699H20.6787C20.1483 31.4699 19.6395 31.2592 19.2645 30.8842C18.8894 30.5091 18.6787 30.0004 18.6787 29.4699V20.9799H97.5387V29.4699Z" stroke="black"/>
<path fill-rule="evenodd" clip-rule="evenodd" d="M68.0887 66.3699C66.9719 67.9836 65.4805 69.3024 63.7424 70.2132C62.0042 71.1241 60.0711 71.6 58.1087 71.6C56.1463 71.6 54.2132 71.1241 52.475 70.2132C50.7368 69.3024 49.2455 67.9836 48.1287 66.3699C46.7345 64.3255 45.976 61.9144 45.9487 59.4399C45.9503 56.8856 46.7558 54.3966 48.2509 52.3256C49.7461 50.2546 51.8552 48.7067 54.2792 47.9013C56.7032 47.0959 59.3193 47.0737 61.7565 47.8381C64.1938 48.6025 66.3287 50.1145 67.8587 52.1599C69.1796 54.0087 69.9964 56.1696 70.2287 58.4299C70.4474 61.2437 69.6918 64.0472 68.0887 66.3699ZM55.1914 63.804C56.0549 64.381 57.0701 64.6889 58.1087 64.6889C59.5009 64.6874 60.8355 64.1336 61.82 63.1492C62.8044 62.1648 63.3581 60.8301 63.3597 59.4379C63.3597 58.3994 63.0517 57.3842 62.4747 56.5206C61.8977 55.6571 61.0776 54.9841 60.1182 54.5866C59.1587 54.1892 58.1029 54.0852 57.0843 54.2878C56.0657 54.4904 55.13 54.9906 54.3957 55.7249C53.6613 56.4593 53.1612 57.3949 52.9586 58.4135C52.756 59.4321 52.86 60.4879 53.2574 61.4474C53.6548 62.4069 54.3279 63.227 55.1914 63.804Z" stroke="black"/>
</svg>
