<svg width="119" height="95" viewBox="0 0 119 95" fill="none" xmlns="http://www.w3.org/2000/svg">
<path d="M112.579 1H22.5386C21.2132 1.00212 19.9426 1.52958 19.0054 2.4668C18.0682 3.40403 17.5407 4.67457 17.5386 6V30.34L4.35859 33.85C3.07808 34.1902 1.98496 35.0248 1.31934 36.1704C0.65372 37.3161 0.470021 38.679 0.808593 39.96L5.56859 57.91H5.57859L14.2186 90.45C14.5021 91.5152 15.1291 92.4571 16.0023 93.1296C16.8756 93.8022 17.9463 94.1679 19.0486 94.17C19.484 94.1676 19.9174 94.1105 20.3386 94L107.349 70.88C107.986 70.7128 108.584 70.4207 109.107 70.0208C109.631 69.6208 110.07 69.1209 110.399 68.55C110.73 67.9835 110.945 67.3564 111.031 66.7055C111.117 66.0546 111.072 65.3932 110.899 64.76L110.499 63.23H112.579C113.905 63.23 115.176 62.7032 116.114 61.7655C117.052 60.8279 117.579 59.5561 117.579 58.23V6C117.579 4.67392 117.052 3.40215 116.114 2.46447C115.176 1.52678 113.905 1 112.579 1ZM2.73859 39.45C2.5359 38.6809 2.64625 37.8629 3.04548 37.175C3.44471 36.4871 4.10027 35.9855 4.86859 35.78L17.5386 32.41V41.77L4.28859 45.3L2.73859 39.45ZM4.80859 47.23L17.5386 43.84V52.66L6.98859 55.46L4.80859 47.23ZM108.669 67.55C108.267 68.2372 107.608 68.737 106.839 68.94L19.8186 92.06C19.4393 92.1635 19.0431 92.1902 18.6534 92.1387C18.2636 92.0872 17.888 91.9585 17.5486 91.76C17.2064 91.562 16.9065 91.2985 16.6663 90.9845C16.4261 90.6704 16.2501 90.3121 16.1486 89.93L7.50859 57.39L17.5386 54.72V58.23C17.5407 59.5554 18.0682 60.826 19.0054 61.7632C19.9426 62.7004 21.2132 63.2279 22.5386 63.23H75.4086C76.248 64.9676 77.6666 66.3584 79.4205 67.1633C81.1744 67.9681 83.1539 68.1367 85.0186 67.64C86.1721 67.3292 87.2456 66.7748 88.1668 66.014C89.0879 65.2533 89.8353 64.304 90.3586 63.23H108.429L108.969 65.27C109.072 65.6509 109.099 66.0487 109.048 66.4402C108.996 66.8316 108.867 67.2089 108.669 67.55ZM77.7186 63.23H88.0386C87.4576 64.0594 86.6853 64.7365 85.7871 65.204C84.8889 65.6714 83.8912 65.9155 82.8786 65.9155C81.866 65.9155 80.8683 65.6714 79.9701 65.204C79.0719 64.7365 78.2995 64.0594 77.7186 63.23ZM115.579 58.23C115.576 59.0249 115.259 59.7866 114.697 60.3487C114.135 60.9108 113.374 61.2276 112.579 61.23H22.5386C21.7437 61.2276 20.982 60.9108 20.4199 60.3487C19.8578 59.7866 19.541 59.0249 19.5386 58.23V24.56H115.579V58.23ZM115.579 22.56H19.5386V14.04H115.579V22.56ZM115.579 12.04H19.5386V6C19.5386 5.20435 19.8547 4.44129 20.4173 3.87868C20.9799 3.31607 21.7429 3 22.5386 3H112.579C113.374 3 114.137 3.31607 114.7 3.87868C115.263 4.44129 115.579 5.20435 115.579 6V12.04Z" fill="black"/>
<path d="M99.8286 37.74C98.4261 37.7368 97.046 38.0913 95.8186 38.77C94.5983 38.0918 93.2247 37.7372 91.8286 37.74C89.6247 37.74 87.511 38.6155 85.9526 40.1739C84.3941 41.7324 83.5186 43.8461 83.5186 46.05C83.5186 48.2539 84.3941 50.3676 85.9526 51.9261C87.511 53.4845 89.6247 54.36 91.8286 54.36C93.2247 54.3628 94.5983 54.0082 95.8186 53.33C96.929 53.9419 98.1647 54.2916 99.4311 54.3524C100.698 54.4132 101.961 54.1835 103.125 53.6808C104.289 53.1781 105.322 52.4158 106.146 51.4522C106.97 50.4886 107.563 49.3492 107.879 48.1213C108.195 46.8935 108.225 45.6096 107.969 44.368C107.712 43.1264 107.174 41.96 106.397 40.9581C105.621 39.9562 104.625 39.1453 103.486 38.5875C102.348 38.0297 101.096 37.7398 99.8286 37.74ZM93.9986 51.98C93.0454 52.3267 92.0227 52.4384 91.0172 52.3059C90.0116 52.1733 89.0528 51.8003 88.222 51.2184C87.3913 50.6365 86.713 49.863 86.2447 48.9633C85.7765 48.0636 85.5319 47.0643 85.5319 46.05C85.5319 45.0357 85.7765 44.0364 86.2447 43.1367C86.713 42.237 87.3913 41.4635 88.222 40.8816C89.0528 40.2997 90.0116 39.9267 91.0172 39.7941C92.0227 39.6616 93.0454 39.7733 93.9986 40.12C93.8815 40.2267 93.7744 40.3438 93.6786 40.47C92.6273 41.5696 91.9306 42.9597 91.6786 44.46C91.2904 46.4056 91.617 48.4259 92.5986 50.15C92.9838 50.8182 93.4545 51.4334 93.9986 51.98ZM99.8286 52.36C98.6058 52.3404 97.412 51.984 96.3786 51.33C95.6833 50.8529 95.0774 50.2572 94.5886 49.57C93.7943 48.3651 93.428 46.9281 93.5486 45.49C93.6628 44.4364 94.0187 43.4234 94.5886 42.53C95.1873 41.6919 95.9719 41.0039 96.8811 40.5198C97.7902 40.0357 98.7991 39.7688 99.8286 39.74C101.502 39.74 103.107 40.4048 104.29 41.5882C105.474 42.7715 106.139 44.3765 106.139 46.05C106.139 47.7235 105.474 49.3285 104.29 50.5118C103.107 51.6952 101.502 52.36 99.8286 52.36Z" fill="black"/>
<path d="M115.579 22.56H19.5386V14.04H115.579V22.56Z" fill="black"/>
<path d="M4.80859 47.23L17.5386 43.84V52.66L6.98859 55.46L4.80859 47.23Z" fill="black"/>
<path d="M93.9986 51.98C93.0454 52.3267 92.0227 52.4384 91.0172 52.3059C90.0116 52.1733 89.0528 51.8003 88.222 51.2184C87.3913 50.6365 86.713 49.863 86.2447 48.9633C85.7765 48.0636 85.5319 47.0643 85.5319 46.05C85.5319 45.0357 85.7765 44.0364 86.2447 43.1367C86.713 42.237 87.3913 41.4635 88.222 40.8816C89.0528 40.2997 90.0116 39.9267 91.0172 39.7941C92.0227 39.6616 93.0454 39.7733 93.9986 40.12C93.8815 40.2267 93.7744 40.3438 93.6786 40.47C92.6273 41.5696 91.9306 42.9597 91.6786 44.46C91.2904 46.4056 91.617 48.4259 92.5986 50.15C92.9838 50.8182 93.4545 51.4334 93.9986 51.98Z" fill="black"/>
<path d="M112.579 1H22.5386C21.2132 1.00212 19.9426 1.52958 19.0054 2.4668C18.0682 3.40403 17.5407 4.67457 17.5386 6V30.34L4.35859 33.85C3.07808 34.1902 1.98496 35.0248 1.31934 36.1704C0.65372 37.3161 0.470021 38.679 0.808593 39.96L5.56859 57.91H5.57859L14.2186 90.45C14.5021 91.5152 15.1291 92.4571 16.0023 93.1296C16.8756 93.8022 17.9463 94.1679 19.0486 94.17C19.484 94.1676 19.9174 94.1105 20.3386 94L107.349 70.88C107.986 70.7128 108.584 70.4207 109.107 70.0208C109.631 69.6208 110.07 69.1209 110.399 68.55C110.73 67.9835 110.945 67.3564 111.031 66.7055C111.117 66.0546 111.072 65.3932 110.899 64.76L110.499 63.23H112.579C113.905 63.23 115.176 62.7032 116.114 61.7655C117.052 60.8279 117.579 59.5561 117.579 58.23V6C117.579 4.67392 117.052 3.40215 116.114 2.46447C115.176 1.52678 113.905 1 112.579 1ZM2.73859 39.45C2.5359 38.6809 2.64625 37.8629 3.04548 37.175C3.44471 36.4871 4.10027 35.9855 4.86859 35.78L17.5386 32.41V41.77L4.28859 45.3L2.73859 39.45ZM4.80859 47.23L17.5386 43.84V52.66L6.98859 55.46L4.80859 47.23ZM108.669 67.55C108.267 68.2372 107.608 68.737 106.839 68.94L19.8186 92.06C19.4393 92.1635 19.0431 92.1902 18.6534 92.1387C18.2636 92.0872 17.888 91.9585 17.5486 91.76C17.2064 91.562 16.9065 91.2985 16.6663 90.9845C16.4261 90.6704 16.2501 90.3121 16.1486 89.93L7.50859 57.39L17.5386 54.72V58.23C17.5407 59.5554 18.0682 60.826 19.0054 61.7632C19.9426 62.7004 21.2132 63.2279 22.5386 63.23H75.4086C76.248 64.9676 77.6666 66.3584 79.4205 67.1633C81.1744 67.9681 83.1539 68.1367 85.0186 67.64C86.1721 67.3292 87.2456 66.7748 88.1668 66.014C89.0879 65.2533 89.8353 64.304 90.3586 63.23H108.429L108.969 65.27C109.072 65.6509 109.099 66.0487 109.048 66.4402C108.996 66.8316 108.867 67.2089 108.669 67.55ZM77.7186 63.23H88.0386C87.4576 64.0594 86.6853 64.7365 85.7871 65.204C84.8889 65.6714 83.8912 65.9155 82.8786 65.9155C81.866 65.9155 80.8683 65.6714 79.9701 65.204C79.0719 64.7365 78.2995 64.0594 77.7186 63.23ZM115.579 58.23C115.576 59.0249 115.259 59.7866 114.697 60.3487C114.135 60.9108 113.374 61.2276 112.579 61.23H22.5386C21.7437 61.2276 20.982 60.9108 20.4199 60.3487C19.8578 59.7866 19.541 59.0249 19.5386 58.23V24.56H115.579V58.23ZM115.579 22.56H19.5386V14.04H115.579V22.56ZM115.579 12.04H19.5386V6C19.5386 5.20435 19.8547 4.44129 20.4173 3.87868C20.9799 3.31607 21.7429 3 22.5386 3H112.579C113.374 3 114.137 3.31607 114.7 3.87868C115.263 4.44129 115.579 5.20435 115.579 6V12.04Z" stroke="black"/>
<path d="M99.8286 37.74C98.4261 37.7368 97.046 38.0913 95.8186 38.77C94.5983 38.0918 93.2247 37.7372 91.8286 37.74C89.6247 37.74 87.511 38.6155 85.9526 40.1739C84.3941 41.7324 83.5186 43.8461 83.5186 46.05C83.5186 48.2539 84.3941 50.3676 85.9526 51.9261C87.511 53.4845 89.6247 54.36 91.8286 54.36C93.2247 54.3628 94.5983 54.0082 95.8186 53.33C96.929 53.9419 98.1647 54.2916 99.4311 54.3524C100.698 54.4132 101.961 54.1835 103.125 53.6808C104.289 53.1781 105.322 52.4158 106.146 51.4522C106.97 50.4886 107.563 49.3492 107.879 48.1213C108.195 46.8935 108.225 45.6096 107.969 44.368C107.712 43.1264 107.174 41.96 106.397 40.9581C105.621 39.9562 104.625 39.1453 103.486 38.5875C102.348 38.0297 101.096 37.7398 99.8286 37.74ZM93.9986 51.98C93.0454 52.3267 92.0227 52.4384 91.0172 52.3059C90.0116 52.1733 89.0528 51.8003 88.222 51.2184C87.3913 50.6365 86.713 49.863 86.2447 48.9633C85.7765 48.0636 85.5319 47.0643 85.5319 46.05C85.5319 45.0357 85.7765 44.0364 86.2447 43.1367C86.713 42.237 87.3913 41.4635 88.222 40.8816C89.0528 40.2997 90.0116 39.9267 91.0172 39.7941C92.0227 39.6616 93.0454 39.7733 93.9986 40.12C93.8815 40.2267 93.7744 40.3438 93.6786 40.47C92.6273 41.5696 91.9306 42.9597 91.6786 44.46C91.2904 46.4056 91.617 48.4259 92.5986 50.15C92.9838 50.8182 93.4545 51.4334 93.9986 51.98ZM99.8286 52.36C98.6058 52.3404 97.412 51.984 96.3786 51.33C95.6833 50.8529 95.0774 50.2572 94.5886 49.57C93.7943 48.3651 93.428 46.9281 93.5486 45.49C93.6628 44.4364 94.0187 43.4234 94.5886 42.53C95.1873 41.6919 95.9719 41.0039 96.8811 40.5198C97.7902 40.0357 98.7991 39.7688 99.8286 39.74C101.502 39.74 103.107 40.4048 104.29 41.5882C105.474 42.7715 106.139 44.3765 106.139 46.05C106.139 47.7235 105.474 49.3285 104.29 50.5118C103.107 51.6952 101.502 52.36 99.8286 52.36Z" stroke="black"/>
<path d="M115.579 22.56H19.5386V14.04H115.579V22.56Z" stroke="black"/>
<path d="M4.80859 47.23L17.5386 43.84V52.66L6.98859 55.46L4.80859 47.23Z" stroke="black"/>
<path d="M93.9986 51.98C93.0454 52.3267 92.0227 52.4384 91.0172 52.3059C90.0116 52.1733 89.0528 51.8003 88.222 51.2184C87.3913 50.6365 86.713 49.863 86.2447 48.9633C85.7765 48.0636 85.5319 47.0643 85.5319 46.05C85.5319 45.0357 85.7765 44.0364 86.2447 43.1367C86.713 42.237 87.3913 41.4635 88.222 40.8816C89.0528 40.2997 90.0116 39.9267 91.0172 39.7941C92.0227 39.6616 93.0454 39.7733 93.9986 40.12C93.8815 40.2267 93.7744 40.3438 93.6786 40.47C92.6273 41.5696 91.9306 42.9597 91.6786 44.46C91.2904 46.4056 91.617 48.4259 92.5986 50.15C92.9838 50.8182 93.4545 51.4334 93.9986 51.98Z" stroke="black"/>
</svg>
