<svg width="117" height="124" viewBox="0 0 117 124" fill="none" xmlns="http://www.w3.org/2000/svg">
<path d="M111.089 105.41V56.0999C111.087 54.7745 110.559 53.504 109.622 52.5667C108.685 51.6295 107.414 51.1021 106.089 51.0999H101.009C101.362 50.4925 101.548 49.8025 101.549 49.0999V46.1699C101.547 45.3979 101.323 44.6426 100.903 43.9951C100.482 43.3475 99.8834 42.8353 99.1787 42.5199C99.8789 41.6389 100.209 40.52 100.099 39.3999C99.2721 31.0707 95.6287 23.2726 89.7704 17.2943C83.9121 11.316 76.1895 7.51518 67.8787 6.51994V5.58994C67.8787 4.38984 67.4019 3.23889 66.5533 2.39028C65.7047 1.54168 64.5538 1.06494 63.3537 1.06494C62.1536 1.06494 61.0026 1.54168 60.154 2.39028C59.3054 3.23889 58.8287 4.38984 58.8287 5.58994V6.51994C50.5161 7.51323 42.7913 11.3131 36.931 17.2916C31.0707 23.2701 27.4258 31.0692 26.5987 39.3999C26.4858 40.5249 26.8199 41.6491 27.5287 42.5299C26.832 42.8503 26.2416 43.3632 25.827 44.0081C25.4123 44.6531 25.1909 45.4032 25.1887 46.1699V49.0999C25.1881 49.804 25.3782 50.4951 25.7387 51.0999H21.6487V34.1699C21.645 31.7841 20.6956 29.4971 19.0085 27.8101C17.3215 26.123 15.0345 25.1736 12.6487 25.1699H5.63867C4.31259 25.1699 3.04082 25.6967 2.10314 26.6344C1.16546 27.5721 0.638672 28.8439 0.638672 30.1699C0.638672 31.496 1.16546 32.7678 2.10314 33.7055C3.04082 34.6432 4.31259 35.1699 5.63867 35.1699H9.64867C10.1791 35.1699 10.6878 35.3807 11.0629 35.7557C11.438 36.1308 11.6487 36.6395 11.6487 37.1699V105.41C9.8977 106.497 8.54864 108.125 7.80583 110.047C7.06302 111.97 6.96692 114.082 7.53208 116.064C8.09724 118.046 9.29288 119.79 10.9379 121.031C12.5829 122.273 14.5877 122.944 16.6487 122.944C18.7096 122.944 20.7144 122.273 22.3594 121.031C24.0045 119.79 25.2001 118.046 25.7653 116.064C26.3304 114.082 26.2343 111.97 25.4915 110.047C24.7487 108.125 23.3996 106.497 21.6487 105.41V102.78C21.6487 102.515 21.754 102.26 21.9416 102.073C22.1291 101.885 22.3835 101.78 22.6487 101.78H100.089C100.354 101.78 100.608 101.885 100.796 102.073C100.983 102.26 101.089 102.515 101.089 102.78V105.41C99.3347 106.497 97.9829 108.127 97.2382 110.051C96.4935 111.976 96.3964 114.091 96.9616 116.075C97.5269 118.06 98.7237 119.806 100.371 121.05C102.018 122.293 104.025 122.966 106.089 122.966C108.152 122.966 110.16 122.293 111.807 121.05C113.454 119.806 114.65 118.06 115.216 116.075C115.781 114.091 115.684 111.976 114.939 110.051C114.194 108.127 112.843 106.497 111.089 105.41ZM60.8287 5.58994C60.8287 5.25835 60.894 4.93001 61.0209 4.62367C61.1478 4.31732 61.3338 4.03896 61.5682 3.8045C61.8027 3.57003 62.0811 3.38404 62.3874 3.25715C62.6937 3.13025 63.0221 3.06494 63.3537 3.06494C63.6853 3.06494 64.0136 3.13025 64.3199 3.25715C64.6263 3.38404 64.9046 3.57003 65.1391 3.8045C65.3736 4.03896 65.5596 4.31732 65.6865 4.62367C65.8134 4.93001 65.8787 5.25835 65.8787 5.58994V6.31994C65.0287 6.26994 64.1887 6.23994 63.3487 6.23994C62.5087 6.23994 61.6687 6.26994 60.8287 6.31994V5.58994ZM59.9187 8.39994C59.9687 8.39994 61.1087 8.29994 61.6387 8.27994C62.7812 8.21994 63.9261 8.21994 65.0687 8.27994C65.5787 8.29994 66.7187 8.38994 66.7787 8.39994C74.8063 9.16694 82.3187 12.6971 88.0328 18.3875C93.7469 24.0779 97.3083 31.5755 98.1087 39.5999C98.1416 39.9253 98.1058 40.254 98.0036 40.5646C97.9014 40.8753 97.7351 41.161 97.5154 41.4033C97.2958 41.6456 97.0277 41.839 96.7285 41.9711C96.4293 42.1032 96.1057 42.1709 95.7787 42.1699H30.9187C30.5921 42.1723 30.2688 42.1048 29.9704 41.972C29.672 41.8392 29.4055 41.6442 29.1887 41.3999C28.9682 41.1587 28.8008 40.8738 28.6974 40.5637C28.5941 40.2536 28.557 39.9253 28.5887 39.5999C29.3866 31.5746 32.9472 24.0756 38.6618 18.3848C44.3764 12.6939 51.8901 9.16454 59.9187 8.39994ZM27.1887 46.1699C27.1903 45.64 27.4015 45.1322 27.7762 44.7575C28.1509 44.3827 28.6587 44.1715 29.1887 44.1699H97.5487C98.0791 44.1699 98.5878 44.3807 98.9629 44.7557C99.338 45.1308 99.5487 45.6395 99.5487 46.1699V49.0999C99.5487 49.6304 99.338 50.1391 98.9629 50.5142C98.5878 50.8892 98.0791 51.0999 97.5487 51.0999H29.1887C28.6587 51.0984 28.1509 50.8871 27.7762 50.5124C27.4015 50.1377 27.1903 49.6299 27.1887 49.0999V46.1699ZM24.1287 113.46C24.1276 114.707 23.8149 115.933 23.219 117.028C22.6232 118.123 21.7631 119.052 20.7169 119.73C19.6708 120.408 18.4717 120.814 17.2288 120.911C15.9859 121.007 14.7385 120.792 13.6001 120.284C12.4617 119.776 11.4683 118.991 10.7103 118.001C9.95223 117.012 9.4536 115.848 9.2597 114.617C9.0658 113.385 9.18278 112.125 9.6 110.95C10.0172 109.775 10.7215 108.723 11.6487 107.89V109.14C11.6363 110.404 12.0906 111.628 12.9246 112.579C13.7585 113.529 14.9136 114.138 16.1687 114.29C16.8628 114.357 17.5632 114.278 18.225 114.058C18.8868 113.838 19.4953 113.482 20.0114 113.013C20.5274 112.544 20.9397 111.973 21.2217 111.335C21.5037 110.697 21.6491 110.007 21.6487 109.31V107.9C22.4295 108.6 23.0539 109.458 23.4812 110.416C23.9085 111.374 24.1291 112.411 24.1287 113.46ZM100.089 99.7799H22.6487C21.8538 99.7823 21.0921 100.099 20.53 100.661C19.9679 101.223 19.651 101.985 19.6487 102.78V109.31C19.6489 109.728 19.5619 110.141 19.3932 110.523C19.2244 110.906 18.9776 111.249 18.6687 111.53C18.3603 111.815 17.9948 112.031 17.5965 112.164C17.1983 112.296 16.7763 112.343 16.3587 112.3C15.5976 112.198 14.9005 111.82 14.4006 111.237C13.9008 110.654 13.6331 109.908 13.6487 109.14V37.1699C13.6473 36.1095 13.2255 35.0928 12.4756 34.343C11.7258 33.5931 10.7091 33.1713 9.64867 33.1699H5.63867C4.84302 33.1699 4.07996 32.8539 3.51735 32.2913C2.95474 31.7287 2.63867 30.9656 2.63867 30.1699C2.63867 29.3743 2.95474 28.6112 3.51735 28.0486C4.07996 27.486 4.84302 27.1699 5.63867 27.1699H12.6487C14.5045 27.1721 16.2838 27.9102 17.5961 29.2225C18.9084 30.5348 19.6466 32.3141 19.6487 34.1699V51.0999C19.6487 51.6304 19.8594 52.1391 20.2345 52.5142C20.6095 52.8892 21.1182 53.0999 21.6487 53.0999H106.089C106.884 53.0999 107.647 53.416 108.21 53.9786C108.773 54.5412 109.089 55.3043 109.089 56.0999V109.31C109.089 109.728 109.002 110.141 108.833 110.523C108.664 110.906 108.418 111.249 108.109 111.53C107.851 111.768 107.553 111.958 107.229 112.09C107.169 112.11 107.119 112.13 107.059 112.15C106.654 112.29 106.225 112.342 105.799 112.3C105.038 112.198 104.341 111.82 103.841 111.237C103.341 110.654 103.073 109.908 103.089 109.14V102.78C103.089 102.386 103.011 101.996 102.86 101.632C102.71 101.268 102.489 100.937 102.21 100.659C101.931 100.38 101.601 100.159 101.237 100.008C100.873 99.8575 100.483 99.7799 100.089 99.7799ZM106.099 120.94C104.585 120.942 103.106 120.485 101.857 119.629C100.609 118.772 99.6496 117.557 99.1066 116.144C98.5636 114.731 98.4624 113.186 98.8163 111.714C99.1702 110.242 99.9626 108.912 101.089 107.9V109.14C101.076 110.404 101.531 111.628 102.365 112.579C103.199 113.529 104.354 114.138 105.609 114.29C106.303 114.357 107.003 114.278 107.665 114.058C108.327 113.838 108.935 113.482 109.451 113.013C109.967 112.544 110.38 111.973 110.662 111.335C110.944 110.697 111.089 110.007 111.089 109.31V107.89C112.217 108.9 113.012 110.229 113.369 111.701C113.726 113.173 113.627 114.718 113.086 116.133C112.545 117.547 111.588 118.764 110.34 119.623C109.092 120.481 107.613 120.94 106.099 120.94Z" fill="black"/>
<path d="M99.0887 59.0999H23.6487C22.5888 59.1031 21.5732 59.5256 20.8237 60.275C20.0743 61.0245 19.6518 62.0401 19.6487 63.0999V89.7799C19.65 90.8404 20.0718 91.857 20.8217 92.6069C21.5716 93.3568 22.5882 93.7786 23.6487 93.7799H99.0887C100.15 93.7799 101.167 93.3585 101.917 92.6084C102.667 91.8582 103.089 90.8408 103.089 89.7799V63.0999C103.087 62.0395 102.666 61.0228 101.916 60.273C101.166 59.5231 100.149 59.1013 99.0887 59.0999ZM101.089 89.7799C101.089 90.3104 100.878 90.8191 100.503 91.1942C100.128 91.5692 99.6191 91.7799 99.0887 91.7799H23.6487C23.1187 91.7784 22.6109 91.5671 22.2362 91.1924C21.8615 90.8177 21.6503 90.3099 21.6487 89.7799V83.5399L29.2187 81.6099C33.8682 80.4185 38.7409 80.4014 43.3987 81.5599L44.8587 81.9199C49.7906 83.1467 54.9484 83.1432 59.8787 81.9099L61.4087 81.5299C65.9629 80.3885 70.7263 80.3714 75.2887 81.4799L77.6887 82.0599C82.3853 83.1929 87.2812 83.2169 91.9887 82.1299L101.089 80.0199V89.7799ZM101.089 77.9699L91.5387 80.1799C87.1341 81.1952 82.554 81.1747 78.1587 80.1199L75.7587 79.5299C70.8793 78.3546 65.7883 78.3752 60.9187 79.5899L59.3987 79.9699C54.7834 81.1232 49.9556 81.1267 45.3387 79.9799L43.8887 79.6199C38.9057 78.3813 33.6933 78.3985 28.7187 79.6699L21.6487 81.4699V63.0999C21.6503 62.57 21.8615 62.0622 22.2362 61.6875C22.6109 61.3127 23.1187 61.1015 23.6487 61.0999H99.0887C99.6191 61.0999 100.128 61.3107 100.503 61.6857C100.878 62.0608 101.089 62.5695 101.089 63.0999V77.9699Z" fill="black"/>
<path d="M27.1887 46.1699C27.1903 45.64 27.4015 45.1322 27.7762 44.7575C28.1509 44.3827 28.6587 44.1715 29.1887 44.1699H97.5487C98.0791 44.1699 98.5878 44.3807 98.9629 44.7557C99.338 45.1308 99.5487 45.6395 99.5487 46.1699V49.0999C99.5487 49.6304 99.338 50.1391 98.9629 50.5142C98.5878 50.8892 98.0791 51.0999 97.5487 51.0999H29.1887C28.6587 51.0984 28.1509 50.8871 27.7762 50.5124C27.4015 50.1377 27.1903 49.6299 27.1887 49.0999V46.1699Z" fill="black"/>
<path d="M101.089 89.7799C101.089 90.3104 100.878 90.8191 100.503 91.1942C100.128 91.5692 99.6191 91.7799 99.0887 91.7799H23.6487C23.1187 91.7784 22.6109 91.5671 22.2362 91.1924C21.8615 90.8177 21.6503 90.3099 21.6487 89.7799V83.5399L29.2187 81.6099C33.8682 80.4185 38.7409 80.4014 43.3987 81.5599L44.8587 81.9199C49.7906 83.1467 54.9484 83.1432 59.8787 81.9099L61.4087 81.5299C65.9629 80.3885 70.7263 80.3714 75.2887 81.4799L77.6887 82.0599C82.3853 83.1929 87.2812 83.2169 91.9887 82.1299L101.089 80.0199V89.7799Z" fill="black"/>
<path d="M111.089 105.41V56.0999C111.087 54.7745 110.559 53.504 109.622 52.5667C108.685 51.6295 107.414 51.1021 106.089 51.0999H101.009C101.362 50.4925 101.548 49.8025 101.549 49.0999V46.1699C101.547 45.3979 101.323 44.6426 100.903 43.9951C100.482 43.3475 99.8834 42.8353 99.1787 42.5199C99.8789 41.6389 100.209 40.52 100.099 39.3999C99.2721 31.0707 95.6287 23.2726 89.7704 17.2943C83.9121 11.316 76.1895 7.51518 67.8787 6.51994V5.58994C67.8787 4.38984 67.4019 3.23889 66.5533 2.39028C65.7047 1.54168 64.5538 1.06494 63.3537 1.06494C62.1536 1.06494 61.0026 1.54168 60.154 2.39028C59.3054 3.23889 58.8287 4.38984 58.8287 5.58994V6.51994C50.5161 7.51323 42.7913 11.3131 36.931 17.2916C31.0707 23.2701 27.4258 31.0692 26.5987 39.3999C26.4858 40.5249 26.8199 41.6491 27.5287 42.5299C26.832 42.8503 26.2416 43.3632 25.827 44.0081C25.4123 44.6531 25.1909 45.4032 25.1887 46.1699V49.0999C25.1881 49.804 25.3782 50.4951 25.7387 51.0999H21.6487V34.1699C21.645 31.7841 20.6956 29.4971 19.0085 27.8101C17.3215 26.123 15.0345 25.1736 12.6487 25.1699H5.63867C4.31259 25.1699 3.04082 25.6967 2.10314 26.6344C1.16546 27.5721 0.638672 28.8439 0.638672 30.1699C0.638672 31.496 1.16546 32.7678 2.10314 33.7055C3.04082 34.6432 4.31259 35.1699 5.63867 35.1699H9.64867C10.1791 35.1699 10.6878 35.3807 11.0629 35.7557C11.438 36.1308 11.6487 36.6395 11.6487 37.1699V105.41C9.8977 106.497 8.54864 108.125 7.80583 110.047C7.06302 111.97 6.96692 114.082 7.53208 116.064C8.09724 118.046 9.29288 119.79 10.9379 121.031C12.5829 122.273 14.5877 122.944 16.6487 122.944C18.7096 122.944 20.7144 122.273 22.3594 121.031C24.0045 119.79 25.2001 118.046 25.7653 116.064C26.3304 114.082 26.2343 111.97 25.4915 110.047C24.7487 108.125 23.3996 106.497 21.6487 105.41V102.78C21.6487 102.515 21.754 102.26 21.9416 102.073C22.1291 101.885 22.3835 101.78 22.6487 101.78H100.089C100.354 101.78 100.608 101.885 100.796 102.073C100.983 102.26 101.089 102.515 101.089 102.78V105.41C99.3347 106.497 97.9829 108.127 97.2382 110.051C96.4935 111.976 96.3964 114.091 96.9616 116.075C97.5269 118.06 98.7237 119.806 100.371 121.05C102.018 122.293 104.025 122.966 106.089 122.966C108.152 122.966 110.16 122.293 111.807 121.05C113.454 119.806 114.65 118.06 115.216 116.075C115.781 114.091 115.684 111.976 114.939 110.051C114.194 108.127 112.843 106.497 111.089 105.41ZM60.8287 5.58994C60.8287 5.25835 60.894 4.93001 61.0209 4.62367C61.1478 4.31732 61.3338 4.03896 61.5682 3.8045C61.8027 3.57003 62.0811 3.38404 62.3874 3.25715C62.6937 3.13025 63.0221 3.06494 63.3537 3.06494C63.6853 3.06494 64.0136 3.13025 64.3199 3.25715C64.6263 3.38404 64.9046 3.57003 65.1391 3.8045C65.3736 4.03896 65.5596 4.31732 65.6865 4.62367C65.8134 4.93001 65.8787 5.25835 65.8787 5.58994V6.31994C65.0287 6.26994 64.1887 6.23994 63.3487 6.23994C62.5087 6.23994 61.6687 6.26994 60.8287 6.31994V5.58994ZM59.9187 8.39994C59.9687 8.39994 61.1087 8.29994 61.6387 8.27994C62.7812 8.21994 63.9261 8.21994 65.0687 8.27994C65.5787 8.29994 66.7187 8.38994 66.7787 8.39994C74.8063 9.16694 82.3187 12.6971 88.0328 18.3875C93.7469 24.0779 97.3083 31.5755 98.1087 39.5999C98.1416 39.9253 98.1058 40.254 98.0036 40.5646C97.9014 40.8753 97.7351 41.161 97.5154 41.4033C97.2958 41.6456 97.0277 41.839 96.7285 41.9711C96.4293 42.1032 96.1057 42.1709 95.7787 42.1699H30.9187C30.5921 42.1723 30.2688 42.1048 29.9704 41.972C29.672 41.8392 29.4055 41.6442 29.1887 41.3999C28.9682 41.1587 28.8008 40.8738 28.6974 40.5637C28.5941 40.2536 28.557 39.9253 28.5887 39.5999C29.3866 31.5746 32.9472 24.0756 38.6618 18.3848C44.3764 12.6939 51.8901 9.16454 59.9187 8.39994ZM27.1887 46.1699C27.1903 45.64 27.4015 45.1322 27.7762 44.7575C28.1509 44.3827 28.6587 44.1715 29.1887 44.1699H97.5487C98.0791 44.1699 98.5878 44.3807 98.9629 44.7557C99.338 45.1308 99.5487 45.6395 99.5487 46.1699V49.0999C99.5487 49.6304 99.338 50.1391 98.9629 50.5142C98.5878 50.8892 98.0791 51.0999 97.5487 51.0999H29.1887C28.6587 51.0984 28.1509 50.8871 27.7762 50.5124C27.4015 50.1377 27.1903 49.6299 27.1887 49.0999V46.1699ZM24.1287 113.46C24.1276 114.707 23.8149 115.933 23.219 117.028C22.6232 118.123 21.7631 119.052 20.7169 119.73C19.6708 120.408 18.4717 120.814 17.2288 120.911C15.9859 121.007 14.7385 120.792 13.6001 120.284C12.4617 119.776 11.4683 118.991 10.7103 118.001C9.95223 117.012 9.4536 115.848 9.2597 114.617C9.0658 113.385 9.18278 112.125 9.6 110.95C10.0172 109.775 10.7215 108.723 11.6487 107.89V109.14C11.6363 110.404 12.0906 111.628 12.9246 112.579C13.7585 113.529 14.9136 114.138 16.1687 114.29C16.8628 114.357 17.5632 114.278 18.225 114.058C18.8868 113.838 19.4953 113.482 20.0114 113.013C20.5274 112.544 20.9397 111.973 21.2217 111.335C21.5037 110.697 21.6491 110.007 21.6487 109.31V107.9C22.4295 108.6 23.0539 109.458 23.4812 110.416C23.9085 111.374 24.1291 112.411 24.1287 113.46ZM100.089 99.7799H22.6487C21.8538 99.7823 21.0921 100.099 20.53 100.661C19.9679 101.223 19.651 101.985 19.6487 102.78V109.31C19.6489 109.728 19.5619 110.141 19.3932 110.523C19.2244 110.906 18.9776 111.249 18.6687 111.53C18.3603 111.815 17.9948 112.031 17.5965 112.164C17.1983 112.296 16.7763 112.343 16.3587 112.3C15.5976 112.198 14.9005 111.82 14.4006 111.237C13.9008 110.654 13.6331 109.908 13.6487 109.14V37.1699C13.6473 36.1095 13.2255 35.0928 12.4756 34.343C11.7258 33.5931 10.7091 33.1713 9.64867 33.1699H5.63867C4.84302 33.1699 4.07996 32.8539 3.51735 32.2913C2.95474 31.7287 2.63867 30.9656 2.63867 30.1699C2.63867 29.3743 2.95474 28.6112 3.51735 28.0486C4.07996 27.486 4.84302 27.1699 5.63867 27.1699H12.6487C14.5045 27.1721 16.2838 27.9102 17.5961 29.2225C18.9084 30.5348 19.6466 32.3141 19.6487 34.1699V51.0999C19.6487 51.6304 19.8594 52.1391 20.2345 52.5142C20.6095 52.8892 21.1182 53.0999 21.6487 53.0999H106.089C106.884 53.0999 107.647 53.416 108.21 53.9786C108.773 54.5412 109.089 55.3043 109.089 56.0999V109.31C109.089 109.728 109.002 110.141 108.833 110.523C108.664 110.906 108.418 111.249 108.109 111.53C107.851 111.768 107.553 111.958 107.229 112.09C107.169 112.11 107.119 112.13 107.059 112.15C106.654 112.29 106.225 112.342 105.799 112.3C105.038 112.198 104.341 111.82 103.841 111.237C103.341 110.654 103.073 109.908 103.089 109.14V102.78C103.089 102.386 103.011 101.996 102.86 101.632C102.71 101.268 102.489 100.937 102.21 100.659C101.931 100.38 101.601 100.159 101.237 100.008C100.873 99.8575 100.483 99.7799 100.089 99.7799ZM106.099 120.94C104.585 120.942 103.106 120.485 101.857 119.629C100.609 118.772 99.6496 117.557 99.1066 116.144C98.5636 114.731 98.4624 113.186 98.8163 111.714C99.1702 110.242 99.9626 108.912 101.089 107.9V109.14C101.076 110.404 101.531 111.628 102.365 112.579C103.199 113.529 104.354 114.138 105.609 114.29C106.303 114.357 107.003 114.278 107.665 114.058C108.327 113.838 108.935 113.482 109.451 113.013C109.967 112.544 110.38 111.973 110.662 111.335C110.944 110.697 111.089 110.007 111.089 109.31V107.89C112.217 108.9 113.012 110.229 113.369 111.701C113.726 113.173 113.627 114.718 113.086 116.133C112.545 117.547 111.588 118.764 110.34 119.623C109.092 120.481 107.613 120.94 106.099 120.94Z" stroke="black"/>
<path d="M99.0887 59.0999H23.6487C22.5888 59.1031 21.5732 59.5256 20.8237 60.275C20.0743 61.0245 19.6518 62.0401 19.6487 63.0999V89.7799C19.65 90.8404 20.0718 91.857 20.8217 92.6069C21.5716 93.3568 22.5882 93.7786 23.6487 93.7799H99.0887C100.15 93.7799 101.167 93.3585 101.917 92.6084C102.667 91.8582 103.089 90.8408 103.089 89.7799V63.0999C103.087 62.0395 102.666 61.0228 101.916 60.273C101.166 59.5231 100.149 59.1013 99.0887 59.0999ZM101.089 89.7799C101.089 90.3104 100.878 90.8191 100.503 91.1942C100.128 91.5692 99.6191 91.7799 99.0887 91.7799H23.6487C23.1187 91.7784 22.6109 91.5671 22.2362 91.1924C21.8615 90.8177 21.6503 90.3099 21.6487 89.7799V83.5399L29.2187 81.6099C33.8682 80.4185 38.7409 80.4014 43.3987 81.5599L44.8587 81.9199C49.7906 83.1467 54.9484 83.1432 59.8787 81.9099L61.4087 81.5299C65.9629 80.3885 70.7263 80.3714 75.2887 81.4799L77.6887 82.0599C82.3853 83.1929 87.2812 83.2169 91.9887 82.1299L101.089 80.0199V89.7799ZM101.089 77.9699L91.5387 80.1799C87.1341 81.1952 82.554 81.1747 78.1587 80.1199L75.7587 79.5299C70.8793 78.3546 65.7883 78.3752 60.9187 79.5899L59.3987 79.9699C54.7834 81.1232 49.9556 81.1267 45.3387 79.9799L43.8887 79.6199C38.9057 78.3813 33.6933 78.3985 28.7187 79.6699L21.6487 81.4699V63.0999C21.6503 62.57 21.8615 62.0622 22.2362 61.6875C22.6109 61.3127 23.1187 61.1015 23.6487 61.0999H99.0887C99.6191 61.0999 100.128 61.3107 100.503 61.6857C100.878 62.0608 101.089 62.5695 101.089 63.0999V77.9699Z" stroke="black"/>
<path d="M27.1887 46.1699C27.1903 45.64 27.4015 45.1322 27.7762 44.7575C28.1509 44.3827 28.6587 44.1715 29.1887 44.1699H97.5487C98.0791 44.1699 98.5878 44.3807 98.9629 44.7557C99.338 45.1308 99.5487 45.6395 99.5487 46.1699V49.0999C99.5487 49.6304 99.338 50.1391 98.9629 50.5142C98.5878 50.8892 98.0791 51.0999 97.5487 51.0999H29.1887C28.6587 51.0984 28.1509 50.8871 27.7762 50.5124C27.4015 50.1377 27.1903 49.6299 27.1887 49.0999V46.1699Z" stroke="black"/>
<path d="M101.089 89.7799C101.089 90.3104 100.878 90.8191 100.503 91.1942C100.128 91.5692 99.6191 91.7799 99.0887 91.7799H23.6487C23.1187 91.7784 22.6109 91.5671 22.2362 91.1924C21.8615 90.8177 21.6503 90.3099 21.6487 89.7799V83.5399L29.2187 81.6099C33.8682 80.4185 38.7409 80.4014 43.3987 81.5599L44.8587 81.9199C49.7906 83.1467 54.9484 83.1432 59.8787 81.9099L61.4087 81.5299C65.9629 80.3885 70.7263 80.3714 75.2887 81.4799L77.6887 82.0599C82.3853 83.1929 87.2812 83.2169 91.9887 82.1299L101.089 80.0199V89.7799Z" stroke="black"/>
</svg>
