<svg width="120" height="116" viewBox="0 0 120 116" fill="none" xmlns="http://www.w3.org/2000/svg">
<path d="M105.269 88.14H38.6087V85.69C38.6087 84.0987 37.9765 82.5726 36.8513 81.4474C35.7261 80.3222 34.2 79.69 32.6087 79.69H30.6387V36.45L36.7087 39.7C37.2823 40.0252 37.9175 40.2269 38.5736 40.2923C39.2296 40.3578 39.8922 40.2855 40.5187 40.08C41.464 39.7928 42.3031 39.2318 42.9299 38.4681C43.5568 37.7043 43.9433 36.772 44.0406 35.7887C44.138 34.8055 43.9418 33.8154 43.477 32.9436C43.0121 32.0717 42.2993 31.3571 41.4287 30.89L25.3087 22.26C25.0768 22.1313 24.9048 21.9165 24.83 21.662C24.7551 21.4075 24.7834 21.1338 24.9087 20.9L31.7287 8.15003C32.0412 7.57363 32.2358 6.94072 32.3011 6.28827C32.3663 5.63583 32.3009 4.97692 32.1087 4.35003C31.8226 3.40407 31.2626 2.5641 30.4994 1.93621C29.7363 1.30832 28.8041 0.920677 27.8208 0.822234C26.8374 0.723792 25.847 0.918969 24.9745 1.38311C24.102 1.84726 23.3866 2.55955 22.9187 3.43003L13.2587 21.47C12.6334 22.6387 12.497 24.0076 12.8794 25.2767C13.2618 26.5457 14.1318 27.6114 15.2987 28.24L20.6387 31.1V79.69H18.6587C17.0683 79.6929 15.5438 80.326 14.4192 81.4506C13.2947 82.5752 12.6616 84.0996 12.6587 85.69V88.34C9.31612 88.9122 6.31023 90.7185 4.23608 93.4014C2.16193 96.0843 1.17073 99.4482 1.45869 102.827C1.74666 106.206 3.29281 109.354 5.79105 111.647C8.28929 113.94 11.5575 115.212 14.9487 115.21H105.269C107.046 115.21 108.806 114.86 110.448 114.18C112.09 113.5 113.583 112.503 114.839 111.246C116.096 109.989 117.093 108.497 117.773 106.855C118.454 105.213 118.804 103.452 118.804 101.675C118.804 99.8976 118.454 98.1376 117.773 96.4954C117.093 94.8533 116.096 93.3612 114.839 92.1043C113.583 90.8475 112.09 89.8505 110.448 89.1703C108.806 88.4901 107.046 88.14 105.269 88.14ZM16.2487 26.48C15.5477 26.1016 15.025 25.4612 14.7945 24.6986C14.5641 23.9361 14.6446 23.1134 15.0187 22.41L24.6787 4.38003C24.9468 3.9099 25.3315 3.51669 25.7956 3.23823C26.2597 2.95976 26.7877 2.80542 27.3287 2.79003C27.8215 2.78947 28.3065 2.91329 28.7387 3.15003C29.4401 3.52537 29.9638 4.16395 30.1944 4.92533C30.4251 5.6867 30.3439 6.50852 29.9687 7.21003L23.1387 19.96C22.7635 20.6615 22.6823 21.4834 22.9129 22.2447C23.1436 23.0061 23.6672 23.6447 24.3687 24.02L40.4887 32.65C40.8368 32.8351 41.1445 33.0879 41.3935 33.3936C41.6425 33.6993 41.8279 34.0517 41.9387 34.43C42.0573 34.8053 42.0989 35.2007 42.0611 35.5925C42.0233 35.9842 41.9069 36.3643 41.7187 36.71C41.5335 37.058 41.2814 37.366 40.9769 37.6163C40.6724 37.8666 40.3215 38.0543 39.9442 38.1686C39.567 38.2828 39.1709 38.3215 38.7787 38.2823C38.3864 38.2431 38.0058 38.1268 37.6587 37.94L16.2487 26.48ZM28.6387 35.38V79.69H22.6387V32.17L28.6387 35.38ZM14.6587 85.69C14.66 84.6296 15.0819 83.6129 15.8317 82.8631C16.5816 82.1132 17.5982 81.6914 18.6587 81.69H32.6087C33.6695 81.69 34.687 82.1115 35.4371 82.8616C36.1872 83.6118 36.6087 84.6292 36.6087 85.69V88.14H14.6587V85.69ZM105.269 113.21H14.9487C11.8894 113.21 8.95543 111.995 6.7922 109.832C4.62897 107.668 3.41368 104.734 3.41368 101.675C3.41368 98.6158 4.62897 95.6818 6.7922 93.5186C8.95543 91.3553 11.8894 90.14 14.9487 90.14H105.269C106.783 90.14 108.283 90.4384 109.683 91.0181C111.082 91.5978 112.354 92.4474 113.425 93.5186C114.496 94.5897 115.346 95.8613 115.926 97.2608C116.505 98.6603 116.804 100.16 116.804 101.675C116.804 103.19 116.505 104.69 115.926 106.089C115.346 107.489 114.496 108.76 113.425 109.832C112.354 110.903 111.082 111.752 109.683 112.332C108.283 112.912 106.783 113.21 105.269 113.21Z" fill="black"/>
<path d="M110.709 100.65C110.469 99.3825 109.794 98.2384 108.801 97.4151C107.808 96.5918 106.559 96.1408 105.269 96.14H14.9487C13.6587 96.1408 12.4094 96.5918 11.4163 97.4151C10.4232 98.2384 9.74851 99.3825 9.50867 100.65C9.47623 100.815 9.45287 100.982 9.43867 101.15C9.38785 101.664 9.41142 102.183 9.50867 102.69C9.74807 103.959 10.4223 105.104 11.4152 105.929C12.4082 106.754 13.6577 107.207 14.9487 107.21H105.269C106.562 107.217 107.817 106.767 108.812 105.94C109.806 105.114 110.478 103.963 110.709 102.69C110.816 102.014 110.816 101.326 110.709 100.65ZM14.4687 104.73C13.8095 104.731 13.1676 104.519 12.6381 104.126C12.1086 103.734 11.7196 103.181 11.5287 102.55C11.3933 101.975 11.3933 101.376 11.5287 100.8C11.6903 100.257 11.9998 99.7691 12.4225 99.3914C12.8452 99.0138 13.3646 98.7611 13.9226 98.6616C14.4806 98.562 15.0553 98.6195 15.5826 98.8277C16.1098 99.0358 16.5688 99.3864 16.9083 99.8402C17.2479 100.294 17.4546 100.833 17.5054 101.398C17.5562 101.963 17.4491 102.53 17.196 103.037C16.943 103.544 16.5539 103.971 16.0723 104.27C15.5907 104.569 15.0355 104.728 14.4687 104.73ZM102.139 105.21H18.0787C19.0018 104.265 19.5187 102.996 19.5187 101.675C19.5187 100.354 19.0018 99.0851 18.0787 98.14H102.139C101.216 99.0851 100.699 100.354 100.699 101.675C100.699 102.996 101.216 104.265 102.139 105.21ZM108.689 102.55C108.506 103.186 108.119 103.744 107.588 104.138C107.057 104.532 106.41 104.74 105.749 104.73C105.183 104.728 104.629 104.568 104.148 104.269C103.668 103.97 103.279 103.544 103.027 103.037C102.775 102.531 102.668 101.964 102.719 101.4C102.77 100.837 102.976 100.298 103.315 99.8451C103.654 99.3919 104.113 99.0418 104.639 98.8338C105.165 98.6259 105.739 98.5682 106.296 98.6672C106.853 98.7662 107.372 99.0181 107.795 99.3947C108.217 99.7713 108.527 100.258 108.689 100.8C108.852 101.372 108.852 101.978 108.689 102.55Z" fill="black"/>
<path d="M28.6387 35.38V79.69H22.6387V32.17L28.6387 35.38Z" fill="black"/>
<path d="M102.139 105.21H18.0787C19.0018 104.265 19.5187 102.996 19.5187 101.675C19.5187 100.354 19.0018 99.0851 18.0787 98.14H102.139C101.216 99.0851 100.699 100.354 100.699 101.675C100.699 102.996 101.216 104.265 102.139 105.21Z" fill="black"/>
<path d="M105.269 88.14H38.6087V85.69C38.6087 84.0987 37.9765 82.5726 36.8513 81.4474C35.7261 80.3222 34.2 79.69 32.6087 79.69H30.6387V36.45L36.7087 39.7C37.2823 40.0252 37.9175 40.2269 38.5736 40.2923C39.2296 40.3578 39.8922 40.2855 40.5187 40.08C41.464 39.7928 42.3031 39.2318 42.9299 38.4681C43.5568 37.7043 43.9433 36.772 44.0406 35.7887C44.138 34.8055 43.9418 33.8154 43.477 32.9436C43.0121 32.0717 42.2993 31.3571 41.4287 30.89L25.3087 22.26C25.0768 22.1313 24.9048 21.9165 24.83 21.662C24.7551 21.4075 24.7834 21.1338 24.9087 20.9L31.7287 8.15003C32.0412 7.57363 32.2358 6.94072 32.3011 6.28827C32.3663 5.63583 32.3009 4.97692 32.1087 4.35003C31.8226 3.40407 31.2626 2.5641 30.4994 1.93621C29.7363 1.30832 28.8041 0.920677 27.8208 0.822234C26.8374 0.723792 25.847 0.918969 24.9745 1.38311C24.102 1.84726 23.3866 2.55955 22.9187 3.43003L13.2587 21.47C12.6334 22.6387 12.497 24.0076 12.8794 25.2767C13.2618 26.5457 14.1318 27.6114 15.2987 28.24L20.6387 31.1V79.69H18.6587C17.0683 79.6929 15.5438 80.326 14.4192 81.4506C13.2947 82.5752 12.6616 84.0996 12.6587 85.69V88.34C9.31612 88.9122 6.31023 90.7185 4.23608 93.4014C2.16193 96.0843 1.17073 99.4482 1.45869 102.827C1.74666 106.206 3.29281 109.354 5.79105 111.647C8.28929 113.94 11.5575 115.212 14.9487 115.21H105.269C107.046 115.21 108.806 114.86 110.448 114.18C112.09 113.5 113.583 112.503 114.839 111.246C116.096 109.989 117.093 108.497 117.773 106.855C118.454 105.213 118.804 103.452 118.804 101.675C118.804 99.8976 118.454 98.1376 117.773 96.4954C117.093 94.8533 116.096 93.3612 114.839 92.1043C113.583 90.8475 112.09 89.8505 110.448 89.1703C108.806 88.4901 107.046 88.14 105.269 88.14ZM16.2487 26.48C15.5477 26.1016 15.025 25.4612 14.7945 24.6986C14.5641 23.9361 14.6446 23.1134 15.0187 22.41L24.6787 4.38003C24.9468 3.9099 25.3315 3.51669 25.7956 3.23823C26.2597 2.95976 26.7877 2.80542 27.3287 2.79003C27.8215 2.78947 28.3065 2.91329 28.7387 3.15003C29.4401 3.52537 29.9638 4.16395 30.1944 4.92533C30.4251 5.6867 30.3439 6.50852 29.9687 7.21003L23.1387 19.96C22.7635 20.6615 22.6823 21.4834 22.9129 22.2447C23.1436 23.0061 23.6672 23.6447 24.3687 24.02L40.4887 32.65C40.8368 32.8351 41.1445 33.0879 41.3935 33.3936C41.6425 33.6993 41.8279 34.0517 41.9387 34.43C42.0573 34.8053 42.0989 35.2007 42.0611 35.5925C42.0233 35.9842 41.9069 36.3643 41.7187 36.71C41.5335 37.058 41.2814 37.366 40.9769 37.6163C40.6724 37.8666 40.3215 38.0543 39.9442 38.1686C39.567 38.2828 39.1709 38.3215 38.7787 38.2823C38.3864 38.2431 38.0058 38.1268 37.6587 37.94L16.2487 26.48ZM28.6387 35.38V79.69H22.6387V32.17L28.6387 35.38ZM14.6587 85.69C14.66 84.6296 15.0819 83.6129 15.8317 82.8631C16.5816 82.1132 17.5982 81.6914 18.6587 81.69H32.6087C33.6695 81.69 34.687 82.1115 35.4371 82.8616C36.1872 83.6118 36.6087 84.6292 36.6087 85.69V88.14H14.6587V85.69ZM105.269 113.21H14.9487C11.8894 113.21 8.95543 111.995 6.7922 109.832C4.62897 107.668 3.41368 104.734 3.41368 101.675C3.41368 98.6158 4.62897 95.6818 6.7922 93.5186C8.95543 91.3553 11.8894 90.14 14.9487 90.14H105.269C106.783 90.14 108.283 90.4384 109.683 91.0181C111.082 91.5978 112.354 92.4474 113.425 93.5186C114.496 94.5897 115.346 95.8613 115.926 97.2608C116.505 98.6603 116.804 100.16 116.804 101.675C116.804 103.19 116.505 104.69 115.926 106.089C115.346 107.489 114.496 108.76 113.425 109.832C112.354 110.903 111.082 111.752 109.683 112.332C108.283 112.912 106.783 113.21 105.269 113.21Z" stroke="black"/>
<path d="M110.709 100.65C110.469 99.3825 109.794 98.2384 108.801 97.4151C107.808 96.5918 106.559 96.1408 105.269 96.14H14.9487C13.6587 96.1408 12.4094 96.5918 11.4163 97.4151C10.4232 98.2384 9.74851 99.3825 9.50867 100.65C9.47623 100.815 9.45287 100.982 9.43867 101.15C9.38785 101.664 9.41142 102.183 9.50867 102.69C9.74807 103.959 10.4223 105.104 11.4152 105.929C12.4082 106.754 13.6577 107.207 14.9487 107.21H105.269C106.562 107.217 107.817 106.767 108.812 105.94C109.806 105.114 110.478 103.963 110.709 102.69C110.816 102.014 110.816 101.326 110.709 100.65ZM14.4687 104.73C13.8095 104.731 13.1676 104.519 12.6381 104.126C12.1086 103.734 11.7196 103.181 11.5287 102.55C11.3933 101.975 11.3933 101.376 11.5287 100.8C11.6903 100.257 11.9998 99.7691 12.4225 99.3914C12.8452 99.0138 13.3646 98.7611 13.9226 98.6616C14.4806 98.562 15.0553 98.6195 15.5826 98.8277C16.1098 99.0358 16.5688 99.3864 16.9083 99.8402C17.2479 100.294 17.4546 100.833 17.5054 101.398C17.5562 101.963 17.4491 102.53 17.196 103.037C16.943 103.544 16.5539 103.971 16.0723 104.27C15.5907 104.569 15.0355 104.728 14.4687 104.73ZM102.139 105.21H18.0787C19.0018 104.265 19.5187 102.996 19.5187 101.675C19.5187 100.354 19.0018 99.0851 18.0787 98.14H102.139C101.216 99.0851 100.699 100.354 100.699 101.675C100.699 102.996 101.216 104.265 102.139 105.21ZM108.689 102.55C108.506 103.186 108.119 103.744 107.588 104.138C107.057 104.532 106.41 104.74 105.749 104.73C105.183 104.728 104.629 104.568 104.148 104.269C103.668 103.97 103.279 103.544 103.027 103.037C102.775 102.531 102.668 101.964 102.719 101.4C102.77 100.837 102.976 100.298 103.315 99.8451C103.654 99.3919 104.113 99.0418 104.639 98.8338C105.165 98.6259 105.739 98.5682 106.296 98.6672C106.853 98.7662 107.372 99.0181 107.795 99.3947C108.217 99.7713 108.527 100.258 108.689 100.8C108.852 101.372 108.852 101.978 108.689 102.55Z" stroke="black"/>
<path d="M28.6387 35.38V79.69H22.6387V32.17L28.6387 35.38Z" stroke="black"/>
<path d="M102.139 105.21H18.0787C19.0018 104.265 19.5187 102.996 19.5187 101.675C19.5187 100.354 19.0018 99.0851 18.0787 98.14H102.139C101.216 99.0851 100.699 100.354 100.699 101.675C100.699 102.996 101.216 104.265 102.139 105.21Z" stroke="black"/>
</svg>
