<svg width="124" height="114" viewBox="0 0 124 114" fill="none" xmlns="http://www.w3.org/2000/svg">
<path d="M58.4567 21.733C58.1654 21.7327 57.8777 21.6688 57.6137 21.5458C57.3497 21.4228 57.1158 21.2436 56.9283 21.0207C56.7407 20.7978 56.6042 20.5367 56.5281 20.2555C56.452 19.9744 56.4382 19.68 56.4877 19.393L57.0067 16.365L54.8067 14.221C54.5393 13.9606 54.3501 13.6305 54.2605 13.2681C54.171 12.9057 54.1846 12.5255 54.2999 12.1705C54.4152 11.8155 54.6275 11.4998 54.9129 11.2592C55.1983 11.0186 55.5453 10.8626 55.9147 10.809L58.9547 10.367L60.3137 7.612C60.4782 7.27676 60.7339 6.99465 61.0514 6.79799C61.3688 6.60132 61.7353 6.49805 62.1087 6.5C62.4822 6.49846 62.8485 6.60226 63.1656 6.79948C63.4828 6.99671 63.7379 7.27936 63.9017 7.615L65.2617 10.369L68.3017 10.811C68.6704 10.8652 69.0166 11.0214 69.3013 11.2618C69.586 11.5023 69.7979 11.8176 69.9129 12.172C70.028 12.5265 70.0418 12.906 69.9527 13.2679C69.8636 13.6297 69.6752 13.9595 69.4087 14.22L67.2087 16.365L67.7277 19.393C67.7905 19.7605 67.7492 20.1383 67.6086 20.4836C67.4681 20.829 67.2338 21.1281 66.9322 21.3474C66.6306 21.5666 66.2737 21.6972 65.9018 21.7243C65.53 21.7514 65.1579 21.6741 64.8277 21.501L62.1087 20.071L59.3897 21.5C59.1023 21.6524 58.782 21.7324 58.4567 21.733ZM62.1087 18.072C62.4326 18.0719 62.7516 18.1501 63.0387 18.3L64.8617 19.259C64.9443 19.3026 65.0374 19.3221 65.1305 19.3155C65.2237 19.3088 65.3131 19.2762 65.3886 19.2214C65.4642 19.1665 65.5229 19.0916 65.5581 19.0051C65.5933 18.9186 65.6035 18.824 65.5877 18.732L65.2387 16.7C65.1839 16.3805 65.2076 16.0524 65.3078 15.744C65.4079 15.4357 65.5816 15.1563 65.8137 14.93L67.2887 13.5C67.3553 13.4349 67.4023 13.3524 67.4245 13.262C67.4467 13.1715 67.4432 13.0767 67.4145 12.9881C67.3857 12.8995 67.3327 12.8207 67.2615 12.7607C67.1904 12.7006 67.1038 12.6616 67.0117 12.648L64.9737 12.348C64.6539 12.3005 64.3503 12.1761 64.0891 11.9856C63.8278 11.7951 63.6167 11.544 63.4737 11.254L62.5617 9.408C62.5208 9.32346 62.4568 9.25217 62.3772 9.20229C62.2977 9.1524 62.2056 9.12594 62.1117 9.12594C62.0178 9.12594 61.9257 9.1524 61.8462 9.20229C61.7666 9.25217 61.7026 9.32346 61.6617 9.408L60.7507 11.253C60.6079 11.5449 60.3962 11.7976 60.1338 11.9893C59.8714 12.1809 59.5662 12.3058 59.2447 12.353L57.2067 12.653C57.1143 12.6664 57.0276 12.7054 56.9562 12.7656C56.8849 12.8257 56.8318 12.9046 56.803 12.9934C56.7742 13.0821 56.7708 13.1772 56.7932 13.2678C56.8155 13.3584 56.8628 13.4409 56.9297 13.506L58.4027 14.941C58.6353 15.1674 58.8093 15.4471 58.9097 15.7558C59.01 16.0646 59.0337 16.3931 58.9787 16.713L58.6317 18.742C58.616 18.8339 58.6263 18.9283 58.6615 19.0147C58.6966 19.101 58.7552 19.1758 58.8306 19.2306C58.906 19.2854 58.9952 19.318 59.0882 19.3248C59.1811 19.3316 59.2741 19.3123 59.3567 19.269L61.1787 18.311C61.4648 18.1572 61.7839 18.0752 62.1087 18.072Z" fill="black"/>
<path d="M74.5617 21.733C74.3433 21.7328 74.1276 21.6849 73.9297 21.5927C73.7317 21.5005 73.5563 21.3662 73.4156 21.1992C73.275 21.0321 73.1725 20.8364 73.1153 20.6257C73.0582 20.4149 73.0477 20.1942 73.0847 19.979L73.2997 18.723L72.3887 17.835C72.1882 17.6397 72.0463 17.3923 71.979 17.1206C71.9118 16.8489 71.922 16.5638 72.0083 16.2975C72.0947 16.0313 72.2538 15.7945 72.4677 15.614C72.6816 15.4335 72.9417 15.3164 73.2187 15.276L74.4797 15.093L75.0427 13.952C75.1665 13.7008 75.3581 13.4893 75.5959 13.3414C75.8337 13.1934 76.1082 13.115 76.3882 13.115C76.6682 13.115 76.9427 13.1934 77.1805 13.3414C77.4183 13.4893 77.6099 13.7008 77.7337 13.952L78.2967 15.093L79.5557 15.276C79.8326 15.3162 80.0928 15.4331 80.3068 15.6134C80.5207 15.7938 80.68 16.0304 80.7666 16.2965C80.8531 16.5626 80.8635 16.8476 80.7965 17.1193C80.7296 17.391 80.588 17.6386 80.3877 17.834L79.4767 18.723L79.6917 19.978C79.7393 20.254 79.7086 20.5378 79.6032 20.7973C79.4978 21.0567 79.3218 21.2815 79.0953 21.4461C78.8687 21.6108 78.6006 21.7087 78.3212 21.7288C78.0419 21.749 77.7625 21.6905 77.5147 21.56L76.3877 20.967L75.2607 21.56C75.0452 21.6736 74.8053 21.7329 74.5617 21.733ZM76.3877 18.9C76.6317 18.8994 76.8721 18.9588 77.0877 19.073L77.5497 19.316L77.4617 18.8C77.4206 18.5604 77.4384 18.3145 77.5135 18.0833C77.5886 17.8522 77.7187 17.6427 77.8927 17.473L78.2677 17.108L77.7497 17.033C77.5094 16.998 77.2813 16.9051 77.0848 16.7625C76.8883 16.6198 76.7294 16.4316 76.6217 16.214L76.3887 15.744L76.1567 16.214C76.049 16.4313 75.8902 16.6192 75.6939 16.7617C75.4976 16.9042 75.2697 16.9969 75.0297 17.032L74.5107 17.108L74.8847 17.473C75.059 17.6427 75.1894 17.8523 75.2647 18.0837C75.3399 18.315 75.3578 18.5612 75.3167 18.801L75.2277 19.316L75.6907 19.072C75.9057 18.9591 76.1449 18.9001 76.3877 18.9Z" fill="black"/>
<path d="M46.0087 22.354C45.7898 22.3547 45.5734 22.3075 45.3748 22.2156C45.1761 22.1238 44.9999 21.9896 44.8586 21.8225C44.7173 21.6553 44.6142 21.4593 44.5567 21.2481C44.4992 21.0369 44.4886 20.8157 44.5257 20.6L44.7407 19.344L43.8297 18.456C43.6291 18.2607 43.4873 18.0131 43.4201 17.7413C43.3529 17.4696 43.3631 17.1844 43.4496 16.9181C43.5361 16.6519 43.6953 16.4151 43.9094 16.2347C44.1234 16.0542 44.3836 15.9372 44.6607 15.897L45.9207 15.714L46.4847 14.572C46.6086 14.3211 46.8002 14.1098 47.0379 13.9621C47.2756 13.8143 47.5498 13.7361 47.8297 13.7361C48.1095 13.7361 48.3838 13.8143 48.6215 13.9621C48.8592 14.1098 49.0508 14.3211 49.1747 14.572L49.7377 15.713L50.9977 15.896C51.2747 15.9362 51.535 16.0532 51.749 16.2337C51.9631 16.4141 52.1223 16.6509 52.2088 16.9171C52.2953 17.1834 52.3055 17.4686 52.2383 17.7403C52.1711 18.0121 52.0293 18.2597 51.8287 18.455L50.9177 19.343L51.1327 20.598C51.1799 20.8738 51.149 21.1573 51.0435 21.4164C50.9381 21.6756 50.7622 21.9001 50.5359 22.0645C50.3095 22.229 50.0417 22.3269 49.7626 22.3471C49.4836 22.3673 49.2044 22.3091 48.9567 22.179L47.8297 21.586L46.7027 22.179C46.4889 22.2925 46.2508 22.3525 46.0087 22.354ZM47.8357 19.523C48.0795 19.5223 48.3197 19.581 48.5357 19.694L49.0007 19.938L48.9117 19.423C48.8707 19.1834 48.8884 18.9375 48.9635 18.7063C49.0386 18.4752 49.1687 18.2657 49.3427 18.096L49.7177 17.73L49.1997 17.655C48.9595 17.6201 48.7314 17.5274 48.535 17.3849C48.3385 17.2424 48.1795 17.0544 48.0717 16.837L47.8397 16.366L47.6077 16.834C47.5 17.0524 47.3407 17.2412 47.1437 17.3843C46.9466 17.5273 46.7177 17.6202 46.4767 17.655L45.9607 17.73L46.3357 18.095C46.5098 18.2648 46.64 18.4744 46.7151 18.7058C46.7902 18.9371 46.8079 19.1833 46.7667 19.423L46.6787 19.938L47.1407 19.695C47.3539 19.584 47.5903 19.525 47.8307 19.523H47.8357Z" fill="black"/>
<path d="M56.3597 52.449H44.2347C43.439 52.449 42.676 52.1329 42.1134 51.5703C41.5508 51.0077 41.2347 50.2447 41.2347 49.449V37.324C41.2347 36.5284 41.5508 35.7653 42.1134 35.2027C42.676 34.6401 43.439 34.324 44.2347 34.324H56.3597C57.1553 34.324 57.9184 34.6401 58.481 35.2027C59.0436 35.7653 59.3597 36.5284 59.3597 37.324V49.449C59.3597 50.2447 59.0436 51.0077 58.481 51.5703C57.9184 52.1329 57.1553 52.449 56.3597 52.449ZM44.2347 36.324C43.9695 36.324 43.7151 36.4294 43.5276 36.6169C43.34 36.8044 43.2347 37.0588 43.2347 37.324V49.449C43.2347 49.7142 43.34 49.9686 43.5276 50.1561C43.7151 50.3436 43.9695 50.449 44.2347 50.449H56.3597C56.6249 50.449 56.8793 50.3436 57.0668 50.1561C57.2543 49.9686 57.3597 49.7142 57.3597 49.449V37.324C57.3597 37.0588 57.2543 36.8044 57.0668 36.6169C56.8793 36.4294 56.6249 36.324 56.3597 36.324H44.2347Z" fill="black"/>
<path d="M79.9827 52.449H67.8577C67.062 52.449 66.299 52.1329 65.7364 51.5703C65.1738 51.0077 64.8577 50.2447 64.8577 49.449V37.324C64.8577 36.5284 65.1738 35.7653 65.7364 35.2027C66.299 34.6401 67.062 34.324 67.8577 34.324H79.9827C80.7783 34.324 81.5414 34.6401 82.104 35.2027C82.6666 35.7653 82.9827 36.5284 82.9827 37.324V49.449C82.9827 50.2447 82.6666 51.0077 82.104 51.5703C81.5414 52.1329 80.7783 52.449 79.9827 52.449ZM67.8577 36.324C67.5925 36.324 67.3381 36.4294 67.1506 36.6169C66.9631 36.8044 66.8577 37.0588 66.8577 37.324V49.449C66.8577 49.7142 66.9631 49.9686 67.1506 50.1561C67.3381 50.3436 67.5925 50.449 67.8577 50.449H79.9827C80.2479 50.449 80.5023 50.3436 80.6898 50.1561C80.8773 49.9686 80.9827 49.7142 80.9827 49.449V37.324C80.9827 37.0588 80.8773 36.8044 80.6898 36.6169C80.5023 36.4294 80.2479 36.324 79.9827 36.324H67.8577Z" fill="black"/>
<path d="M56.3597 74.574H44.2347C43.439 74.574 42.676 74.2579 42.1134 73.6953C41.5508 73.1327 41.2347 72.3696 41.2347 71.574V59.449C41.2347 58.6533 41.5508 57.8903 42.1134 57.3277C42.676 56.7651 43.439 56.449 44.2347 56.449H56.3597C57.1553 56.449 57.9184 56.7651 58.481 57.3277C59.0436 57.8903 59.3597 58.6533 59.3597 59.449V71.574C59.3597 72.3696 59.0436 73.1327 58.481 73.6953C57.9184 74.2579 57.1553 74.574 56.3597 74.574ZM44.2347 58.449C43.9695 58.449 43.7151 58.5544 43.5276 58.7419C43.34 58.9294 43.2347 59.1838 43.2347 59.449V71.574C43.2347 71.8392 43.34 72.0936 43.5276 72.2811C43.7151 72.4686 43.9695 72.574 44.2347 72.574H56.3597C56.6249 72.574 56.8793 72.4686 57.0668 72.2811C57.2543 72.0936 57.3597 71.8392 57.3597 71.574V59.449C57.3597 59.1838 57.2543 58.9294 57.0668 58.7419C56.8793 58.5544 56.6249 58.449 56.3597 58.449H44.2347Z" fill="black"/>
<path d="M79.9827 74.574H67.8577C67.062 74.574 66.299 74.2579 65.7364 73.6953C65.1738 73.1327 64.8577 72.3696 64.8577 71.574V59.449C64.8577 58.6533 65.1738 57.8903 65.7364 57.3277C66.299 56.7651 67.062 56.449 67.8577 56.449H79.9827C80.7783 56.449 81.5414 56.7651 82.104 57.3277C82.6666 57.8903 82.9827 58.6533 82.9827 59.449V71.574C82.9827 72.3696 82.6666 73.1327 82.104 73.6953C81.5414 74.2579 80.7783 74.574 79.9827 74.574ZM67.8577 58.449C67.5925 58.449 67.3381 58.5544 67.1506 58.7419C66.9631 58.9294 66.8577 59.1838 66.8577 59.449V71.574C66.8577 71.8392 66.9631 72.0936 67.1506 72.2811C67.3381 72.4686 67.5925 72.574 67.8577 72.574H79.9827C80.2479 72.574 80.5023 72.4686 80.6898 72.2811C80.8773 72.0936 80.9827 71.8392 80.9827 71.574V59.449C80.9827 59.1838 80.8773 58.9294 80.6898 58.7419C80.5023 58.5544 80.2479 58.449 79.9827 58.449H67.8577Z" fill="black"/>
<path d="M118.429 43.28H96.9787V29.32C96.9785 28.2143 96.6111 27.14 95.9342 26.2658C95.2572 25.3916 94.3091 24.767 93.2387 24.49V17.51C93.2387 16.1839 92.7119 14.9121 91.7742 13.9745C90.8365 13.0368 89.5648 12.51 88.2387 12.51H83.9887C83.5145 12.5041 83.0482 12.3881 82.6265 12.1712C82.2048 11.9543 81.8392 11.6424 81.5587 11.26C79.3061 8.22296 76.3736 5.75562 72.9961 4.05559C69.6186 2.35557 65.8899 1.47009 62.1087 1.47009C58.3275 1.47009 54.5988 2.35557 51.2213 4.05559C47.8438 5.75562 44.9113 8.22296 42.6587 11.26C42.3782 11.6424 42.0126 11.9543 41.5909 12.1712C41.1692 12.3881 40.7029 12.5041 40.2287 12.51H35.9787C34.6526 12.51 33.3808 13.0368 32.4432 13.9745C31.5055 14.9121 30.9787 16.1839 30.9787 17.51V24.49C29.9083 24.767 28.9602 25.3916 28.2832 26.2658C27.6063 27.14 27.2389 28.2143 27.2387 29.32V43.28H5.7887C4.46261 43.28 3.19084 43.8068 2.25316 44.7445C1.31548 45.6821 0.788696 46.9539 0.788696 48.28V109.53C0.788696 110.326 1.10477 111.089 1.66738 111.651C2.22998 112.214 2.99305 112.53 3.7887 112.53H120.429C121.224 112.53 121.987 112.214 122.55 111.651C123.113 111.089 123.429 110.326 123.429 109.53V48.28C123.429 46.9539 122.902 45.6821 121.964 44.7445C121.027 43.8068 119.755 43.28 118.429 43.28ZM27.2387 110.53H3.7887C3.52348 110.53 3.26913 110.425 3.08159 110.237C2.89405 110.05 2.7887 109.795 2.7887 109.53V48.28C2.7887 47.4843 3.10477 46.7213 3.66738 46.1587C4.22998 45.5961 4.99305 45.28 5.7887 45.28H27.2387V110.53ZM32.9787 17.51C32.9787 16.7144 33.2948 15.9513 33.8574 15.3887C34.42 14.8261 35.183 14.51 35.9787 14.51H40.2287C41.0145 14.5046 41.7882 14.3155 42.4879 13.9578C43.1877 13.6001 43.7941 13.0838 44.2587 12.45C46.3269 9.66409 49.0184 7.40094 52.118 5.84165C55.2175 4.28236 58.639 3.47022 62.1087 3.47022C65.5784 3.47022 68.9999 4.28236 72.0994 5.84165C75.199 7.40094 77.8905 9.66409 79.9587 12.45C80.4233 13.0838 81.0297 13.6001 81.7295 13.9578C82.4292 14.3155 83.2029 14.5046 83.9887 14.51H88.2387C89.0343 14.51 89.7974 14.8261 90.36 15.3887C90.9226 15.9513 91.2387 16.7144 91.2387 17.51V24.32H32.9787V17.51ZM51.2987 110.53V92.02C51.2987 89.153 52.4376 86.4034 54.4649 84.3762C56.4921 82.3489 59.2417 81.21 62.1087 81.21C64.9757 81.21 67.7253 82.3489 69.7525 84.3762C71.7798 86.4034 72.9187 89.153 72.9187 92.02V110.53H51.2987ZM94.9787 110.53H74.9187V92.02C74.9187 88.6226 73.5691 85.3643 71.1667 82.962C68.7644 80.5596 65.5061 79.21 62.1087 79.21C58.7113 79.21 55.453 80.5596 53.0507 82.962C50.6483 85.3643 49.2987 88.6226 49.2987 92.02V110.53H29.2387V29.32C29.2387 28.5244 29.5548 27.7613 30.1174 27.1987C30.68 26.6361 31.443 26.32 32.2387 26.32H91.9787C92.7743 26.32 93.5374 26.6361 94.1 27.1987C94.6626 27.7613 94.9787 28.5244 94.9787 29.32V110.53ZM121.429 109.53C121.429 109.795 121.323 110.05 121.136 110.237C120.948 110.425 120.694 110.53 120.429 110.53H96.9787V45.28H118.429C119.224 45.28 119.987 45.5961 120.55 46.1587C121.113 46.7213 121.429 47.4843 121.429 48.28V109.53Z" fill="black"/>
<path d="M19.2087 64.669H10.8157C10.02 64.669 9.25698 64.3529 8.69438 63.7903C8.13177 63.2277 7.8157 62.4646 7.8157 61.669V53.277C7.8157 52.4813 8.13177 51.7183 8.69438 51.1557C9.25698 50.5931 10.02 50.277 10.8157 50.277H19.2087C20.0043 50.277 20.7674 50.5931 21.33 51.1557C21.8926 51.7183 22.2087 52.4813 22.2087 53.277V61.669C22.2087 62.4646 21.8926 63.2277 21.33 63.7903C20.7674 64.3529 20.0043 64.669 19.2087 64.669ZM10.8157 52.277C10.5505 52.277 10.2961 52.3824 10.1086 52.5699C9.92105 52.7574 9.8157 53.0118 9.8157 53.277V61.669C9.8157 61.9342 9.92105 62.1886 10.1086 62.3761C10.2961 62.5636 10.5505 62.669 10.8157 62.669H19.2087C19.4739 62.669 19.7283 62.5636 19.9158 62.3761C20.1033 62.1886 20.2087 61.9342 20.2087 61.669V53.277C20.2087 53.0118 20.1033 52.7574 19.9158 52.5699C19.7283 52.3824 19.4739 52.277 19.2087 52.277H10.8157Z" fill="black"/>
<path d="M19.2087 84.062H10.8157C10.02 84.062 9.25698 83.7459 8.69438 83.1833C8.13177 82.6207 7.8157 81.8576 7.8157 81.062V72.669C7.8157 71.8734 8.13177 71.1103 8.69438 70.5477C9.25698 69.9851 10.02 69.669 10.8157 69.669H19.2087C20.0043 69.669 20.7674 69.9851 21.33 70.5477C21.8926 71.1103 22.2087 71.8734 22.2087 72.669V81.062C22.2087 81.8576 21.8926 82.6207 21.33 83.1833C20.7674 83.7459 20.0043 84.062 19.2087 84.062ZM10.8157 71.669C10.5505 71.669 10.2961 71.7744 10.1086 71.9619C9.92105 72.1494 9.8157 72.4038 9.8157 72.669V81.062C9.8157 81.3272 9.92105 81.5816 10.1086 81.7691C10.2961 81.9566 10.5505 82.062 10.8157 82.062H19.2087C19.4739 82.062 19.7283 81.9566 19.9158 81.7691C20.1033 81.5816 20.2087 81.3272 20.2087 81.062V72.669C20.2087 72.4038 20.1033 72.1494 19.9158 71.9619C19.7283 71.7744 19.4739 71.669 19.2087 71.669H10.8157Z" fill="black"/>
<path d="M19.2087 103.454H10.8157C10.02 103.454 9.25698 103.138 8.69438 102.575C8.13177 102.013 7.8157 101.25 7.8157 100.454V92.062C7.8157 91.2663 8.13177 90.5033 8.69438 89.9407C9.25698 89.3781 10.02 89.062 10.8157 89.062H19.2087C20.0043 89.062 20.7674 89.3781 21.33 89.9407C21.8926 90.5033 22.2087 91.2663 22.2087 92.062V100.454C22.2087 101.25 21.8926 102.013 21.33 102.575C20.7674 103.138 20.0043 103.454 19.2087 103.454ZM10.8157 91.062C10.5505 91.062 10.2961 91.1674 10.1086 91.3549C9.92105 91.5424 9.8157 91.7968 9.8157 92.062V100.454C9.8157 100.719 9.92105 100.974 10.1086 101.161C10.2961 101.349 10.5505 101.454 10.8157 101.454H19.2087C19.4739 101.454 19.7283 101.349 19.9158 101.161C20.1033 100.974 20.2087 100.719 20.2087 100.454V92.062C20.2087 91.7968 20.1033 91.5424 19.9158 91.3549C19.7283 91.1674 19.4739 91.062 19.2087 91.062H10.8157Z" fill="black"/>
<path d="M113.402 84.062H105.009C104.213 84.062 103.45 83.7459 102.887 83.1833C102.325 82.6207 102.009 81.8576 102.009 81.062V72.669C102.009 71.8734 102.325 71.1103 102.887 70.5477C103.45 69.9851 104.213 69.669 105.009 69.669H113.401C114.196 69.669 114.959 69.9851 115.522 70.5477C116.085 71.1103 116.401 71.8734 116.401 72.669V81.062C116.401 81.8575 116.085 82.6204 115.522 83.183C114.96 83.7456 114.197 84.0617 113.402 84.062ZM105.009 71.669C104.743 71.669 104.489 71.7744 104.302 71.9619C104.114 72.1494 104.009 72.4038 104.009 72.669V81.062C104.009 81.3272 104.114 81.5816 104.302 81.7691C104.489 81.9566 104.743 82.062 105.009 82.062H113.401C113.666 82.062 113.92 81.9566 114.108 81.7691C114.295 81.5816 114.401 81.3272 114.401 81.062V72.669C114.401 72.4038 114.295 72.1494 114.108 71.9619C113.92 71.7744 113.666 71.669 113.401 71.669H105.009Z" fill="black"/>
<path d="M113.402 103.454H105.009C104.213 103.454 103.45 103.138 102.887 102.575C102.325 102.013 102.009 101.25 102.009 100.454V92.062C102.009 91.2663 102.325 90.5033 102.887 89.9407C103.45 89.3781 104.213 89.062 105.009 89.062H113.401C114.196 89.062 114.959 89.3781 115.522 89.9407C116.085 90.5033 116.401 91.2663 116.401 92.062V100.454C116.401 101.249 116.085 102.012 115.522 102.575C114.96 103.138 114.197 103.454 113.402 103.454ZM105.009 91.062C104.743 91.062 104.489 91.1674 104.302 91.3549C104.114 91.5424 104.009 91.7968 104.009 92.062V100.454C104.009 100.719 104.114 100.974 104.302 101.161C104.489 101.349 104.743 101.454 105.009 101.454H113.401C113.666 101.454 113.92 101.349 114.108 101.161C114.295 100.974 114.401 100.719 114.401 100.454V92.062C114.401 91.7968 114.295 91.5424 114.108 91.3549C113.92 91.1674 113.666 91.062 113.401 91.062H105.009Z" fill="black"/>
<path d="M67.8577 58.449C67.5925 58.449 67.3381 58.5544 67.1506 58.7419C66.9631 58.9294 66.8577 59.1838 66.8577 59.449V71.574C66.8577 71.8392 66.9631 72.0936 67.1506 72.2811C67.3381 72.4686 67.5925 72.574 67.8577 72.574H79.9827C80.2479 72.574 80.5023 72.4686 80.6898 72.2811C80.8773 72.0936 80.9827 71.8392 80.9827 71.574V59.449C80.9827 59.1838 80.8773 58.9294 80.6898 58.7419C80.5023 58.5544 80.2479 58.449 79.9827 58.449H67.8577Z" fill="black"/>
<path d="M44.2347 36.324C43.9695 36.324 43.7151 36.4294 43.5276 36.6169C43.34 36.8044 43.2347 37.0588 43.2347 37.324V49.449C43.2347 49.7142 43.34 49.9686 43.5276 50.1561C43.7151 50.3436 43.9695 50.449 44.2347 50.449H56.3597C56.6249 50.449 56.8793 50.3436 57.0668 50.1561C57.2543 49.9686 57.3597 49.7142 57.3597 49.449V37.324C57.3597 37.0588 57.2543 36.8044 57.0668 36.6169C56.8793 36.4294 56.6249 36.324 56.3597 36.324H44.2347Z" fill="black"/>
<path d="M10.8157 71.669C10.5505 71.669 10.2961 71.7744 10.1086 71.9619C9.92105 72.1494 9.8157 72.4038 9.8157 72.669V81.062C9.8157 81.3272 9.92105 81.5816 10.1086 81.7691C10.2961 81.9566 10.5505 82.062 10.8157 82.062H19.2087C19.4739 82.062 19.7283 81.9566 19.9158 81.7691C20.1033 81.5816 20.2087 81.3272 20.2087 81.062V72.669C20.2087 72.4038 20.1033 72.1494 19.9158 71.9619C19.7283 71.7744 19.4739 71.669 19.2087 71.669H10.8157Z" fill="black"/>
<path d="M51.2987 110.53V92.02C51.2987 89.153 52.4376 86.4034 54.4649 84.3762C56.4921 82.3489 59.2417 81.21 62.1087 81.21C64.9757 81.21 67.7253 82.3489 69.7525 84.3762C71.7798 86.4034 72.9187 89.153 72.9187 92.02V110.53H51.2987Z" fill="black"/>
<path fill-rule="evenodd" clip-rule="evenodd" d="M32.9787 17.51C32.9787 16.7144 33.2948 15.9513 33.8574 15.3887C34.42 14.8261 35.183 14.51 35.9787 14.51H40.2287C41.0145 14.5046 41.7882 14.3155 42.4879 13.9578C43.1877 13.6001 43.7941 13.0838 44.2587 12.45C46.3269 9.66409 49.0184 7.40094 52.118 5.84165C55.2175 4.28236 58.639 3.47022 62.1087 3.47022C65.5784 3.47022 68.9999 4.28236 72.0994 5.84165C75.199 7.40094 77.8905 9.66409 79.9587 12.45C80.4233 13.0838 81.0297 13.6001 81.7295 13.9578C82.4292 14.3155 83.2029 14.5046 83.9887 14.51H88.2387C89.0343 14.51 89.7974 14.8261 90.36 15.3887C90.9226 15.9513 91.2387 16.7144 91.2387 17.51V24.32H32.9787V17.51ZM57.6137 21.5458C57.8777 21.6688 58.1654 21.7327 58.4567 21.733C58.782 21.7324 59.1023 21.6524 59.3897 21.5L62.1087 20.071L64.8277 21.501C65.1579 21.6741 65.53 21.7514 65.9018 21.7243C66.2737 21.6972 66.6306 21.5666 66.9322 21.3474C67.2338 21.1281 67.4681 20.829 67.6086 20.4836C67.7492 20.1383 67.7905 19.7605 67.7277 19.393L67.2087 16.365L69.4087 14.22C69.6752 13.9595 69.8636 13.6297 69.9527 13.2679C70.0418 12.906 70.028 12.5265 69.9129 12.172C69.7979 11.8176 69.586 11.5023 69.3013 11.2618C69.0166 11.0214 68.6704 10.8652 68.3017 10.811L65.2617 10.369L63.9017 7.615C63.7379 7.27936 63.4828 6.99671 63.1656 6.79948C62.8485 6.60226 62.4822 6.49846 62.1087 6.5C61.7353 6.49805 61.3688 6.60132 61.0514 6.79799C60.7339 6.99465 60.4782 7.27676 60.3137 7.612L58.9547 10.367L55.9147 10.809C55.5453 10.8626 55.1983 11.0186 54.9129 11.2592C54.6275 11.4998 54.4152 11.8155 54.2999 12.1705C54.1846 12.5255 54.171 12.9057 54.2605 13.2681C54.3501 13.6305 54.5393 13.9606 54.8067 14.221L57.0067 16.365L56.4877 19.393C56.4382 19.68 56.452 19.9744 56.5281 20.2555C56.6042 20.5367 56.7407 20.7978 56.9283 21.0207C57.1158 21.2436 57.3497 21.4228 57.6137 21.5458ZM73.9297 21.5927C74.1276 21.6849 74.3433 21.7328 74.5617 21.733C74.8053 21.7329 75.0452 21.6736 75.2607 21.56L76.3877 20.967L77.5147 21.56C77.7625 21.6905 78.0419 21.749 78.3212 21.7288C78.6006 21.7087 78.8687 21.6108 79.0953 21.4461C79.3218 21.2815 79.4978 21.0567 79.6032 20.7973C79.7086 20.5378 79.7393 20.254 79.6917 19.978L79.4767 18.723L80.3877 17.834C80.588 17.6386 80.7296 17.391 80.7965 17.1193C80.8635 16.8476 80.8531 16.5626 80.7666 16.2965C80.68 16.0304 80.5207 15.7938 80.3068 15.6134C80.0928 15.4331 79.8326 15.3162 79.5557 15.276L78.2967 15.093L77.7337 13.952C77.6099 13.7008 77.4183 13.4893 77.1805 13.3414C76.9427 13.1934 76.6682 13.115 76.3882 13.115C76.1082 13.115 75.8337 13.1934 75.5959 13.3414C75.3581 13.4893 75.1665 13.7008 75.0427 13.952L74.4797 15.093L73.2187 15.276C72.9417 15.3164 72.6816 15.4335 72.4677 15.614C72.2538 15.7945 72.0947 16.0313 72.0083 16.2975C71.922 16.5638 71.9118 16.8489 71.979 17.1206C72.0463 17.3923 72.1882 17.6397 72.3887 17.835L73.2997 18.723L73.0847 19.979C73.0477 20.1942 73.0582 20.4149 73.1153 20.6257C73.1725 20.8364 73.275 21.0321 73.4156 21.1992C73.5563 21.3662 73.7317 21.5005 73.9297 21.5927ZM45.3748 22.2156C45.5734 22.3075 45.7898 22.3547 46.0087 22.354C46.2508 22.3525 46.4889 22.2925 46.7027 22.179L47.8297 21.586L48.9567 22.179C49.2044 22.3091 49.4836 22.3673 49.7626 22.3471C50.0417 22.3269 50.3095 22.229 50.5359 22.0645C50.7622 21.9001 50.9381 21.6756 51.0435 21.4164C51.149 21.1573 51.1799 20.8738 51.1327 20.598L50.9177 19.343L51.8287 18.455C52.0293 18.2597 52.1711 18.0121 52.2383 17.7403C52.3055 17.4686 52.2953 17.1834 52.2088 16.9171C52.1223 16.6509 51.9631 16.4141 51.749 16.2337C51.535 16.0532 51.2747 15.9362 50.9977 15.896L49.7377 15.713L49.1747 14.572C49.0508 14.3211 48.8592 14.1098 48.6215 13.9621C48.3838 13.8143 48.1095 13.7361 47.8297 13.7361C47.5498 13.7361 47.2756 13.8143 47.0379 13.9621C46.8002 14.1098 46.6086 14.3211 46.4847 14.572L45.9207 15.714L44.6607 15.897C44.3836 15.9372 44.1234 16.0542 43.9094 16.2347C43.6953 16.4151 43.5361 16.6519 43.4496 16.9181C43.3631 17.1844 43.3529 17.4696 43.4201 17.7413C43.4873 18.0131 43.6291 18.2607 43.8297 18.456L44.7407 19.344L44.5257 20.6C44.4886 20.8157 44.4992 21.0369 44.5567 21.2481C44.6142 21.4593 44.7173 21.6553 44.8586 21.8225C44.9999 21.9896 45.1761 22.1238 45.3748 22.2156Z" fill="black"/>
<path d="M58.4567 21.733C58.1654 21.7327 57.8777 21.6688 57.6137 21.5458C57.3497 21.4228 57.1158 21.2436 56.9283 21.0207C56.7407 20.7978 56.6042 20.5367 56.5281 20.2555C56.452 19.9744 56.4382 19.68 56.4877 19.393L57.0067 16.365L54.8067 14.221C54.5393 13.9606 54.3501 13.6305 54.2605 13.2681C54.171 12.9057 54.1846 12.5255 54.2999 12.1705C54.4152 11.8155 54.6275 11.4998 54.9129 11.2592C55.1983 11.0186 55.5453 10.8626 55.9147 10.809L58.9547 10.367L60.3137 7.612C60.4782 7.27676 60.7339 6.99465 61.0514 6.79799C61.3688 6.60132 61.7353 6.49805 62.1087 6.5C62.4822 6.49846 62.8485 6.60226 63.1656 6.79948C63.4828 6.99671 63.7379 7.27936 63.9017 7.615L65.2617 10.369L68.3017 10.811C68.6704 10.8652 69.0166 11.0214 69.3013 11.2618C69.586 11.5023 69.7979 11.8176 69.9129 12.172C70.028 12.5265 70.0418 12.906 69.9527 13.2679C69.8636 13.6297 69.6752 13.9595 69.4087 14.22L67.2087 16.365L67.7277 19.393C67.7905 19.7605 67.7492 20.1383 67.6086 20.4836C67.4681 20.829 67.2338 21.1281 66.9322 21.3474C66.6306 21.5666 66.2737 21.6972 65.9018 21.7243C65.53 21.7514 65.1579 21.6741 64.8277 21.501L62.1087 20.071L59.3897 21.5C59.1023 21.6524 58.782 21.7324 58.4567 21.733ZM62.1087 18.072C62.4326 18.0719 62.7516 18.1501 63.0387 18.3L64.8617 19.259C64.9443 19.3026 65.0374 19.3221 65.1305 19.3155C65.2237 19.3088 65.3131 19.2762 65.3886 19.2214C65.4642 19.1665 65.5229 19.0916 65.5581 19.0051C65.5933 18.9186 65.6035 18.824 65.5877 18.732L65.2387 16.7C65.1839 16.3805 65.2076 16.0524 65.3078 15.744C65.4079 15.4357 65.5816 15.1563 65.8137 14.93L67.2887 13.5C67.3553 13.4349 67.4023 13.3524 67.4245 13.262C67.4467 13.1715 67.4432 13.0767 67.4145 12.9881C67.3857 12.8995 67.3327 12.8207 67.2615 12.7607C67.1904 12.7006 67.1038 12.6616 67.0117 12.648L64.9737 12.348C64.6539 12.3005 64.3503 12.1761 64.0891 11.9856C63.8278 11.7951 63.6167 11.544 63.4737 11.254L62.5617 9.408C62.5208 9.32346 62.4568 9.25217 62.3772 9.20229C62.2977 9.1524 62.2056 9.12594 62.1117 9.12594C62.0178 9.12594 61.9257 9.1524 61.8462 9.20229C61.7666 9.25217 61.7026 9.32346 61.6617 9.408L60.7507 11.253C60.6079 11.5449 60.3962 11.7976 60.1338 11.9893C59.8714 12.1809 59.5662 12.3058 59.2447 12.353L57.2067 12.653C57.1143 12.6664 57.0276 12.7054 56.9562 12.7656C56.8849 12.8257 56.8318 12.9046 56.803 12.9934C56.7742 13.0821 56.7708 13.1772 56.7932 13.2678C56.8155 13.3584 56.8628 13.4409 56.9297 13.506L58.4027 14.941C58.6353 15.1674 58.8093 15.4471 58.9097 15.7558C59.01 16.0646 59.0337 16.3931 58.9787 16.713L58.6317 18.742C58.616 18.8339 58.6263 18.9283 58.6615 19.0147C58.6966 19.101 58.7552 19.1758 58.8306 19.2306C58.906 19.2854 58.9952 19.318 59.0882 19.3248C59.1811 19.3316 59.2741 19.3123 59.3567 19.269L61.1787 18.311C61.4648 18.1572 61.7839 18.0752 62.1087 18.072Z" stroke="black"/>
<path d="M74.5617 21.733C74.3433 21.7328 74.1276 21.6849 73.9297 21.5927C73.7317 21.5005 73.5563 21.3662 73.4156 21.1992C73.275 21.0321 73.1725 20.8364 73.1153 20.6257C73.0582 20.4149 73.0477 20.1942 73.0847 19.979L73.2997 18.723L72.3887 17.835C72.1882 17.6397 72.0463 17.3923 71.979 17.1206C71.9118 16.8489 71.922 16.5638 72.0083 16.2975C72.0947 16.0313 72.2538 15.7945 72.4677 15.614C72.6816 15.4335 72.9417 15.3164 73.2187 15.276L74.4797 15.093L75.0427 13.952C75.1665 13.7008 75.3581 13.4893 75.5959 13.3414C75.8337 13.1934 76.1082 13.115 76.3882 13.115C76.6682 13.115 76.9427 13.1934 77.1805 13.3414C77.4183 13.4893 77.6099 13.7008 77.7337 13.952L78.2967 15.093L79.5557 15.276C79.8326 15.3162 80.0928 15.4331 80.3068 15.6134C80.5207 15.7938 80.68 16.0304 80.7666 16.2965C80.8531 16.5626 80.8635 16.8476 80.7965 17.1193C80.7296 17.391 80.588 17.6386 80.3877 17.834L79.4767 18.723L79.6917 19.978C79.7393 20.254 79.7086 20.5378 79.6032 20.7973C79.4978 21.0567 79.3218 21.2815 79.0953 21.4461C78.8687 21.6108 78.6006 21.7087 78.3212 21.7288C78.0419 21.749 77.7625 21.6905 77.5147 21.56L76.3877 20.967L75.2607 21.56C75.0452 21.6736 74.8053 21.7329 74.5617 21.733ZM76.3877 18.9C76.6317 18.8994 76.8721 18.9588 77.0877 19.073L77.5497 19.316L77.4617 18.8C77.4206 18.5604 77.4384 18.3145 77.5135 18.0833C77.5886 17.8522 77.7187 17.6427 77.8927 17.473L78.2677 17.108L77.7497 17.033C77.5094 16.998 77.2813 16.9051 77.0848 16.7625C76.8883 16.6198 76.7294 16.4316 76.6217 16.214L76.3887 15.744L76.1567 16.214C76.049 16.4313 75.8902 16.6192 75.6939 16.7617C75.4976 16.9042 75.2697 16.9969 75.0297 17.032L74.5107 17.108L74.8847 17.473C75.059 17.6427 75.1894 17.8523 75.2647 18.0837C75.3399 18.315 75.3578 18.5612 75.3167 18.801L75.2277 19.316L75.6907 19.072C75.9057 18.9591 76.1449 18.9001 76.3877 18.9Z" stroke="black"/>
<path d="M46.0087 22.354C45.7898 22.3547 45.5734 22.3075 45.3748 22.2156C45.1761 22.1238 44.9999 21.9896 44.8586 21.8225C44.7173 21.6553 44.6142 21.4593 44.5567 21.2481C44.4992 21.0369 44.4886 20.8157 44.5257 20.6L44.7407 19.344L43.8297 18.456C43.6291 18.2607 43.4873 18.0131 43.4201 17.7413C43.3529 17.4696 43.3631 17.1844 43.4496 16.9181C43.5361 16.6519 43.6953 16.4151 43.9094 16.2347C44.1234 16.0542 44.3836 15.9372 44.6607 15.897L45.9207 15.714L46.4847 14.572C46.6086 14.3211 46.8002 14.1098 47.0379 13.9621C47.2756 13.8143 47.5498 13.7361 47.8297 13.7361C48.1095 13.7361 48.3838 13.8143 48.6215 13.9621C48.8592 14.1098 49.0508 14.3211 49.1747 14.572L49.7377 15.713L50.9977 15.896C51.2747 15.9362 51.535 16.0532 51.749 16.2337C51.9631 16.4141 52.1223 16.6509 52.2088 16.9171C52.2953 17.1834 52.3055 17.4686 52.2383 17.7403C52.1711 18.0121 52.0293 18.2597 51.8287 18.455L50.9177 19.343L51.1327 20.598C51.1799 20.8738 51.149 21.1573 51.0435 21.4164C50.9381 21.6756 50.7622 21.9001 50.5359 22.0645C50.3095 22.229 50.0417 22.3269 49.7626 22.3471C49.4836 22.3673 49.2044 22.3091 48.9567 22.179L47.8297 21.586L46.7027 22.179C46.4889 22.2925 46.2508 22.3525 46.0087 22.354ZM47.8357 19.523C48.0795 19.5223 48.3197 19.581 48.5357 19.694L49.0007 19.938L48.9117 19.423C48.8707 19.1834 48.8884 18.9375 48.9635 18.7063C49.0386 18.4752 49.1687 18.2657 49.3427 18.096L49.7177 17.73L49.1997 17.655C48.9595 17.6201 48.7314 17.5274 48.535 17.3849C48.3385 17.2424 48.1795 17.0544 48.0717 16.837L47.8397 16.366L47.6077 16.834C47.5 17.0524 47.3407 17.2412 47.1437 17.3843C46.9466 17.5273 46.7177 17.6202 46.4767 17.655L45.9607 17.73L46.3357 18.095C46.5098 18.2648 46.64 18.4744 46.7151 18.7058C46.7902 18.9371 46.8079 19.1833 46.7667 19.423L46.6787 19.938L47.1407 19.695C47.3539 19.584 47.5903 19.525 47.8307 19.523H47.8357Z" stroke="black"/>
<path d="M56.3597 52.449H44.2347C43.439 52.449 42.676 52.1329 42.1134 51.5703C41.5508 51.0077 41.2347 50.2447 41.2347 49.449V37.324C41.2347 36.5284 41.5508 35.7653 42.1134 35.2027C42.676 34.6401 43.439 34.324 44.2347 34.324H56.3597C57.1553 34.324 57.9184 34.6401 58.481 35.2027C59.0436 35.7653 59.3597 36.5284 59.3597 37.324V49.449C59.3597 50.2447 59.0436 51.0077 58.481 51.5703C57.9184 52.1329 57.1553 52.449 56.3597 52.449ZM44.2347 36.324C43.9695 36.324 43.7151 36.4294 43.5276 36.6169C43.34 36.8044 43.2347 37.0588 43.2347 37.324V49.449C43.2347 49.7142 43.34 49.9686 43.5276 50.1561C43.7151 50.3436 43.9695 50.449 44.2347 50.449H56.3597C56.6249 50.449 56.8793 50.3436 57.0668 50.1561C57.2543 49.9686 57.3597 49.7142 57.3597 49.449V37.324C57.3597 37.0588 57.2543 36.8044 57.0668 36.6169C56.8793 36.4294 56.6249 36.324 56.3597 36.324H44.2347Z" stroke="black"/>
<path d="M79.9827 52.449H67.8577C67.062 52.449 66.299 52.1329 65.7364 51.5703C65.1738 51.0077 64.8577 50.2447 64.8577 49.449V37.324C64.8577 36.5284 65.1738 35.7653 65.7364 35.2027C66.299 34.6401 67.062 34.324 67.8577 34.324H79.9827C80.7783 34.324 81.5414 34.6401 82.104 35.2027C82.6666 35.7653 82.9827 36.5284 82.9827 37.324V49.449C82.9827 50.2447 82.6666 51.0077 82.104 51.5703C81.5414 52.1329 80.7783 52.449 79.9827 52.449ZM67.8577 36.324C67.5925 36.324 67.3381 36.4294 67.1506 36.6169C66.9631 36.8044 66.8577 37.0588 66.8577 37.324V49.449C66.8577 49.7142 66.9631 49.9686 67.1506 50.1561C67.3381 50.3436 67.5925 50.449 67.8577 50.449H79.9827C80.2479 50.449 80.5023 50.3436 80.6898 50.1561C80.8773 49.9686 80.9827 49.7142 80.9827 49.449V37.324C80.9827 37.0588 80.8773 36.8044 80.6898 36.6169C80.5023 36.4294 80.2479 36.324 79.9827 36.324H67.8577Z" stroke="black"/>
<path d="M56.3597 74.574H44.2347C43.439 74.574 42.676 74.2579 42.1134 73.6953C41.5508 73.1327 41.2347 72.3696 41.2347 71.574V59.449C41.2347 58.6533 41.5508 57.8903 42.1134 57.3277C42.676 56.7651 43.439 56.449 44.2347 56.449H56.3597C57.1553 56.449 57.9184 56.7651 58.481 57.3277C59.0436 57.8903 59.3597 58.6533 59.3597 59.449V71.574C59.3597 72.3696 59.0436 73.1327 58.481 73.6953C57.9184 74.2579 57.1553 74.574 56.3597 74.574ZM44.2347 58.449C43.9695 58.449 43.7151 58.5544 43.5276 58.7419C43.34 58.9294 43.2347 59.1838 43.2347 59.449V71.574C43.2347 71.8392 43.34 72.0936 43.5276 72.2811C43.7151 72.4686 43.9695 72.574 44.2347 72.574H56.3597C56.6249 72.574 56.8793 72.4686 57.0668 72.2811C57.2543 72.0936 57.3597 71.8392 57.3597 71.574V59.449C57.3597 59.1838 57.2543 58.9294 57.0668 58.7419C56.8793 58.5544 56.6249 58.449 56.3597 58.449H44.2347Z" stroke="black"/>
<path d="M79.9827 74.574H67.8577C67.062 74.574 66.299 74.2579 65.7364 73.6953C65.1738 73.1327 64.8577 72.3696 64.8577 71.574V59.449C64.8577 58.6533 65.1738 57.8903 65.7364 57.3277C66.299 56.7651 67.062 56.449 67.8577 56.449H79.9827C80.7783 56.449 81.5414 56.7651 82.104 57.3277C82.6666 57.8903 82.9827 58.6533 82.9827 59.449V71.574C82.9827 72.3696 82.6666 73.1327 82.104 73.6953C81.5414 74.2579 80.7783 74.574 79.9827 74.574ZM67.8577 58.449C67.5925 58.449 67.3381 58.5544 67.1506 58.7419C66.9631 58.9294 66.8577 59.1838 66.8577 59.449V71.574C66.8577 71.8392 66.9631 72.0936 67.1506 72.2811C67.3381 72.4686 67.5925 72.574 67.8577 72.574H79.9827C80.2479 72.574 80.5023 72.4686 80.6898 72.2811C80.8773 72.0936 80.9827 71.8392 80.9827 71.574V59.449C80.9827 59.1838 80.8773 58.9294 80.6898 58.7419C80.5023 58.5544 80.2479 58.449 79.9827 58.449H67.8577Z" stroke="black"/>
<path d="M118.429 43.28H96.9787V29.32C96.9785 28.2143 96.6111 27.14 95.9342 26.2658C95.2572 25.3916 94.3091 24.767 93.2387 24.49V17.51C93.2387 16.1839 92.7119 14.9121 91.7742 13.9745C90.8365 13.0368 89.5648 12.51 88.2387 12.51H83.9887C83.5145 12.5041 83.0482 12.3881 82.6265 12.1712C82.2048 11.9543 81.8392 11.6424 81.5587 11.26C79.3061 8.22296 76.3736 5.75562 72.9961 4.05559C69.6186 2.35557 65.8899 1.47009 62.1087 1.47009C58.3275 1.47009 54.5988 2.35557 51.2213 4.05559C47.8438 5.75562 44.9113 8.22296 42.6587 11.26C42.3782 11.6424 42.0126 11.9543 41.5909 12.1712C41.1692 12.3881 40.7029 12.5041 40.2287 12.51H35.9787C34.6526 12.51 33.3808 13.0368 32.4432 13.9745C31.5055 14.9121 30.9787 16.1839 30.9787 17.51V24.49C29.9083 24.767 28.9602 25.3916 28.2832 26.2658C27.6063 27.14 27.2389 28.2143 27.2387 29.32V43.28H5.7887C4.46261 43.28 3.19084 43.8068 2.25316 44.7445C1.31548 45.6821 0.788696 46.9539 0.788696 48.28V109.53C0.788696 110.326 1.10477 111.089 1.66738 111.651C2.22998 112.214 2.99305 112.53 3.7887 112.53H120.429C121.224 112.53 121.987 112.214 122.55 111.651C123.113 111.089 123.429 110.326 123.429 109.53V48.28C123.429 46.9539 122.902 45.6821 121.964 44.7445C121.027 43.8068 119.755 43.28 118.429 43.28ZM27.2387 110.53H3.7887C3.52348 110.53 3.26913 110.425 3.08159 110.237C2.89405 110.05 2.7887 109.795 2.7887 109.53V48.28C2.7887 47.4843 3.10477 46.7213 3.66738 46.1587C4.22998 45.5961 4.99305 45.28 5.7887 45.28H27.2387V110.53ZM32.9787 17.51C32.9787 16.7144 33.2948 15.9513 33.8574 15.3887C34.42 14.8261 35.183 14.51 35.9787 14.51H40.2287C41.0145 14.5046 41.7882 14.3155 42.4879 13.9578C43.1877 13.6001 43.7941 13.0838 44.2587 12.45C46.3269 9.66409 49.0184 7.40094 52.118 5.84165C55.2175 4.28236 58.639 3.47022 62.1087 3.47022C65.5784 3.47022 68.9999 4.28236 72.0994 5.84165C75.199 7.40094 77.8905 9.66409 79.9587 12.45C80.4233 13.0838 81.0297 13.6001 81.7295 13.9578C82.4292 14.3155 83.2029 14.5046 83.9887 14.51H88.2387C89.0343 14.51 89.7974 14.8261 90.36 15.3887C90.9226 15.9513 91.2387 16.7144 91.2387 17.51V24.32H32.9787V17.51ZM51.2987 110.53V92.02C51.2987 89.153 52.4376 86.4034 54.4649 84.3762C56.4921 82.3489 59.2417 81.21 62.1087 81.21C64.9757 81.21 67.7253 82.3489 69.7525 84.3762C71.7798 86.4034 72.9187 89.153 72.9187 92.02V110.53H51.2987ZM94.9787 110.53H74.9187V92.02C74.9187 88.6226 73.5691 85.3643 71.1667 82.962C68.7644 80.5596 65.5061 79.21 62.1087 79.21C58.7113 79.21 55.453 80.5596 53.0507 82.962C50.6483 85.3643 49.2987 88.6226 49.2987 92.02V110.53H29.2387V29.32C29.2387 28.5244 29.5548 27.7613 30.1174 27.1987C30.68 26.6361 31.443 26.32 32.2387 26.32H91.9787C92.7743 26.32 93.5374 26.6361 94.1 27.1987C94.6626 27.7613 94.9787 28.5244 94.9787 29.32V110.53ZM121.429 109.53C121.429 109.795 121.323 110.05 121.136 110.237C120.948 110.425 120.694 110.53 120.429 110.53H96.9787V45.28H118.429C119.224 45.28 119.987 45.5961 120.55 46.1587C121.113 46.7213 121.429 47.4843 121.429 48.28V109.53Z" stroke="black"/>
<path d="M19.2087 64.669H10.8157C10.02 64.669 9.25698 64.3529 8.69438 63.7903C8.13177 63.2277 7.8157 62.4646 7.8157 61.669V53.277C7.8157 52.4813 8.13177 51.7183 8.69438 51.1557C9.25698 50.5931 10.02 50.277 10.8157 50.277H19.2087C20.0043 50.277 20.7674 50.5931 21.33 51.1557C21.8926 51.7183 22.2087 52.4813 22.2087 53.277V61.669C22.2087 62.4646 21.8926 63.2277 21.33 63.7903C20.7674 64.3529 20.0043 64.669 19.2087 64.669ZM10.8157 52.277C10.5505 52.277 10.2961 52.3824 10.1086 52.5699C9.92105 52.7574 9.8157 53.0118 9.8157 53.277V61.669C9.8157 61.9342 9.92105 62.1886 10.1086 62.3761C10.2961 62.5636 10.5505 62.669 10.8157 62.669H19.2087C19.4739 62.669 19.7283 62.5636 19.9158 62.3761C20.1033 62.1886 20.2087 61.9342 20.2087 61.669V53.277C20.2087 53.0118 20.1033 52.7574 19.9158 52.5699C19.7283 52.3824 19.4739 52.277 19.2087 52.277H10.8157Z" stroke="black"/>
<path d="M19.2087 84.062H10.8157C10.02 84.062 9.25698 83.7459 8.69438 83.1833C8.13177 82.6207 7.8157 81.8576 7.8157 81.062V72.669C7.8157 71.8734 8.13177 71.1103 8.69438 70.5477C9.25698 69.9851 10.02 69.669 10.8157 69.669H19.2087C20.0043 69.669 20.7674 69.9851 21.33 70.5477C21.8926 71.1103 22.2087 71.8734 22.2087 72.669V81.062C22.2087 81.8576 21.8926 82.6207 21.33 83.1833C20.7674 83.7459 20.0043 84.062 19.2087 84.062ZM10.8157 71.669C10.5505 71.669 10.2961 71.7744 10.1086 71.9619C9.92105 72.1494 9.8157 72.4038 9.8157 72.669V81.062C9.8157 81.3272 9.92105 81.5816 10.1086 81.7691C10.2961 81.9566 10.5505 82.062 10.8157 82.062H19.2087C19.4739 82.062 19.7283 81.9566 19.9158 81.7691C20.1033 81.5816 20.2087 81.3272 20.2087 81.062V72.669C20.2087 72.4038 20.1033 72.1494 19.9158 71.9619C19.7283 71.7744 19.4739 71.669 19.2087 71.669H10.8157Z" stroke="black"/>
<path d="M19.2087 103.454H10.8157C10.02 103.454 9.25698 103.138 8.69438 102.575C8.13177 102.013 7.8157 101.25 7.8157 100.454V92.062C7.8157 91.2663 8.13177 90.5033 8.69438 89.9407C9.25698 89.3781 10.02 89.062 10.8157 89.062H19.2087C20.0043 89.062 20.7674 89.3781 21.33 89.9407C21.8926 90.5033 22.2087 91.2663 22.2087 92.062V100.454C22.2087 101.25 21.8926 102.013 21.33 102.575C20.7674 103.138 20.0043 103.454 19.2087 103.454ZM10.8157 91.062C10.5505 91.062 10.2961 91.1674 10.1086 91.3549C9.92105 91.5424 9.8157 91.7968 9.8157 92.062V100.454C9.8157 100.719 9.92105 100.974 10.1086 101.161C10.2961 101.349 10.5505 101.454 10.8157 101.454H19.2087C19.4739 101.454 19.7283 101.349 19.9158 101.161C20.1033 100.974 20.2087 100.719 20.2087 100.454V92.062C20.2087 91.7968 20.1033 91.5424 19.9158 91.3549C19.7283 91.1674 19.4739 91.062 19.2087 91.062H10.8157Z" stroke="black"/>
<path d="M113.402 84.062H105.009C104.213 84.062 103.45 83.7459 102.887 83.1833C102.325 82.6207 102.009 81.8576 102.009 81.062V72.669C102.009 71.8734 102.325 71.1103 102.887 70.5477C103.45 69.9851 104.213 69.669 105.009 69.669H113.401C114.196 69.669 114.959 69.9851 115.522 70.5477C116.085 71.1103 116.401 71.8734 116.401 72.669V81.062C116.401 81.8575 116.085 82.6204 115.522 83.183C114.96 83.7456 114.197 84.0617 113.402 84.062ZM105.009 71.669C104.743 71.669 104.489 71.7744 104.302 71.9619C104.114 72.1494 104.009 72.4038 104.009 72.669V81.062C104.009 81.3272 104.114 81.5816 104.302 81.7691C104.489 81.9566 104.743 82.062 105.009 82.062H113.401C113.666 82.062 113.92 81.9566 114.108 81.7691C114.295 81.5816 114.401 81.3272 114.401 81.062V72.669C114.401 72.4038 114.295 72.1494 114.108 71.9619C113.92 71.7744 113.666 71.669 113.401 71.669H105.009Z" stroke="black"/>
<path d="M113.402 103.454H105.009C104.213 103.454 103.45 103.138 102.887 102.575C102.325 102.013 102.009 101.25 102.009 100.454V92.062C102.009 91.2663 102.325 90.5033 102.887 89.9407C103.45 89.3781 104.213 89.062 105.009 89.062H113.401C114.196 89.062 114.959 89.3781 115.522 89.9407C116.085 90.5033 116.401 91.2663 116.401 92.062V100.454C116.401 101.249 116.085 102.012 115.522 102.575C114.96 103.138 114.197 103.454 113.402 103.454ZM105.009 91.062C104.743 91.062 104.489 91.1674 104.302 91.3549C104.114 91.5424 104.009 91.7968 104.009 92.062V100.454C104.009 100.719 104.114 100.974 104.302 101.161C104.489 101.349 104.743 101.454 105.009 101.454H113.401C113.666 101.454 113.92 101.349 114.108 101.161C114.295 100.974 114.401 100.719 114.401 100.454V92.062C114.401 91.7968 114.295 91.5424 114.108 91.3549C113.92 91.1674 113.666 91.062 113.401 91.062H105.009Z" stroke="black"/>
<path d="M67.8577 58.449C67.5925 58.449 67.3381 58.5544 67.1506 58.7419C66.9631 58.9294 66.8577 59.1838 66.8577 59.449V71.574C66.8577 71.8392 66.9631 72.0936 67.1506 72.2811C67.3381 72.4686 67.5925 72.574 67.8577 72.574H79.9827C80.2479 72.574 80.5023 72.4686 80.6898 72.2811C80.8773 72.0936 80.9827 71.8392 80.9827 71.574V59.449C80.9827 59.1838 80.8773 58.9294 80.6898 58.7419C80.5023 58.5544 80.2479 58.449 79.9827 58.449H67.8577Z" stroke="black"/>
<path d="M44.2347 36.324C43.9695 36.324 43.7151 36.4294 43.5276 36.6169C43.34 36.8044 43.2347 37.0588 43.2347 37.324V49.449C43.2347 49.7142 43.34 49.9686 43.5276 50.1561C43.7151 50.3436 43.9695 50.449 44.2347 50.449H56.3597C56.6249 50.449 56.8793 50.3436 57.0668 50.1561C57.2543 49.9686 57.3597 49.7142 57.3597 49.449V37.324C57.3597 37.0588 57.2543 36.8044 57.0668 36.6169C56.8793 36.4294 56.6249 36.324 56.3597 36.324H44.2347Z" stroke="black"/>
<path d="M10.8157 71.669C10.5505 71.669 10.2961 71.7744 10.1086 71.9619C9.92105 72.1494 9.8157 72.4038 9.8157 72.669V81.062C9.8157 81.3272 9.92105 81.5816 10.1086 81.7691C10.2961 81.9566 10.5505 82.062 10.8157 82.062H19.2087C19.4739 82.062 19.7283 81.9566 19.9158 81.7691C20.1033 81.5816 20.2087 81.3272 20.2087 81.062V72.669C20.2087 72.4038 20.1033 72.1494 19.9158 71.9619C19.7283 71.7744 19.4739 71.669 19.2087 71.669H10.8157Z" stroke="black"/>
<path d="M51.2987 110.53V92.02C51.2987 89.153 52.4376 86.4034 54.4649 84.3762C56.4921 82.3489 59.2417 81.21 62.1087 81.21C64.9757 81.21 67.7253 82.3489 69.7525 84.3762C71.7798 86.4034 72.9187 89.153 72.9187 92.02V110.53H51.2987Z" stroke="black"/>
<path fill-rule="evenodd" clip-rule="evenodd" d="M32.9787 17.51C32.9787 16.7144 33.2948 15.9513 33.8574 15.3887C34.42 14.8261 35.183 14.51 35.9787 14.51H40.2287C41.0145 14.5046 41.7882 14.3155 42.4879 13.9578C43.1877 13.6001 43.7941 13.0838 44.2587 12.45C46.3269 9.66409 49.0184 7.40094 52.118 5.84165C55.2175 4.28236 58.639 3.47022 62.1087 3.47022C65.5784 3.47022 68.9999 4.28236 72.0994 5.84165C75.199 7.40094 77.8905 9.66409 79.9587 12.45C80.4233 13.0838 81.0297 13.6001 81.7295 13.9578C82.4292 14.3155 83.2029 14.5046 83.9887 14.51H88.2387C89.0343 14.51 89.7974 14.8261 90.36 15.3887C90.9226 15.9513 91.2387 16.7144 91.2387 17.51V24.32H32.9787V17.51ZM57.6137 21.5458C57.8777 21.6688 58.1654 21.7327 58.4567 21.733C58.782 21.7324 59.1023 21.6524 59.3897 21.5L62.1087 20.071L64.8277 21.501C65.1579 21.6741 65.53 21.7514 65.9018 21.7243C66.2737 21.6972 66.6306 21.5666 66.9322 21.3474C67.2338 21.1281 67.4681 20.829 67.6086 20.4836C67.7492 20.1383 67.7905 19.7605 67.7277 19.393L67.2087 16.365L69.4087 14.22C69.6752 13.9595 69.8636 13.6297 69.9527 13.2679C70.0418 12.906 70.028 12.5265 69.9129 12.172C69.7979 11.8176 69.586 11.5023 69.3013 11.2618C69.0166 11.0214 68.6704 10.8652 68.3017 10.811L65.2617 10.369L63.9017 7.615C63.7379 7.27936 63.4828 6.99671 63.1656 6.79948C62.8485 6.60226 62.4822 6.49846 62.1087 6.5C61.7353 6.49805 61.3688 6.60132 61.0514 6.79799C60.7339 6.99465 60.4782 7.27676 60.3137 7.612L58.9547 10.367L55.9147 10.809C55.5453 10.8626 55.1983 11.0186 54.9129 11.2592C54.6275 11.4998 54.4152 11.8155 54.2999 12.1705C54.1846 12.5255 54.171 12.9057 54.2605 13.2681C54.3501 13.6305 54.5393 13.9606 54.8067 14.221L57.0067 16.365L56.4877 19.393C56.4382 19.68 56.452 19.9744 56.5281 20.2555C56.6042 20.5367 56.7407 20.7978 56.9283 21.0207C57.1158 21.2436 57.3497 21.4228 57.6137 21.5458ZM73.9297 21.5927C74.1276 21.6849 74.3433 21.7328 74.5617 21.733C74.8053 21.7329 75.0452 21.6736 75.2607 21.56L76.3877 20.967L77.5147 21.56C77.7625 21.6905 78.0419 21.749 78.3212 21.7288C78.6006 21.7087 78.8687 21.6108 79.0953 21.4461C79.3218 21.2815 79.4978 21.0567 79.6032 20.7973C79.7086 20.5378 79.7393 20.254 79.6917 19.978L79.4767 18.723L80.3877 17.834C80.588 17.6386 80.7296 17.391 80.7965 17.1193C80.8635 16.8476 80.8531 16.5626 80.7666 16.2965C80.68 16.0304 80.5207 15.7938 80.3068 15.6134C80.0928 15.4331 79.8326 15.3162 79.5557 15.276L78.2967 15.093L77.7337 13.952C77.6099 13.7008 77.4183 13.4893 77.1805 13.3414C76.9427 13.1934 76.6682 13.115 76.3882 13.115C76.1082 13.115 75.8337 13.1934 75.5959 13.3414C75.3581 13.4893 75.1665 13.7008 75.0427 13.952L74.4797 15.093L73.2187 15.276C72.9417 15.3164 72.6816 15.4335 72.4677 15.614C72.2538 15.7945 72.0947 16.0313 72.0083 16.2975C71.922 16.5638 71.9118 16.8489 71.979 17.1206C72.0463 17.3923 72.1882 17.6397 72.3887 17.835L73.2997 18.723L73.0847 19.979C73.0477 20.1942 73.0582 20.4149 73.1153 20.6257C73.1725 20.8364 73.275 21.0321 73.4156 21.1992C73.5563 21.3662 73.7317 21.5005 73.9297 21.5927ZM45.3748 22.2156C45.5734 22.3075 45.7898 22.3547 46.0087 22.354C46.2508 22.3525 46.4889 22.2925 46.7027 22.179L47.8297 21.586L48.9567 22.179C49.2044 22.3091 49.4836 22.3673 49.7626 22.3471C50.0417 22.3269 50.3095 22.229 50.5359 22.0645C50.7622 21.9001 50.9381 21.6756 51.0435 21.4164C51.149 21.1573 51.1799 20.8738 51.1327 20.598L50.9177 19.343L51.8287 18.455C52.0293 18.2597 52.1711 18.0121 52.2383 17.7403C52.3055 17.4686 52.2953 17.1834 52.2088 16.9171C52.1223 16.6509 51.9631 16.4141 51.749 16.2337C51.535 16.0532 51.2747 15.9362 50.9977 15.896L49.7377 15.713L49.1747 14.572C49.0508 14.3211 48.8592 14.1098 48.6215 13.9621C48.3838 13.8143 48.1095 13.7361 47.8297 13.7361C47.5498 13.7361 47.2756 13.8143 47.0379 13.9621C46.8002 14.1098 46.6086 14.3211 46.4847 14.572L45.9207 15.714L44.6607 15.897C44.3836 15.9372 44.1234 16.0542 43.9094 16.2347C43.6953 16.4151 43.5361 16.6519 43.4496 16.9181C43.3631 17.1844 43.3529 17.4696 43.4201 17.7413C43.4873 18.0131 43.6291 18.2607 43.8297 18.456L44.7407 19.344L44.5257 20.6C44.4886 20.8157 44.4992 21.0369 44.5567 21.2481C44.6142 21.4593 44.7173 21.6553 44.8586 21.8225C44.9999 21.9896 45.1761 22.1238 45.3748 22.2156Z" stroke="black"/>
</svg>
