<svg width="124" height="84" viewBox="0 0 124 84" fill="none" xmlns="http://www.w3.org/2000/svg">
<path d="M120.179 70.33C121.441 69.56 122.417 68.3985 122.958 67.0224C123.499 65.6464 123.576 64.1312 123.176 62.7076C122.776 61.2841 121.922 60.0302 120.744 59.137C119.565 58.2438 118.127 57.7602 116.649 57.76H116.389C117.049 56.8998 117.404 55.8444 117.399 54.76L117.389 33.6V24.51C117.383 18.3048 114.916 12.3552 110.529 7.96657C106.142 3.57789 100.194 1.10845 93.9886 1.09998H53.3186C51.9925 1.09998 50.7208 1.62676 49.7831 2.56444C48.8454 3.50212 48.3186 4.77389 48.3186 6.09998V8.09998C48.3186 9.42606 48.8454 10.6978 49.7831 11.6355C50.7208 12.5732 51.9925 13.1 53.3186 13.1H93.8886C96.7652 13.1023 99.5367 14.1813 101.658 16.1245C103.779 18.0678 105.095 20.7346 105.349 23.6H60.8686C56.5422 23.6088 52.2669 24.5349 48.3247 26.3173C44.3825 28.0996 40.8631 30.6977 37.9986 33.94C37.4686 34.55 36.9586 35.17 36.4886 35.81C35.4387 37.2307 34.5024 38.732 33.6886 40.3V40.31C32.8744 41.9335 32.1986 43.6228 31.6686 45.36C30.8181 48.1919 30.3869 51.1331 30.3886 54.09V54.76C30.3843 55.8425 30.7356 56.8965 31.3886 57.76H7.56861C6.08999 57.7602 4.65197 58.2438 3.47362 59.137C2.29526 60.0302 1.44114 61.2841 1.04137 62.7076C0.641592 64.1312 0.718076 65.6464 1.25917 67.0224C1.80026 68.3985 2.7763 69.56 4.03861 70.33C2.7763 71.1 1.80026 72.2615 1.25917 73.6375C0.718076 75.0136 0.641592 76.5288 1.04137 77.9523C1.44114 79.3759 2.29526 80.6298 3.47362 81.523C4.65197 82.4162 6.08999 82.8997 7.56861 82.9H116.649C118.127 82.8997 119.565 82.4162 120.744 81.523C121.922 80.6298 122.776 79.3759 123.176 77.9523C123.576 76.5288 123.499 75.0136 122.958 73.6375C122.417 72.2615 121.441 71.1 120.179 70.33ZM39.4986 35.26C40.463 34.1915 41.4952 33.186 42.5886 32.25C47.7138 27.9586 54.184 25.6048 60.8686 25.6H107.389V24.6C107.39 22.8266 107.043 21.0703 106.365 19.4316C105.687 17.7928 104.693 16.3039 103.439 15.0499C102.185 13.796 100.696 12.8016 99.057 12.1238C97.4183 11.4461 95.662 11.0981 93.8886 11.1H53.3186C52.5237 11.0976 51.762 10.7808 51.1999 10.2187C50.6378 9.65658 50.321 8.89489 50.3186 8.09998V6.09998C50.321 5.30506 50.6378 4.54337 51.1999 3.98128C51.762 3.41918 52.5237 3.10235 53.3186 3.09998H93.9886C99.6639 3.10686 105.105 5.36508 109.117 9.37903C113.129 13.393 115.384 18.8347 115.389 24.51V43.36H34.4786C35.6791 40.3941 37.3768 37.6548 39.4986 35.26ZM32.3886 54.09C32.3861 51.1263 32.8484 48.1805 33.7586 45.36H115.399V54.76C115.399 55.5556 115.083 56.3187 114.52 56.8813C113.957 57.4439 113.194 57.76 112.399 57.76H35.3886C34.593 57.76 33.8299 57.4439 33.2673 56.8813C32.7047 56.3187 32.3886 55.5556 32.3886 54.76V54.09ZM2.78861 64.54C2.7902 63.2727 3.29431 62.0578 4.19039 61.1618C5.08647 60.2657 6.30136 59.7616 7.56861 59.76H116.649C117.918 59.76 119.135 60.2641 120.032 61.1615C120.929 62.0588 121.434 63.2759 121.434 64.545C121.434 65.814 120.929 67.0311 120.032 67.9285C119.135 68.8258 117.918 69.33 116.649 69.33H7.56861C6.94012 69.3297 6.31785 69.2056 5.73738 68.9646C5.15691 68.7237 4.62963 68.3707 4.18569 67.9258C3.74175 67.481 3.38985 66.9529 3.15013 66.372C2.91041 65.791 2.78756 65.1685 2.78861 64.54ZM116.649 80.9H7.56861C6.29955 80.9 5.08247 80.3958 4.1851 79.4985C3.28774 78.6011 2.78361 77.384 2.78361 76.115C2.78361 74.8459 3.28774 73.6288 4.1851 72.7315C5.08247 71.8341 6.29955 71.33 7.56861 71.33H116.649C117.918 71.33 119.135 71.8341 120.032 72.7315C120.929 73.6288 121.434 74.8459 121.434 76.115C121.434 77.384 120.929 78.6011 120.032 79.4985C119.135 80.3958 117.918 80.9 116.649 80.9Z" fill="black"/>
<path d="M32.3886 54.09C32.3861 51.1263 32.8484 48.1805 33.7586 45.36H115.399V54.76C115.399 55.5556 115.083 56.3187 114.52 56.8813C113.957 57.4439 113.194 57.76 112.399 57.76H35.3886C34.593 57.76 33.8299 57.4439 33.2673 56.8813C32.7047 56.3187 32.3886 55.5556 32.3886 54.76V54.09Z" fill="black"/>
<path d="M116.649 80.9H7.56861C6.29955 80.9 5.08247 80.3958 4.1851 79.4985C3.28774 78.6011 2.78361 77.384 2.78361 76.115C2.78361 74.8459 3.28774 73.6288 4.1851 72.7315C5.08247 71.8341 6.29955 71.33 7.56861 71.33H116.649C117.918 71.33 119.135 71.8341 120.032 72.7315C120.929 73.6288 121.434 74.8459 121.434 76.115C121.434 77.384 120.929 78.6011 120.032 79.4985C119.135 80.3958 117.918 80.9 116.649 80.9Z" fill="black"/>
<path d="M120.179 70.33C121.441 69.56 122.417 68.3985 122.958 67.0224C123.499 65.6464 123.576 64.1312 123.176 62.7076C122.776 61.2841 121.922 60.0302 120.744 59.137C119.565 58.2438 118.127 57.7602 116.649 57.76H116.389C117.049 56.8998 117.404 55.8444 117.399 54.76L117.389 33.6V24.51C117.383 18.3048 114.916 12.3552 110.529 7.96657C106.142 3.57789 100.194 1.10845 93.9886 1.09998H53.3186C51.9925 1.09998 50.7208 1.62676 49.7831 2.56444C48.8454 3.50212 48.3186 4.77389 48.3186 6.09998V8.09998C48.3186 9.42606 48.8454 10.6978 49.7831 11.6355C50.7208 12.5732 51.9925 13.1 53.3186 13.1H93.8886C96.7652 13.1023 99.5367 14.1813 101.658 16.1245C103.779 18.0678 105.095 20.7346 105.349 23.6H60.8686C56.5422 23.6088 52.2669 24.5349 48.3247 26.3173C44.3825 28.0996 40.8631 30.6977 37.9986 33.94C37.4686 34.55 36.9586 35.17 36.4886 35.81C35.4387 37.2307 34.5024 38.732 33.6886 40.3V40.31C32.8744 41.9335 32.1986 43.6228 31.6686 45.36C30.8181 48.1919 30.3869 51.1331 30.3886 54.09V54.76C30.3843 55.8425 30.7356 56.8965 31.3886 57.76H7.56861C6.08999 57.7602 4.65197 58.2438 3.47362 59.137C2.29526 60.0302 1.44114 61.2841 1.04137 62.7076C0.641592 64.1312 0.718076 65.6464 1.25917 67.0224C1.80026 68.3985 2.7763 69.56 4.03861 70.33C2.7763 71.1 1.80026 72.2615 1.25917 73.6375C0.718076 75.0136 0.641592 76.5288 1.04137 77.9523C1.44114 79.3759 2.29526 80.6298 3.47362 81.523C4.65197 82.4162 6.08999 82.8997 7.56861 82.9H116.649C118.127 82.8997 119.565 82.4162 120.744 81.523C121.922 80.6298 122.776 79.3759 123.176 77.9523C123.576 76.5288 123.499 75.0136 122.958 73.6375C122.417 72.2615 121.441 71.1 120.179 70.33ZM39.4986 35.26C40.463 34.1915 41.4952 33.186 42.5886 32.25C47.7138 27.9586 54.184 25.6048 60.8686 25.6H107.389V24.6C107.39 22.8266 107.043 21.0703 106.365 19.4316C105.687 17.7928 104.693 16.3039 103.439 15.0499C102.185 13.796 100.696 12.8016 99.057 12.1238C97.4183 11.4461 95.662 11.0981 93.8886 11.1H53.3186C52.5237 11.0976 51.762 10.7808 51.1999 10.2187C50.6378 9.65658 50.321 8.89489 50.3186 8.09998V6.09998C50.321 5.30506 50.6378 4.54337 51.1999 3.98128C51.762 3.41918 52.5237 3.10235 53.3186 3.09998H93.9886C99.6639 3.10686 105.105 5.36508 109.117 9.37903C113.129 13.393 115.384 18.8347 115.389 24.51V43.36H34.4786C35.6791 40.3941 37.3768 37.6548 39.4986 35.26ZM32.3886 54.09C32.3861 51.1263 32.8484 48.1805 33.7586 45.36H115.399V54.76C115.399 55.5556 115.083 56.3187 114.52 56.8813C113.957 57.4439 113.194 57.76 112.399 57.76H35.3886C34.593 57.76 33.8299 57.4439 33.2673 56.8813C32.7047 56.3187 32.3886 55.5556 32.3886 54.76V54.09ZM2.78861 64.54C2.7902 63.2727 3.29431 62.0578 4.19039 61.1618C5.08647 60.2657 6.30136 59.7616 7.56861 59.76H116.649C117.918 59.76 119.135 60.2641 120.032 61.1615C120.929 62.0588 121.434 63.2759 121.434 64.545C121.434 65.814 120.929 67.0311 120.032 67.9285C119.135 68.8258 117.918 69.33 116.649 69.33H7.56861C6.94012 69.3297 6.31785 69.2056 5.73738 68.9646C5.15691 68.7237 4.62963 68.3707 4.18569 67.9258C3.74175 67.481 3.38985 66.9529 3.15013 66.372C2.91041 65.791 2.78756 65.1685 2.78861 64.54ZM116.649 80.9H7.56861C6.29955 80.9 5.08247 80.3958 4.1851 79.4985C3.28774 78.6011 2.78361 77.384 2.78361 76.115C2.78361 74.8459 3.28774 73.6288 4.1851 72.7315C5.08247 71.8341 6.29955 71.33 7.56861 71.33H116.649C117.918 71.33 119.135 71.8341 120.032 72.7315C120.929 73.6288 121.434 74.8459 121.434 76.115C121.434 77.384 120.929 78.6011 120.032 79.4985C119.135 80.3958 117.918 80.9 116.649 80.9Z" stroke="black"/>
<path d="M32.3886 54.09C32.3861 51.1263 32.8484 48.1805 33.7586 45.36H115.399V54.76C115.399 55.5556 115.083 56.3187 114.52 56.8813C113.957 57.4439 113.194 57.76 112.399 57.76H35.3886C34.593 57.76 33.8299 57.4439 33.2673 56.8813C32.7047 56.3187 32.3886 55.5556 32.3886 54.76V54.09Z" stroke="black"/>
<path d="M116.649 80.9H7.56861C6.29955 80.9 5.08247 80.3958 4.1851 79.4985C3.28774 78.6011 2.78361 77.384 2.78361 76.115C2.78361 74.8459 3.28774 73.6288 4.1851 72.7315C5.08247 71.8341 6.29955 71.33 7.56861 71.33H116.649C117.918 71.33 119.135 71.8341 120.032 72.7315C120.929 73.6288 121.434 74.8459 121.434 76.115C121.434 77.384 120.929 78.6011 120.032 79.4985C119.135 80.3958 117.918 80.9 116.649 80.9Z" stroke="black"/>
</svg>
