<svg width="116" height="99" viewBox="0 0 116 99" fill="none" xmlns="http://www.w3.org/2000/svg">
<path d="M112.419 23.29L73.0386 3.26002C71.8554 2.66283 70.4836 2.55906 69.224 2.97143C67.9644 3.38381 66.9196 4.2787 66.3186 5.46002L64.9686 8.12002C60.9873 4.65432 56.1118 2.3777 50.8986 1.55002C43.0886 0.180017 35.5186 1.72002 30.9986 5.61002C29.2968 5.36632 27.575 5.29262 25.8586 5.39002C22.0951 5.58402 18.4164 6.57955 15.0686 8.31002C11.7177 10.0676 8.77134 12.5065 6.41862 15.47C2.64165 20.239 0.605289 26.1541 0.646236 32.2374C0.687182 38.3207 2.80298 44.2079 6.64381 48.9255C10.4846 53.6432 15.8205 56.9088 21.7691 58.1825C27.7177 59.4561 33.9229 58.6615 39.3586 55.93C39.914 55.6598 40.5404 55.5714 41.1489 55.6773C41.7575 55.7832 42.3172 56.078 42.7486 56.52L59.0986 72.87L55.2486 76.73C54.8219 77.1477 54.4841 77.6474 54.2555 78.1991C54.027 78.7507 53.9124 79.3429 53.9186 79.94C53.918 80.5843 54.054 81.2214 54.3178 81.8092C54.5815 82.397 54.9669 82.9221 55.4486 83.35C56.3493 84.1099 57.5048 84.4996 58.6817 84.4402C59.8586 84.3808 60.9691 83.8768 61.7886 83.03L65.5286 79.3L68.5286 82.31L60.6586 90.18C60.2351 90.5996 59.9001 91.0999 59.6734 91.6513C59.4467 92.2026 59.3328 92.7939 59.3386 93.39C59.338 94.0343 59.474 94.6714 59.7378 95.2592C60.0015 95.847 60.3869 96.3722 60.8686 96.8C61.6867 97.5111 62.7347 97.9019 63.8186 97.9C65.0919 97.8934 66.3108 97.3829 67.2086 96.48L74.9586 88.73L79.1786 92.95C80.3147 94.1095 81.8381 94.8096 83.4579 94.9166C85.0776 95.0236 86.6799 94.53 87.9586 93.53C88.6492 92.9601 89.2131 92.2523 89.6143 91.4518C90.0155 90.6514 90.2451 89.776 90.2884 88.8817C90.3317 87.9874 90.1878 87.0939 89.8658 86.2584C89.5438 85.423 89.0509 84.664 88.4186 84.03L51.8286 47.44C51.3848 47.0054 51.0896 46.4415 50.9855 45.8291C50.8813 45.2167 50.9734 44.587 51.2486 44.03C53.3884 39.7816 54.3452 35.0356 54.0186 30.29C54.6186 30.23 55.2086 30.16 55.7886 30.07C56.2432 31.1597 57.0734 32.0503 58.1286 32.58L97.5086 52.61C98.2081 52.9688 98.9825 53.1572 99.7686 53.16C100.298 53.1559 100.824 53.0717 101.329 52.91C101.953 52.7073 102.53 52.3828 103.028 51.9554C103.526 51.528 103.934 51.0061 104.229 50.42L114.609 30.01C115.209 28.8284 115.315 27.4568 114.904 26.1967C114.494 24.9367 113.6 23.8912 112.419 23.29ZM49.4586 43.13C48.9951 44.0629 48.8384 45.1184 49.0108 46.1457C49.1832 47.173 49.676 48.1196 50.4186 48.85L87.0086 85.44C87.4402 85.8792 87.7773 86.4021 87.9992 86.9765C88.221 87.551 88.3229 88.1647 88.2986 88.78C88.2698 89.399 88.1107 90.0049 87.8315 90.558C87.5523 91.1112 87.1594 91.5992 86.6786 91.99C85.7851 92.6769 84.6695 93.0099 83.5456 92.925C82.4218 92.8401 81.3688 92.3434 80.5886 91.53L74.9586 85.9L65.7886 95.06C65.3288 95.5419 64.7049 95.8339 64.0403 95.8784C63.3757 95.9228 62.7185 95.7164 62.1986 95.3C61.9387 95.0695 61.7284 94.7884 61.5808 94.4739C61.4332 94.1594 61.3512 93.8181 61.34 93.4708C61.3288 93.1236 61.3885 92.7777 61.5155 92.4543C61.6425 92.1309 61.8341 91.8368 62.0786 91.59L71.3586 82.31L65.5286 76.47L60.3786 81.62C59.9142 82.0985 59.2884 82.3871 58.623 82.4296C57.9576 82.4721 57.3001 82.2655 56.7786 81.85C56.5187 81.6195 56.3084 81.3384 56.1608 81.0239C56.0132 80.7094 55.9312 80.3681 55.92 80.0208C55.9088 79.6736 55.9685 79.3277 56.0955 79.0043C56.2225 78.6809 56.4141 78.3868 56.6586 78.14L61.9286 72.87L44.1686 55.11C43.4394 54.3691 42.4953 53.8766 41.4703 53.7025C40.4454 53.5284 39.3917 53.6815 38.4586 54.14C33.7967 56.4737 28.5156 57.2714 23.3725 56.4186C18.2293 55.5659 13.4882 53.1066 9.82885 49.3933C6.16952 45.68 3.7799 40.9034 3.00259 35.7483C2.22528 30.5932 3.10018 25.3243 5.50188 20.6971C7.90358 16.0699 11.7087 12.3219 16.3718 9.99057C21.0348 7.65922 26.3163 6.8642 31.4591 7.71949C36.6018 8.57477 41.3417 11.0364 44.9992 14.7516C48.6567 18.4667 51.0439 23.2445 51.8186 28.4C49.9551 28.4164 48.0941 28.2624 46.2586 27.94C45.1588 27.7468 44.0705 27.4931 42.9986 27.18C41.738 23.1072 38.945 19.6832 35.2086 17.6298C31.4723 15.5765 27.0845 15.0544 22.9706 16.1736C18.8567 17.2928 15.3383 19.9659 13.1571 23.6292C10.976 27.2924 10.3027 31.6595 11.2792 35.8096C12.2557 39.9597 14.8056 43.5684 18.3914 45.8747C21.9771 48.181 26.3184 49.0048 30.4997 48.1722C34.681 47.3396 38.3756 44.9157 40.8044 41.4118C43.2332 37.9078 44.2063 33.5976 43.5186 29.39C44.2986 29.59 45.0986 29.77 45.9086 29.91C47.925 30.2667 49.9712 30.4275 52.0186 30.39C52.3249 34.7895 51.4406 39.1903 49.4586 43.13ZM41.3586 28.76C41.9318 31.1993 41.8577 33.7459 41.1438 36.1478C40.4299 38.5496 39.1008 40.7232 37.2883 42.4533C35.4758 44.1834 33.2427 45.4099 30.8103 46.0114C28.3778 46.6129 25.8305 46.5684 23.4205 45.8824C21.0106 45.1964 18.8217 43.8927 17.0706 42.1004C15.3196 40.3081 14.0672 38.0894 13.4375 35.6642C12.8078 33.2389 12.8227 30.6912 13.4806 28.2734C14.1386 25.8557 15.4168 23.6518 17.1886 21.88C19.9886 19.08 23.0886 17.93 27.7986 17.68C29.6886 22.46 34.8286 26.59 41.3586 28.76ZM30.1186 17.93C32.4142 18.3806 34.5654 19.3837 36.3862 20.8526C38.207 22.3214 39.6426 24.2117 40.5686 26.36C35.7186 24.46 31.8986 21.43 30.1186 17.93ZM55.9386 25.86C55.5799 26.5595 55.3914 27.3339 55.3886 28.12C54.8786 28.2 54.3486 28.26 53.8186 28.3C53.0639 23.0089 50.7392 18.0659 47.1452 14.11C43.5513 10.1542 38.8533 7.36741 33.6586 6.11002C37.8086 3.41002 44.1686 2.39002 50.5586 3.52002C55.5846 4.29744 60.268 6.5452 64.0186 9.98002L55.9386 25.86ZM112.829 29.11L102.449 49.51C102.273 49.8632 102.029 50.1778 101.73 50.4353C101.431 50.6929 101.084 50.8883 100.709 51.01C99.9512 51.2525 99.1289 51.1878 98.4186 50.83L59.0386 30.8C58.5343 30.5448 58.1117 30.1533 57.8186 29.67C62.4486 28.57 66.1886 26.26 68.1986 23.13C68.4356 23.1781 68.6768 23.2015 68.9186 23.2C69.4363 23.2012 69.9481 23.0901 70.4186 22.8743C70.8892 22.6584 71.3073 22.3431 71.6441 21.95C71.9809 21.5568 72.2284 21.0953 72.3695 20.5972C72.5106 20.0992 72.5419 19.5764 72.4613 19.065C72.3807 18.5537 72.1902 18.0659 71.9027 17.6353C71.6153 17.2048 71.2378 16.8418 70.7964 16.5713C70.355 16.3008 69.8602 16.1293 69.3461 16.0687C68.832 16.008 68.3108 16.0597 67.8186 16.22C67.3706 16.3639 66.9555 16.5949 66.5972 16.8998C66.2388 17.2047 65.9443 17.5775 65.7306 17.9966C65.5168 18.4158 65.388 18.8731 65.3517 19.3422C65.3153 19.8113 65.372 20.2829 65.5186 20.73C65.705 21.2834 66.0164 21.7864 66.4286 22.2C64.7086 24.83 61.4686 26.78 57.4286 27.74C57.4667 27.402 57.5649 27.0735 57.7186 26.77L68.0986 6.36002C68.4776 5.66786 69.0964 5.13799 69.8386 4.87002C70.5966 4.63279 71.417 4.69727 72.1286 5.05002L111.509 25.07C112.219 25.4308 112.758 26.0591 113.005 26.8167C113.253 27.5743 113.189 28.3992 112.829 29.11ZM67.5086 18.9C67.5678 18.7818 67.6454 18.6738 67.7386 18.58C67.7286 18.77 67.4186 20.12 67.4186 20.11C67.2876 19.7106 67.32 19.2756 67.5086 18.9ZM69.1786 21.18C69.3833 20.6251 69.5372 20.0527 69.6386 19.47C69.7088 19.0803 69.7489 18.6858 69.7586 18.29C70.0302 18.4597 70.2435 18.7081 70.3703 19.0021C70.4971 19.2961 70.5313 19.6217 70.4683 19.9356C70.4053 20.2496 70.2481 20.5368 70.0177 20.7591C69.7873 20.9814 69.4946 21.1283 69.1786 21.18Z" fill="black"/>
<path d="M49.4586 43.13C48.9951 44.0629 48.8384 45.1184 49.0108 46.1457C49.1832 47.173 49.676 48.1196 50.4186 48.85L87.0086 85.44C87.4402 85.8792 87.7773 86.4021 87.9992 86.9765C88.221 87.551 88.3229 88.1647 88.2986 88.78C88.2698 89.399 88.1107 90.0049 87.8315 90.558C87.5523 91.1112 87.1594 91.5992 86.6786 91.99C85.7851 92.6769 84.6695 93.0099 83.5456 92.925C82.4218 92.8401 81.3688 92.3434 80.5886 91.53L74.9586 85.9L65.7886 95.06C65.3288 95.5419 64.7049 95.8339 64.0403 95.8784C63.3757 95.9228 62.7185 95.7164 62.1986 95.3C61.9387 95.0695 61.7284 94.7884 61.5808 94.4739C61.4332 94.1594 61.3512 93.8181 61.34 93.4708C61.3288 93.1236 61.3885 92.7777 61.5155 92.4543C61.6425 92.1309 61.8341 91.8368 62.0786 91.59L71.3586 82.31L65.5286 76.47L60.3786 81.62C59.9142 82.0985 59.2884 82.3871 58.623 82.4296C57.9576 82.4721 57.3001 82.2655 56.7786 81.85C56.5187 81.6195 56.3084 81.3384 56.1608 81.0239C56.0132 80.7094 55.9312 80.3681 55.92 80.0208C55.9088 79.6736 55.9685 79.3277 56.0955 79.0043C56.2225 78.6809 56.4141 78.3868 56.6586 78.14L61.9286 72.87L44.1686 55.11C43.4394 54.3691 42.4953 53.8766 41.4703 53.7025C40.4454 53.5284 39.3917 53.6815 38.4586 54.14C33.7967 56.4737 28.5156 57.2714 23.3725 56.4186C18.2293 55.5659 13.4882 53.1066 9.82885 49.3933C6.16952 45.68 3.7799 40.9034 3.00259 35.7483C2.22528 30.5932 3.10018 25.3243 5.50188 20.6971C7.90358 16.0699 11.7087 12.3219 16.3718 9.99057C21.0348 7.65922 26.3163 6.8642 31.4591 7.71949C36.6018 8.57477 41.3417 11.0364 44.9992 14.7516C48.6567 18.4667 51.0439 23.2445 51.8186 28.4C49.9551 28.4164 48.0941 28.2624 46.2586 27.94C45.1588 27.7468 44.0705 27.4931 42.9986 27.18C41.738 23.1072 38.945 19.6832 35.2086 17.6298C31.4723 15.5765 27.0845 15.0544 22.9706 16.1736C18.8567 17.2928 15.3383 19.9659 13.1571 23.6292C10.976 27.2924 10.3027 31.6595 11.2792 35.8096C12.2557 39.9597 14.8056 43.5684 18.3914 45.8747C21.9771 48.181 26.3184 49.0048 30.4997 48.1722C34.681 47.3396 38.3756 44.9157 40.8044 41.4118C43.2332 37.9078 44.2063 33.5976 43.5186 29.39C44.2986 29.59 45.0986 29.77 45.9086 29.91C47.925 30.2667 49.9712 30.4275 52.0186 30.39C52.3249 34.7895 51.4406 39.1903 49.4586 43.13Z" fill="black"/>
<path d="M112.419 23.29L73.0386 3.26002C71.8554 2.66283 70.4836 2.55906 69.224 2.97143C67.9644 3.38381 66.9196 4.2787 66.3186 5.46002L64.9686 8.12002C60.9873 4.65432 56.1118 2.3777 50.8986 1.55002C43.0886 0.180017 35.5186 1.72002 30.9986 5.61002C29.2968 5.36632 27.575 5.29262 25.8586 5.39002C22.0951 5.58402 18.4164 6.57955 15.0686 8.31002C11.7177 10.0676 8.77134 12.5065 6.41862 15.47C2.64165 20.239 0.605289 26.1541 0.646236 32.2374C0.687182 38.3207 2.80298 44.2079 6.64381 48.9255C10.4846 53.6432 15.8205 56.9088 21.7691 58.1825C27.7177 59.4561 33.9229 58.6615 39.3586 55.93C39.914 55.6598 40.5404 55.5714 41.1489 55.6773C41.7575 55.7832 42.3172 56.078 42.7486 56.52L59.0986 72.87L55.2486 76.73C54.8219 77.1477 54.4841 77.6474 54.2555 78.1991C54.027 78.7507 53.9124 79.3429 53.9186 79.94C53.918 80.5843 54.054 81.2214 54.3178 81.8092C54.5815 82.397 54.9669 82.9221 55.4486 83.35C56.3493 84.1099 57.5048 84.4996 58.6817 84.4402C59.8586 84.3808 60.9691 83.8768 61.7886 83.03L65.5286 79.3L68.5286 82.31L60.6586 90.18C60.2351 90.5996 59.9001 91.0999 59.6734 91.6513C59.4467 92.2026 59.3328 92.7939 59.3386 93.39C59.338 94.0343 59.474 94.6714 59.7378 95.2592C60.0015 95.847 60.3869 96.3722 60.8686 96.8C61.6867 97.5111 62.7347 97.9019 63.8186 97.9C65.0919 97.8934 66.3108 97.3829 67.2086 96.48L74.9586 88.73L79.1786 92.95C80.3147 94.1095 81.8381 94.8096 83.4579 94.9166C85.0776 95.0236 86.6799 94.53 87.9586 93.53C88.6492 92.9601 89.2131 92.2523 89.6143 91.4518C90.0155 90.6514 90.2451 89.776 90.2884 88.8817C90.3317 87.9874 90.1878 87.0939 89.8658 86.2584C89.5438 85.423 89.0509 84.664 88.4186 84.03L51.8286 47.44C51.3848 47.0054 51.0896 46.4415 50.9855 45.8291C50.8813 45.2167 50.9734 44.587 51.2486 44.03C53.3884 39.7816 54.3452 35.0356 54.0186 30.29C54.6186 30.23 55.2086 30.16 55.7886 30.07C56.2432 31.1597 57.0734 32.0503 58.1286 32.58L97.5086 52.61C98.2081 52.9688 98.9825 53.1572 99.7686 53.16C100.298 53.1559 100.824 53.0717 101.329 52.91C101.953 52.7073 102.53 52.3828 103.028 51.9554C103.526 51.528 103.934 51.0061 104.229 50.42L114.609 30.01C115.209 28.8284 115.315 27.4568 114.904 26.1967C114.494 24.9367 113.6 23.8912 112.419 23.29ZM49.4586 43.13C48.9951 44.0629 48.8384 45.1184 49.0108 46.1457C49.1832 47.173 49.676 48.1196 50.4186 48.85L87.0086 85.44C87.4402 85.8792 87.7773 86.4021 87.9992 86.9765C88.221 87.551 88.3229 88.1647 88.2986 88.78C88.2698 89.399 88.1107 90.0049 87.8315 90.558C87.5523 91.1112 87.1594 91.5992 86.6786 91.99C85.7851 92.6769 84.6695 93.0099 83.5456 92.925C82.4218 92.8401 81.3688 92.3434 80.5886 91.53L74.9586 85.9L65.7886 95.06C65.3288 95.5419 64.7049 95.8339 64.0403 95.8784C63.3757 95.9228 62.7185 95.7164 62.1986 95.3C61.9387 95.0695 61.7284 94.7884 61.5808 94.4739C61.4332 94.1594 61.3512 93.8181 61.34 93.4708C61.3288 93.1236 61.3885 92.7777 61.5155 92.4543C61.6425 92.1309 61.8341 91.8368 62.0786 91.59L71.3586 82.31L65.5286 76.47L60.3786 81.62C59.9142 82.0985 59.2884 82.3871 58.623 82.4296C57.9576 82.4721 57.3001 82.2655 56.7786 81.85C56.5187 81.6195 56.3084 81.3384 56.1608 81.0239C56.0132 80.7094 55.9312 80.3681 55.92 80.0208C55.9088 79.6736 55.9685 79.3277 56.0955 79.0043C56.2225 78.6809 56.4141 78.3868 56.6586 78.14L61.9286 72.87L44.1686 55.11C43.4394 54.3691 42.4953 53.8766 41.4703 53.7025C40.4454 53.5284 39.3917 53.6815 38.4586 54.14C33.7967 56.4737 28.5156 57.2714 23.3725 56.4186C18.2293 55.5659 13.4882 53.1066 9.82885 49.3933C6.16952 45.68 3.7799 40.9034 3.00259 35.7483C2.22528 30.5932 3.10018 25.3243 5.50188 20.6971C7.90358 16.0699 11.7087 12.3219 16.3718 9.99057C21.0348 7.65922 26.3163 6.8642 31.4591 7.71949C36.6018 8.57477 41.3417 11.0364 44.9992 14.7516C48.6567 18.4667 51.0439 23.2445 51.8186 28.4C49.9551 28.4164 48.0941 28.2624 46.2586 27.94C45.1588 27.7468 44.0705 27.4931 42.9986 27.18C41.738 23.1072 38.945 19.6832 35.2086 17.6298C31.4723 15.5765 27.0845 15.0544 22.9706 16.1736C18.8567 17.2928 15.3383 19.9659 13.1571 23.6292C10.976 27.2924 10.3027 31.6595 11.2792 35.8096C12.2557 39.9597 14.8056 43.5684 18.3914 45.8747C21.9771 48.181 26.3184 49.0048 30.4997 48.1722C34.681 47.3396 38.3756 44.9157 40.8044 41.4118C43.2332 37.9078 44.2063 33.5976 43.5186 29.39C44.2986 29.59 45.0986 29.77 45.9086 29.91C47.925 30.2667 49.9712 30.4275 52.0186 30.39C52.3249 34.7895 51.4406 39.1903 49.4586 43.13ZM41.3586 28.76C41.9318 31.1993 41.8577 33.7459 41.1438 36.1478C40.4299 38.5496 39.1008 40.7232 37.2883 42.4533C35.4758 44.1834 33.2427 45.4099 30.8103 46.0114C28.3778 46.6129 25.8305 46.5684 23.4205 45.8824C21.0106 45.1964 18.8217 43.8927 17.0706 42.1004C15.3196 40.3081 14.0672 38.0894 13.4375 35.6642C12.8078 33.2389 12.8227 30.6912 13.4806 28.2734C14.1386 25.8557 15.4168 23.6518 17.1886 21.88C19.9886 19.08 23.0886 17.93 27.7986 17.68C29.6886 22.46 34.8286 26.59 41.3586 28.76ZM30.1186 17.93C32.4142 18.3806 34.5654 19.3837 36.3862 20.8526C38.207 22.3214 39.6426 24.2117 40.5686 26.36C35.7186 24.46 31.8986 21.43 30.1186 17.93ZM55.9386 25.86C55.5799 26.5595 55.3914 27.3339 55.3886 28.12C54.8786 28.2 54.3486 28.26 53.8186 28.3C53.0639 23.0089 50.7392 18.0659 47.1452 14.11C43.5513 10.1542 38.8533 7.36741 33.6586 6.11002C37.8086 3.41002 44.1686 2.39002 50.5586 3.52002C55.5846 4.29744 60.268 6.5452 64.0186 9.98002L55.9386 25.86ZM112.829 29.11L102.449 49.51C102.273 49.8632 102.029 50.1778 101.73 50.4353C101.431 50.6929 101.084 50.8883 100.709 51.01C99.9512 51.2525 99.1289 51.1878 98.4186 50.83L59.0386 30.8C58.5343 30.5448 58.1117 30.1533 57.8186 29.67C62.4486 28.57 66.1886 26.26 68.1986 23.13C68.4356 23.1781 68.6768 23.2015 68.9186 23.2C69.4363 23.2012 69.9481 23.0901 70.4186 22.8743C70.8892 22.6584 71.3073 22.3431 71.6441 21.95C71.9809 21.5568 72.2284 21.0953 72.3695 20.5972C72.5106 20.0992 72.5419 19.5764 72.4613 19.065C72.3807 18.5537 72.1902 18.0659 71.9027 17.6353C71.6153 17.2048 71.2378 16.8418 70.7964 16.5713C70.355 16.3008 69.8602 16.1293 69.3461 16.0687C68.832 16.008 68.3108 16.0597 67.8186 16.22C67.3706 16.3639 66.9555 16.5949 66.5972 16.8998C66.2388 17.2047 65.9443 17.5775 65.7306 17.9966C65.5168 18.4158 65.388 18.8731 65.3517 19.3422C65.3153 19.8113 65.372 20.2829 65.5186 20.73C65.705 21.2834 66.0164 21.7864 66.4286 22.2C64.7086 24.83 61.4686 26.78 57.4286 27.74C57.4667 27.402 57.5649 27.0735 57.7186 26.77L68.0986 6.36002C68.4776 5.66786 69.0964 5.13799 69.8386 4.87002C70.5966 4.63279 71.417 4.69727 72.1286 5.05002L111.509 25.07C112.219 25.4308 112.758 26.0591 113.005 26.8167C113.253 27.5743 113.189 28.3992 112.829 29.11ZM67.5086 18.9C67.5678 18.7818 67.6454 18.6738 67.7386 18.58C67.7286 18.77 67.4186 20.12 67.4186 20.11C67.2876 19.7106 67.32 19.2756 67.5086 18.9ZM69.1786 21.18C69.3833 20.6251 69.5372 20.0527 69.6386 19.47C69.7088 19.0803 69.7489 18.6858 69.7586 18.29C70.0302 18.4597 70.2435 18.7081 70.3703 19.0021C70.4971 19.2961 70.5313 19.6217 70.4683 19.9356C70.4053 20.2496 70.2481 20.5368 70.0177 20.7591C69.7873 20.9814 69.4946 21.1283 69.1786 21.18Z" stroke="black"/>
<path d="M49.4586 43.13C48.9951 44.0629 48.8384 45.1184 49.0108 46.1457C49.1832 47.173 49.676 48.1196 50.4186 48.85L87.0086 85.44C87.4402 85.8792 87.7773 86.4021 87.9992 86.9765C88.221 87.551 88.3229 88.1647 88.2986 88.78C88.2698 89.399 88.1107 90.0049 87.8315 90.558C87.5523 91.1112 87.1594 91.5992 86.6786 91.99C85.7851 92.6769 84.6695 93.0099 83.5456 92.925C82.4218 92.8401 81.3688 92.3434 80.5886 91.53L74.9586 85.9L65.7886 95.06C65.3288 95.5419 64.7049 95.8339 64.0403 95.8784C63.3757 95.9228 62.7185 95.7164 62.1986 95.3C61.9387 95.0695 61.7284 94.7884 61.5808 94.4739C61.4332 94.1594 61.3512 93.8181 61.34 93.4708C61.3288 93.1236 61.3885 92.7777 61.5155 92.4543C61.6425 92.1309 61.8341 91.8368 62.0786 91.59L71.3586 82.31L65.5286 76.47L60.3786 81.62C59.9142 82.0985 59.2884 82.3871 58.623 82.4296C57.9576 82.4721 57.3001 82.2655 56.7786 81.85C56.5187 81.6195 56.3084 81.3384 56.1608 81.0239C56.0132 80.7094 55.9312 80.3681 55.92 80.0208C55.9088 79.6736 55.9685 79.3277 56.0955 79.0043C56.2225 78.6809 56.4141 78.3868 56.6586 78.14L61.9286 72.87L44.1686 55.11C43.4394 54.3691 42.4953 53.8766 41.4703 53.7025C40.4454 53.5284 39.3917 53.6815 38.4586 54.14C33.7967 56.4737 28.5156 57.2714 23.3725 56.4186C18.2293 55.5659 13.4882 53.1066 9.82885 49.3933C6.16952 45.68 3.7799 40.9034 3.00259 35.7483C2.22528 30.5932 3.10018 25.3243 5.50188 20.6971C7.90358 16.0699 11.7087 12.3219 16.3718 9.99057C21.0348 7.65922 26.3163 6.8642 31.4591 7.71949C36.6018 8.57477 41.3417 11.0364 44.9992 14.7516C48.6567 18.4667 51.0439 23.2445 51.8186 28.4C49.9551 28.4164 48.0941 28.2624 46.2586 27.94C45.1588 27.7468 44.0705 27.4931 42.9986 27.18C41.738 23.1072 38.945 19.6832 35.2086 17.6298C31.4723 15.5765 27.0845 15.0544 22.9706 16.1736C18.8567 17.2928 15.3383 19.9659 13.1571 23.6292C10.976 27.2924 10.3027 31.6595 11.2792 35.8096C12.2557 39.9597 14.8056 43.5684 18.3914 45.8747C21.9771 48.181 26.3184 49.0048 30.4997 48.1722C34.681 47.3396 38.3756 44.9157 40.8044 41.4118C43.2332 37.9078 44.2063 33.5976 43.5186 29.39C44.2986 29.59 45.0986 29.77 45.9086 29.91C47.925 30.2667 49.9712 30.4275 52.0186 30.39C52.3249 34.7895 51.4406 39.1903 49.4586 43.13Z" stroke="black"/>
</svg>
