<svg width="129" height="128" viewBox="0 0 129 128" fill="none" xmlns="http://www.w3.org/2000/svg">
<path d="M71.3384 40.4445C73.0595 38.5553 74.0171 36.0968 74.0259 33.5443V29.3888C74.0259 23.6513 69.3621 19 63.6091 19C57.8561 19 53.1923 23.6513 53.1923 29.3888V33.5443C53.2011 36.0968 54.1587 38.5553 55.8798 40.4445C51.7758 41.9296 49.0383 45.8124 49.0255 50.1663V58.4773H53.1923V50.1663C53.1923 46.7237 55.9905 43.933 59.4424 43.933H61.5257V58.4773H65.6925V43.933H67.7758C71.2277 43.933 74.0259 46.7237 74.0259 50.1663V58.4773H78.1927V50.1663C78.1799 45.8124 75.4424 41.9296 71.3384 40.4445ZM69.8592 33.5443C69.8592 36.9869 67.061 39.7775 63.6091 39.7775C60.1572 39.7775 57.359 36.9869 57.359 33.5443V29.3888C57.359 25.9462 60.1572 23.1555 63.6091 23.1555C67.061 23.1555 69.8592 25.9462 69.8592 29.3888V33.5443Z" fill="black"/>
<path d="M57.009 105.113L53.1922 99.4091V83.4104C53.1855 77.6758 48.5255 73.0284 42.7754 73.0216H38.6087V77.1771H42.7754C46.2273 77.1771 49.0255 79.9678 49.0255 83.4104V100.032C49.0263 100.443 49.1479 100.844 49.3755 101.186L51.3839 104.188H44.8588V83.4104H40.692V106.266C40.692 107.413 41.6249 108.343 42.7754 108.343H55.2756C56.4261 108.344 57.3592 107.413 57.3592 106.266C57.3592 105.856 57.2373 105.454 57.009 105.113Z" fill="black"/>
<path d="M36.5254 33.5443V29.3888C36.5254 23.6513 31.8615 19 26.1085 19C20.3556 19 15.6917 23.6513 15.6917 29.3888V33.5443C15.6914 36.3238 16.8123 38.9864 18.8022 40.9328C14.9987 42.6864 12.3273 46.2217 11.6854 50.3512C9.86607 48.8965 7.60666 48.0989 5.27486 48.0886H3.19149C2.04095 48.0888 1.10838 49.0194 1.10864 50.1668C1.10864 50.2528 1.11411 50.3385 1.12479 50.424L4.75401 79.3837C5.15376 82.5138 7.61239 84.9856 10.7479 85.4092L3.29982 107.687L7.24989 109L15.1083 85.4881H32.3586V108.343H36.5254V83.4104C36.5186 77.6758 31.8586 73.0284 26.1085 73.0216H17.7751C16.6245 73.0216 15.6917 72.0913 15.6917 70.9439V52.2441C15.6917 47.654 19.4227 43.933 24.0252 43.933V66.7883H28.1919V45.0883C30.7615 46.5614 32.3492 49.2882 32.3586 52.2441V70.9439H36.5254V52.2441C36.5222 48.355 34.6954 44.6912 31.5878 42.3415C34.6488 40.4585 36.5165 37.1313 36.5254 33.5443ZM17.7751 77.1771H26.1085C28.7476 77.188 31.0956 78.851 31.9753 81.3326H11.6875C10.2656 81.3303 9.06658 80.2753 8.88741 78.8684L5.55194 52.2441C8.89523 52.3921 11.5283 55.1399 11.525 58.4773V70.9439C11.525 74.3864 14.3232 77.1771 17.7751 77.1771ZM32.3586 33.5443C32.3586 36.9869 29.5604 39.7775 26.1085 39.7775C22.6566 39.7775 19.8584 36.9869 19.8584 33.5443V29.3888C19.8584 25.9462 22.6566 23.1555 26.1085 23.1555C29.5604 23.1555 32.3586 25.9462 32.3586 29.3888V33.5443Z" fill="black"/>
<path d="M17.7751 77.1771H26.1085C28.7476 77.188 31.0956 78.851 31.9753 81.3326H11.6875C10.2656 81.3303 9.06658 80.2753 8.88741 78.8684L5.55194 52.2441C8.89523 52.3921 11.5283 55.1399 11.525 58.4773V70.9439C11.525 74.3864 14.3232 77.1771 17.7751 77.1771Z" fill="black"/>
<path d="M40.6921 62.6329V66.7884H61.5257V108.343H65.6925V66.7884H86.5261V62.6329H40.6921Z" fill="black"/>
<path d="M78.1927 100.032V83.4104C78.1927 79.9678 80.9909 77.1771 84.4428 77.1771H88.6095V73.0216H84.4428C78.6927 73.0284 74.0327 77.6758 74.0259 83.4104V99.4091L70.2092 105.119C69.574 106.076 69.8371 107.365 70.7964 107.998C71.1363 108.223 71.535 108.343 71.9426 108.343H84.4428C85.5933 108.343 86.5261 107.413 86.5261 106.266V83.4104H82.3594V104.188H75.8343L77.8427 101.186C78.0703 100.844 78.1919 100.443 78.1927 100.032Z" fill="black"/>
<path d="M122.464 79.3754L126.093 50.4156C126.231 49.2765 125.417 48.2413 124.275 48.1036C124.193 48.0938 124.11 48.0886 124.027 48.0886H121.943C119.612 48.0989 117.352 48.8965 115.533 50.3512C114.891 46.2217 112.219 42.6864 108.416 40.9328C110.406 38.9864 111.527 36.3238 111.526 33.5443V29.3888C111.526 23.6513 106.863 19 101.11 19C95.3567 19 90.6928 23.6513 90.6928 29.3888V33.5443C90.7017 37.1313 92.5692 40.4585 95.6304 42.3415C92.5228 44.6912 90.696 48.355 90.6928 52.2441V70.9439H94.8596V52.2441C94.8689 49.2882 96.4567 46.5614 99.0263 45.0883V66.7883H103.193V43.933C107.795 43.933 111.526 47.654 111.526 52.2441V70.9439C111.526 72.0913 110.594 73.0216 109.443 73.0216H101.11C95.3596 73.0284 90.6996 77.6758 90.6928 83.4104V108.343H94.8596V85.4881H112.11L119.968 109L123.927 107.687L116.47 85.4009C119.606 84.9775 122.064 82.5055 122.464 79.3754ZM107.36 33.5443C107.36 36.9869 104.562 39.7775 101.11 39.7775C97.6578 39.7775 94.8596 36.9869 94.8596 33.5443V29.3888C94.8596 25.9462 97.6578 23.1555 101.11 23.1555C104.562 23.1555 107.36 25.9462 107.36 29.3888V33.5443ZM115.531 81.3326H95.2429C96.1226 78.851 98.4706 77.188 101.11 77.1771H109.443C112.895 77.1771 115.693 74.3864 115.693 70.9439V58.4773C115.69 55.1399 118.323 52.3921 121.666 52.2441L118.333 78.8622C118.156 80.2722 116.955 81.3311 115.531 81.3326Z" fill="black"/>
<path d="M115.531 81.3326H95.2429C96.1226 78.851 98.4706 77.188 101.11 77.1771H109.443C112.895 77.1771 115.693 74.3864 115.693 70.9439V58.4773C115.69 55.1399 118.323 52.3921 121.666 52.2441L118.333 78.8622C118.156 80.2722 116.955 81.3311 115.531 81.3326Z" fill="black"/>
</svg>
