<svg width="105" height="90" viewBox="0 0 105 90" fill="none" xmlns="http://www.w3.org/2000/svg">
<path d="M98.6987 0.920044H5.51868C4.19259 0.920044 2.92082 1.44683 1.98314 2.38451C1.04546 3.32219 0.518677 4.59396 0.518677 5.92004V75.33C0.518677 76.6561 1.04546 77.9279 1.98314 78.8656C2.92082 79.8033 4.19259 80.33 5.51868 80.33H20.2487C20.5296 80.8451 20.8613 81.3309 21.2387 81.78C21.9144 82.5753 22.7435 83.226 23.6765 83.6934C24.6095 84.1608 25.6272 84.4351 26.6687 84.5C27.2509 84.5501 27.8364 84.5501 28.4187 84.5C28.6453 85.0363 28.9411 85.5406 29.2987 86C30.0988 86.9593 31.1076 87.7228 32.2481 88.2324C33.3885 88.742 34.6303 88.984 35.8787 88.94C38.5607 88.9373 41.1454 87.9355 43.1287 86.13C44.932 87.5159 47.1953 88.1631 49.4587 87.94C53.2487 87.65 56.1387 84.5601 56.7987 80.33H98.6987C100.025 80.33 101.297 79.8033 102.234 78.8656C103.172 77.9279 103.699 76.6561 103.699 75.33V5.92004C103.699 4.59396 103.172 3.32219 102.234 2.38451C101.297 1.44683 100.025 0.920044 98.6987 0.920044ZM19.9187 71.33C16.8959 71.3279 13.9975 70.1262 11.86 67.9887C9.72255 65.8513 8.5208 62.9529 8.51868 59.93V19.32C8.51868 16.2966 9.71975 13.3969 11.8577 11.259C13.9956 9.12111 16.8952 7.92004 19.9187 7.92004C22.9421 7.92004 25.8418 9.12111 27.9797 11.259C30.1176 13.3969 31.3187 16.2966 31.3187 19.32V59.93C31.3187 62.9535 30.1176 65.8531 27.9797 67.9911C25.8418 70.129 22.9421 71.33 19.9187 71.33ZM27.8887 82.53C27.5317 82.5402 27.1745 82.5302 26.8187 82.5C25.2009 82.3319 23.7071 81.5564 22.6387 80.33H27.8887C27.8035 81.0609 27.8035 81.7992 27.8887 82.53ZM29.8587 82.1C29.8082 81.5094 29.8317 80.9148 29.9287 80.33H32.2787C31.6165 81.0957 30.789 81.701 29.8587 82.1ZM30.4387 78.33C30.7395 77.5047 31.1074 76.7054 31.5387 75.94C31.7412 75.4548 32.0643 75.0292 32.4773 74.7037C32.8903 74.3783 33.3795 74.1636 33.8987 74.08H33.9087C34.0541 74.0725 34.1987 74.1061 34.326 74.1768C34.4533 74.2475 34.5582 74.3526 34.6287 74.48C34.9487 75.07 34.8787 76.3801 33.7287 78.33H30.4387ZM38.1587 86.64C35.2687 87.41 32.3387 86.65 30.8787 84.77C30.7034 84.5448 30.5494 84.3038 30.4187 84.05C32.2349 83.2994 33.7702 81.9985 34.8087 80.33H40.2087C40.2466 81.9083 40.7821 83.4342 41.7387 84.69C40.708 85.6022 39.484 86.269 38.1587 86.64ZM43.1187 83.19C42.5572 82.339 42.2422 81.3491 42.2087 80.33H44.4587C44.2163 81.3664 43.7599 82.3406 43.1187 83.19ZM42.3287 78.33C42.6187 76.5601 43.2887 75.74 43.6787 75.54C43.7293 75.5113 43.7869 75.4971 43.8451 75.4989C43.9033 75.5006 43.9599 75.5183 44.0087 75.55C44.3217 75.7661 44.7487 76.61 44.6887 78.33H42.3287ZM49.3087 85.94C47.6059 86.1348 45.8923 85.6814 44.5087 84.67C45.5269 83.414 46.2114 81.9212 46.4987 80.33H54.7687C54.1787 83.51 52.0987 85.73 49.3087 85.94ZM101.699 75.33C101.699 76.1257 101.383 76.8888 100.82 77.4514C100.257 78.014 99.4943 78.33 98.6987 78.33H56.9487C56.8716 76.5728 56.378 74.8591 55.5087 73.33H91.6987C93.29 73.33 94.8161 72.6979 95.9413 71.5727C97.0665 70.4475 97.6987 68.9213 97.6987 67.33V11.92C97.6987 10.3287 97.0665 8.80262 95.9413 7.6774C94.8161 6.55218 93.29 5.92004 91.6987 5.92004H46.5387C44.9474 5.92004 43.4213 6.55218 42.296 7.6774C41.1708 8.80262 40.5387 10.3287 40.5387 11.92V67.33C40.5387 68.9213 41.1708 70.4475 42.296 71.5727C43.4213 72.6979 44.9474 73.33 46.5387 73.33H53.1387C54.2072 74.7896 54.8353 76.5247 54.9487 78.33H46.6987C46.7487 76.25 46.2287 74.69 45.1887 73.94C44.8473 73.6803 44.438 73.5251 44.0103 73.4932C43.5826 73.4612 43.1548 73.5539 42.7787 73.76C41.4887 74.41 40.6087 76.07 40.3187 78.33H35.9887C37.1987 75.79 36.7787 74.25 36.3787 73.51C36.1363 73.0693 35.7781 72.7032 35.3428 72.4511C34.9075 72.1991 34.4116 72.0708 33.9087 72.08H33.8987C33.021 72.1612 32.1798 72.4706 31.4588 72.9776C30.7377 73.4846 30.1619 74.1715 29.7887 74.97C29.181 76.0348 28.6882 77.1611 28.3187 78.33H21.5287C20.9733 76.7112 20.7489 74.9973 20.8687 73.29C24.2485 73.0498 27.4119 71.5381 29.7219 69.0592C32.0319 66.5804 33.3171 63.3184 33.3187 59.93V19.32C33.3187 15.7661 31.9069 12.3578 29.3939 9.84481C26.8809 7.33183 23.4726 5.92004 19.9187 5.92004C16.3648 5.92004 12.9564 7.33183 10.4434 9.84481C7.93046 12.3578 6.51868 15.7661 6.51868 19.32V59.93C6.52089 63.3007 7.79328 66.5466 10.0822 69.0209C12.3711 71.4952 15.5084 73.0159 18.8687 73.28C18.777 74.9833 18.9697 76.69 19.4387 78.33H5.51868C4.72303 78.33 3.95997 78.014 3.39736 77.4514C2.83475 76.8888 2.51868 76.1257 2.51868 75.33V5.92004C2.51868 5.12439 2.83475 4.36133 3.39736 3.79872C3.95997 3.23611 4.72303 2.92004 5.51868 2.92004H98.6987C99.4943 2.92004 100.257 3.23611 100.82 3.79872C101.383 4.36133 101.699 5.12439 101.699 5.92004V75.33ZM46.5387 71.33C45.4778 71.33 44.4604 70.9086 43.7103 70.1585C42.9601 69.4083 42.5387 68.3909 42.5387 67.33V11.92C42.5387 10.8592 42.9601 9.84176 43.7103 9.09162C44.4604 8.34147 45.4778 7.92004 46.5387 7.92004H91.6987C92.7595 7.92004 93.777 8.34147 94.5271 9.09162C95.2772 9.84176 95.6987 10.8592 95.6987 11.92V67.33C95.6987 68.3909 95.2772 69.4083 94.5271 70.1585C93.777 70.9086 92.7595 71.33 91.6987 71.33H46.5387Z" fill="black"/>
<path d="M85.7007 24.624H52.5377C51.4768 24.624 50.4594 24.2026 49.7093 23.4525C48.9591 22.7023 48.5377 21.6849 48.5377 20.624V17.916C48.5377 16.8552 48.9591 15.8378 49.7093 15.0876C50.4594 14.3375 51.4768 13.916 52.5377 13.916H85.7007C86.7616 13.916 87.779 14.3375 88.5291 15.0876C89.2792 15.8378 89.7007 16.8552 89.7007 17.916V20.624C89.6994 21.6845 89.2775 22.7012 88.5276 23.451C87.7778 24.2009 86.7611 24.6227 85.7007 24.624ZM52.5377 15.916C52.0072 15.916 51.4985 16.1268 51.1235 16.5018C50.7484 16.8769 50.5377 17.3856 50.5377 17.916V20.624C50.5377 21.1545 50.7484 21.6632 51.1235 22.0383C51.4985 22.4133 52.0072 22.624 52.5377 22.624H85.7007C86.2311 22.624 86.7398 22.4133 87.1149 22.0383C87.49 21.6632 87.7007 21.1545 87.7007 20.624V17.916C87.7007 17.3856 87.49 16.8769 87.1149 16.5018C86.7398 16.1268 86.2311 15.916 85.7007 15.916H52.5377Z" fill="black"/>
<path d="M86.6087 65.331H80.2487C79.453 65.331 78.69 65.015 78.1273 64.4524C77.5647 63.8898 77.2487 63.1267 77.2487 62.331V56.248C77.2487 55.4524 77.5647 54.6893 78.1273 54.1267C78.69 53.5641 79.453 53.248 80.2487 53.248H86.6087C87.4043 53.248 88.1674 53.5641 88.73 54.1267C89.2926 54.6893 89.6087 55.4524 89.6087 56.248V62.331C89.6087 63.1267 89.2926 63.8898 88.73 64.4524C88.1674 65.015 87.4043 65.331 86.6087 65.331ZM80.2487 55.248C79.9835 55.248 79.7291 55.3534 79.5416 55.5409C79.354 55.7285 79.2487 55.9828 79.2487 56.248V62.331C79.2487 62.5963 79.354 62.8506 79.5416 63.0382C79.7291 63.2257 79.9835 63.331 80.2487 63.331H86.6087C86.8739 63.331 87.1282 63.2257 87.3158 63.0382C87.5033 62.8506 87.6087 62.5963 87.6087 62.331V56.248C87.6087 55.9828 87.5033 55.7285 87.3158 55.5409C87.1282 55.3534 86.8739 55.248 86.6087 55.248H80.2487Z" fill="black"/>
<path d="M86.6087 38.992H80.2487C79.453 38.992 78.69 38.676 78.1273 38.1134C77.5647 37.5508 77.2487 36.7877 77.2487 35.992V29.909C77.2487 29.1134 77.5647 28.3503 78.1273 27.7877C78.69 27.2251 79.453 26.909 80.2487 26.909H86.6087C87.4043 26.909 88.1674 27.2251 88.73 27.7877C89.2926 28.3503 89.6087 29.1134 89.6087 29.909V35.992C89.6087 36.7877 89.2926 37.5508 88.73 38.1134C88.1674 38.676 87.4043 38.992 86.6087 38.992ZM80.2487 28.909C79.9835 28.909 79.7291 29.0144 79.5416 29.2019C79.354 29.3895 79.2487 29.6438 79.2487 29.909V35.992C79.2487 36.2573 79.354 36.5116 79.5416 36.6992C79.7291 36.8867 79.9835 36.992 80.2487 36.992H86.6087C86.8739 36.992 87.1282 36.8867 87.3158 36.6992C87.5033 36.5116 87.6087 36.2573 87.6087 35.992V29.909C87.6087 29.6438 87.5033 29.3895 87.3158 29.2019C87.1282 29.0144 86.8739 28.909 86.6087 28.909H80.2487Z" fill="black"/>
<path d="M86.6087 52.248H80.2487C79.453 52.248 78.69 51.932 78.1273 51.3694C77.5647 50.8068 77.2487 50.0437 77.2487 49.248V42.992C77.2487 42.1964 77.5647 41.4333 78.1273 40.8707C78.69 40.3081 79.453 39.992 80.2487 39.992H86.6087C87.4043 39.992 88.1674 40.3081 88.73 40.8707C89.2926 41.4333 89.6087 42.1964 89.6087 42.992V49.248C89.6087 50.0437 89.2926 50.8068 88.73 51.3694C88.1674 51.932 87.4043 52.248 86.6087 52.248ZM80.2487 41.992C79.9835 41.992 79.7291 42.0974 79.5416 42.2849C79.354 42.4725 79.2487 42.7268 79.2487 42.992V49.248C79.2487 49.5133 79.354 49.7676 79.5416 49.9552C79.7291 50.1427 79.9835 50.248 80.2487 50.248H86.6087C86.8739 50.248 87.1282 50.1427 87.3158 49.9552C87.5033 49.7676 87.6087 49.5133 87.6087 49.248V42.992C87.6087 42.7268 87.5033 42.4725 87.3158 42.2849C87.1282 42.0974 86.8739 41.992 86.6087 41.992H80.2487Z" fill="black"/>
<path d="M57.9917 65.331H51.6307C50.835 65.331 50.072 65.015 49.5094 64.4524C48.9467 63.8898 48.6307 63.1267 48.6307 62.331V56.248C48.6307 55.4524 48.9467 54.6893 49.5094 54.1267C50.072 53.5641 50.835 53.248 51.6307 53.248H57.9917C58.7873 53.248 59.5504 53.5641 60.113 54.1267C60.6756 54.6893 60.9917 55.4524 60.9917 56.248V62.331C60.9917 63.1267 60.6756 63.8898 60.113 64.4524C59.5504 65.015 58.7873 65.331 57.9917 65.331ZM51.6307 55.248C51.3655 55.248 51.1111 55.3534 50.9236 55.5409C50.736 55.7285 50.6307 55.9828 50.6307 56.248V62.331C50.6307 62.5963 50.736 62.8506 50.9236 63.0382C51.1111 63.2257 51.3655 63.331 51.6307 63.331H57.9917C58.2569 63.331 58.5112 63.2257 58.6988 63.0382C58.8863 62.8506 58.9917 62.5963 58.9917 62.331V56.248C58.9917 55.9828 58.8863 55.7285 58.6988 55.5409C58.5112 55.3534 58.2569 55.248 57.9917 55.248H51.6307Z" fill="black"/>
<path d="M57.9917 38.992H51.6307C50.835 38.992 50.072 38.676 49.5094 38.1134C48.9467 37.5508 48.6307 36.7877 48.6307 35.992V29.909C48.6307 29.1134 48.9467 28.3503 49.5094 27.7877C50.072 27.2251 50.835 26.909 51.6307 26.909H57.9917C58.7873 26.909 59.5504 27.2251 60.113 27.7877C60.6756 28.3503 60.9917 29.1134 60.9917 29.909V35.992C60.9917 36.7877 60.6756 37.5508 60.113 38.1134C59.5504 38.676 58.7873 38.992 57.9917 38.992ZM51.6307 28.909C51.3655 28.909 51.1111 29.0144 50.9236 29.2019C50.736 29.3895 50.6307 29.6438 50.6307 29.909V35.992C50.6307 36.2573 50.736 36.5116 50.9236 36.6992C51.1111 36.8867 51.3655 36.992 51.6307 36.992H57.9917C58.2569 36.992 58.5112 36.8867 58.6988 36.6992C58.8863 36.5116 58.9917 36.2573 58.9917 35.992V29.909C58.9917 29.6438 58.8863 29.3895 58.6988 29.2019C58.5112 29.0144 58.2569 28.909 57.9917 28.909H51.6307Z" fill="black"/>
<path d="M57.9917 52.248H51.6307C50.835 52.248 50.072 51.932 49.5094 51.3694C48.9467 50.8068 48.6307 50.0437 48.6307 49.248V42.992C48.6307 42.1964 48.9467 41.4333 49.5094 40.8707C50.072 40.3081 50.835 39.992 51.6307 39.992H57.9917C58.7873 39.992 59.5504 40.3081 60.113 40.8707C60.6756 41.4333 60.9917 42.1964 60.9917 42.992V49.248C60.9917 50.0437 60.6756 50.8068 60.113 51.3694C59.5504 51.932 58.7873 52.248 57.9917 52.248ZM51.6307 41.992C51.3655 41.992 51.1111 42.0974 50.9236 42.2849C50.736 42.4725 50.6307 42.7268 50.6307 42.992V49.248C50.6307 49.5133 50.736 49.7676 50.9236 49.9552C51.1111 50.1427 51.3655 50.248 51.6307 50.248H57.9917C58.2569 50.248 58.5112 50.1427 58.6988 49.9552C58.8863 49.7676 58.9917 49.5133 58.9917 49.248V42.992C58.9917 42.7268 58.8863 42.4725 58.6988 42.2849C58.5112 42.0974 58.2569 41.992 57.9917 41.992H51.6307Z" fill="black"/>
<path d="M72.2467 65.331H65.9917C65.196 65.331 64.433 65.015 63.8704 64.4524C63.3077 63.8898 62.9917 63.1267 62.9917 62.331V56.248C62.9917 55.4524 63.3077 54.6893 63.8704 54.1267C64.433 53.5641 65.196 53.248 65.9917 53.248H72.2467C73.0423 53.248 73.8054 53.5641 74.368 54.1267C74.9306 54.6893 75.2467 55.4524 75.2467 56.248V62.331C75.2467 63.1267 74.9306 63.8898 74.368 64.4524C73.8054 65.015 73.0423 65.331 72.2467 65.331ZM65.9917 55.248C65.7265 55.248 65.4721 55.3534 65.2846 55.5409C65.097 55.7285 64.9917 55.9828 64.9917 56.248V62.331C64.9917 62.5963 65.097 62.8506 65.2846 63.0382C65.4721 63.2257 65.7265 63.331 65.9917 63.331H72.2467C72.5119 63.331 72.7662 63.2257 72.9538 63.0382C73.1413 62.8506 73.2467 62.5963 73.2467 62.331V56.248C73.2467 55.9828 73.1413 55.7285 72.9538 55.5409C72.7662 55.3534 72.5119 55.248 72.2467 55.248H65.9917Z" fill="black"/>
<path d="M72.2467 38.992H65.9917C65.196 38.992 64.433 38.676 63.8704 38.1134C63.3077 37.5508 62.9917 36.7877 62.9917 35.992V29.909C62.9917 29.1134 63.3077 28.3503 63.8704 27.7877C64.433 27.2251 65.196 26.909 65.9917 26.909H72.2467C73.0423 26.909 73.8054 27.2251 74.368 27.7877C74.9306 28.3503 75.2467 29.1134 75.2467 29.909V35.992C75.2467 36.7877 74.9306 37.5508 74.368 38.1134C73.8054 38.676 73.0423 38.992 72.2467 38.992ZM65.9917 28.909C65.7265 28.909 65.4721 29.0144 65.2846 29.2019C65.097 29.3895 64.9917 29.6438 64.9917 29.909V35.992C64.9917 36.2573 65.097 36.5116 65.2846 36.6992C65.4721 36.8867 65.7265 36.992 65.9917 36.992H72.2467C72.5119 36.992 72.7662 36.8867 72.9538 36.6992C73.1413 36.5116 73.2467 36.2573 73.2467 35.992V29.909C73.2467 29.6438 73.1413 29.3895 72.9538 29.2019C72.7662 29.0144 72.5119 28.909 72.2467 28.909H65.9917Z" fill="black"/>
<path d="M72.2467 52.248H65.9917C65.196 52.248 64.433 51.932 63.8704 51.3694C63.3077 50.8068 62.9917 50.0437 62.9917 49.248V42.992C62.9917 42.1964 63.3077 41.4333 63.8704 40.8707C64.433 40.3081 65.196 39.992 65.9917 39.992H72.2467C73.0423 39.992 73.8054 40.3081 74.368 40.8707C74.9306 41.4333 75.2467 42.1964 75.2467 42.992V49.248C75.2467 50.0437 74.9306 50.8068 74.368 51.3694C73.8054 51.932 73.0423 52.248 72.2467 52.248ZM65.9917 41.992C65.7265 41.992 65.4721 42.0974 65.2846 42.2849C65.097 42.4725 64.9917 42.7268 64.9917 42.992V49.248C64.9917 49.5133 65.097 49.7676 65.2846 49.9552C65.4721 50.1427 65.7265 50.248 65.9917 50.248H72.2467C72.5119 50.248 72.7662 50.1427 72.9538 49.9552C73.1413 49.7676 73.2467 49.5133 73.2467 49.248V42.992C73.2467 42.7268 73.1413 42.4725 72.9538 42.2849C72.7662 42.0974 72.5119 41.992 72.2467 41.992H65.9917Z" fill="black"/>
<path d="M19.9187 71.33C16.8959 71.3279 13.9975 70.1262 11.86 67.9887C9.72255 65.8513 8.5208 62.9529 8.51868 59.93V19.32C8.51868 16.2966 9.71975 13.3969 11.8577 11.259C13.9956 9.12111 16.8952 7.92004 19.9187 7.92004C22.9421 7.92004 25.8418 9.12111 27.9797 11.259C30.1176 13.3969 31.3187 16.2966 31.3187 19.32V59.93C31.3187 62.9535 30.1176 65.8531 27.9797 67.9911C25.8418 70.129 22.9421 71.33 19.9187 71.33Z" fill="black"/>
<path d="M98.6987 0.920044H5.51868C4.19259 0.920044 2.92082 1.44683 1.98314 2.38451C1.04546 3.32219 0.518677 4.59396 0.518677 5.92004V75.33C0.518677 76.6561 1.04546 77.9279 1.98314 78.8656C2.92082 79.8033 4.19259 80.33 5.51868 80.33H20.2487C20.5296 80.8451 20.8613 81.3309 21.2387 81.78C21.9144 82.5753 22.7435 83.226 23.6765 83.6934C24.6095 84.1608 25.6272 84.4351 26.6687 84.5C27.2509 84.5501 27.8364 84.5501 28.4187 84.5C28.6453 85.0363 28.9411 85.5406 29.2987 86C30.0988 86.9593 31.1076 87.7228 32.2481 88.2324C33.3885 88.742 34.6303 88.984 35.8787 88.94C38.5607 88.9373 41.1454 87.9355 43.1287 86.13C44.932 87.5159 47.1953 88.1631 49.4587 87.94C53.2487 87.65 56.1387 84.5601 56.7987 80.33H98.6987C100.025 80.33 101.297 79.8033 102.234 78.8656C103.172 77.9279 103.699 76.6561 103.699 75.33V5.92004C103.699 4.59396 103.172 3.32219 102.234 2.38451C101.297 1.44683 100.025 0.920044 98.6987 0.920044ZM19.9187 71.33C16.8959 71.3279 13.9975 70.1262 11.86 67.9887C9.72255 65.8513 8.5208 62.9529 8.51868 59.93V19.32C8.51868 16.2966 9.71975 13.3969 11.8577 11.259C13.9956 9.12111 16.8952 7.92004 19.9187 7.92004C22.9421 7.92004 25.8418 9.12111 27.9797 11.259C30.1176 13.3969 31.3187 16.2966 31.3187 19.32V59.93C31.3187 62.9535 30.1176 65.8531 27.9797 67.9911C25.8418 70.129 22.9421 71.33 19.9187 71.33ZM27.8887 82.53C27.5317 82.5402 27.1745 82.5302 26.8187 82.5C25.2009 82.3319 23.7071 81.5564 22.6387 80.33H27.8887C27.8035 81.0609 27.8035 81.7992 27.8887 82.53ZM29.8587 82.1C29.8082 81.5094 29.8317 80.9148 29.9287 80.33H32.2787C31.6165 81.0957 30.789 81.701 29.8587 82.1ZM30.4387 78.33C30.7395 77.5047 31.1074 76.7054 31.5387 75.94C31.7412 75.4548 32.0643 75.0292 32.4773 74.7037C32.8903 74.3783 33.3795 74.1636 33.8987 74.08H33.9087C34.0541 74.0725 34.1987 74.1061 34.326 74.1768C34.4533 74.2475 34.5582 74.3526 34.6287 74.48C34.9487 75.07 34.8787 76.3801 33.7287 78.33H30.4387ZM38.1587 86.64C35.2687 87.41 32.3387 86.65 30.8787 84.77C30.7034 84.5448 30.5494 84.3038 30.4187 84.05C32.2349 83.2994 33.7702 81.9985 34.8087 80.33H40.2087C40.2466 81.9083 40.7821 83.4342 41.7387 84.69C40.708 85.6022 39.484 86.269 38.1587 86.64ZM43.1187 83.19C42.5572 82.339 42.2422 81.3491 42.2087 80.33H44.4587C44.2163 81.3664 43.7599 82.3406 43.1187 83.19ZM42.3287 78.33C42.6187 76.5601 43.2887 75.74 43.6787 75.54C43.7293 75.5113 43.7869 75.4971 43.8451 75.4989C43.9033 75.5006 43.9599 75.5183 44.0087 75.55C44.3217 75.7661 44.7487 76.61 44.6887 78.33H42.3287ZM49.3087 85.94C47.6059 86.1348 45.8923 85.6814 44.5087 84.67C45.5269 83.414 46.2114 81.9212 46.4987 80.33H54.7687C54.1787 83.51 52.0987 85.73 49.3087 85.94ZM101.699 75.33C101.699 76.1257 101.383 76.8888 100.82 77.4514C100.257 78.014 99.4943 78.33 98.6987 78.33H56.9487C56.8716 76.5728 56.378 74.8591 55.5087 73.33H91.6987C93.29 73.33 94.8161 72.6979 95.9413 71.5727C97.0665 70.4475 97.6987 68.9213 97.6987 67.33V11.92C97.6987 10.3287 97.0665 8.80262 95.9413 7.6774C94.8161 6.55218 93.29 5.92004 91.6987 5.92004H46.5387C44.9474 5.92004 43.4213 6.55218 42.296 7.6774C41.1708 8.80262 40.5387 10.3287 40.5387 11.92V67.33C40.5387 68.9213 41.1708 70.4475 42.296 71.5727C43.4213 72.6979 44.9474 73.33 46.5387 73.33H53.1387C54.2072 74.7896 54.8353 76.5247 54.9487 78.33H46.6987C46.7487 76.25 46.2287 74.69 45.1887 73.94C44.8473 73.6803 44.438 73.5251 44.0103 73.4932C43.5826 73.4612 43.1548 73.5539 42.7787 73.76C41.4887 74.41 40.6087 76.07 40.3187 78.33H35.9887C37.1987 75.79 36.7787 74.25 36.3787 73.51C36.1363 73.0693 35.7781 72.7032 35.3428 72.4511C34.9075 72.1991 34.4116 72.0708 33.9087 72.08H33.8987C33.021 72.1612 32.1798 72.4706 31.4588 72.9776C30.7377 73.4846 30.1619 74.1715 29.7887 74.97C29.181 76.0348 28.6882 77.1611 28.3187 78.33H21.5287C20.9733 76.7112 20.7489 74.9973 20.8687 73.29C24.2485 73.0498 27.4119 71.5381 29.7219 69.0592C32.0319 66.5804 33.3171 63.3184 33.3187 59.93V19.32C33.3187 15.7661 31.9069 12.3578 29.3939 9.84481C26.8809 7.33183 23.4726 5.92004 19.9187 5.92004C16.3648 5.92004 12.9564 7.33183 10.4434 9.84481C7.93046 12.3578 6.51868 15.7661 6.51868 19.32V59.93C6.52089 63.3007 7.79328 66.5466 10.0822 69.0209C12.3711 71.4952 15.5084 73.0159 18.8687 73.28C18.777 74.9833 18.9697 76.69 19.4387 78.33H5.51868C4.72303 78.33 3.95997 78.014 3.39736 77.4514C2.83475 76.8888 2.51868 76.1257 2.51868 75.33V5.92004C2.51868 5.12439 2.83475 4.36133 3.39736 3.79872C3.95997 3.23611 4.72303 2.92004 5.51868 2.92004H98.6987C99.4943 2.92004 100.257 3.23611 100.82 3.79872C101.383 4.36133 101.699 5.12439 101.699 5.92004V75.33ZM46.5387 71.33C45.4778 71.33 44.4604 70.9086 43.7103 70.1585C42.9601 69.4083 42.5387 68.3909 42.5387 67.33V11.92C42.5387 10.8592 42.9601 9.84176 43.7103 9.09162C44.4604 8.34147 45.4778 7.92004 46.5387 7.92004H91.6987C92.7595 7.92004 93.777 8.34147 94.5271 9.09162C95.2772 9.84176 95.6987 10.8592 95.6987 11.92V67.33C95.6987 68.3909 95.2772 69.4083 94.5271 70.1585C93.777 70.9086 92.7595 71.33 91.6987 71.33H46.5387Z" stroke="black"/>
<path d="M85.7007 24.624H52.5377C51.4768 24.624 50.4594 24.2026 49.7093 23.4525C48.9591 22.7023 48.5377 21.6849 48.5377 20.624V17.916C48.5377 16.8552 48.9591 15.8378 49.7093 15.0876C50.4594 14.3375 51.4768 13.916 52.5377 13.916H85.7007C86.7616 13.916 87.779 14.3375 88.5291 15.0876C89.2792 15.8378 89.7007 16.8552 89.7007 17.916V20.624C89.6994 21.6845 89.2775 22.7012 88.5276 23.451C87.7778 24.2009 86.7611 24.6227 85.7007 24.624ZM52.5377 15.916C52.0072 15.916 51.4985 16.1268 51.1235 16.5018C50.7484 16.8769 50.5377 17.3856 50.5377 17.916V20.624C50.5377 21.1545 50.7484 21.6632 51.1235 22.0383C51.4985 22.4133 52.0072 22.624 52.5377 22.624H85.7007C86.2311 22.624 86.7398 22.4133 87.1149 22.0383C87.49 21.6632 87.7007 21.1545 87.7007 20.624V17.916C87.7007 17.3856 87.49 16.8769 87.1149 16.5018C86.7398 16.1268 86.2311 15.916 85.7007 15.916H52.5377Z" stroke="black"/>
<path d="M86.6087 65.331H80.2487C79.453 65.331 78.69 65.015 78.1273 64.4524C77.5647 63.8898 77.2487 63.1267 77.2487 62.331V56.248C77.2487 55.4524 77.5647 54.6893 78.1273 54.1267C78.69 53.5641 79.453 53.248 80.2487 53.248H86.6087C87.4043 53.248 88.1674 53.5641 88.73 54.1267C89.2926 54.6893 89.6087 55.4524 89.6087 56.248V62.331C89.6087 63.1267 89.2926 63.8898 88.73 64.4524C88.1674 65.015 87.4043 65.331 86.6087 65.331ZM80.2487 55.248C79.9835 55.248 79.7291 55.3534 79.5416 55.5409C79.354 55.7285 79.2487 55.9828 79.2487 56.248V62.331C79.2487 62.5963 79.354 62.8506 79.5416 63.0382C79.7291 63.2257 79.9835 63.331 80.2487 63.331H86.6087C86.8739 63.331 87.1282 63.2257 87.3158 63.0382C87.5033 62.8506 87.6087 62.5963 87.6087 62.331V56.248C87.6087 55.9828 87.5033 55.7285 87.3158 55.5409C87.1282 55.3534 86.8739 55.248 86.6087 55.248H80.2487Z" stroke="black"/>
<path d="M86.6087 38.992H80.2487C79.453 38.992 78.69 38.676 78.1273 38.1134C77.5647 37.5508 77.2487 36.7877 77.2487 35.992V29.909C77.2487 29.1134 77.5647 28.3503 78.1273 27.7877C78.69 27.2251 79.453 26.909 80.2487 26.909H86.6087C87.4043 26.909 88.1674 27.2251 88.73 27.7877C89.2926 28.3503 89.6087 29.1134 89.6087 29.909V35.992C89.6087 36.7877 89.2926 37.5508 88.73 38.1134C88.1674 38.676 87.4043 38.992 86.6087 38.992ZM80.2487 28.909C79.9835 28.909 79.7291 29.0144 79.5416 29.2019C79.354 29.3895 79.2487 29.6438 79.2487 29.909V35.992C79.2487 36.2573 79.354 36.5116 79.5416 36.6992C79.7291 36.8867 79.9835 36.992 80.2487 36.992H86.6087C86.8739 36.992 87.1282 36.8867 87.3158 36.6992C87.5033 36.5116 87.6087 36.2573 87.6087 35.992V29.909C87.6087 29.6438 87.5033 29.3895 87.3158 29.2019C87.1282 29.0144 86.8739 28.909 86.6087 28.909H80.2487Z" stroke="black"/>
<path d="M86.6087 52.248H80.2487C79.453 52.248 78.69 51.932 78.1273 51.3694C77.5647 50.8068 77.2487 50.0437 77.2487 49.248V42.992C77.2487 42.1964 77.5647 41.4333 78.1273 40.8707C78.69 40.3081 79.453 39.992 80.2487 39.992H86.6087C87.4043 39.992 88.1674 40.3081 88.73 40.8707C89.2926 41.4333 89.6087 42.1964 89.6087 42.992V49.248C89.6087 50.0437 89.2926 50.8068 88.73 51.3694C88.1674 51.932 87.4043 52.248 86.6087 52.248ZM80.2487 41.992C79.9835 41.992 79.7291 42.0974 79.5416 42.2849C79.354 42.4725 79.2487 42.7268 79.2487 42.992V49.248C79.2487 49.5133 79.354 49.7676 79.5416 49.9552C79.7291 50.1427 79.9835 50.248 80.2487 50.248H86.6087C86.8739 50.248 87.1282 50.1427 87.3158 49.9552C87.5033 49.7676 87.6087 49.5133 87.6087 49.248V42.992C87.6087 42.7268 87.5033 42.4725 87.3158 42.2849C87.1282 42.0974 86.8739 41.992 86.6087 41.992H80.2487Z" stroke="black"/>
<path d="M57.9917 65.331H51.6307C50.835 65.331 50.072 65.015 49.5094 64.4524C48.9467 63.8898 48.6307 63.1267 48.6307 62.331V56.248C48.6307 55.4524 48.9467 54.6893 49.5094 54.1267C50.072 53.5641 50.835 53.248 51.6307 53.248H57.9917C58.7873 53.248 59.5504 53.5641 60.113 54.1267C60.6756 54.6893 60.9917 55.4524 60.9917 56.248V62.331C60.9917 63.1267 60.6756 63.8898 60.113 64.4524C59.5504 65.015 58.7873 65.331 57.9917 65.331ZM51.6307 55.248C51.3655 55.248 51.1111 55.3534 50.9236 55.5409C50.736 55.7285 50.6307 55.9828 50.6307 56.248V62.331C50.6307 62.5963 50.736 62.8506 50.9236 63.0382C51.1111 63.2257 51.3655 63.331 51.6307 63.331H57.9917C58.2569 63.331 58.5112 63.2257 58.6988 63.0382C58.8863 62.8506 58.9917 62.5963 58.9917 62.331V56.248C58.9917 55.9828 58.8863 55.7285 58.6988 55.5409C58.5112 55.3534 58.2569 55.248 57.9917 55.248H51.6307Z" stroke="black"/>
<path d="M57.9917 38.992H51.6307C50.835 38.992 50.072 38.676 49.5094 38.1134C48.9467 37.5508 48.6307 36.7877 48.6307 35.992V29.909C48.6307 29.1134 48.9467 28.3503 49.5094 27.7877C50.072 27.2251 50.835 26.909 51.6307 26.909H57.9917C58.7873 26.909 59.5504 27.2251 60.113 27.7877C60.6756 28.3503 60.9917 29.1134 60.9917 29.909V35.992C60.9917 36.7877 60.6756 37.5508 60.113 38.1134C59.5504 38.676 58.7873 38.992 57.9917 38.992ZM51.6307 28.909C51.3655 28.909 51.1111 29.0144 50.9236 29.2019C50.736 29.3895 50.6307 29.6438 50.6307 29.909V35.992C50.6307 36.2573 50.736 36.5116 50.9236 36.6992C51.1111 36.8867 51.3655 36.992 51.6307 36.992H57.9917C58.2569 36.992 58.5112 36.8867 58.6988 36.6992C58.8863 36.5116 58.9917 36.2573 58.9917 35.992V29.909C58.9917 29.6438 58.8863 29.3895 58.6988 29.2019C58.5112 29.0144 58.2569 28.909 57.9917 28.909H51.6307Z" stroke="black"/>
<path d="M57.9917 52.248H51.6307C50.835 52.248 50.072 51.932 49.5094 51.3694C48.9467 50.8068 48.6307 50.0437 48.6307 49.248V42.992C48.6307 42.1964 48.9467 41.4333 49.5094 40.8707C50.072 40.3081 50.835 39.992 51.6307 39.992H57.9917C58.7873 39.992 59.5504 40.3081 60.113 40.8707C60.6756 41.4333 60.9917 42.1964 60.9917 42.992V49.248C60.9917 50.0437 60.6756 50.8068 60.113 51.3694C59.5504 51.932 58.7873 52.248 57.9917 52.248ZM51.6307 41.992C51.3655 41.992 51.1111 42.0974 50.9236 42.2849C50.736 42.4725 50.6307 42.7268 50.6307 42.992V49.248C50.6307 49.5133 50.736 49.7676 50.9236 49.9552C51.1111 50.1427 51.3655 50.248 51.6307 50.248H57.9917C58.2569 50.248 58.5112 50.1427 58.6988 49.9552C58.8863 49.7676 58.9917 49.5133 58.9917 49.248V42.992C58.9917 42.7268 58.8863 42.4725 58.6988 42.2849C58.5112 42.0974 58.2569 41.992 57.9917 41.992H51.6307Z" stroke="black"/>
<path d="M72.2467 65.331H65.9917C65.196 65.331 64.433 65.015 63.8704 64.4524C63.3077 63.8898 62.9917 63.1267 62.9917 62.331V56.248C62.9917 55.4524 63.3077 54.6893 63.8704 54.1267C64.433 53.5641 65.196 53.248 65.9917 53.248H72.2467C73.0423 53.248 73.8054 53.5641 74.368 54.1267C74.9306 54.6893 75.2467 55.4524 75.2467 56.248V62.331C75.2467 63.1267 74.9306 63.8898 74.368 64.4524C73.8054 65.015 73.0423 65.331 72.2467 65.331ZM65.9917 55.248C65.7265 55.248 65.4721 55.3534 65.2846 55.5409C65.097 55.7285 64.9917 55.9828 64.9917 56.248V62.331C64.9917 62.5963 65.097 62.8506 65.2846 63.0382C65.4721 63.2257 65.7265 63.331 65.9917 63.331H72.2467C72.5119 63.331 72.7662 63.2257 72.9538 63.0382C73.1413 62.8506 73.2467 62.5963 73.2467 62.331V56.248C73.2467 55.9828 73.1413 55.7285 72.9538 55.5409C72.7662 55.3534 72.5119 55.248 72.2467 55.248H65.9917Z" stroke="black"/>
<path d="M72.2467 38.992H65.9917C65.196 38.992 64.433 38.676 63.8704 38.1134C63.3077 37.5508 62.9917 36.7877 62.9917 35.992V29.909C62.9917 29.1134 63.3077 28.3503 63.8704 27.7877C64.433 27.2251 65.196 26.909 65.9917 26.909H72.2467C73.0423 26.909 73.8054 27.2251 74.368 27.7877C74.9306 28.3503 75.2467 29.1134 75.2467 29.909V35.992C75.2467 36.7877 74.9306 37.5508 74.368 38.1134C73.8054 38.676 73.0423 38.992 72.2467 38.992ZM65.9917 28.909C65.7265 28.909 65.4721 29.0144 65.2846 29.2019C65.097 29.3895 64.9917 29.6438 64.9917 29.909V35.992C64.9917 36.2573 65.097 36.5116 65.2846 36.6992C65.4721 36.8867 65.7265 36.992 65.9917 36.992H72.2467C72.5119 36.992 72.7662 36.8867 72.9538 36.6992C73.1413 36.5116 73.2467 36.2573 73.2467 35.992V29.909C73.2467 29.6438 73.1413 29.3895 72.9538 29.2019C72.7662 29.0144 72.5119 28.909 72.2467 28.909H65.9917Z" stroke="black"/>
<path d="M72.2467 52.248H65.9917C65.196 52.248 64.433 51.932 63.8704 51.3694C63.3077 50.8068 62.9917 50.0437 62.9917 49.248V42.992C62.9917 42.1964 63.3077 41.4333 63.8704 40.8707C64.433 40.3081 65.196 39.992 65.9917 39.992H72.2467C73.0423 39.992 73.8054 40.3081 74.368 40.8707C74.9306 41.4333 75.2467 42.1964 75.2467 42.992V49.248C75.2467 50.0437 74.9306 50.8068 74.368 51.3694C73.8054 51.932 73.0423 52.248 72.2467 52.248ZM65.9917 41.992C65.7265 41.992 65.4721 42.0974 65.2846 42.2849C65.097 42.4725 64.9917 42.7268 64.9917 42.992V49.248C64.9917 49.5133 65.097 49.7676 65.2846 49.9552C65.4721 50.1427 65.7265 50.248 65.9917 50.248H72.2467C72.5119 50.248 72.7662 50.1427 72.9538 49.9552C73.1413 49.7676 73.2467 49.5133 73.2467 49.248V42.992C73.2467 42.7268 73.1413 42.4725 72.9538 42.2849C72.7662 42.0974 72.5119 41.992 72.2467 41.992H65.9917Z" stroke="black"/>
<path d="M19.9187 71.33C16.8959 71.3279 13.9975 70.1262 11.86 67.9887C9.72255 65.8513 8.5208 62.9529 8.51868 59.93V19.32C8.51868 16.2966 9.71975 13.3969 11.8577 11.259C13.9956 9.12111 16.8952 7.92004 19.9187 7.92004C22.9421 7.92004 25.8418 9.12111 27.9797 11.259C30.1176 13.3969 31.3187 16.2966 31.3187 19.32V59.93C31.3187 62.9535 30.1176 65.8531 27.9797 67.9911C25.8418 70.129 22.9421 71.33 19.9187 71.33Z" stroke="black"/>
</svg>
