<svg width="129" height="128" viewBox="0 0 129 128" fill="none" xmlns="http://www.w3.org/2000/svg">
<path d="M108.763 77.2317H51.1212C50.2869 77.2306 49.4872 76.9014 48.8974 76.3163C48.3076 75.7313 47.976 74.9382 47.9752 74.1111V51.7625C47.9752 51.3793 48.1287 51.0118 48.402 50.7409C48.6753 50.47 49.0459 50.3177 49.4323 50.3177C49.8188 50.3177 50.1894 50.47 50.4627 50.7409C50.736 51.0118 50.8895 51.3793 50.8895 51.7625V74.1111C50.8891 74.1414 50.8948 74.1715 50.9063 74.1997C50.9178 74.2278 50.9348 74.2534 50.9564 74.2749C50.978 74.2964 51.0036 74.3134 51.0319 74.325C51.0602 74.3366 51.0906 74.3424 51.1212 74.3422H108.763C108.794 74.3426 108.824 74.3369 108.852 74.3254C108.881 74.314 108.907 74.2969 108.929 74.2754C108.95 74.2539 108.967 74.2282 108.979 74.2C108.991 74.1718 108.996 74.1415 108.996 74.1111V34.7767H50.8895V43.1201C50.8895 43.5033 50.736 43.8707 50.4627 44.1417C50.1894 44.4126 49.8188 44.5648 49.4323 44.5648C49.0459 44.5648 48.6753 44.4126 48.402 44.1417C48.1287 43.8707 47.9752 43.5033 47.9752 43.1201V33.332C47.9752 32.9488 48.1287 32.5814 48.402 32.3104C48.6753 32.0395 49.0459 31.8873 49.4323 31.8873H110.446C110.832 31.8873 111.203 32.0395 111.476 32.3104C111.749 32.5814 111.903 32.9488 111.903 33.332V74.1111C111.902 74.9372 111.571 75.7294 110.983 76.3143C110.394 76.8992 109.596 77.229 108.763 77.2317Z" fill="black"/>
<path d="M31.7601 39.9836C29.767 39.9833 27.8187 39.397 26.1617 38.2989C24.5046 37.2009 23.2132 35.6403 22.4506 33.8145C21.6881 31.9887 21.4888 29.9797 21.8778 28.0416C22.2668 26.1035 23.2267 24.3232 24.6361 22.926C26.0456 21.5288 27.8412 20.5773 29.796 20.1919C31.7509 19.8065 33.7771 20.0044 35.6184 20.7607C37.4598 21.517 39.0336 22.7977 40.1409 24.4408C41.2481 26.0839 41.8391 28.0157 41.8391 29.9918C41.8361 32.6411 40.7731 35.181 38.8836 37.0542C36.994 38.9274 34.4321 39.9809 31.7601 39.9836ZM31.7601 22.8938C30.3434 22.8941 28.9586 23.3109 27.7808 24.0915C26.603 24.872 25.685 25.9814 25.1431 27.2792C24.6011 28.577 24.4595 30.005 24.7361 31.3826C25.0126 32.7602 25.695 34.0256 26.6968 35.0187C27.6987 36.0119 28.9751 36.6881 30.3646 36.9621C31.7541 37.236 33.1943 37.0953 34.5032 36.5577C35.812 36.0201 36.9307 35.1097 37.7177 33.9418C38.5048 32.7739 38.9249 31.4008 38.9249 29.9961C38.9229 28.1128 38.1674 26.3072 36.8241 24.9756C35.4809 23.6441 33.6596 22.8953 31.7601 22.8938Z" fill="black"/>
<path d="M26.8845 109C25.1902 109.004 23.5636 108.341 22.3616 107.157C21.1596 105.973 20.4804 104.365 20.473 102.685V72.0018C20.473 71.6186 20.6266 71.2511 20.8998 70.9802C21.1731 70.7093 21.5437 70.5571 21.9302 70.5571C22.3166 70.5571 22.6873 70.7093 22.9605 70.9802C23.2338 71.2511 23.3873 71.6186 23.3873 72.0018V102.688C23.3907 103.158 23.4909 103.623 23.6819 104.054C23.8729 104.484 24.1506 104.872 24.4979 105.192C24.8453 105.513 25.255 105.76 25.702 105.917C26.149 106.075 26.6237 106.141 27.0972 106.111C27.588 106.073 28.0645 105.928 28.4926 105.687C28.9207 105.446 29.2901 105.115 29.5744 104.716C29.9376 104.173 30.1474 103.544 30.182 102.893C30.2592 102.055 30.3 101.203 30.3 100.359V77.1739C30.3 76.7908 30.4535 76.4233 30.7268 76.1523C31.0001 75.8814 31.3707 75.7292 31.7572 75.7292C32.1436 75.7292 32.5142 75.8814 32.7875 76.1523C33.0608 76.4233 33.2143 76.7908 33.2143 77.1739V100.358C33.2143 101.289 33.1706 102.236 33.0846 103.157C33.0056 104.327 32.6072 105.453 31.932 106.415C31.3948 107.16 30.6981 107.777 29.8919 108.223C29.0858 108.669 28.1901 108.932 27.2692 108.994C27.1453 109 27.0142 109 26.8845 109Z" fill="black"/>
<path d="M36.6386 109C36.5089 109 36.3778 109 36.2481 108.988C35.3272 108.926 34.4316 108.663 33.6255 108.217C32.8193 107.772 32.1226 107.155 31.5852 106.411C30.9095 105.449 30.5105 104.323 30.4312 103.153C30.3452 102.224 30.3015 101.284 30.3015 100.355V77.1739C30.3015 76.7908 30.455 76.4233 30.7283 76.1523C31.0015 75.8814 31.3722 75.7292 31.7586 75.7292C32.1451 75.7292 32.5157 75.8814 32.789 76.1523C33.0622 76.4233 33.2158 76.7908 33.2158 77.1739V100.358C33.2158 101.198 33.2551 102.051 33.3323 102.892C33.3672 103.542 33.5776 104.172 33.9414 104.715C34.226 105.114 34.596 105.446 35.0249 105.688C35.4539 105.929 35.9312 106.073 36.4229 106.11C36.8952 106.139 37.3684 106.072 37.8137 105.914C38.2589 105.755 38.667 105.508 39.013 105.188C39.359 104.868 39.6357 104.482 39.8262 104.053C40.0167 103.623 40.1171 103.16 40.1211 102.691V54.4613C40.1223 53.3629 40.5628 52.3099 41.3459 51.5331C42.1291 50.7564 43.191 50.3193 44.2988 50.3178H58.3092C59.0811 50.3162 59.821 50.0124 60.3681 49.4726C60.6349 49.2067 60.846 48.8911 60.9893 48.5439C61.1326 48.1968 61.2053 47.825 61.2031 47.45C61.2044 47.0718 61.1306 46.6972 60.9859 46.3473C60.8412 45.9975 60.6284 45.6793 60.3597 45.411C60.091 45.1427 59.7716 44.9295 59.4198 44.7835C59.0679 44.6376 58.6906 44.5618 58.3092 44.5605H23.686C21.6535 44.5624 19.7048 45.3641 18.268 46.7895C16.8312 48.2149 16.0237 50.1474 16.0229 52.1627V72.5334C16.0275 73.121 16.267 73.6827 16.6888 74.0955C17.1105 74.5082 17.6802 74.7383 18.2728 74.7352C18.5573 74.7439 18.8406 74.6962 19.1063 74.595C19.372 74.4937 19.6147 74.341 19.8201 74.1456C20.0255 73.9503 20.1896 73.7163 20.3027 73.4573C20.4158 73.1984 20.4757 72.9196 20.4789 72.6375V54.5653C20.4789 54.1821 20.6324 53.8146 20.9057 53.5437C21.1789 53.2728 21.5496 53.1205 21.936 53.1205C22.3225 53.1205 22.6931 53.2728 22.9664 53.5437C23.2396 53.8146 23.3932 54.1821 23.3932 54.5653V72.6375C23.3916 73.9599 22.861 75.2278 21.9177 76.1628C20.9744 77.0978 19.6955 77.6235 18.3616 77.6247C17.6789 77.6348 17.0009 77.5109 16.3667 77.26C15.7324 77.0092 15.1545 76.6364 14.6663 76.1632C14.178 75.69 13.789 75.1256 13.5216 74.5026C13.2543 73.8797 13.1139 73.2104 13.1086 72.5334V52.1627C13.1117 49.3822 14.2271 46.7165 16.2101 44.7504C18.1931 42.7843 20.8817 41.6784 23.686 41.6754H58.3136C59.8559 41.6754 61.3351 42.2828 62.4257 43.3642C63.5163 44.4455 64.129 45.9121 64.129 47.4413C64.129 48.9705 63.5163 50.4371 62.4257 51.5184C61.3351 52.5998 59.8559 53.2072 58.3136 53.2072H44.3031C43.968 53.2076 43.6466 53.3399 43.4097 53.575C43.1729 53.8102 43.0398 54.1289 43.0398 54.4613V102.689C43.0306 104.366 42.352 105.972 41.1525 107.154C39.953 108.337 38.3301 109 36.6386 109Z" fill="black"/>
<path d="M113.651 34.7767H46.231C45.8445 34.7767 45.4739 34.6245 45.2006 34.3536C44.9274 34.0827 44.7738 33.7152 44.7738 33.332C44.7738 32.9488 44.9274 32.5814 45.2006 32.3104C45.4739 32.0395 45.8445 31.8873 46.231 31.8873H113.651C114.038 31.8873 114.409 32.0395 114.682 32.3104C114.955 32.5814 115.109 32.9488 115.109 33.332C115.109 33.7152 114.955 34.0827 114.682 34.3536C114.409 34.6245 114.038 34.7767 113.651 34.7767Z" fill="black"/>
<path d="M113.651 77.2317H46.231C45.8445 77.2317 45.4739 77.0795 45.2006 76.8086C44.9274 76.5376 44.7738 76.1702 44.7738 75.787C44.7738 75.4038 44.9274 75.0363 45.2006 74.7654C45.4739 74.4945 45.8445 74.3423 46.231 74.3423H113.651C114.038 74.3423 114.409 74.4945 114.682 74.7654C114.955 75.0363 115.109 75.4038 115.109 75.787C115.109 76.1702 114.955 76.5376 114.682 76.8086C114.409 77.0795 114.038 77.2317 113.651 77.2317Z" fill="black"/>
<path d="M104.776 107.32H95.8744C95.6651 107.32 95.4583 107.275 95.2679 107.189C95.0776 107.103 94.9082 106.977 94.7713 106.82L79.942 89.785L65.1054 106.82C64.9685 106.977 64.7991 107.103 64.6088 107.189C64.4184 107.275 64.2116 107.32 64.0023 107.32H55.1137C54.8337 107.32 54.5597 107.24 54.3243 107.089C54.089 106.939 53.9024 106.724 53.7868 106.471C53.6712 106.219 53.6315 105.938 53.6725 105.663C53.7135 105.389 53.8334 105.132 54.018 104.923L72.6461 83.8298V75.787C72.6461 75.4038 72.7996 75.0363 73.0729 74.7654C73.3461 74.4945 73.7168 74.3423 74.1032 74.3423H85.7939C86.1803 74.3423 86.551 74.4945 86.8242 74.7654C87.0975 75.0363 87.251 75.4038 87.251 75.787V83.733L105.875 104.924C106.059 105.133 106.178 105.391 106.218 105.665C106.258 105.939 106.218 106.22 106.103 106.472C105.987 106.724 105.8 106.938 105.565 107.088C105.33 107.239 105.056 107.318 104.776 107.318V107.32ZM96.5476 104.43H101.572L84.6894 85.2298C84.4582 84.9667 84.3309 84.6295 84.3309 84.2806V77.2317H75.5531V84.3673C75.553 84.7176 75.4246 85.0559 75.1917 85.3193L58.3195 104.43H63.3349L78.8389 86.6297C78.9799 86.4795 79.1507 86.3596 79.3404 86.2777C79.5302 86.1958 79.735 86.1535 79.942 86.1535C80.149 86.1535 80.3538 86.1958 80.5435 86.2777C80.7333 86.3596 80.904 86.4795 81.0451 86.6297L96.5476 104.43Z" fill="black"/>
<path d="M84.3309 77.2317H75.5531V84.3673C75.553 84.7176 75.4246 85.0559 75.1917 85.3193L58.3195 104.43H63.3349L78.8389 86.6297C78.9799 86.4795 79.1507 86.3596 79.3404 86.2777C79.5302 86.1958 79.735 86.1535 79.942 86.1535C80.149 86.1535 80.3538 86.1958 80.5435 86.2777C80.7333 86.3596 80.904 86.4795 81.0451 86.6297L96.5476 104.43H101.572L84.6894 85.2298C84.4582 84.9667 84.3309 84.6295 84.3309 84.2806V77.2317Z" fill="black"/>
</svg>
