<svg width="110" height="100" viewBox="0 0 110 100" fill="none" xmlns="http://www.w3.org/2000/svg">
<path d="M108.789 54.14C108.422 53.4704 107.88 52.913 107.222 52.5273C106.563 52.1416 105.812 51.9421 105.049 51.95H5.16861C4.40532 51.9421 3.6542 52.1416 2.99549 52.5273C2.33678 52.913 1.7952 53.4704 1.42861 54.14C1.09631 54.7579 0.94102 55.4555 0.979838 56.156C1.01866 56.8564 1.25008 57.5326 1.64861 58.11L4.41861 62.21C5.01232 63.069 5.80796 63.7691 6.73559 64.2486C7.66323 64.7281 8.69445 64.9724 9.73861 64.96H18.5686C11.6186 69.09 11.5986 77.18 11.5986 77.28L11.7286 83.41H10.6186C9.55815 83.4113 8.54151 83.8332 7.79165 84.583C7.04179 85.3329 6.61994 86.3495 6.61861 87.41V95.08C6.61861 96.1409 7.04004 97.1583 7.79018 97.9084C8.54033 98.6586 9.55775 99.08 10.6186 99.08H38.5586C39.6195 99.08 40.6369 98.6586 41.387 97.9084C42.1372 97.1583 42.5586 96.1409 42.5586 95.08V87.41C42.5573 86.3495 42.1354 85.3329 41.3856 84.583C40.6357 83.8332 39.6191 83.4113 38.5586 83.41H37.8186C38.4386 81.62 40.4386 78.27 46.7386 78.27C56.7186 78.27 71.5586 76.34 78.1286 73.22C82.0566 71.0946 85.5829 68.2992 88.5486 64.96H100.479C101.524 64.9727 102.556 64.7275 103.484 64.246C104.412 63.7646 105.207 63.0619 105.799 62.2L108.569 58.11C108.967 57.5326 109.199 56.8564 109.237 56.156C109.276 55.4555 109.121 54.7579 108.789 54.14ZM38.5586 85.41C39.0886 85.4116 39.5963 85.6228 39.9711 85.9975C40.3458 86.3723 40.557 86.88 40.5586 87.41V95.08C40.557 95.6099 40.3458 96.1177 39.9711 96.4924C39.5963 96.8672 39.0886 97.0784 38.5586 97.08H10.6186C10.0882 97.08 9.57947 96.8693 9.2044 96.4942C8.82933 96.1191 8.61861 95.6104 8.61861 95.08V87.41C8.61861 86.8796 8.82933 86.3708 9.2044 85.9958C9.57947 85.6207 10.0882 85.41 10.6186 85.41H38.5586ZM87.4986 63.18C87.4186 63.27 87.3386 63.35 87.2686 63.44C84.4497 66.6875 81.0606 69.392 77.2686 71.42C70.9486 74.42 56.5086 76.27 46.7386 76.27C38.5586 76.27 36.3186 81.31 35.7486 83.41H13.7186L13.5986 77.26C13.5986 76.71 13.6686 65.47 26.8986 64.64C32.8986 64.26 41.3486 64.57 49.5186 64.86C61.4286 65.29 71.7186 65.66 75.1586 64.14C75.8186 63.85 76.4986 63.54 77.1986 63.23C81.8686 61.13 87.6686 58.52 89.9986 59.19C90.0086 59.88 89.0386 61.4 87.4986 63.18ZM106.909 56.99L104.149 61.08C103.737 61.6696 103.188 62.1493 102.548 62.4771C101.908 62.8049 101.197 62.9707 100.479 62.96H90.1886C91.3486 61.39 92.0486 59.98 91.9886 58.98C91.9797 58.606 91.8531 58.2443 91.6269 57.9463C91.4008 57.6483 91.0864 57.4292 90.7286 57.32C87.7391 56.3102 81.9605 58.8991 76.3814 61.3988C76.3805 61.3992 76.3795 61.3996 76.3786 61.4C75.6886 61.71 75.0086 62.02 74.3486 62.31C71.3286 63.64 60.2786 63.25 49.5986 62.86C49.4636 62.8552 49.3284 62.8505 49.1932 62.8457C41.1 62.56 32.7782 62.2662 26.7686 62.64C25.8766 62.6956 24.9884 62.8025 24.1086 62.96H9.73861C9.01978 62.9707 8.3093 62.8049 7.66945 62.4771C7.0296 62.1493 6.47993 61.6696 6.06861 61.08L3.30861 56.99C3.11337 56.7138 2.99955 56.3884 2.9801 56.0507C2.96066 55.7131 3.03636 55.3767 3.19861 55.08C3.39161 54.729 3.67752 54.4378 4.02501 54.2385C4.3725 54.0392 4.76816 53.9394 5.16861 53.95H105.049C105.449 53.9394 105.845 54.0392 106.192 54.2385C106.54 54.4378 106.826 54.729 107.019 55.08C107.181 55.3767 107.257 55.7131 107.237 56.0507C107.218 56.3884 107.104 56.7138 106.909 56.99Z" fill="black"/>
<path d="M43.7206 44.2C43.1211 44.1984 42.5292 44.0661 41.986 43.8124C41.4429 43.5586 40.9615 43.1896 40.5756 42.7309C40.1896 42.2722 39.9082 41.7348 39.7511 41.1563C39.5939 40.5778 39.5647 39.9719 39.6656 39.381L41.2846 29.937C41.3428 29.5983 41.3176 29.2505 41.2114 28.9236C41.1051 28.5968 40.9209 28.3007 40.6746 28.061L33.8136 21.37C33.2631 20.8336 32.8736 20.1539 32.6894 19.4077C32.5051 18.6615 32.5333 17.8786 32.7709 17.1477C33.0084 16.4167 33.4458 15.7668 34.0336 15.2715C34.6213 14.7762 35.3359 14.4552 36.0966 14.345L45.5796 12.967C45.9202 12.9178 46.2438 12.7866 46.5225 12.5847C46.8012 12.3829 47.0267 12.1163 47.1796 11.808L51.4206 3.21499C51.7604 2.52551 52.2863 1.9449 52.939 1.5389C53.5917 1.1329 54.345 0.917725 55.1136 0.917725C55.8823 0.917725 56.6356 1.1329 57.2882 1.5389C57.9409 1.9449 58.4669 2.52551 58.8066 3.21499L63.0476 11.808C63.1999 12.1158 63.4246 12.382 63.7024 12.5839C63.9802 12.7857 64.3028 12.9172 64.6426 12.967L74.1256 14.345C74.8863 14.4552 75.6009 14.7762 76.1886 15.2715C76.7764 15.7668 77.2138 16.4167 77.4513 17.1477C77.6889 17.8786 77.7171 18.6615 77.5329 19.4077C77.3486 20.1539 76.9591 20.8336 76.4086 21.37L69.5476 28.058C69.3014 28.2977 69.1171 28.5938 69.0109 28.9206C68.9046 29.2475 68.8795 29.5953 68.9376 29.934L70.5566 39.378C70.6868 40.1355 70.6024 40.9144 70.313 41.6265C70.0235 42.3385 69.5406 42.9553 68.9187 43.4072C68.2969 43.859 67.561 44.1277 66.7943 44.183C66.0277 44.2383 65.2608 44.0779 64.5806 43.72L56.0986 39.261C55.7948 39.1014 55.4568 39.018 55.1136 39.018C54.7704 39.018 54.4324 39.1014 54.1286 39.261L45.6416 43.72C45.0499 44.0339 44.3905 44.1986 43.7206 44.2ZM55.1086 2.91799C54.7122 2.91334 54.3227 3.02214 53.986 3.23156C53.6494 3.44099 53.3796 3.74231 53.2086 4.09999L48.9676 12.693C48.6722 13.2915 48.2356 13.8093 47.6956 14.2016C47.1555 14.5939 46.5282 14.849 45.8676 14.945L36.3846 16.323C35.9929 16.3792 35.6247 16.544 35.3218 16.7987C35.0189 17.0535 34.7935 17.388 34.6711 17.7643C34.5487 18.1407 34.5341 18.5438 34.6291 18.928C34.7241 19.3122 34.9249 19.6621 35.2086 19.938L42.0696 26.626C42.5478 27.092 42.9053 27.6673 43.1114 28.3023C43.3175 28.9374 43.366 29.613 43.2526 30.271L41.6336 39.716C41.5671 40.1057 41.6108 40.5062 41.7599 40.8723C41.909 41.2385 42.1575 41.5556 42.4773 41.788C42.7971 42.0203 43.1756 42.1586 43.5698 42.1873C43.9641 42.2159 44.3586 42.1337 44.7086 41.95L53.1896 37.491C53.7808 37.1801 54.4387 37.0177 55.1066 37.0177C55.7745 37.0177 56.4324 37.1801 57.0236 37.491L65.5086 41.95C65.8587 42.1337 66.2531 42.2159 66.6474 42.1873C67.0417 42.1586 67.4201 42.0203 67.7399 41.788C68.0598 41.5556 68.3082 41.2385 68.4573 40.8723C68.6064 40.5062 68.6502 40.1057 68.5836 39.716L66.9646 30.271C66.8512 29.613 66.8997 28.9374 67.1058 28.3023C67.3119 27.6673 67.6695 27.092 68.1476 26.626L75.0086 19.938C75.2923 19.6623 75.4931 19.3126 75.5882 18.9287C75.6834 18.5447 75.6691 18.1417 75.547 17.7655C75.4249 17.3892 75.1999 17.0546 74.8974 16.7997C74.5949 16.5448 74.2271 16.3796 73.8356 16.323L64.3526 14.945C63.692 14.849 63.0647 14.5939 62.5247 14.2016C61.9846 13.8093 61.5481 13.2915 61.2526 12.693L57.0086 4.09999C56.8376 3.74231 56.5678 3.44099 56.2312 3.23156C55.8946 3.02214 55.5051 2.91334 55.1086 2.91799Z" fill="black"/>
<path d="M98.8406 43.836C98.4245 43.8345 98.015 43.7315 97.6476 43.536L93.4086 41.31C93.3283 41.2676 93.2389 41.2454 93.1481 41.2454C93.0573 41.2454 92.9679 41.2676 92.8876 41.31L88.6476 43.539C88.2247 43.7617 87.748 43.8615 87.2713 43.8271C86.7946 43.7928 86.3371 43.6256 85.9505 43.3446C85.5639 43.0636 85.2638 42.6799 85.0841 42.2371C84.9043 41.7942 84.8522 41.3099 84.9336 40.839L85.7436 36.117C85.7586 36.0279 85.7519 35.9364 85.7241 35.8504C85.6962 35.7644 85.648 35.6864 85.5836 35.623L82.1516 32.277C81.81 31.9436 81.5685 31.5213 81.4542 31.0578C81.34 30.5943 81.3576 30.1081 81.5051 29.6541C81.6526 29.2001 81.924 28.7964 82.2888 28.4886C82.6537 28.1807 83.0973 27.981 83.5696 27.912L88.3116 27.224C88.4013 27.2104 88.4863 27.1754 88.5596 27.1219C88.6329 27.0685 88.6922 26.9982 88.7326 26.917L90.8526 22.617C91.0639 22.1887 91.3908 21.828 91.7964 21.5758C92.202 21.3237 92.67 21.19 93.1476 21.19C93.6252 21.19 94.0933 21.3237 94.4988 21.5758C94.9044 21.828 95.2313 22.1887 95.4426 22.617L97.5626 26.917C97.6033 26.9983 97.663 27.0687 97.7366 27.1221C97.8102 27.1756 97.8956 27.2105 97.9856 27.224L102.726 27.912C103.198 27.9805 103.642 28.1799 104.007 28.4877C104.373 28.7954 104.644 29.1992 104.792 29.6534C104.94 30.1075 104.957 30.594 104.843 31.0576C104.728 31.5213 104.487 31.9436 104.145 32.277L100.709 35.624C100.643 35.6879 100.594 35.7668 100.566 35.854C100.538 35.9411 100.532 36.0338 100.548 36.124L101.358 40.845C101.42 41.2123 101.402 41.5889 101.304 41.9485C101.207 42.3081 101.032 42.642 100.792 42.9271C100.552 43.2122 100.252 43.4416 99.9148 43.5992C99.5772 43.7569 99.2092 43.839 98.8366 43.84L98.8406 43.836ZM93.1466 23.2C93.0422 23.199 92.9397 23.2278 92.8511 23.2831C92.7625 23.3383 92.6916 23.4178 92.6466 23.512L90.5266 27.812C90.3431 28.184 90.072 28.5058 89.7364 28.7497C89.4009 28.9936 89.0111 29.1523 88.6006 29.212L83.8586 29.901C83.7553 29.9161 83.6582 29.9598 83.5784 30.0272C83.4986 30.0945 83.4392 30.1829 83.407 30.2822C83.3747 30.3815 83.3709 30.4879 83.3959 30.5893C83.421 30.6907 83.4739 30.7831 83.5486 30.856L86.9796 34.2C87.277 34.4894 87.4993 34.8469 87.6274 35.2415C87.7554 35.6362 87.7854 36.0561 87.7146 36.465L86.9086 41.179C86.8909 41.282 86.9023 41.3878 86.9416 41.4846C86.9809 41.5815 87.0465 41.6654 87.1309 41.7268C87.2154 41.7883 87.3154 41.825 87.4196 41.8326C87.5238 41.8402 87.6281 41.8185 87.7206 41.77L91.9606 39.54C92.3278 39.3464 92.7366 39.2453 93.1516 39.2453C93.5667 39.2453 93.9755 39.3464 94.3426 39.54L98.5836 41.77C98.6761 41.8185 98.7804 41.8402 98.8846 41.8326C98.9888 41.825 99.0888 41.7883 99.1733 41.7268C99.2578 41.6654 99.3233 41.5815 99.3626 41.4846C99.4019 41.3878 99.4134 41.282 99.3956 41.179L98.5856 36.457C98.5152 36.0476 98.5456 35.6272 98.6742 35.2322C98.8028 34.8372 99.0257 34.4795 99.3236 34.19L102.753 30.848C102.827 30.775 102.88 30.6825 102.905 30.5811C102.93 30.4796 102.926 30.3732 102.894 30.2738C102.862 30.1745 102.802 30.0861 102.722 30.0188C102.642 29.9515 102.545 29.9079 102.442 29.893L97.7016 29.204C97.2908 29.1444 96.9007 28.9859 96.5648 28.742C96.2289 28.4981 95.9574 28.1762 95.7736 27.804L93.6536 23.504C93.6071 23.4101 93.5346 23.3315 93.4447 23.2776C93.3548 23.2237 93.2514 23.1968 93.1466 23.2Z" fill="black"/>
<path d="M11.3766 43.836C11.004 43.835 10.636 43.7529 10.2984 43.5952C9.96073 43.4376 9.66151 43.2082 9.42154 42.9231C9.18157 42.6381 9.00663 42.3041 8.90889 41.9445C8.81115 41.5849 8.79297 41.2083 8.85561 40.841L9.66561 36.119C9.68099 36.03 9.67445 35.9386 9.64657 35.8527C9.6187 35.7668 9.57031 35.689 9.50561 35.626L6.07361 32.279C5.73165 31.9457 5.48976 31.5234 5.37529 31.0598C5.26083 30.5962 5.27835 30.1099 5.42588 29.6557C5.57341 29.2016 5.84506 28.7978 6.21012 28.49C6.57518 28.1822 7.01907 27.9827 7.49161 27.914L12.2336 27.226C12.3234 27.2124 12.4086 27.1773 12.482 27.1239C12.5555 27.0705 12.615 27.0002 12.6556 26.919L14.7756 22.619C14.9869 22.1907 15.3138 21.83 15.7194 21.5778C16.125 21.3257 16.593 21.192 17.0706 21.192C17.5482 21.192 18.0163 21.3257 18.4218 21.5778C18.8274 21.83 19.1543 22.1907 19.3656 22.619L21.4856 26.919C21.5261 27.0003 21.5856 27.0707 21.659 27.1241C21.7325 27.1776 21.8178 27.2125 21.9076 27.226L26.6476 27.914C27.1202 27.9825 27.5643 28.1819 27.9294 28.4897C28.2946 28.7974 28.5664 29.2012 28.7141 29.6554C28.8617 30.1095 28.8793 30.596 28.7649 31.0596C28.6505 31.5233 28.4086 31.9456 28.0666 32.279L24.6356 35.624C24.5709 35.6875 24.5225 35.7656 24.4945 35.8518C24.4664 35.9379 24.4596 36.0296 24.4746 36.119L25.2846 40.841C25.3659 41.3118 25.3137 41.7959 25.134 42.2386C24.9543 42.6813 24.6543 43.0649 24.2679 43.3458C23.8815 43.6268 23.4241 43.794 22.9476 43.8285C22.4711 43.863 21.9945 43.7634 21.5716 43.541L17.3306 41.31C17.2505 41.2676 17.1612 41.2455 17.0706 41.2455C16.98 41.2455 16.8907 41.2676 16.8106 41.31L12.5686 43.539C12.2014 43.7336 11.7922 43.8356 11.3766 43.836ZM17.0706 39.245C17.4861 39.2469 17.8948 39.3498 18.2616 39.545L22.5026 41.775C22.5951 41.8232 22.6993 41.8447 22.8033 41.8369C22.9073 41.8292 23.0071 41.7925 23.0915 41.7311C23.1758 41.6696 23.2412 41.5859 23.2805 41.4892C23.3198 41.3925 23.3312 41.2868 23.3136 41.184L22.5086 36.457C22.4378 36.0479 22.4678 35.6277 22.5961 35.2329C22.7243 34.838 22.9469 34.4804 23.2446 34.191L26.6746 30.848C26.7494 30.775 26.8023 30.6825 26.8272 30.5811C26.8522 30.4796 26.8483 30.3732 26.816 30.2738C26.7836 30.1745 26.7241 30.0861 26.6441 30.0188C26.5642 29.9515 26.467 29.9079 26.3636 29.893L21.6236 29.204C21.2129 29.1444 20.8229 28.9859 20.4872 28.742C20.1515 28.4981 19.8802 28.1761 19.6966 27.804L17.5766 23.504C17.5299 23.4114 17.4585 23.3336 17.3702 23.2793C17.2819 23.225 17.1803 23.1962 17.0766 23.1962C16.9729 23.1962 16.8713 23.225 16.783 23.2793C16.6948 23.3336 16.6233 23.4114 16.5766 23.504L14.4566 27.804C14.2729 28.176 14.0015 28.4979 13.6659 28.7418C13.3302 28.9856 12.9402 29.1443 12.5296 29.204L7.78761 29.893C7.68428 29.9081 7.58722 29.9518 7.50741 30.0192C7.42761 30.0865 7.36823 30.1749 7.33598 30.2742C7.30374 30.3735 7.29991 30.4799 7.32494 30.5813C7.34997 30.6827 7.40285 30.7751 7.47761 30.848L10.9086 34.192C11.2062 34.4812 11.4287 34.8387 11.5567 35.2334C11.6848 35.6281 11.7146 36.0481 11.6436 36.457L10.8346 41.179C10.8166 41.2819 10.8278 41.3878 10.8669 41.4847C10.9061 41.5816 10.9716 41.6656 11.056 41.7271C11.1405 41.7886 11.2405 41.8253 11.3447 41.8329C11.4489 41.8404 11.5532 41.8187 11.6456 41.77L15.8876 39.54C16.2524 39.3478 16.6583 39.2466 17.0706 39.245Z" fill="black"/>
<path d="M106.909 56.99L104.149 61.08C103.737 61.6696 103.188 62.1493 102.548 62.4771C101.908 62.8049 101.197 62.9707 100.479 62.96H90.1886C91.3486 61.39 92.0486 59.98 91.9886 58.98C91.9797 58.606 91.8531 58.2443 91.6269 57.9463C91.4008 57.6483 91.0864 57.4292 90.7286 57.32C87.7391 56.3102 81.9605 58.8991 76.3814 61.3988L76.3786 61.4C75.6886 61.71 75.0086 62.02 74.3486 62.31C71.3286 63.64 60.2786 63.25 49.5986 62.86L49.1932 62.8457C41.1 62.56 32.7782 62.2662 26.7686 62.64C25.8766 62.6956 24.9884 62.8025 24.1086 62.96H9.73861C9.01978 62.9707 8.3093 62.8049 7.66945 62.4771C7.0296 62.1493 6.47993 61.6696 6.06861 61.08L3.30861 56.99C3.11337 56.7138 2.99955 56.3884 2.9801 56.0507C2.96066 55.7131 3.03636 55.3767 3.19861 55.08C3.39161 54.729 3.67752 54.4378 4.02501 54.2385C4.3725 54.0392 4.76816 53.9394 5.16861 53.95H105.049C105.449 53.9394 105.845 54.0392 106.192 54.2385C106.54 54.4378 106.826 54.729 107.019 55.08C107.181 55.3767 107.257 55.7131 107.237 56.0507C107.218 56.3884 107.104 56.7138 106.909 56.99Z" fill="black"/>
<path d="M76.3786 61.4C75.6886 61.71 75.0086 62.02 74.3486 62.31C71.3286 63.64 60.2786 63.25 49.5986 62.86M76.3786 61.4L76.3814 61.3988M76.3786 61.4C76.3795 61.3996 76.3805 61.3992 76.3814 61.3988M49.5986 62.86L49.1932 62.8457M49.5986 62.86C49.4636 62.8552 49.3284 62.8505 49.1932 62.8457M76.3814 61.3988C81.9605 58.8991 87.7391 56.3102 90.7286 57.32C91.0864 57.4292 91.4008 57.6483 91.6269 57.9463C91.8531 58.2443 91.9797 58.606 91.9886 58.98C92.0486 59.98 91.3486 61.39 90.1886 62.96H100.479C101.197 62.9707 101.908 62.8049 102.548 62.4771C103.188 62.1493 103.737 61.6696 104.149 61.08L106.909 56.99C107.104 56.7138 107.218 56.3884 107.237 56.0507C107.257 55.7131 107.181 55.3767 107.019 55.08C106.826 54.7289 106.54 54.4378 106.192 54.2385C105.845 54.0392 105.449 53.9394 105.049 53.95H5.16861C4.76816 53.9394 4.3725 54.0392 4.02501 54.2385C3.67752 54.4378 3.39161 54.7289 3.19861 55.08C3.03636 55.3767 2.96066 55.7131 2.9801 56.0507C2.99955 56.3884 3.11337 56.7138 3.30861 56.99L6.06861 61.08C6.47993 61.6696 7.0296 62.1493 7.66945 62.4771C8.3093 62.8049 9.01978 62.9707 9.73861 62.96H24.1086C24.9884 62.8025 25.8766 62.6956 26.7686 62.64C32.7782 62.2662 41.1 62.56 49.1932 62.8457M108.789 54.14C108.422 53.4704 107.88 52.913 107.222 52.5273C106.563 52.1416 105.812 51.9421 105.049 51.95H5.16861C4.40532 51.9421 3.6542 52.1416 2.99549 52.5273C2.33678 52.913 1.7952 53.4704 1.42861 54.14C1.09631 54.7579 0.94102 55.4555 0.979838 56.156C1.01866 56.8564 1.25008 57.5326 1.64861 58.11L4.41861 62.21C5.01232 63.069 5.80796 63.7691 6.73559 64.2486C7.66323 64.7281 8.69445 64.9724 9.73861 64.96H18.5686C11.6186 69.09 11.5986 77.18 11.5986 77.28L11.7286 83.41H10.6186C9.55815 83.4113 8.54151 83.8332 7.79165 84.583C7.04179 85.3329 6.61994 86.3495 6.61861 87.41V95.08C6.61861 96.1409 7.04004 97.1583 7.79018 97.9084C8.54033 98.6586 9.55775 99.08 10.6186 99.08H38.5586C39.6195 99.08 40.6369 98.6586 41.387 97.9084C42.1372 97.1583 42.5586 96.1409 42.5586 95.08V87.41C42.5573 86.3495 42.1354 85.3329 41.3856 84.583C40.6357 83.8332 39.6191 83.4113 38.5586 83.41H37.8186C38.4386 81.62 40.4386 78.27 46.7386 78.27C56.7186 78.27 71.5586 76.34 78.1286 73.22C82.0566 71.0946 85.5829 68.2992 88.5486 64.96H100.479C101.524 64.9727 102.556 64.7275 103.484 64.246C104.412 63.7646 105.207 63.0619 105.799 62.2L108.569 58.11C108.967 57.5326 109.199 56.8564 109.237 56.156C109.276 55.4555 109.121 54.7579 108.789 54.14ZM38.5586 85.41C39.0886 85.4116 39.5963 85.6228 39.9711 85.9975C40.3458 86.3723 40.557 86.88 40.5586 87.41V95.08C40.557 95.6099 40.3458 96.1177 39.9711 96.4924C39.5963 96.8672 39.0886 97.0784 38.5586 97.08H10.6186C10.0882 97.08 9.57947 96.8693 9.2044 96.4942C8.82933 96.1191 8.61861 95.6104 8.61861 95.08V87.41C8.61861 86.8796 8.82933 86.3708 9.2044 85.9958C9.57947 85.6207 10.0882 85.41 10.6186 85.41H38.5586ZM87.4986 63.18C87.4186 63.27 87.3386 63.35 87.2686 63.44C84.4497 66.6875 81.0606 69.392 77.2686 71.42C70.9486 74.42 56.5086 76.27 46.7386 76.27C38.5586 76.27 36.3186 81.31 35.7486 83.41H13.7186L13.5986 77.26C13.5986 76.71 13.6686 65.47 26.8986 64.64C32.8986 64.26 41.3486 64.57 49.5186 64.86C61.4286 65.29 71.7186 65.66 75.1586 64.14C75.8186 63.85 76.4986 63.54 77.1986 63.23C81.8686 61.13 87.6686 58.52 89.9986 59.19C90.0086 59.88 89.0386 61.4 87.4986 63.18ZM43.7206 44.2C43.1211 44.1984 42.5292 44.0661 41.986 43.8124C41.4429 43.5586 40.9615 43.1896 40.5756 42.7309C40.1896 42.2722 39.9082 41.7348 39.7511 41.1563C39.5939 40.5778 39.5647 39.9719 39.6656 39.381L41.2846 29.937C41.3428 29.5983 41.3176 29.2505 41.2114 28.9236C41.1051 28.5968 40.9209 28.3007 40.6746 28.061L33.8136 21.37C33.2631 20.8336 32.8736 20.1539 32.6894 19.4077C32.5051 18.6615 32.5333 17.8786 32.7709 17.1477C33.0084 16.4167 33.4458 15.7668 34.0336 15.2715C34.6213 14.7762 35.3359 14.4552 36.0966 14.345L45.5796 12.967C45.9202 12.9178 46.2438 12.7866 46.5225 12.5847C46.8012 12.3829 47.0267 12.1163 47.1796 11.808L51.4206 3.21499C51.7604 2.52551 52.2863 1.9449 52.939 1.5389C53.5917 1.1329 54.345 0.917725 55.1136 0.917725C55.8823 0.917725 56.6356 1.1329 57.2882 1.5389C57.9409 1.9449 58.4669 2.52551 58.8066 3.21499L63.0476 11.808C63.1999 12.1158 63.4246 12.382 63.7024 12.5839C63.9802 12.7857 64.3028 12.9172 64.6426 12.967L74.1256 14.345C74.8863 14.4552 75.6009 14.7762 76.1886 15.2715C76.7764 15.7668 77.2138 16.4167 77.4513 17.1477C77.6889 17.8786 77.7171 18.6615 77.5329 19.4077C77.3486 20.1539 76.9591 20.8336 76.4086 21.37L69.5476 28.058C69.3014 28.2977 69.1171 28.5938 69.0109 28.9206C68.9046 29.2475 68.8795 29.5953 68.9376 29.934L70.5566 39.378C70.6868 40.1355 70.6024 40.9144 70.313 41.6265C70.0235 42.3385 69.5405 42.9553 68.9187 43.4072C68.2969 43.859 67.561 44.1277 66.7943 44.183C66.0277 44.2383 65.2608 44.0779 64.5806 43.72L56.0986 39.261C55.7948 39.1014 55.4568 39.018 55.1136 39.018C54.7704 39.018 54.4324 39.1014 54.1286 39.261L45.6416 43.72C45.0499 44.0339 44.3905 44.1986 43.7206 44.2ZM55.1086 2.91799C54.7122 2.91334 54.3227 3.02214 53.986 3.23156C53.6494 3.44099 53.3796 3.74231 53.2086 4.09999L48.9676 12.693C48.6722 13.2915 48.2356 13.8093 47.6956 14.2016C47.1555 14.5939 46.5282 14.849 45.8676 14.945L36.3846 16.323C35.9929 16.3792 35.6247 16.544 35.3218 16.7987C35.0189 17.0535 34.7935 17.388 34.6711 17.7643C34.5487 18.1407 34.5341 18.5438 34.6291 18.928C34.7241 19.3122 34.9249 19.6621 35.2086 19.938L42.0696 26.626C42.5478 27.092 42.9053 27.6673 43.1114 28.3023C43.3175 28.9374 43.366 29.613 43.2526 30.271L41.6336 39.716C41.5671 40.1057 41.6108 40.5062 41.7599 40.8723C41.909 41.2385 42.1575 41.5556 42.4773 41.788C42.7971 42.0203 43.1756 42.1586 43.5698 42.1873C43.9641 42.2159 44.3586 42.1337 44.7086 41.95L53.1896 37.491C53.7808 37.1801 54.4387 37.0177 55.1066 37.0177C55.7745 37.0177 56.4324 37.1801 57.0236 37.491L65.5086 41.95C65.8587 42.1337 66.2531 42.2159 66.6474 42.1873C67.0417 42.1586 67.4201 42.0203 67.7399 41.788C68.0598 41.5556 68.3082 41.2385 68.4573 40.8723C68.6064 40.5062 68.6502 40.1057 68.5836 39.716L66.9646 30.271C66.8512 29.613 66.8997 28.9374 67.1058 28.3023C67.3119 27.6673 67.6695 27.092 68.1476 26.626L75.0086 19.938C75.2923 19.6623 75.4931 19.3126 75.5882 18.9287C75.6834 18.5447 75.6691 18.1417 75.547 17.7655C75.4249 17.3892 75.1999 17.0546 74.8974 16.7997C74.5949 16.5448 74.2271 16.3796 73.8356 16.323L64.3526 14.945C63.692 14.849 63.0647 14.5939 62.5247 14.2016C61.9846 13.8093 61.5481 13.2915 61.2526 12.693L57.0086 4.09999C56.8376 3.74231 56.5678 3.44099 56.2312 3.23156C55.8946 3.02214 55.5051 2.91334 55.1086 2.91799ZM98.8406 43.836C98.4245 43.8345 98.015 43.7315 97.6476 43.536L93.4086 41.31C93.3283 41.2676 93.2389 41.2454 93.1481 41.2454C93.0573 41.2454 92.9679 41.2676 92.8876 41.31L88.6476 43.539C88.2247 43.7617 87.748 43.8615 87.2713 43.8271C86.7946 43.7928 86.3371 43.6256 85.9505 43.3446C85.5639 43.0636 85.2638 42.6799 85.0841 42.2371C84.9043 41.7942 84.8522 41.3099 84.9336 40.839L85.7436 36.117C85.7586 36.0278 85.7519 35.9364 85.7241 35.8504C85.6962 35.7644 85.648 35.6864 85.5836 35.623L82.1516 32.277C81.81 31.9436 81.5685 31.5213 81.4542 31.0578C81.34 30.5943 81.3576 30.1081 81.5051 29.6541C81.6526 29.2001 81.924 28.7964 82.2888 28.4886C82.6537 28.1807 83.0973 27.981 83.5696 27.912L88.3116 27.224C88.4013 27.2104 88.4863 27.1754 88.5596 27.1219C88.6329 27.0685 88.6922 26.9982 88.7326 26.917L90.8526 22.617C91.0639 22.1887 91.3908 21.828 91.7964 21.5758C92.202 21.3237 92.67 21.19 93.1476 21.19C93.6252 21.19 94.0933 21.3237 94.4988 21.5758C94.9044 21.828 95.2313 22.1887 95.4426 22.617L97.5626 26.917C97.6033 26.9983 97.663 27.0687 97.7366 27.1221C97.8102 27.1756 97.8956 27.2105 97.9856 27.224L102.726 27.912C103.198 27.9805 103.642 28.1799 104.007 28.4877C104.373 28.7954 104.644 29.1992 104.792 29.6534C104.94 30.1075 104.957 30.594 104.843 31.0576C104.728 31.5213 104.487 31.9436 104.145 32.277L100.709 35.624C100.643 35.6879 100.594 35.7668 100.566 35.854C100.538 35.9411 100.532 36.0338 100.548 36.124L101.358 40.845C101.42 41.2123 101.402 41.5889 101.304 41.9485C101.207 42.3081 101.032 42.642 100.792 42.9271C100.552 43.2122 100.252 43.4416 99.9148 43.5992C99.5772 43.7569 99.2092 43.839 98.8366 43.84L98.8406 43.836ZM93.1466 23.2C93.0422 23.199 92.9397 23.2278 92.8511 23.2831C92.7625 23.3383 92.6916 23.4178 92.6466 23.512L90.5266 27.812C90.3431 28.184 90.072 28.5058 89.7364 28.7497C89.4009 28.9936 89.0111 29.1523 88.6006 29.212L83.8586 29.901C83.7553 29.9161 83.6582 29.9598 83.5784 30.0272C83.4986 30.0945 83.4392 30.1829 83.407 30.2822C83.3747 30.3815 83.3709 30.4879 83.3959 30.5893C83.421 30.6907 83.4739 30.7831 83.5486 30.856L86.9796 34.2C87.277 34.4894 87.4993 34.8469 87.6274 35.2415C87.7554 35.6362 87.7854 36.0561 87.7146 36.465L86.9086 41.179C86.8909 41.282 86.9023 41.3878 86.9416 41.4846C86.9809 41.5815 87.0465 41.6654 87.1309 41.7268C87.2154 41.7883 87.3154 41.825 87.4196 41.8326C87.5238 41.8402 87.6281 41.8185 87.7206 41.77L91.9606 39.54C92.3278 39.3464 92.7366 39.2453 93.1516 39.2453C93.5667 39.2453 93.9755 39.3464 94.3426 39.54L98.5836 41.77C98.6761 41.8185 98.7804 41.8402 98.8846 41.8326C98.9888 41.825 99.0888 41.7883 99.1733 41.7268C99.2578 41.6654 99.3234 41.5815 99.3626 41.4846C99.4019 41.3878 99.4134 41.282 99.3956 41.179L98.5856 36.457C98.5152 36.0476 98.5456 35.6272 98.6742 35.2322C98.8028 34.8372 99.0257 34.4795 99.3236 34.19L102.753 30.848C102.827 30.775 102.88 30.6825 102.905 30.5811C102.93 30.4796 102.926 30.3732 102.894 30.2738C102.862 30.1745 102.802 30.0861 102.722 30.0188C102.642 29.9515 102.545 29.9079 102.442 29.893L97.7016 29.204C97.2908 29.1444 96.9007 28.9859 96.5648 28.742C96.2289 28.4981 95.9574 28.1762 95.7736 27.804L93.6536 23.504C93.6071 23.4101 93.5346 23.3315 93.4447 23.2776C93.3548 23.2237 93.2514 23.1968 93.1466 23.2ZM11.3766 43.836C11.004 43.835 10.636 43.7529 10.2984 43.5952C9.96073 43.4376 9.66151 43.2082 9.42154 42.9231C9.18157 42.6381 9.00663 42.3041 8.90889 41.9445C8.81115 41.5849 8.79297 41.2083 8.85561 40.841L9.66561 36.119C9.68099 36.03 9.67445 35.9386 9.64657 35.8527C9.6187 35.7668 9.57031 35.689 9.50561 35.626L6.07361 32.279C5.73165 31.9457 5.48976 31.5234 5.37529 31.0598C5.26083 30.5962 5.27835 30.1099 5.42588 29.6557C5.57341 29.2016 5.84506 28.7978 6.21012 28.49C6.57518 28.1822 7.01907 27.9827 7.49161 27.914L12.2336 27.226C12.3234 27.2124 12.4086 27.1773 12.482 27.1239C12.5555 27.0705 12.615 27.0002 12.6556 26.919L14.7756 22.619C14.9869 22.1907 15.3138 21.83 15.7194 21.5778C16.125 21.3257 16.593 21.192 17.0706 21.192C17.5482 21.192 18.0163 21.3257 18.4218 21.5778C18.8274 21.83 19.1543 22.1907 19.3656 22.619L21.4856 26.919C21.5261 27.0003 21.5856 27.0707 21.659 27.1241C21.7325 27.1776 21.8178 27.2125 21.9076 27.226L26.6476 27.914C27.1202 27.9825 27.5643 28.1819 27.9294 28.4897C28.2946 28.7974 28.5664 29.2012 28.7141 29.6554C28.8617 30.1095 28.8793 30.596 28.7649 31.0596C28.6505 31.5233 28.4086 31.9456 28.0666 32.279L24.6356 35.624C24.5709 35.6874 24.5225 35.7656 24.4945 35.8518C24.4664 35.9379 24.4596 36.0296 24.4746 36.119L25.2846 40.841C25.3659 41.3118 25.3137 41.7959 25.134 42.2386C24.9543 42.6813 24.6543 43.0649 24.2679 43.3458C23.8815 43.6268 23.4241 43.794 22.9476 43.8285C22.4711 43.863 21.9945 43.7634 21.5716 43.541L17.3306 41.31C17.2505 41.2676 17.1612 41.2455 17.0706 41.2455C16.98 41.2455 16.8907 41.2676 16.8106 41.31L12.5686 43.539C12.2014 43.7336 11.7922 43.8356 11.3766 43.836ZM17.0706 39.245C17.4861 39.2469 17.8948 39.3498 18.2616 39.545L22.5026 41.775C22.5951 41.8232 22.6993 41.8447 22.8033 41.8369C22.9073 41.8292 23.0071 41.7925 23.0915 41.7311C23.1758 41.6696 23.2412 41.5859 23.2805 41.4892C23.3198 41.3925 23.3312 41.2868 23.3136 41.184L22.5086 36.457C22.4378 36.0479 22.4678 35.6277 22.5961 35.2329C22.7243 34.838 22.9469 34.4804 23.2446 34.191L26.6746 30.848C26.7494 30.775 26.8023 30.6825 26.8272 30.5811C26.8522 30.4796 26.8483 30.3732 26.816 30.2738C26.7836 30.1745 26.7241 30.0861 26.6441 30.0188C26.5642 29.9515 26.467 29.9079 26.3636 29.893L21.6236 29.204C21.2129 29.1444 20.8229 28.9859 20.4872 28.742C20.1515 28.4981 19.8802 28.1761 19.6966 27.804L17.5766 23.504C17.5299 23.4114 17.4585 23.3336 17.3702 23.2793C17.2819 23.225 17.1803 23.1962 17.0766 23.1962C16.9729 23.1962 16.8713 23.225 16.783 23.2793C16.6948 23.3336 16.6233 23.4114 16.5766 23.504L14.4566 27.804C14.2729 28.176 14.0015 28.4979 13.6659 28.7418C13.3302 28.9856 12.9402 29.1443 12.5296 29.204L7.78761 29.893C7.68428 29.9081 7.58722 29.9518 7.50741 30.0192C7.42761 30.0865 7.36823 30.1749 7.33598 30.2742C7.30374 30.3735 7.29991 30.4799 7.32494 30.5813C7.34997 30.6827 7.40285 30.7751 7.47761 30.848L10.9086 34.192C11.2062 34.4812 11.4287 34.8387 11.5567 35.2334C11.6848 35.6281 11.7146 36.0481 11.6436 36.457L10.8346 41.179C10.8166 41.2819 10.8278 41.3878 10.8669 41.4847C10.9061 41.5816 10.9716 41.6656 11.056 41.7271C11.1405 41.7886 11.2405 41.8253 11.3447 41.8329C11.4489 41.8404 11.5532 41.8187 11.6456 41.77L15.8876 39.54C16.2524 39.3478 16.6583 39.2466 17.0706 39.245Z" stroke="black"/>
</svg>
