<svg width="81" height="115" viewBox="0 0 81 115" fill="none" xmlns="http://www.w3.org/2000/svg">
<path d="M36.014 55.9931C37.2053 57.1846 38.8207 57.855 40.5056 57.8571C42.1908 57.8553 43.8064 57.185 44.998 55.9935C46.1895 54.8019 46.8598 53.1863 46.8616 51.5011C46.8616 51.2359 46.7563 50.9816 46.5687 50.794C46.3812 50.6065 46.1269 50.5011 45.8616 50.5011C45.5964 50.5011 45.3421 50.6065 45.1545 50.794C44.967 50.9816 44.8616 51.2359 44.8616 51.5011C44.8704 52.0787 44.7642 52.6521 44.5492 53.1883C44.3343 53.7244 44.0148 54.2124 43.6095 54.6239C43.2042 55.0354 42.7211 55.3621 42.1883 55.5852C41.6556 55.8083 41.0837 55.9231 40.5061 55.9231C39.9285 55.9231 39.3567 55.8083 38.8239 55.5852C38.2911 55.3621 37.808 55.0354 37.4027 54.6239C36.9974 54.2124 36.678 53.7244 36.463 53.1883C36.2481 52.6521 36.1419 52.0787 36.1506 51.5011C36.1506 51.2359 36.0453 50.9816 35.8577 50.794C35.6702 50.6065 35.4159 50.5011 35.1506 50.5011C34.8854 50.5011 34.6311 50.6065 34.4435 50.794C34.256 50.9816 34.1506 51.2359 34.1506 51.5011C34.1525 53.1861 34.8226 54.8015 36.014 55.9931Z" fill="black"/>
<path fill-rule="evenodd" clip-rule="evenodd" d="M56.3186 68.5141H60.9186C66.0649 68.5192 70.999 70.5658 74.638 74.2047C78.277 77.8437 80.3236 82.7778 80.3286 87.9241V110.084C80.3273 111.145 79.9055 112.161 79.1556 112.911C78.4057 113.661 77.3891 114.083 76.3286 114.084H4.10864C3.04818 114.083 2.03154 113.661 1.28168 112.911C0.531818 112.161 0.109966 111.145 0.108643 110.084V87.9241C0.113673 82.7778 2.16026 77.8437 5.79926 74.2047C9.43825 70.5658 14.3723 68.5192 19.5186 68.5141H24.1186V67.8441C24.1131 67.1285 24.2982 66.4243 24.655 65.8039C25.0118 65.1835 25.5273 64.6693 26.1486 64.3141C26.7172 63.9917 27.3627 63.8297 28.0161 63.8456C28.6695 63.8614 29.3064 64.0545 29.8586 64.4041L33.1486 66.4341V64.1341C29.8311 63.1025 26.7771 61.3629 24.1977 59.0355C21.6182 56.7081 19.5748 53.8485 18.2086 50.6541C16.4359 50.4556 14.7994 49.6083 13.6141 48.2753C12.4288 46.9423 11.7786 45.2179 11.7886 43.4341V42.1941C11.7888 41.511 11.9728 40.8405 12.3211 40.2529C12.6695 39.6653 13.1694 39.1821 13.7686 38.8541C12.2348 34.9622 11.5788 30.7798 11.8473 26.6052C12.1158 22.4306 13.3022 18.3667 15.3219 14.7034C17.3417 11.0401 20.145 7.86761 23.5318 5.4123C26.9187 2.95698 30.8056 1.27932 34.9154 0.499002C39.0252 -0.281321 43.2566 -0.14508 47.3077 0.898006C51.3587 1.94109 55.1297 3.86532 58.3516 6.53342C61.5735 9.20153 64.1669 12.5478 65.9468 16.3334C67.7267 20.1191 68.6493 24.2509 68.6486 28.4341C68.6291 31.9991 67.9581 35.5305 66.6686 38.8541C67.2679 39.1821 67.7678 39.6653 68.1162 40.2529C68.4645 40.8405 68.6484 41.511 68.6486 42.1941V43.4341C68.6587 45.2179 68.0085 46.9423 66.8232 48.2753C65.6379 49.6083 64.0013 50.4556 62.2286 50.6541C60.8625 53.8485 58.8191 56.7081 56.2396 59.0355C53.6602 61.3629 50.6062 63.1025 47.2886 64.1341V66.4241L50.5786 64.3941V64.4041C51.1309 64.0545 51.7677 63.8614 52.4212 63.8456C53.0746 63.8297 53.7201 63.9917 54.2886 64.3141C54.91 64.6693 55.4255 65.1835 55.7823 65.8039C56.1391 66.4243 56.3242 67.1285 56.3186 67.8441V68.5141ZM52.567 65.894C52.2411 65.8795 51.9172 65.952 51.6286 66.1041L43.5186 71.1041V72.9641L51.6286 77.9641C51.8798 78.1247 52.1701 78.2133 52.4681 78.2203C52.766 78.2274 53.0602 78.1526 53.3186 78.0041C53.6301 77.8224 53.8872 77.5605 54.0631 77.2457C54.2389 76.9309 54.3272 76.5746 54.3186 76.2141V67.8441C54.3391 67.5186 54.2724 67.1934 54.1255 66.9021C53.9787 66.6108 53.7569 66.3639 53.483 66.1867C53.209 66.0096 52.8929 65.9085 52.567 65.894ZM41.5186 73.5741V70.4941C41.5142 69.9306 41.2884 69.3914 40.8899 68.9929C40.4914 68.5944 39.9522 68.3686 39.3886 68.3641C39.0472 68.362 38.7105 68.4444 38.4086 68.6041C38.0737 68.7982 37.7923 69.0726 37.5898 69.4026C37.3873 69.7325 37.2701 70.1076 37.2486 70.4941V73.5741C37.2554 73.8587 37.3129 74.1398 37.4186 74.4041C37.5926 74.7833 37.8694 75.1062 38.2177 75.336C38.5659 75.5658 38.9716 75.6933 39.3886 75.7041C39.9498 75.6921 40.4846 75.4639 40.8815 75.067C41.2784 74.6701 41.5067 74.1353 41.5186 73.5741ZM37.4624 66.8523C38.056 66.5373 38.7167 66.3698 39.3886 66.3641C40.0058 66.3584 40.6161 66.4943 41.1725 66.7613C41.729 67.0282 42.2169 67.4192 42.5986 67.9041C42.8232 68.2379 43.0269 68.5852 43.2086 68.9441L43.2186 68.9341L45.2886 67.6641V64.7941C43.6414 65.0383 41.9812 65.1859 40.3166 65.2361C38.3406 65.1871 35.1486 64.7941 35.1486 64.7941V67.6641L35.9686 68.1641V68.1741H35.9786C36.3599 67.6208 36.8688 67.1674 37.4624 66.8523ZM65.662 46.5236C66.3086 45.6237 66.654 44.5422 66.6486 43.4341V42.1941C66.6486 41.7141 66.4579 41.2537 66.1185 40.9143C65.7791 40.5748 65.3187 40.3841 64.8386 40.3841H64.1486C64.1486 40.3841 64.1156 43.1841 63.9886 44.0041C63.8144 45.5102 63.4997 46.9967 63.0486 48.4441C64.1006 48.0957 65.0153 47.4235 65.662 46.5236ZM13.7886 42.1941V43.4341C13.7833 44.5422 14.1287 45.6237 14.7753 46.5236C15.4219 47.4235 16.3367 48.0957 17.3886 48.4441C17.1007 47.4132 16.902 46.5461 16.7806 46.0162C16.7355 45.8193 16.701 45.669 16.6766 45.5741C16.4529 44.1509 16.3233 42.7144 16.2886 41.2741V40.3841H15.5986C15.361 40.3841 15.1256 40.4309 14.906 40.5219C14.6864 40.6129 14.4869 40.7462 14.3188 40.9143C14.1507 41.0823 14.0174 41.2819 13.9264 41.5015C13.8355 41.7211 13.7886 41.9564 13.7886 42.1941ZM13.8442 26.6336C13.5793 30.5085 14.1714 34.3941 15.5786 38.0141C15.7367 37.9906 16.2876 37.9006 16.9978 37.7845C18.3995 37.5554 20.4217 37.2249 21.2686 37.1041C41.1736 34.2581 47.0936 27.3211 51.4786 22.0641L52.4786 20.6641L53.1986 22.2241C53.2386 22.3241 57.6686 31.8641 61.3786 35.7841C62.3357 36.7964 63.5891 37.4792 64.9586 37.7341C66.0503 34.7537 66.6219 31.608 66.6486 28.4341C66.6482 24.5502 65.7919 20.7141 64.1406 17.1987C62.4894 13.6834 60.0837 10.575 57.0948 8.09494C54.1058 5.61482 50.6071 3.82385 46.8474 2.84942C43.0877 1.87499 39.1595 1.74105 35.3422 2.45712C31.5249 3.1732 27.9123 4.72169 24.7613 6.99245C21.6104 9.26321 18.9986 12.2004 17.1117 15.5952C15.2248 18.9899 14.1092 22.7588 13.8442 26.6336ZM18.7886 45.9341C19.0667 47.0906 19.414 48.2293 19.8286 49.3441C21.217 52.7567 23.4283 55.7727 26.2655 58.123C29.1026 60.4733 32.4773 62.085 36.0886 62.8141C38.8228 63.2738 41.6145 63.2738 44.3486 62.8141C47.9649 62.0972 51.3454 60.4901 54.1844 58.1382C57.0234 55.7863 59.2314 52.7639 60.6086 49.3441C60.8924 48.6722 61.1264 47.9803 61.3086 47.2741C62.3686 44.2631 62.1486 38.7941 62.1486 38.7941C61.3034 38.4015 60.5453 37.8439 59.9186 37.1541C56.8586 33.9241 53.5086 27.4441 52.0786 24.5241C47.7777 29.8719 41.965 33.7993 35.3986 35.7941C29.8294 37.6095 24.1003 38.8919 18.2886 39.6241C18.1962 41.74 18.3641 43.8592 18.7886 45.9341ZM26.3744 66.8169C26.1984 67.1301 26.1101 67.485 26.1186 67.8441V76.2141C26.1101 76.5746 26.1983 76.9309 26.3742 77.2457C26.5501 77.5605 26.8072 77.8224 27.1186 78.0041C27.3771 78.1526 27.6713 78.2274 27.9692 78.2203C28.2672 78.2133 28.5575 78.1247 28.8086 77.9641L32.7686 75.5141H32.7786L35.2686 73.9841L35.2786 73.9741C35.2586 73.8341 35.2586 70.2341 35.2786 70.0941V70.0841H35.2686V70.0741L33.1486 68.7741L28.8086 66.1041C28.5502 65.9644 28.2622 65.8879 27.9685 65.8809C27.6747 65.874 27.3835 65.9368 27.1186 66.0641C26.8075 66.2437 26.5504 66.5037 26.3744 66.8169ZM35.9686 75.8941C35.9686 75.8941 29.6486 79.7841 29.5386 79.8341L40.2186 99.8741L50.8986 79.8341C50.7886 79.7841 43.2186 75.1241 43.2186 75.1241C42.9373 75.8177 42.473 76.4219 41.8752 76.8723C41.2774 77.3226 40.5686 77.6022 39.8243 77.6813C39.0801 77.7603 38.3283 77.6358 37.6493 77.3211C36.9702 77.0063 36.3894 76.5131 35.9686 75.8941ZM56.2897 90.9201H71.2897C72.0853 90.9201 72.8484 90.6041 73.411 90.0415C73.9736 89.4789 74.2897 88.7158 74.2897 87.9201V85.7781C74.2897 84.9825 73.9736 84.2194 73.411 83.6568C72.8484 83.0942 72.0853 82.7781 71.2897 82.7781H56.2897C55.494 82.7781 54.731 83.0942 54.1684 83.6568C53.6057 84.2194 53.2897 84.9825 53.2897 85.7781V87.9201C53.2897 88.7158 53.6057 89.4789 54.1684 90.0415C54.731 90.6041 55.494 90.9201 56.2897 90.9201Z" fill="black"/>
</svg>
