<svg width="118" height="115" viewBox="0 0 118 115" fill="none" xmlns="http://www.w3.org/2000/svg">
<path d="M112.303 31.89H100.813C100.784 31.6633 100.717 31.4433 100.613 31.24C100.219 30.491 99.6279 29.8639 98.9035 29.4268C98.179 28.9896 97.3487 28.759 96.5026 28.76C96.5026 28.76 96.0026 28.881 95.9926 28.55V19.73C95.9953 19.6848 96.0138 19.642 96.0449 19.6091C96.076 19.5762 96.1176 19.5553 96.1626 19.55C98.3871 19.0358 100.37 17.7788 101.784 15.9864C103.199 14.194 103.96 11.9731 103.943 9.69V3.61C103.943 2.91951 103.669 2.25716 103.182 1.76798C102.694 1.27879 102.033 1.00265 101.343 1H86.2326C85.5405 1.00053 84.877 1.27568 84.3876 1.76504C83.8983 2.25439 83.6231 2.91795 83.6226 3.61V9.69C83.6203 11.967 84.3876 14.178 85.7998 15.9642C87.212 17.7504 89.1864 19.007 91.4026 19.53C91.4495 19.537 91.4928 19.5595 91.5254 19.5939C91.558 19.6284 91.5782 19.6728 91.5826 19.72V28.55C91.5826 28.881 91.0626 28.76 91.0626 28.76C89.8369 28.7835 88.6653 29.2693 87.7826 30.12C87.2758 30.5968 86.921 31.2125 86.7626 31.89H73.3126L74.4426 30.64C74.848 30.1995 75.1107 29.6468 75.1964 29.0543C75.2821 28.4618 75.1866 27.8573 74.9226 27.32C74.6628 26.7834 74.2494 26.3362 73.7347 26.0353C73.2201 25.7343 72.6276 25.5933 72.0326 25.63L71.1126 25.69C71.1292 25.5842 71.1359 25.4771 71.1326 25.37C71.1299 23.9413 70.5612 22.5719 69.551 21.5616C68.5407 20.5514 67.1713 19.9826 65.7426 19.98C65.1244 19.9809 64.5113 20.0926 63.9326 20.31C63.4331 19.6078 62.7722 19.036 62.0056 18.6426C61.2389 18.2493 60.3889 18.0461 59.5272 18.05C58.6655 18.0539 57.8174 18.2649 57.0543 18.6652C56.2913 19.0655 55.6356 19.6433 55.1426 20.35C54.5256 20.1035 53.867 19.9779 53.2026 19.98C51.7739 19.9826 50.4044 20.5514 49.3942 21.5616C48.3839 22.5719 47.8152 23.9413 47.8126 25.37C47.8126 25.5 47.8226 25.63 47.8326 25.76C47.1726 25.71 46.5326 25.67 45.9126 25.63C45.3168 25.5925 44.7233 25.7337 44.2082 26.0354C43.693 26.3371 43.2796 26.7856 43.0208 27.3236C42.762 27.8616 42.6697 28.4646 42.7555 29.0553C42.8413 29.6461 43.1014 30.1979 43.5026 30.64L44.6326 31.89H31.1826C31.1544 31.6633 31.0867 31.4433 30.9826 31.24C30.5911 30.4914 30.0019 29.8644 29.2791 29.4272C28.5562 28.99 27.7274 28.7592 26.8826 28.76C26.8826 28.76 26.3566 28.881 26.3626 28.55V19.73C26.3658 19.6833 26.3859 19.6394 26.4189 19.6063C26.452 19.5733 26.4959 19.5533 26.5426 19.55C28.7662 19.0341 30.7481 17.7767 32.1621 15.9847C33.5761 14.1926 34.338 11.9727 34.3226 9.69V3.61C34.322 2.91795 34.0469 2.25439 33.5575 1.76504C33.0682 1.27568 32.4046 1.00053 31.7126 1H16.6026C15.9121 1.00265 15.2508 1.27879 14.7635 1.76798C14.2762 2.25716 14.0026 2.91951 14.0026 3.61V9.69C13.9978 11.9677 14.7641 14.1799 16.1768 15.9666C17.5894 17.7533 19.5652 19.0093 21.7826 19.53C21.8276 19.5391 21.8685 19.5625 21.8991 19.5968C21.9298 19.631 21.9485 19.6742 21.9526 19.72V28.55C21.9636 28.868 21.4426 28.76 21.4426 28.76C20.8329 28.757 20.2287 28.8757 19.6655 29.1093C19.1022 29.3428 18.5913 29.6864 18.1626 30.12C17.6617 30.603 17.305 31.2159 17.1326 31.89H5.64258C4.31715 31.8921 3.0466 32.4196 2.10938 33.3568C1.17216 34.294 0.644694 35.5646 0.642578 36.89V46.14C0.642578 47.4661 1.16936 48.7379 2.10704 49.6755C3.04473 50.6132 4.3165 51.14 5.64258 51.14H10.9726V111.39C10.9726 112.186 11.2886 112.949 11.8513 113.511C12.4139 114.074 13.1769 114.39 13.9726 114.39H103.973C104.768 114.39 105.531 114.074 106.094 113.511C106.657 112.949 106.973 112.186 106.973 111.39V51.14H112.303C113.629 51.14 114.9 50.6132 115.838 49.6755C116.776 48.7379 117.303 47.4661 117.303 46.14V36.89C117.3 35.5646 116.773 34.294 115.836 33.3568C114.899 32.4196 113.628 31.8921 112.303 31.89ZM89.2026 31.53C89.4462 31.2849 89.7361 31.0906 90.0554 30.9585C90.3746 30.8263 90.717 30.7588 91.0626 30.76H91.3726C91.9586 30.7597 92.5206 30.5268 92.935 30.1124C93.3494 29.698 93.5823 29.136 93.5826 28.55V19.72C93.582 19.2178 93.4088 18.7311 93.092 18.3415C92.7752 17.9519 92.3341 17.683 91.8426 17.58C90.0679 17.1591 88.4877 16.1506 87.3585 14.7183C86.2293 13.2859 85.6176 11.5139 85.6226 9.69V3.61C85.6231 3.44838 85.6875 3.29353 85.8018 3.17925C85.9161 3.06496 86.071 3.00053 86.2326 3H101.343C101.422 2.99999 101.501 3.01583 101.575 3.04661C101.648 3.07739 101.715 3.12248 101.77 3.17926C101.826 3.23604 101.87 3.30336 101.9 3.37732C101.929 3.45127 101.944 3.53037 101.943 3.61V9.69C101.963 11.5144 101.361 13.2912 100.235 14.7274C99.1101 16.1635 97.5289 17.1733 95.7526 17.59C95.2567 17.6876 94.8101 17.9543 94.4891 18.3446C94.1681 18.7349 93.9926 19.2246 93.9926 19.73V28.55C93.9923 29.1345 94.2237 29.6952 94.636 30.1095C95.0484 30.5237 95.6081 30.7576 96.1926 30.76H96.5026C96.929 30.7571 97.3497 30.8586 97.7279 31.0556C98.1061 31.2525 98.4304 31.539 98.6726 31.89H88.8926C88.985 31.761 89.0888 31.6406 89.2026 31.53ZM64.9426 23.44C64.946 22.9976 64.8888 22.5568 64.7726 22.13C65.0863 22.0307 65.4135 21.9801 65.7426 21.98C66.2284 21.9699 66.7105 22.0666 67.1549 22.2631C67.5993 22.4596 67.9952 22.7513 68.3146 23.1174C68.634 23.4836 68.8693 23.9154 69.0037 24.3823C69.1381 24.8493 69.1685 25.34 69.0926 25.82C67.2726 25.94 65.6526 26.03 64.2326 26.1C64.7061 25.2941 64.9515 24.3746 64.9426 23.44ZM56.5726 21.83C56.8596 21.2955 57.2854 20.8482 57.805 20.5351C58.3246 20.222 58.919 20.0545 59.5257 20.0505C60.1324 20.0464 60.729 20.2057 61.2528 20.5118C61.7766 20.8179 62.2083 21.2594 62.5026 21.79C62.9305 22.5608 63.0451 23.4669 62.8226 24.32C62.6169 25.1037 62.129 25.7839 61.4526 26.23C61.4426 26.23 59.6326 26.29 58.9726 26.29C58.6483 26.29 58.2554 26.2814 57.8336 26.2722C57.8001 26.2715 57.7664 26.2707 57.7326 26.27H57.7126C57.5982 26.1971 57.491 26.1134 57.3926 26.02C56.7907 25.5254 56.3797 24.8368 56.2301 24.0723C56.0805 23.3078 56.2015 22.515 56.5726 21.83ZM53.2026 21.98C53.5815 21.9806 53.9573 22.0483 54.3126 22.18C54.2239 22.5945 54.1737 23.0163 54.1626 23.44C54.1632 24.3976 54.4223 25.3374 54.9126 26.16C53.4926 26.1 51.8026 26 49.8626 25.89C49.8315 25.7183 49.8148 25.5444 49.8126 25.37C49.8134 24.4712 50.1708 23.6094 50.8064 22.9738C51.4419 22.3382 52.3037 21.9808 53.2026 21.98ZM44.8226 28.19C44.9015 28.0231 45.026 27.882 45.1817 27.7829C45.3374 27.6838 45.518 27.6308 45.7026 27.63C45.7026 27.63 47.4726 27.74 48.3626 27.8L49.0226 27.84C50.7526 27.95 52.3026 28.03 53.6526 28.1C53.9926 28.12 57.7726 28.27 57.7726 28.27C58.8106 28.307 61.8126 28.22 61.8126 28.22C64.6356 28.085 70.6126 27.73 70.6126 27.73C71.1426 27.7 71.6626 27.67 72.1626 27.63C72.3609 27.6182 72.5582 27.6658 72.7294 27.7667C72.9006 27.8675 73.0378 28.017 73.1237 28.1962C73.2095 28.3754 73.24 28.5761 73.2113 28.7727C73.1826 28.9692 73.096 29.1528 72.9626 29.3L71.2026 31.24C71.0156 31.4466 70.7872 31.6112 70.5321 31.7233C70.277 31.8353 70.0012 31.8921 69.7226 31.89H48.2226C47.944 31.8921 47.6681 31.8353 47.4131 31.7233C47.158 31.6112 46.9295 31.4466 46.7426 31.24L44.9826 29.3C44.846 29.1533 44.7576 28.9684 44.729 28.77C44.7004 28.5717 44.733 28.3693 44.8226 28.19ZM19.5726 31.53C19.8176 31.284 20.1091 31.0892 20.4302 30.957C20.7512 30.8248 21.0954 30.7578 21.4426 30.76H21.7526C22.3371 30.7576 22.8968 30.5237 23.3091 30.1095C23.7215 29.6952 23.9528 29.1345 23.9526 28.55V19.72C23.952 19.2178 23.7788 18.7311 23.462 18.3415C23.1452 17.9519 22.7041 17.683 22.2126 17.58C20.439 17.1586 18.8601 16.1497 17.7326 14.7172C16.6051 13.2847 15.9954 11.5129 16.0026 9.69V3.61C16.0013 3.53037 16.0158 3.45127 16.0453 3.37732C16.0749 3.30336 16.1189 3.23604 16.1747 3.17926C16.2306 3.12248 16.2972 3.07739 16.3706 3.04661C16.4441 3.01583 16.5229 2.99999 16.6026 3H31.7126C31.8742 3.00053 32.029 3.06496 32.1433 3.17925C32.2576 3.29353 32.3221 3.44838 32.3226 3.61V9.69C32.3409 11.5154 31.7367 13.2926 30.6097 14.7286C29.4827 16.1647 27.9 17.1739 26.1226 17.59C25.6267 17.6876 25.1801 17.9543 24.8591 18.3446C24.5381 18.7349 24.3626 19.2246 24.3626 19.73V28.55C24.3628 29.136 24.5958 29.698 25.0102 30.1124C25.4246 30.5268 25.9865 30.7597 26.5726 30.76H26.8826C27.3088 30.7583 27.729 30.8603 28.107 31.0572C28.4851 31.254 28.8096 31.5399 29.0526 31.89H19.2726C19.3615 31.7612 19.4619 31.6407 19.5726 31.53ZM26.3726 112.39C26.6083 111.17 27.261 110.07 28.2188 109.278C29.1766 108.486 30.3799 108.052 31.6226 108.05H38.7926C40.0337 108.054 41.235 108.489 42.1908 109.28C43.1467 110.072 43.7977 111.171 44.0326 112.39H26.3726ZM34.2626 73.5H36.1426V106.05H34.2626V73.5ZM22.4226 71.5C21.5792 71.5 20.7703 71.165 20.174 70.5686C19.5776 69.9722 19.2426 69.1634 19.2426 68.32C19.2426 67.4766 19.5776 66.6678 20.174 66.0714C20.7703 65.475 21.5792 65.14 22.4226 65.14H47.9826C48.826 65.14 49.6348 65.475 50.2312 66.0714C50.8275 66.6678 51.1626 67.4766 51.1626 68.32C51.1626 69.1634 50.8275 69.9722 50.2312 70.5686C49.6348 71.165 48.826 71.5 47.9826 71.5H22.4226ZM73.9126 112.39C74.1474 111.171 74.7985 110.072 75.7543 109.28C76.7102 108.489 77.9115 108.054 79.1526 108.05H86.3226C87.5653 108.052 88.7686 108.486 89.7264 109.278C90.6842 110.07 91.3368 111.17 91.5726 112.39H73.9126ZM81.8026 73.5H83.6826V106.05H81.8026V73.5ZM69.9626 71.5C69.1192 71.5 68.3103 71.165 67.714 70.5686C67.1176 69.9722 66.7826 69.1634 66.7826 68.32C66.7826 67.4766 67.1176 66.6678 67.714 66.0714C68.3103 65.475 69.1192 65.14 69.9626 65.14H95.5226C96.366 65.14 97.1748 65.475 97.7712 66.0714C98.3675 66.6678 98.7026 67.4766 98.7026 68.32C98.7026 69.1634 98.3675 69.9722 97.7712 70.5686C97.1748 71.165 96.366 71.5 95.5226 71.5H69.9626ZM104.973 111.39C104.973 111.655 104.867 111.91 104.68 112.097C104.492 112.285 104.238 112.39 103.973 112.39H93.5826C93.342 110.635 92.4744 109.026 91.1399 107.86C89.8054 106.695 88.0943 106.052 86.3226 106.05H85.6826V73.5H95.5226C96.8964 73.5 98.214 72.9542 99.1854 71.9828C100.157 71.0114 100.703 69.6938 100.703 68.32C100.703 66.9462 100.157 65.6286 99.1854 64.6572C98.214 63.6857 96.8964 63.14 95.5226 63.14H69.9626C68.5888 63.14 67.2712 63.6857 66.2998 64.6572C65.3283 65.6286 64.7826 66.9462 64.7826 68.32C64.7826 69.6938 65.3283 71.0114 66.2998 71.9828C67.2712 72.9542 68.5888 73.5 69.9626 73.5H79.8026V106.05H79.1526C77.3813 106.053 75.6709 106.697 74.3368 107.862C73.0026 109.027 72.1345 110.635 71.8926 112.39H46.0526C45.8106 110.635 44.9426 109.027 43.6084 107.862C42.2742 106.697 40.5639 106.053 38.7926 106.05H38.1426V73.5H47.9826C49.3564 73.5 50.674 72.9542 51.6454 71.9828C52.6168 71.0114 53.1626 69.6938 53.1626 68.32C53.1626 66.9462 52.6168 65.6286 51.6454 64.6572C50.674 63.6857 49.3564 63.14 47.9826 63.14H22.4226C21.0488 63.14 19.7312 63.6857 18.7598 64.6572C17.7883 65.6286 17.2426 66.9462 17.2426 68.32C17.2426 69.6938 17.7883 71.0114 18.7598 71.9828C19.7312 72.9542 21.0488 73.5 22.4226 73.5H32.2626V106.05H31.6226C29.8509 106.052 28.1397 106.695 26.8053 107.86C25.4708 109.026 24.6031 110.635 24.3626 112.39H13.9726C13.7074 112.39 13.453 112.285 13.2655 112.097C13.0779 111.91 12.9726 111.655 12.9726 111.39V51.14H104.973V111.39ZM115.303 46.14C115.303 46.9356 114.987 47.6987 114.424 48.2613C113.861 48.8239 113.098 49.14 112.303 49.14H5.64258C4.84693 49.14 4.08387 48.8239 3.52126 48.2613C2.95865 47.6987 2.64258 46.9356 2.64258 46.14V36.89C2.64495 36.0951 2.96178 35.3334 3.52388 34.7713C4.08598 34.2092 4.84766 33.8924 5.64258 33.89H112.303C113.098 33.8924 113.859 34.2092 114.421 34.7713C114.983 35.3334 115.3 36.0951 115.303 36.89V46.14Z" fill="black"/>
<path d="M69.9626 71.5C69.1192 71.5 68.3103 71.165 67.714 70.5686C67.1176 69.9722 66.7826 69.1634 66.7826 68.32C66.7826 67.4766 67.1176 66.6678 67.714 66.0714C68.3103 65.475 69.1192 65.14 69.9626 65.14H95.5226C96.366 65.14 97.1748 65.475 97.7712 66.0714C98.3675 66.6678 98.7026 67.4766 98.7026 68.32C98.7026 69.1634 98.3675 69.9722 97.7712 70.5686C97.1748 71.165 96.366 71.5 95.5226 71.5H69.9626Z" fill="black"/>
<path d="M22.4226 71.5C21.5792 71.5 20.7703 71.165 20.174 70.5686C19.5776 69.9722 19.2426 69.1634 19.2426 68.32C19.2426 67.4766 19.5776 66.6678 20.174 66.0714C20.7703 65.475 21.5792 65.14 22.4226 65.14H47.9826C48.826 65.14 49.6348 65.475 50.2312 66.0714C50.8275 66.6678 51.1626 67.4766 51.1626 68.32C51.1626 69.1634 50.8275 69.9722 50.2312 70.5686C49.6348 71.165 48.826 71.5 47.9826 71.5H22.4226Z" fill="black"/>
<path d="M115.303 46.14C115.303 46.9356 114.987 47.6987 114.424 48.2613C113.861 48.8239 113.098 49.14 112.303 49.14H5.64258C4.84693 49.14 4.08387 48.8239 3.52126 48.2613C2.95865 47.6987 2.64258 46.9356 2.64258 46.14V36.89C2.64495 36.0951 2.96178 35.3334 3.52388 34.7713C4.08598 34.2092 4.84766 33.8924 5.64258 33.89H112.303C113.098 33.8924 113.859 34.2092 114.421 34.7713C114.983 35.3334 115.3 36.0951 115.303 36.89V46.14Z" fill="black"/>
<path d="M19.5726 31.53C19.8176 31.284 20.1091 31.0892 20.4302 30.957C20.7512 30.8248 21.0954 30.7578 21.4426 30.76H21.7526C22.3371 30.7576 22.8968 30.5237 23.3091 30.1095C23.7215 29.6952 23.9528 29.1345 23.9526 28.55V19.72C23.952 19.2178 23.7788 18.7311 23.462 18.3415C23.1452 17.9519 22.7041 17.683 22.2126 17.58C20.439 17.1586 18.8601 16.1497 17.7326 14.7172C16.6051 13.2847 15.9954 11.5129 16.0026 9.69V3.61C16.0013 3.53037 16.0158 3.45127 16.0453 3.37732C16.0749 3.30336 16.1189 3.23604 16.1747 3.17926C16.2306 3.12248 16.2972 3.07739 16.3706 3.04661C16.4441 3.01583 16.5229 2.99999 16.6026 3H31.7126C31.8742 3.00053 32.029 3.06496 32.1433 3.17925C32.2576 3.29353 32.3221 3.44838 32.3226 3.61V9.69C32.3409 11.5154 31.7367 13.2926 30.6097 14.7286C29.4827 16.1647 27.9 17.1739 26.1226 17.59C25.6267 17.6876 25.1801 17.9543 24.8591 18.3446C24.5381 18.7349 24.3626 19.2246 24.3626 19.73V28.55C24.3628 29.136 24.5958 29.698 25.0102 30.1124C25.4246 30.5268 25.9865 30.7597 26.5726 30.76H26.8826C27.3088 30.7583 27.729 30.8603 28.107 31.0572C28.4851 31.254 28.8096 31.5399 29.0526 31.89H19.2726C19.3615 31.7612 19.4619 31.6407 19.5726 31.53Z" fill="black"/>
<path d="M89.2026 31.53C89.4462 31.2849 89.7361 31.0906 90.0554 30.9585C90.3746 30.8263 90.717 30.7588 91.0626 30.76H91.3726C91.9586 30.7597 92.5206 30.5268 92.935 30.1124C93.3494 29.698 93.5823 29.136 93.5826 28.55V19.72C93.582 19.2178 93.4088 18.7311 93.092 18.3415C92.7752 17.9519 92.3341 17.683 91.8426 17.58C90.0679 17.1591 88.4877 16.1506 87.3585 14.7183C86.2293 13.2859 85.6176 11.5139 85.6226 9.69V3.61C85.6231 3.44838 85.6875 3.29353 85.8018 3.17925C85.9161 3.06496 86.071 3.00053 86.2326 3H101.343C101.422 2.99999 101.501 3.01583 101.575 3.04661C101.648 3.07739 101.715 3.12248 101.77 3.17926C101.826 3.23604 101.87 3.30336 101.9 3.37732C101.929 3.45127 101.944 3.53037 101.943 3.61V9.69C101.963 11.5144 101.361 13.2912 100.235 14.7274C99.1101 16.1635 97.5289 17.1733 95.7526 17.59C95.2567 17.6876 94.8101 17.9543 94.4891 18.3446C94.1681 18.7349 93.9926 19.2246 93.9926 19.73V28.55C93.9923 29.1345 94.2237 29.6952 94.636 30.1095C95.0484 30.5237 95.6081 30.7576 96.1926 30.76H96.5026C96.929 30.7571 97.3497 30.8586 97.7279 31.0556C98.1061 31.2525 98.4304 31.539 98.6726 31.89H88.8926C88.985 31.761 89.0888 31.6406 89.2026 31.53Z" fill="black"/>
<path d="M56.5726 21.83C56.8596 21.2955 57.2854 20.8482 57.805 20.5351C58.3246 20.222 58.919 20.0545 59.5257 20.0505C60.1324 20.0464 60.729 20.2057 61.2528 20.5118C61.7766 20.8179 62.2083 21.2594 62.5026 21.79C62.9305 22.5608 63.0451 23.4669 62.8226 24.32C62.6169 25.1037 62.129 25.7839 61.4526 26.23C61.4426 26.23 59.6326 26.29 58.9726 26.29C58.6483 26.29 58.2554 26.2814 57.8336 26.2722L57.7326 26.27H57.7126C57.5982 26.1971 57.491 26.1134 57.3926 26.02C56.7907 25.5254 56.3797 24.8368 56.2301 24.0723C56.0805 23.3078 56.2015 22.515 56.5726 21.83Z" fill="black"/>
<path d="M57.7326 26.27H57.7126C57.5982 26.1971 57.491 26.1134 57.3926 26.02C56.7907 25.5254 56.3797 24.8368 56.2301 24.0723C56.0805 23.3078 56.2015 22.515 56.5726 21.83C56.8596 21.2955 57.2854 20.8482 57.805 20.5351C58.3246 20.222 58.919 20.0545 59.5257 20.0505C60.1324 20.0464 60.729 20.2057 61.2528 20.5118C61.7766 20.8179 62.2083 21.2594 62.5026 21.79C62.9305 22.5608 63.0451 23.4669 62.8226 24.32C62.6169 25.1037 62.129 25.7839 61.4526 26.23C61.4426 26.23 59.6326 26.29 58.9726 26.29C58.6483 26.29 58.2554 26.2814 57.8336 26.2722M57.7326 26.27L57.8336 26.2722M57.7326 26.27C57.7664 26.2707 57.8001 26.2715 57.8336 26.2722M112.303 31.89H100.813C100.784 31.6633 100.717 31.4433 100.613 31.24C100.219 30.491 99.6279 29.8639 98.9035 29.4268C98.179 28.9896 97.3487 28.759 96.5026 28.76C96.5026 28.76 96.0026 28.881 95.9926 28.55V19.73C95.9953 19.6848 96.0138 19.6421 96.0449 19.6091C96.076 19.5762 96.1176 19.5553 96.1626 19.55C98.3871 19.0358 100.37 17.7788 101.784 15.9864C103.199 14.194 103.96 11.9731 103.943 9.69V3.61C103.943 2.91951 103.669 2.25716 103.182 1.76798C102.694 1.27879 102.033 1.00265 101.343 1H86.2326C85.5405 1.00053 84.877 1.27568 84.3876 1.76504C83.8983 2.25439 83.6231 2.91795 83.6226 3.61V9.69C83.6203 11.967 84.3875 14.178 85.7998 15.9642C87.212 17.7504 89.1864 19.007 91.4026 19.53C91.4495 19.537 91.4928 19.5595 91.5254 19.5939C91.558 19.6284 91.5782 19.6728 91.5826 19.72V28.55C91.5826 28.881 91.0626 28.76 91.0626 28.76C89.8369 28.7835 88.6653 29.2693 87.7826 30.12C87.2758 30.5968 86.921 31.2125 86.7626 31.89H73.3126L74.4426 30.64C74.848 30.1995 75.1107 29.6468 75.1964 29.0543C75.282 28.4618 75.1866 27.8573 74.9226 27.32C74.6628 26.7834 74.2493 26.3362 73.7347 26.0353C73.2201 25.7343 72.6276 25.5933 72.0326 25.63L71.1126 25.69C71.1292 25.5842 71.1359 25.4771 71.1326 25.37C71.1299 23.9413 70.5612 22.5719 69.551 21.5616C68.5407 20.5514 67.1713 19.9826 65.7426 19.98C65.1244 19.9809 64.5113 20.0926 63.9326 20.31C63.4331 19.6078 62.7722 19.036 62.0056 18.6426C61.2389 18.2493 60.3889 18.0461 59.5272 18.05C58.6655 18.0539 57.8174 18.2649 57.0543 18.6652C56.2913 19.0655 55.6356 19.6433 55.1426 20.35C54.5256 20.1035 53.867 19.9779 53.2026 19.98C51.7739 19.9826 50.4044 20.5514 49.3942 21.5616C48.3839 22.5719 47.8152 23.9413 47.8126 25.37C47.8126 25.5 47.8226 25.63 47.8326 25.76C47.1726 25.71 46.5326 25.67 45.9126 25.63C45.3168 25.5925 44.7233 25.7337 44.2082 26.0354C43.693 26.3371 43.2796 26.7856 43.0208 27.3236C42.762 27.8616 42.6697 28.4646 42.7555 29.0553C42.8413 29.6461 43.1014 30.1979 43.5026 30.64L44.6326 31.89H31.1826C31.1544 31.6633 31.0867 31.4433 30.9826 31.24C30.5911 30.4914 30.0019 29.8644 29.2791 29.4272C28.5562 28.99 27.7274 28.7592 26.8826 28.76C26.8826 28.76 26.3566 28.881 26.3626 28.55V19.73C26.3658 19.6833 26.3859 19.6394 26.4189 19.6063C26.452 19.5733 26.4959 19.5533 26.5426 19.55C28.7662 19.0341 30.7481 17.7767 32.1621 15.9847C33.5761 14.1926 34.338 11.9727 34.3226 9.69V3.61C34.322 2.91795 34.0469 2.25439 33.5575 1.76504C33.0682 1.27568 32.4046 1.00053 31.7126 1H16.6026C15.9121 1.00265 15.2508 1.27879 14.7635 1.76798C14.2762 2.25716 14.0026 2.91951 14.0026 3.61V9.69C13.9978 11.9677 14.7641 14.1799 16.1768 15.9666C17.5894 17.7533 19.5652 19.0092 21.7826 19.53C21.8276 19.5391 21.8685 19.5625 21.8991 19.5968C21.9298 19.631 21.9485 19.6742 21.9526 19.72V28.55C21.9636 28.868 21.4426 28.76 21.4426 28.76C20.8329 28.757 20.2287 28.8757 19.6655 29.1093C19.1022 29.3428 18.5913 29.6864 18.1626 30.12C17.6617 30.603 17.305 31.2159 17.1326 31.89H5.64258C4.31715 31.8921 3.0466 32.4196 2.10938 33.3568C1.17216 34.294 0.644694 35.5646 0.642578 36.89V46.14C0.642578 47.4661 1.16936 48.7379 2.10704 49.6755C3.04473 50.6132 4.3165 51.14 5.64258 51.14H10.9726V111.39C10.9726 112.186 11.2886 112.949 11.8513 113.511C12.4139 114.074 13.1769 114.39 13.9726 114.39H103.973C104.768 114.39 105.531 114.074 106.094 113.511C106.657 112.949 106.973 112.186 106.973 111.39V51.14H112.303C113.629 51.14 114.9 50.6132 115.838 49.6755C116.776 48.7379 117.303 47.4661 117.303 46.14V36.89C117.3 35.5646 116.773 34.294 115.836 33.3568C114.899 32.4196 113.628 31.8921 112.303 31.89ZM89.2026 31.53C89.4462 31.2849 89.7361 31.0906 90.0554 30.9585C90.3747 30.8263 90.717 30.7588 91.0626 30.76H91.3726C91.9586 30.7597 92.5206 30.5268 92.935 30.1124C93.3494 29.698 93.5823 29.136 93.5826 28.55V19.72C93.582 19.2178 93.4088 18.7311 93.092 18.3415C92.7752 17.9519 92.3341 17.683 91.8426 17.58C90.0679 17.1591 88.4877 16.1506 87.3585 14.7183C86.2293 13.2859 85.6176 11.5139 85.6226 9.69V3.61C85.6231 3.44838 85.6875 3.29353 85.8018 3.17925C85.9161 3.06496 86.071 3.00053 86.2326 3H101.343C101.422 2.99999 101.501 3.01583 101.575 3.04661C101.648 3.07739 101.715 3.12248 101.77 3.17926C101.826 3.23604 101.87 3.30336 101.9 3.37732C101.929 3.45127 101.944 3.53037 101.943 3.61V9.69C101.963 11.5144 101.361 13.2912 100.235 14.7274C99.1101 16.1635 97.5289 17.1733 95.7526 17.59C95.2567 17.6876 94.8101 17.9543 94.4891 18.3446C94.1681 18.7349 93.9926 19.2246 93.9926 19.73V28.55C93.9923 29.1345 94.2237 29.6952 94.636 30.1095C95.0484 30.5237 95.6081 30.7576 96.1926 30.76H96.5026C96.929 30.7571 97.3497 30.8586 97.7279 31.0556C98.1061 31.2525 98.4304 31.539 98.6726 31.89H88.8926C88.985 31.761 89.0888 31.6406 89.2026 31.53ZM64.9426 23.44C64.946 22.9976 64.8888 22.5568 64.7726 22.13C65.0863 22.0307 65.4135 21.9801 65.7426 21.98C66.2284 21.9699 66.7105 22.0666 67.1549 22.2631C67.5993 22.4596 67.9952 22.7513 68.3146 23.1174C68.6341 23.4836 68.8693 23.9154 69.0037 24.3823C69.1381 24.8493 69.1685 25.34 69.0926 25.82C67.2726 25.94 65.6526 26.03 64.2326 26.1C64.7061 25.2941 64.9515 24.3746 64.9426 23.44ZM53.2026 21.98C53.5815 21.9806 53.9573 22.0483 54.3126 22.18C54.2239 22.5945 54.1737 23.0163 54.1626 23.44C54.1632 24.3976 54.4223 25.3374 54.9126 26.16C53.4926 26.1 51.8026 26 49.8626 25.89C49.8315 25.7183 49.8148 25.5444 49.8126 25.37C49.8134 24.4712 50.1708 23.6094 50.8064 22.9738C51.4419 22.3382 52.3037 21.9808 53.2026 21.98ZM44.8226 28.19C44.9015 28.0231 45.026 27.882 45.1817 27.7829C45.3374 27.6838 45.518 27.6308 45.7026 27.63C45.7026 27.63 47.4726 27.74 48.3626 27.8L49.0226 27.84C50.7526 27.95 52.3026 28.03 53.6526 28.1C53.9926 28.12 57.7726 28.27 57.7726 28.27C58.8106 28.307 61.8126 28.22 61.8126 28.22C64.6356 28.085 70.6126 27.73 70.6126 27.73C71.1426 27.7 71.6626 27.67 72.1626 27.63C72.3609 27.6182 72.5582 27.6658 72.7294 27.7667C72.9006 27.8675 73.0378 28.017 73.1237 28.1962C73.2095 28.3754 73.24 28.5761 73.2113 28.7727C73.1826 28.9692 73.096 29.1528 72.9626 29.3L71.2026 31.24C71.0156 31.4466 70.7872 31.6112 70.5321 31.7233C70.277 31.8353 70.0012 31.8921 69.7226 31.89H48.2226C47.944 31.8921 47.6681 31.8353 47.4131 31.7233C47.158 31.6112 46.9295 31.4466 46.7426 31.24L44.9826 29.3C44.846 29.1533 44.7576 28.9684 44.729 28.77C44.7004 28.5717 44.733 28.3693 44.8226 28.19ZM19.5726 31.53C19.8176 31.284 20.1091 31.0892 20.4302 30.957C20.7512 30.8248 21.0954 30.7578 21.4426 30.76H21.7526C22.3371 30.7576 22.8968 30.5237 23.3091 30.1095C23.7215 29.6952 23.9528 29.1345 23.9526 28.55V19.72C23.952 19.2178 23.7788 18.7311 23.462 18.3415C23.1452 17.9519 22.7041 17.683 22.2126 17.58C20.439 17.1586 18.8601 16.1497 17.7326 14.7172C16.6051 13.2847 15.9954 11.513 16.0026 9.69V3.61C16.0013 3.53037 16.0158 3.45127 16.0453 3.37732C16.0749 3.30336 16.1189 3.23604 16.1747 3.17926C16.2306 3.12248 16.2972 3.07739 16.3706 3.04661C16.4441 3.01583 16.5229 2.99999 16.6026 3H31.7126C31.8742 3.00053 32.029 3.06496 32.1433 3.17925C32.2576 3.29353 32.322 3.44838 32.3226 3.61V9.69C32.3409 11.5154 31.7367 13.2926 30.6097 14.7286C29.4827 16.1647 27.9 17.1739 26.1226 17.59C25.6267 17.6876 25.1801 17.9543 24.8591 18.3446C24.5381 18.7349 24.3626 19.2246 24.3626 19.73V28.55C24.3628 29.136 24.5958 29.698 25.0102 30.1124C25.4246 30.5268 25.9865 30.7597 26.5726 30.76H26.8826C27.3088 30.7583 27.729 30.8603 28.107 31.0572C28.4851 31.254 28.8096 31.5399 29.0526 31.89H19.2726C19.3615 31.7612 19.4619 31.6407 19.5726 31.53ZM26.3726 112.39C26.6083 111.17 27.261 110.07 28.2188 109.278C29.1766 108.486 30.3799 108.052 31.6226 108.05H38.7926C40.0337 108.054 41.235 108.489 42.1908 109.28C43.1467 110.072 43.7977 111.171 44.0326 112.39H26.3726ZM34.2626 73.5H36.1426V106.05H34.2626V73.5ZM22.4226 71.5C21.5792 71.5 20.7703 71.165 20.174 70.5686C19.5776 69.9722 19.2426 69.1634 19.2426 68.32C19.2426 67.4766 19.5776 66.6678 20.174 66.0714C20.7703 65.475 21.5792 65.14 22.4226 65.14H47.9826C48.826 65.14 49.6348 65.475 50.2312 66.0714C50.8275 66.6678 51.1626 67.4766 51.1626 68.32C51.1626 69.1634 50.8275 69.9722 50.2312 70.5686C49.6348 71.165 48.826 71.5 47.9826 71.5H22.4226ZM73.9126 112.39C74.1474 111.171 74.7985 110.072 75.7543 109.28C76.7102 108.489 77.9115 108.054 79.1526 108.05H86.3226C87.5653 108.052 88.7686 108.486 89.7264 109.278C90.6842 110.07 91.3368 111.17 91.5726 112.39H73.9126ZM81.8026 73.5H83.6826V106.05H81.8026V73.5ZM69.9626 71.5C69.1192 71.5 68.3103 71.165 67.714 70.5686C67.1176 69.9722 66.7826 69.1634 66.7826 68.32C66.7826 67.4766 67.1176 66.6678 67.714 66.0714C68.3103 65.475 69.1192 65.14 69.9626 65.14H95.5226C96.366 65.14 97.1748 65.475 97.7712 66.0714C98.3675 66.6678 98.7026 67.4766 98.7026 68.32C98.7026 69.1634 98.3675 69.9722 97.7712 70.5686C97.1748 71.165 96.366 71.5 95.5226 71.5H69.9626ZM104.973 111.39C104.973 111.655 104.867 111.91 104.68 112.097C104.492 112.285 104.238 112.39 103.973 112.39H93.5826C93.342 110.635 92.4744 109.026 91.1399 107.86C89.8054 106.695 88.0943 106.052 86.3226 106.05H85.6826V73.5H95.5226C96.8964 73.5 98.214 72.9542 99.1854 71.9828C100.157 71.0114 100.703 69.6938 100.703 68.32C100.703 66.9462 100.157 65.6286 99.1854 64.6572C98.214 63.6857 96.8964 63.14 95.5226 63.14H69.9626C68.5888 63.14 67.2712 63.6857 66.2998 64.6572C65.3283 65.6286 64.7826 66.9462 64.7826 68.32C64.7826 69.6938 65.3283 71.0114 66.2998 71.9828C67.2712 72.9542 68.5888 73.5 69.9626 73.5H79.8026V106.05H79.1526C77.3813 106.053 75.6709 106.697 74.3368 107.862C73.0026 109.027 72.1345 110.635 71.8926 112.39H46.0526C45.8106 110.635 44.9426 109.027 43.6084 107.862C42.2742 106.697 40.5639 106.053 38.7926 106.05H38.1426V73.5H47.9826C49.3564 73.5 50.674 72.9542 51.6454 71.9828C52.6168 71.0114 53.1626 69.6938 53.1626 68.32C53.1626 66.9462 52.6168 65.6286 51.6454 64.6572C50.674 63.6857 49.3564 63.14 47.9826 63.14H22.4226C21.0488 63.14 19.7312 63.6857 18.7598 64.6572C17.7883 65.6286 17.2426 66.9462 17.2426 68.32C17.2426 69.6938 17.7883 71.0114 18.7598 71.9828C19.7312 72.9542 21.0488 73.5 22.4226 73.5H32.2626V106.05H31.6226C29.8509 106.052 28.1397 106.695 26.8053 107.86C25.4708 109.026 24.6031 110.635 24.3626 112.39H13.9726C13.7074 112.39 13.453 112.285 13.2655 112.097C13.0779 111.91 12.9726 111.655 12.9726 111.39V51.14H104.973V111.39ZM115.303 46.14C115.303 46.9356 114.987 47.6987 114.424 48.2613C113.861 48.8239 113.098 49.14 112.303 49.14H5.64258C4.84693 49.14 4.08387 48.8239 3.52126 48.2613C2.95865 47.6987 2.64258 46.9356 2.64258 46.14V36.89C2.64495 36.0951 2.96178 35.3334 3.52388 34.7713C4.08598 34.2092 4.84766 33.8924 5.64258 33.89H112.303C113.098 33.8924 113.859 34.2092 114.421 34.7713C114.983 35.3334 115.3 36.0951 115.303 36.89V46.14Z" stroke="black"/>
</svg>
