<svg width="86" height="126" viewBox="0 0 86 126" fill="none" xmlns="http://www.w3.org/2000/svg">
<path d="M79.9897 124.6H6.22766C4.90207 124.598 3.63122 124.071 2.69388 123.134C1.75654 122.196 1.22925 120.926 1.22766 119.6V6.40002C1.22925 5.07443 1.75654 3.80358 2.69388 2.86624C3.63122 1.92891 4.90207 1.40161 6.22766 1.40002H79.9897C81.3152 1.40161 82.5861 1.92891 83.5234 2.86624C84.4608 3.80358 84.9881 5.07443 84.9897 6.40002V119.6C84.9881 120.926 84.4608 122.196 83.5234 123.134C82.5861 124.071 81.3152 124.598 79.9897 124.6ZM6.22766 3.40002C5.43201 3.40002 4.66895 3.71609 4.10634 4.2787C3.54373 4.84131 3.22766 5.60437 3.22766 6.40002V119.6C3.22766 120.396 3.54373 121.159 4.10634 121.721C4.66895 122.284 5.43201 122.6 6.22766 122.6H79.9897C80.7853 122.6 81.5484 122.284 82.111 121.721C82.6736 121.159 82.9897 120.396 82.9897 119.6V6.40002C82.9897 5.60437 82.6736 4.84131 82.111 4.2787C81.5484 3.71609 80.7853 3.40002 79.9897 3.40002H6.22766Z" fill="black"/>
<path d="M73.9897 116.6H12.2277C11.432 116.6 10.6689 116.284 10.1063 115.721C9.54373 115.159 9.22766 114.396 9.22766 113.6V12.4C9.22766 11.6044 9.54373 10.8413 10.1063 10.2787C10.6689 9.71609 11.432 9.40002 12.2277 9.40002H73.9897C74.7853 9.40002 75.5484 9.71609 76.111 10.2787C76.6736 10.8413 76.9897 11.6044 76.9897 12.4V113.6C76.9897 114.396 76.6736 115.159 76.111 115.721C75.5484 116.284 74.7853 116.6 73.9897 116.6ZM12.2277 11.4C11.9624 11.4 11.7081 11.5054 11.5206 11.6929C11.333 11.8805 11.2277 12.1348 11.2277 12.4V113.6C11.2277 113.865 11.333 114.12 11.5206 114.307C11.7081 114.495 11.9624 114.6 12.2277 114.6H73.9897C74.2549 114.6 74.5092 114.495 74.6968 114.307C74.8843 114.12 74.9897 113.865 74.9897 113.6V12.4C74.9897 12.1348 74.8843 11.8805 74.6968 11.6929C74.5092 11.5054 74.2549 11.4 73.9897 11.4H12.2277Z" fill="black"/>
<path d="M62.9087 43.625H23.3137C22.2528 43.625 21.2354 43.2036 20.4852 42.4535C19.7351 41.7033 19.3137 40.6859 19.3137 39.625V23.225C19.3137 22.1642 19.7351 21.1467 20.4852 20.3966C21.2354 19.6465 22.2528 19.225 23.3137 19.225H62.9087C63.9695 19.225 64.9869 19.6465 65.7371 20.3966C66.4872 21.1467 66.9087 22.1642 66.9087 23.225V39.625C66.9087 40.6859 66.4872 41.7033 65.7371 42.4535C64.9869 43.2036 63.9695 43.625 62.9087 43.625ZM23.3187 21.225C22.7882 21.225 22.2795 21.4357 21.9044 21.8108C21.5294 22.1859 21.3187 22.6946 21.3187 23.225V39.625C21.3187 40.1555 21.5294 40.6642 21.9044 41.0392C22.2795 41.4143 22.7882 41.625 23.3187 41.625H62.9087C63.4391 41.625 63.9478 41.4143 64.3229 41.0392C64.6979 40.6642 64.9087 40.1555 64.9087 39.625V23.225C64.9087 22.6946 64.6979 22.1859 64.3229 21.8108C63.9478 21.4357 63.4391 21.225 62.9087 21.225H23.3187Z" fill="black"/>
<path d="M65.9657 85.786H63.5377C62.742 85.786 61.979 85.4699 61.4163 84.9073C60.8537 84.3447 60.5377 83.5817 60.5377 82.786V70.5C60.5377 69.7044 60.8537 68.9413 61.4163 68.3787C61.979 67.8161 62.742 67.5 63.5377 67.5H65.9657C66.7613 67.5 67.5244 67.8161 68.087 68.3787C68.6496 68.9413 68.9657 69.7044 68.9657 70.5V82.786C68.9657 83.5817 68.6496 84.3447 68.087 84.9073C67.5244 85.4699 66.7613 85.786 65.9657 85.786ZM63.5377 69.5C63.2724 69.5 63.0181 69.6054 62.8306 69.7929C62.643 69.9805 62.5377 70.2348 62.5377 70.5V82.786C62.5377 83.0512 62.643 83.3056 62.8306 83.4931C63.0181 83.6807 63.2724 83.786 63.5377 83.786H65.9657C66.2309 83.786 66.4852 83.6807 66.6728 83.4931C66.8603 83.3056 66.9657 83.0512 66.9657 82.786V70.5C66.9657 70.2348 66.8603 69.9805 66.6728 69.7929C66.4852 69.6054 66.2309 69.5 65.9657 69.5H63.5377Z" fill="black"/>
<path d="M35.2607 38.091C34.9954 38.091 34.7411 37.9857 34.5536 37.7981C34.366 37.6106 34.2607 37.3562 34.2607 37.091V27.612L31.7917 29.238C31.5701 29.3839 31.2996 29.4358 31.0398 29.3822C30.78 29.3287 30.552 29.1741 30.4062 28.9525C30.2603 28.7309 30.2084 28.4605 30.262 28.2006C30.3155 27.9408 30.4701 27.7129 30.6917 27.567L33.9197 25.443C34.1508 25.2909 34.4188 25.2042 34.6953 25.1922C34.9717 25.1802 35.2463 25.2434 35.4897 25.375C35.7211 25.4978 35.9151 25.681 36.0508 25.9051C36.1866 26.1293 36.2591 26.386 36.2607 26.648V37.091C36.2607 37.3562 36.1553 37.6106 35.9678 37.7981C35.7802 37.9857 35.5259 38.091 35.2607 38.091Z" fill="black"/>
<path d="M54.9757 38.091C54.7104 38.091 54.4561 37.9857 54.2686 37.7981C54.081 37.6106 53.9757 37.3562 53.9757 37.091V27.612L51.5087 29.238C51.2871 29.3839 51.0166 29.4358 50.7568 29.3822C50.497 29.3287 50.269 29.1741 50.1232 28.9525C49.9773 28.7309 49.9254 28.4605 49.979 28.2006C50.0325 27.9408 50.1871 27.7129 50.4087 27.567L53.6347 25.443C53.8664 25.2909 54.1349 25.2043 54.4118 25.1923C54.6887 25.1803 54.9637 25.2435 55.2077 25.375C55.439 25.498 55.6327 25.6812 55.7682 25.9053C55.9038 26.1295 55.9762 26.3861 55.9777 26.648V37.091C55.9777 37.2225 55.9517 37.3527 55.9014 37.4742C55.851 37.5956 55.7771 37.706 55.6841 37.7988C55.591 37.8917 55.4805 37.9653 55.359 38.0155C55.2374 38.0656 55.1072 38.0913 54.9757 38.091Z" fill="black"/>
<path d="M44.8087 38.091H42.4307C41.635 38.091 40.872 37.775 40.3093 37.2123C39.7467 36.6497 39.4307 35.8867 39.4307 35.091V27.757C39.4307 26.9614 39.7467 26.1983 40.3093 25.6357C40.872 25.0731 41.635 24.757 42.4307 24.757H44.8087C45.6043 24.757 46.3674 25.0731 46.93 25.6357C47.4926 26.1983 47.8087 26.9614 47.8087 27.757V35.091C47.8087 35.8867 47.4926 36.6497 46.93 37.2123C46.3674 37.775 45.6043 38.091 44.8087 38.091ZM42.4307 26.757C42.1654 26.757 41.9111 26.8624 41.7236 27.0499C41.536 27.2375 41.4307 27.4918 41.4307 27.757V35.091C41.4307 35.3562 41.536 35.6106 41.7236 35.7981C41.9111 35.9857 42.1654 36.091 42.4307 36.091H44.8087C45.0739 36.091 45.3282 35.9857 45.5158 35.7981C45.7033 35.6106 45.8087 35.3562 45.8087 35.091V27.757C45.8087 27.4918 45.7033 27.2375 45.5158 27.0499C45.3282 26.8624 45.0739 26.757 44.8087 26.757H42.4307Z" fill="black"/>
<path fill-rule="evenodd" clip-rule="evenodd" d="M12.2277 11.4C11.9624 11.4 11.7081 11.5054 11.5206 11.6929C11.333 11.8805 11.2277 12.1348 11.2277 12.4V113.6C11.2277 113.865 11.333 114.12 11.5206 114.307C11.7081 114.495 11.9624 114.6 12.2277 114.6H73.9897C74.2549 114.6 74.5092 114.495 74.6968 114.307C74.8843 114.12 74.9897 113.865 74.9897 113.6V12.4C74.9897 12.1348 74.8843 11.8805 74.6968 11.6929C74.5092 11.5054 74.2549 11.4 73.9897 11.4H12.2277ZM23.3137 43.625H62.9087C63.9695 43.625 64.9869 43.2036 65.7371 42.4535C66.4872 41.7033 66.9087 40.6859 66.9087 39.625V23.225C66.9087 22.1642 66.4872 21.1467 65.7371 20.3966C64.9869 19.6465 63.9695 19.225 62.9087 19.225H23.3137C22.2528 19.225 21.2354 19.6465 20.4852 20.3966C19.7351 21.1467 19.3137 22.1642 19.3137 23.225V39.625C19.3137 40.6859 19.7351 41.7033 20.4852 42.4535C21.2354 43.2036 22.2528 43.625 23.3137 43.625ZM63.5377 85.786H65.9657C66.7613 85.786 67.5244 85.4699 68.087 84.9073C68.6496 84.3447 68.9657 83.5817 68.9657 82.786V70.5C68.9657 69.7044 68.6496 68.9413 68.087 68.3787C67.5244 67.8161 66.7613 67.5 65.9657 67.5H63.5377C62.742 67.5 61.979 67.8161 61.4163 68.3787C60.8537 68.9413 60.5377 69.7044 60.5377 70.5V82.786C60.5377 83.5817 60.8537 84.3447 61.4163 84.9073C61.979 85.4699 62.742 85.786 63.5377 85.786Z" fill="black"/>
<path d="M79.9897 124.6H6.22766C4.90207 124.598 3.63122 124.071 2.69388 123.134C1.75654 122.196 1.22925 120.926 1.22766 119.6V6.40002C1.22925 5.07443 1.75654 3.80358 2.69388 2.86624C3.63122 1.92891 4.90207 1.40161 6.22766 1.40002H79.9897C81.3152 1.40161 82.5861 1.92891 83.5234 2.86624C84.4608 3.80358 84.9881 5.07443 84.9897 6.40002V119.6C84.9881 120.926 84.4608 122.196 83.5234 123.134C82.5861 124.071 81.3152 124.598 79.9897 124.6ZM6.22766 3.40002C5.43201 3.40002 4.66895 3.71609 4.10634 4.2787C3.54373 4.84131 3.22766 5.60437 3.22766 6.40002V119.6C3.22766 120.396 3.54373 121.159 4.10634 121.721C4.66895 122.284 5.43201 122.6 6.22766 122.6H79.9897C80.7853 122.6 81.5484 122.284 82.111 121.721C82.6736 121.159 82.9897 120.396 82.9897 119.6V6.40002C82.9897 5.60437 82.6736 4.84131 82.111 4.2787C81.5484 3.71609 80.7853 3.40002 79.9897 3.40002H6.22766Z" stroke="black"/>
<path d="M73.9897 116.6H12.2277C11.432 116.6 10.6689 116.284 10.1063 115.721C9.54373 115.159 9.22766 114.396 9.22766 113.6V12.4C9.22766 11.6044 9.54373 10.8413 10.1063 10.2787C10.6689 9.71609 11.432 9.40002 12.2277 9.40002H73.9897C74.7853 9.40002 75.5484 9.71609 76.111 10.2787C76.6736 10.8413 76.9897 11.6044 76.9897 12.4V113.6C76.9897 114.396 76.6736 115.159 76.111 115.721C75.5484 116.284 74.7853 116.6 73.9897 116.6ZM12.2277 11.4C11.9624 11.4 11.7081 11.5054 11.5206 11.6929C11.333 11.8805 11.2277 12.1348 11.2277 12.4V113.6C11.2277 113.865 11.333 114.12 11.5206 114.307C11.7081 114.495 11.9624 114.6 12.2277 114.6H73.9897C74.2549 114.6 74.5092 114.495 74.6968 114.307C74.8843 114.12 74.9897 113.865 74.9897 113.6V12.4C74.9897 12.1348 74.8843 11.8805 74.6968 11.6929C74.5092 11.5054 74.2549 11.4 73.9897 11.4H12.2277Z" stroke="black"/>
<path d="M62.9087 43.625H23.3137C22.2528 43.625 21.2354 43.2036 20.4852 42.4535C19.7351 41.7033 19.3137 40.6859 19.3137 39.625V23.225C19.3137 22.1642 19.7351 21.1467 20.4852 20.3966C21.2354 19.6465 22.2528 19.225 23.3137 19.225H62.9087C63.9695 19.225 64.9869 19.6465 65.7371 20.3966C66.4872 21.1467 66.9087 22.1642 66.9087 23.225V39.625C66.9087 40.6859 66.4872 41.7033 65.7371 42.4535C64.9869 43.2036 63.9695 43.625 62.9087 43.625ZM23.3187 21.225C22.7882 21.225 22.2795 21.4357 21.9044 21.8108C21.5294 22.1859 21.3187 22.6946 21.3187 23.225V39.625C21.3187 40.1555 21.5294 40.6642 21.9044 41.0392C22.2795 41.4143 22.7882 41.625 23.3187 41.625H62.9087C63.4391 41.625 63.9478 41.4143 64.3229 41.0392C64.6979 40.6642 64.9087 40.1555 64.9087 39.625V23.225C64.9087 22.6946 64.6979 22.1859 64.3229 21.8108C63.9478 21.4357 63.4391 21.225 62.9087 21.225H23.3187Z" stroke="black"/>
<path d="M65.9657 85.786H63.5377C62.742 85.786 61.979 85.4699 61.4163 84.9073C60.8537 84.3447 60.5377 83.5817 60.5377 82.786V70.5C60.5377 69.7044 60.8537 68.9413 61.4163 68.3787C61.979 67.8161 62.742 67.5 63.5377 67.5H65.9657C66.7613 67.5 67.5244 67.8161 68.087 68.3787C68.6496 68.9413 68.9657 69.7044 68.9657 70.5V82.786C68.9657 83.5817 68.6496 84.3447 68.087 84.9073C67.5244 85.4699 66.7613 85.786 65.9657 85.786ZM63.5377 69.5C63.2724 69.5 63.0181 69.6054 62.8306 69.7929C62.643 69.9805 62.5377 70.2348 62.5377 70.5V82.786C62.5377 83.0512 62.643 83.3056 62.8306 83.4931C63.0181 83.6807 63.2724 83.786 63.5377 83.786H65.9657C66.2309 83.786 66.4852 83.6807 66.6728 83.4931C66.8603 83.3056 66.9657 83.0512 66.9657 82.786V70.5C66.9657 70.2348 66.8603 69.9805 66.6728 69.7929C66.4852 69.6054 66.2309 69.5 65.9657 69.5H63.5377Z" stroke="black"/>
<path d="M35.2607 38.091C34.9954 38.091 34.7411 37.9857 34.5536 37.7981C34.366 37.6106 34.2607 37.3562 34.2607 37.091V27.612L31.7917 29.238C31.5701 29.3839 31.2996 29.4358 31.0398 29.3822C30.78 29.3287 30.552 29.1741 30.4062 28.9525C30.2603 28.7309 30.2084 28.4605 30.262 28.2006C30.3155 27.9408 30.4701 27.7129 30.6917 27.567L33.9197 25.443C34.1508 25.2909 34.4188 25.2042 34.6953 25.1922C34.9717 25.1802 35.2463 25.2434 35.4897 25.375C35.7211 25.4978 35.9151 25.681 36.0508 25.9051C36.1866 26.1293 36.2591 26.386 36.2607 26.648V37.091C36.2607 37.3562 36.1553 37.6106 35.9678 37.7981C35.7802 37.9857 35.5259 38.091 35.2607 38.091Z" stroke="black"/>
<path d="M54.9757 38.091C54.7104 38.091 54.4561 37.9857 54.2686 37.7981C54.081 37.6106 53.9757 37.3562 53.9757 37.091V27.612L51.5087 29.238C51.2871 29.3839 51.0166 29.4358 50.7568 29.3822C50.497 29.3287 50.269 29.1741 50.1232 28.9525C49.9773 28.7309 49.9254 28.4605 49.979 28.2006C50.0325 27.9408 50.1871 27.7129 50.4087 27.567L53.6347 25.443C53.8664 25.2909 54.1349 25.2043 54.4118 25.1923C54.6887 25.1803 54.9637 25.2435 55.2077 25.375C55.439 25.498 55.6327 25.6812 55.7682 25.9053C55.9038 26.1295 55.9762 26.3861 55.9777 26.648V37.091C55.9777 37.2225 55.9517 37.3527 55.9014 37.4742C55.851 37.5956 55.7771 37.706 55.6841 37.7988C55.591 37.8917 55.4805 37.9653 55.359 38.0155C55.2374 38.0656 55.1072 38.0913 54.9757 38.091Z" stroke="black"/>
<path d="M44.8087 38.091H42.4307C41.635 38.091 40.872 37.775 40.3093 37.2123C39.7467 36.6497 39.4307 35.8867 39.4307 35.091V27.757C39.4307 26.9614 39.7467 26.1983 40.3093 25.6357C40.872 25.0731 41.635 24.757 42.4307 24.757H44.8087C45.6043 24.757 46.3674 25.0731 46.93 25.6357C47.4926 26.1983 47.8087 26.9614 47.8087 27.757V35.091C47.8087 35.8867 47.4926 36.6497 46.93 37.2123C46.3674 37.775 45.6043 38.091 44.8087 38.091ZM42.4307 26.757C42.1654 26.757 41.9111 26.8624 41.7236 27.0499C41.536 27.2375 41.4307 27.4918 41.4307 27.757V35.091C41.4307 35.3562 41.536 35.6106 41.7236 35.7981C41.9111 35.9857 42.1654 36.091 42.4307 36.091H44.8087C45.0739 36.091 45.3282 35.9857 45.5158 35.7981C45.7033 35.6106 45.8087 35.3562 45.8087 35.091V27.757C45.8087 27.4918 45.7033 27.2375 45.5158 27.0499C45.3282 26.8624 45.0739 26.757 44.8087 26.757H42.4307Z" stroke="black"/>
<path fill-rule="evenodd" clip-rule="evenodd" d="M12.2277 11.4C11.9624 11.4 11.7081 11.5054 11.5206 11.6929C11.333 11.8805 11.2277 12.1348 11.2277 12.4V113.6C11.2277 113.865 11.333 114.12 11.5206 114.307C11.7081 114.495 11.9624 114.6 12.2277 114.6H73.9897C74.2549 114.6 74.5092 114.495 74.6968 114.307C74.8843 114.12 74.9897 113.865 74.9897 113.6V12.4C74.9897 12.1348 74.8843 11.8805 74.6968 11.6929C74.5092 11.5054 74.2549 11.4 73.9897 11.4H12.2277ZM23.3137 43.625H62.9087C63.9695 43.625 64.9869 43.2036 65.7371 42.4535C66.4872 41.7033 66.9087 40.6859 66.9087 39.625V23.225C66.9087 22.1642 66.4872 21.1467 65.7371 20.3966C64.9869 19.6465 63.9695 19.225 62.9087 19.225H23.3137C22.2528 19.225 21.2354 19.6465 20.4852 20.3966C19.7351 21.1467 19.3137 22.1642 19.3137 23.225V39.625C19.3137 40.6859 19.7351 41.7033 20.4852 42.4535C21.2354 43.2036 22.2528 43.625 23.3137 43.625ZM63.5377 85.786H65.9657C66.7613 85.786 67.5244 85.4699 68.087 84.9073C68.6496 84.3447 68.9657 83.5817 68.9657 82.786V70.5C68.9657 69.7044 68.6496 68.9413 68.087 68.3787C67.5244 67.8161 66.7613 67.5 65.9657 67.5H63.5377C62.742 67.5 61.979 67.8161 61.4163 68.3787C60.8537 68.9413 60.5377 69.7044 60.5377 70.5V82.786C60.5377 83.5817 60.8537 84.3447 61.4163 84.9073C61.979 85.4699 62.742 85.786 63.5377 85.786Z" stroke="black"/>
</svg>
