<svg width="120" height="92" viewBox="0 0 120 92" fill="none" xmlns="http://www.w3.org/2000/svg">
<path d="M107.459 3.87001C103.033 1.3198 97.8768 0.338159 92.824 1.08409C87.7713 1.83003 83.1183 4.25985 79.6187 7.98001C78.4746 9.28772 77.4379 10.6856 76.5187 12.16L63.2387 35.17L60.1087 40.59L56.9787 35.17L43.6987 12.16C43.5287 11.86 42.7387 10.63 42.5087 10.32C41.9202 9.50187 41.2824 8.72042 40.5987 7.98001C37.1008 4.25644 32.4471 1.82443 27.393 1.0788C22.3389 0.33318 17.1811 1.31771 12.757 3.87257C8.33291 6.42744 4.90221 10.4026 3.02186 15.1528C1.14151 19.903 0.921898 25.1493 2.39868 30.04C2.9581 31.6835 3.65039 33.2788 4.46868 34.81L17.7487 57.82L30.5687 80.02C32.5462 83.4078 35.3794 86.2165 38.7842 88.1646C42.189 90.1127 46.046 91.1319 49.9687 91.12C53.4893 91.1233 56.9594 90.2831 60.0887 88.67C63.2389 90.3201 66.7424 91.1814 70.2987 91.18C72.2605 91.1763 74.2136 90.9175 76.1087 90.41C78.9404 89.6593 81.5951 88.3545 83.9193 86.5711C86.2434 84.7876 88.1908 82.561 89.6487 80.02L102.469 57.82L115.749 34.81C116.59 33.2903 117.284 31.6929 117.819 30.04C119.292 25.1486 119.07 19.9031 117.19 15.1533C115.31 10.4036 111.881 6.42776 107.459 3.87001ZM58.9587 42.58L56.6487 46.59H56.6387L51.7887 38.17L55.2487 36.17L58.9587 42.58ZM47.5187 70.32C47.5187 70.35 47.7947 72.432 47.8047 72.462C48.5191 76.292 50.1964 79.8771 52.6787 82.88C49.7504 83.4297 46.7239 83.0665 44.0088 81.8396C41.2937 80.6126 39.0212 78.5811 37.4987 76.02L24.6787 53.82L50.0487 39.17L55.4887 48.59L50.4187 57.37C48.1615 61.2929 47.1502 65.8092 47.5187 70.32ZM4.18868 29.01C2.96737 24.599 3.24438 19.9075 4.9763 15.6709C6.70822 11.4343 9.79711 7.89222 13.7587 5.60001C16.8836 3.78353 20.4342 2.82774 24.0487 2.83001C26.797 2.82808 29.5181 3.37457 32.0525 4.43746C34.587 5.50036 36.8839 7.05829 38.8087 9.02001L35.1887 11.11C32.5814 8.7587 29.2961 7.29393 25.8045 6.92596C22.3129 6.55799 18.7945 7.30573 15.7543 9.06186C12.7142 10.818 10.3086 13.4922 8.88282 16.7006C7.45709 19.909 7.08455 23.4867 7.81868 26.92L4.18868 29.01ZM33.3587 12.16L9.63868 25.86C9.16048 22.9226 9.58512 19.9093 10.8565 17.2184C12.1278 14.5275 14.1859 12.2859 16.7587 10.79C18.972 9.51319 21.4835 8.84394 24.0387 8.85001C27.4339 8.8468 30.7261 10.016 33.3587 12.16ZM6.19868 33.81C5.66186 32.8972 5.20355 31.9404 4.82868 30.95L8.30868 28.94L36.6887 12.55L40.1587 10.55L40.1687 10.54C40.8168 11.3771 41.4145 12.2519 41.9587 13.16L54.2487 34.44L50.7887 36.44L21.9487 53.08L18.4787 55.08L6.19868 33.81ZM32.2987 79.02L19.4787 56.82L22.9487 54.82L35.7687 77.02C37.5881 80.1374 40.3855 82.5672 43.7269 83.9324C47.0683 85.2975 50.7669 85.5216 54.2487 84.57C55.3867 85.628 56.6147 86.5849 57.9187 87.43C57.9328 87.4463 57.9497 87.4599 57.9687 87.47C53.3951 89.4313 48.2627 89.655 43.5358 88.099C38.809 86.5431 34.813 83.3145 32.2987 79.02ZM87.9187 79.02C85.3488 83.47 81.1874 86.7803 76.2734 88.2835C71.3594 89.7866 66.0583 89.3709 61.4387 87.12C61.4187 87.11 57.0197 84.987 54.9487 82.43C51.6733 78.8689 49.7363 74.2809 49.4687 69.45C49.4687 64.033 50.3687 61.603 52.1487 58.37L57.7987 48.59L61.2587 42.59L64.9687 36.17L68.4287 38.17L55.6087 60.37C53.4546 64.1149 52.8734 68.5612 53.9925 72.734C55.1116 76.9068 57.8397 80.4656 61.5787 82.63L62.1887 82.99C64.6544 84.4145 67.4511 85.1663 70.2987 85.17C71.7368 85.1666 73.1685 84.9784 74.5587 84.61C76.627 84.0613 78.566 83.108 80.2636 81.8052C81.9612 80.5024 83.3836 78.876 84.4487 77.02L97.2687 54.82L100.739 56.82L87.9187 79.02ZM70.1687 39.17L95.5387 53.82L82.7187 76.02C80.8183 79.299 77.6954 81.6908 74.0345 82.6712C70.3736 83.6516 66.4734 83.1405 63.1887 81.25L62.5787 80.9C59.2981 79.0012 56.9049 75.8783 55.9243 72.2167C54.9438 68.5552 55.4561 64.6542 57.3487 61.37L70.1687 39.17ZM114.019 33.81L101.739 55.08L98.2687 53.08L69.4287 36.44L65.9687 34.44L78.2587 13.16C78.8005 12.2504 79.3983 11.3754 80.0487 10.54L83.5287 12.55L111.909 28.94L115.389 30.95C115.007 31.9376 114.549 32.8939 114.019 33.81ZM86.8587 12.16C89.1587 10.2696 91.9807 9.1259 94.9479 8.88173C97.9151 8.63757 100.886 9.30455 103.464 10.7936C106.042 12.2826 108.105 14.5228 109.376 17.215C110.647 19.9071 111.067 22.9231 110.579 25.86L86.8587 12.16ZM116.039 29.01L112.399 26.92C113.133 23.4867 112.76 19.909 111.335 16.7006C109.909 13.4922 107.503 10.818 104.463 9.06186C101.423 7.30573 97.9044 6.55799 94.4128 6.92596C90.9212 7.29393 87.636 8.7587 85.0287 11.11L81.3987 9.01001C84.6087 5.74773 88.8111 3.64363 93.3463 3.02797C97.8815 2.4123 102.493 3.31992 106.456 5.60836C110.42 7.89681 113.511 11.4365 115.246 15.672C116.98 19.9075 117.259 24.5989 116.039 29.01Z" fill="black"/>
<path d="M114.019 33.81L101.739 55.08L98.2687 53.08L69.4287 36.44L65.9687 34.44L78.2587 13.16C78.8005 12.2504 79.3983 11.3754 80.0487 10.54L83.5287 12.55L111.909 28.94L115.389 30.95C115.007 31.9376 114.549 32.8939 114.019 33.81Z" fill="black"/>
<path d="M6.19868 33.81C5.66186 32.8972 5.20355 31.9404 4.82868 30.95L8.30868 28.94L36.6887 12.55L40.1587 10.55L40.1687 10.54C40.8168 11.3771 41.4145 12.2519 41.9587 13.16L54.2487 34.44L50.7887 36.44L21.9487 53.08L18.4787 55.08L6.19868 33.81Z" fill="black"/>
<path d="M107.459 3.87001C103.033 1.3198 97.8768 0.338159 92.824 1.08409C87.7713 1.83003 83.1183 4.25985 79.6187 7.98001C78.4746 9.28772 77.4379 10.6856 76.5187 12.16L63.2387 35.17L60.1087 40.59L56.9787 35.17L43.6987 12.16C43.5287 11.86 42.7387 10.63 42.5087 10.32C41.9202 9.50187 41.2824 8.72042 40.5987 7.98001C37.1008 4.25644 32.4471 1.82443 27.393 1.0788C22.3389 0.33318 17.1811 1.31771 12.757 3.87257C8.33291 6.42744 4.90221 10.4026 3.02186 15.1528C1.14151 19.903 0.921898 25.1493 2.39868 30.04C2.9581 31.6835 3.65039 33.2788 4.46868 34.81L17.7487 57.82L30.5687 80.02C32.5462 83.4078 35.3794 86.2165 38.7842 88.1646C42.189 90.1127 46.046 91.1319 49.9687 91.12C53.4893 91.1233 56.9594 90.2831 60.0887 88.67C63.2389 90.3201 66.7424 91.1814 70.2987 91.18C72.2605 91.1763 74.2136 90.9175 76.1087 90.41C78.9404 89.6593 81.5951 88.3545 83.9193 86.5711C86.2434 84.7876 88.1908 82.561 89.6487 80.02L102.469 57.82L115.749 34.81C116.59 33.2903 117.284 31.6929 117.819 30.04C119.292 25.1486 119.07 19.9031 117.19 15.1533C115.31 10.4036 111.881 6.42776 107.459 3.87001ZM58.9587 42.58L56.6487 46.59H56.6387L51.7887 38.17L55.2487 36.17L58.9587 42.58ZM47.5187 70.32C47.5187 70.35 47.7947 72.432 47.8047 72.462C48.5191 76.292 50.1964 79.8771 52.6787 82.88C49.7504 83.4297 46.7239 83.0665 44.0088 81.8396C41.2937 80.6126 39.0212 78.5811 37.4987 76.02L24.6787 53.82L50.0487 39.17L55.4887 48.59L50.4187 57.37C48.1615 61.2929 47.1502 65.8092 47.5187 70.32ZM4.18868 29.01C2.96737 24.599 3.24438 19.9075 4.9763 15.6709C6.70822 11.4343 9.79711 7.89222 13.7587 5.60001C16.8836 3.78353 20.4342 2.82774 24.0487 2.83001C26.797 2.82808 29.5181 3.37457 32.0525 4.43746C34.587 5.50036 36.8839 7.05829 38.8087 9.02001L35.1887 11.11C32.5814 8.7587 29.2961 7.29393 25.8045 6.92596C22.3129 6.55799 18.7945 7.30573 15.7543 9.06186C12.7142 10.818 10.3086 13.4922 8.88282 16.7006C7.45709 19.909 7.08455 23.4867 7.81868 26.92L4.18868 29.01ZM33.3587 12.16L9.63868 25.86C9.16048 22.9226 9.58512 19.9093 10.8565 17.2184C12.1278 14.5275 14.1859 12.2859 16.7587 10.79C18.972 9.51319 21.4835 8.84394 24.0387 8.85001C27.4339 8.8468 30.7261 10.016 33.3587 12.16ZM6.19868 33.81C5.66186 32.8972 5.20355 31.9404 4.82868 30.95L8.30868 28.94L36.6887 12.55L40.1587 10.55L40.1687 10.54C40.8168 11.3771 41.4145 12.2519 41.9587 13.16L54.2487 34.44L50.7887 36.44L21.9487 53.08L18.4787 55.08L6.19868 33.81ZM32.2987 79.02L19.4787 56.82L22.9487 54.82L35.7687 77.02C37.5881 80.1374 40.3855 82.5672 43.7269 83.9324C47.0683 85.2975 50.7669 85.5216 54.2487 84.57C55.3867 85.628 56.6147 86.5849 57.9187 87.43C57.9328 87.4463 57.9497 87.4599 57.9687 87.47C53.3951 89.4313 48.2627 89.655 43.5358 88.099C38.809 86.5431 34.813 83.3145 32.2987 79.02ZM87.9187 79.02C85.3488 83.47 81.1874 86.7803 76.2734 88.2835C71.3594 89.7866 66.0583 89.3709 61.4387 87.12C61.4187 87.11 57.0197 84.987 54.9487 82.43C51.6733 78.8689 49.7363 74.2809 49.4687 69.45C49.4687 64.033 50.3687 61.603 52.1487 58.37L57.7987 48.59L61.2587 42.59L64.9687 36.17L68.4287 38.17L55.6087 60.37C53.4546 64.1149 52.8734 68.5612 53.9925 72.734C55.1116 76.9068 57.8397 80.4656 61.5787 82.63L62.1887 82.99C64.6544 84.4145 67.4511 85.1663 70.2987 85.17C71.7368 85.1666 73.1685 84.9784 74.5587 84.61C76.627 84.0613 78.566 83.108 80.2636 81.8052C81.9612 80.5024 83.3836 78.876 84.4487 77.02L97.2687 54.82L100.739 56.82L87.9187 79.02ZM70.1687 39.17L95.5387 53.82L82.7187 76.02C80.8183 79.299 77.6954 81.6908 74.0345 82.6712C70.3736 83.6516 66.4734 83.1405 63.1887 81.25L62.5787 80.9C59.2981 79.0012 56.9049 75.8783 55.9243 72.2167C54.9438 68.5552 55.4561 64.6542 57.3487 61.37L70.1687 39.17ZM114.019 33.81L101.739 55.08L98.2687 53.08L69.4287 36.44L65.9687 34.44L78.2587 13.16C78.8005 12.2504 79.3983 11.3754 80.0487 10.54L83.5287 12.55L111.909 28.94L115.389 30.95C115.007 31.9376 114.549 32.8939 114.019 33.81ZM86.8587 12.16C89.1587 10.2696 91.9807 9.1259 94.9479 8.88173C97.9151 8.63757 100.886 9.30455 103.464 10.7936C106.042 12.2826 108.105 14.5228 109.376 17.215C110.647 19.9071 111.067 22.9231 110.579 25.86L86.8587 12.16ZM116.039 29.01L112.399 26.92C113.133 23.4867 112.76 19.909 111.335 16.7006C109.909 13.4922 107.503 10.818 104.463 9.06186C101.423 7.30573 97.9044 6.55799 94.4128 6.92596C90.9212 7.29393 87.636 8.7587 85.0287 11.11L81.3987 9.01001C84.6087 5.74773 88.8111 3.64363 93.3463 3.02797C97.8815 2.4123 102.493 3.31992 106.456 5.60836C110.42 7.89681 113.511 11.4365 115.246 15.672C116.98 19.9075 117.259 24.5989 116.039 29.01Z" stroke="black"/>
<path d="M114.019 33.81L101.739 55.08L98.2687 53.08L69.4287 36.44L65.9687 34.44L78.2587 13.16C78.8005 12.2504 79.3983 11.3754 80.0487 10.54L83.5287 12.55L111.909 28.94L115.389 30.95C115.007 31.9376 114.549 32.8939 114.019 33.81Z" stroke="black"/>
<path d="M6.19868 33.81C5.66186 32.8972 5.20355 31.9404 4.82868 30.95L8.30868 28.94L36.6887 12.55L40.1587 10.55L40.1687 10.54C40.8168 11.3771 41.4145 12.2519 41.9587 13.16L54.2487 34.44L50.7887 36.44L21.9487 53.08L18.4787 55.08L6.19868 33.81Z" stroke="black"/>
</svg>
