<svg width="120" height="100" viewBox="0 0 120 100" fill="none" xmlns="http://www.w3.org/2000/svg">
<path d="M4.00863 34.44C3.73329 34.4385 3.46968 34.3284 3.27498 34.1337C3.08028 33.939 2.9702 33.6754 2.96863 33.4001V27.3C2.97048 25.3964 3.72754 23.5712 5.07365 22.2251C6.41976 20.879 8.24494 20.1219 10.1486 20.12H16.1386C16.2752 20.1199 16.4105 20.1467 16.5368 20.1989C16.663 20.2512 16.7777 20.3278 16.8743 20.4244C16.9709 20.521 17.0475 20.6357 17.0997 20.7619C17.1519 20.8881 17.1788 21.0234 17.1786 21.16V33.4001C17.1788 33.5367 17.1519 33.672 17.0997 33.7982C17.0475 33.9244 16.9709 34.0391 16.8743 34.1357C16.7777 34.2323 16.663 34.3089 16.5368 34.3612C16.4105 34.4134 16.2752 34.4402 16.1386 34.44H4.00863Z" fill="black"/>
<path d="M17.1786 96.4C17.1798 96.5374 17.1538 96.6737 17.1021 96.8009C17.0504 96.9282 16.974 97.044 16.8773 97.1416C16.7806 97.2392 16.6656 97.3167 16.5388 97.3697C16.412 97.4226 16.276 97.4499 16.1386 97.45H10.1486C8.24543 97.4466 6.42117 96.689 5.0754 95.3433C3.72963 93.9975 2.97207 92.1732 2.96863 90.27V84.17C2.96809 83.8931 3.07717 83.6273 3.27204 83.4305C3.46691 83.2338 3.73172 83.1222 4.00863 83.12H16.1386C16.276 83.1202 16.412 83.1475 16.5388 83.2004C16.6656 83.2534 16.7806 83.3309 16.8773 83.4285C16.974 83.5261 17.0504 83.6419 17.1021 83.7691C17.1538 83.8964 17.1798 84.0327 17.1786 84.17V96.4Z" fill="black"/>
<path d="M116.209 83.12C116.486 83.1222 116.75 83.2338 116.945 83.4305C117.14 83.6273 117.249 83.8931 117.249 84.17V90.27C117.245 92.1732 116.488 93.9975 115.142 95.3433C113.796 96.689 111.972 97.4466 110.069 97.45H104.079C103.802 97.4479 103.537 97.3363 103.342 97.1396C103.147 96.9428 103.038 96.677 103.039 96.4V84.17C103.038 83.8931 103.147 83.6273 103.342 83.4305C103.537 83.2338 103.802 83.1222 104.079 83.12H116.209Z" fill="black"/>
<path d="M104.079 34.44C103.803 34.4385 103.54 34.3284 103.345 34.1337C103.15 33.939 103.04 33.6754 103.039 33.4001V21.16C103.04 20.8847 103.15 20.6211 103.345 20.4264C103.54 20.2317 103.803 20.1216 104.079 20.12H110.069C111.972 20.1219 113.798 20.879 115.144 22.2251C116.49 23.5712 117.247 25.3964 117.249 27.3V33.4001C117.247 33.6754 117.137 33.939 116.942 34.1337C116.748 34.3284 116.484 34.4385 116.209 34.44H104.079Z" fill="black"/>
<path d="M39.7186 94.38H34.4886V23.19H39.7186V94.38Z" fill="black"/>
<path d="M85.7286 23.34V94.54H80.4986V23.34H85.7286Z" fill="black"/>
<path d="M84.3986 21.19L80.3186 9.42005C80.0402 8.6233 79.5212 7.93268 78.8333 7.44364C78.1454 6.9546 77.3226 6.69128 76.4786 6.69005H43.7386C42.8946 6.69128 42.0718 6.9546 41.384 7.44364C40.6961 7.93268 40.1771 8.6233 39.8986 9.42005L35.8186 21.19H31.4386L37.1786 4.63005C37.3915 4.02456 37.7863 3.49969 38.309 3.12733C38.8318 2.75496 39.4568 2.55333 40.0986 2.55005H80.1186C80.7604 2.55333 81.3855 2.75496 81.9082 3.12733C82.431 3.49969 82.8258 4.02456 83.0386 4.63005L88.7786 21.19H84.3986Z" fill="black"/>
<path d="M4.00863 34.44C3.73329 34.4385 3.46968 34.3284 3.27498 34.1337C3.08028 33.939 2.9702 33.6754 2.96863 33.4001V27.3C2.97048 25.3964 3.72754 23.5712 5.07365 22.2251C6.41976 20.879 8.24494 20.1219 10.1486 20.12H16.1386C16.2752 20.1199 16.4105 20.1467 16.5368 20.1989C16.663 20.2512 16.7777 20.3278 16.8743 20.4244C16.9709 20.521 17.0475 20.6357 17.0997 20.7619C17.1519 20.8881 17.1788 21.0234 17.1786 21.16V33.4001C17.1788 33.5367 17.1519 33.672 17.0997 33.7982C17.0475 33.9244 16.9709 34.0391 16.8743 34.1357C16.7777 34.2323 16.663 34.3089 16.5368 34.3612C16.4105 34.4134 16.2752 34.4402 16.1386 34.44H4.00863Z" stroke="black"/>
<path d="M17.1786 96.4C17.1798 96.5374 17.1538 96.6737 17.1021 96.8009C17.0504 96.9282 16.974 97.044 16.8773 97.1416C16.7806 97.2392 16.6656 97.3167 16.5388 97.3697C16.412 97.4226 16.276 97.4499 16.1386 97.45H10.1486C8.24543 97.4466 6.42117 96.689 5.0754 95.3433C3.72963 93.9975 2.97207 92.1732 2.96863 90.27V84.17C2.96809 83.8931 3.07717 83.6273 3.27204 83.4305C3.46691 83.2338 3.73172 83.1222 4.00863 83.12H16.1386C16.276 83.1202 16.412 83.1475 16.5388 83.2004C16.6656 83.2534 16.7806 83.3309 16.8773 83.4285C16.974 83.5261 17.0504 83.6419 17.1021 83.7691C17.1538 83.8964 17.1798 84.0327 17.1786 84.17V96.4Z" stroke="black"/>
<path d="M116.209 83.12C116.486 83.1222 116.75 83.2338 116.945 83.4305C117.14 83.6273 117.249 83.8931 117.249 84.17V90.27C117.245 92.1732 116.488 93.9975 115.142 95.3433C113.796 96.689 111.972 97.4466 110.069 97.45H104.079C103.802 97.4479 103.537 97.3363 103.342 97.1396C103.147 96.9428 103.038 96.677 103.039 96.4V84.17C103.038 83.8931 103.147 83.6273 103.342 83.4305C103.537 83.2338 103.802 83.1222 104.079 83.12H116.209Z" stroke="black"/>
<path d="M104.079 34.44C103.803 34.4385 103.54 34.3284 103.345 34.1337C103.15 33.939 103.04 33.6754 103.039 33.4001V21.16C103.04 20.8847 103.15 20.6211 103.345 20.4264C103.54 20.2317 103.803 20.1216 104.079 20.12H110.069C111.972 20.1219 113.798 20.879 115.144 22.2251C116.49 23.5712 117.247 25.3964 117.249 27.3V33.4001C117.247 33.6754 117.137 33.939 116.942 34.1337C116.748 34.3284 116.484 34.4385 116.209 34.44H104.079Z" stroke="black"/>
<path d="M39.7186 94.38H34.4886V23.19H39.7186V94.38Z" stroke="black"/>
<path d="M85.7286 23.34V94.54H80.4986V23.34H85.7286Z" stroke="black"/>
<path d="M84.3986 21.19L80.3186 9.42005C80.0402 8.6233 79.5212 7.93268 78.8333 7.44364C78.1454 6.9546 77.3226 6.69128 76.4786 6.69005H43.7386C42.8946 6.69128 42.0718 6.9546 41.384 7.44364C40.6961 7.93268 40.1771 8.6233 39.8986 9.42005L35.8186 21.19H31.4386L37.1786 4.63005C37.3915 4.02456 37.7863 3.49969 38.309 3.12733C38.8318 2.75496 39.4568 2.55333 40.0986 2.55005H80.1186C80.7604 2.55333 81.3855 2.75496 81.9082 3.12733C82.431 3.49969 82.8258 4.02456 83.0386 4.63005L88.7786 21.19H84.3986Z" stroke="black"/>
</svg>
