<svg width="66" height="116" viewBox="0 0 66 116" fill="none" xmlns="http://www.w3.org/2000/svg">
<path d="M65.3987 58.55L56.7087 5.42003C56.5225 4.24808 55.9231 3.18143 55.0189 2.41295C54.1147 1.64447 52.9653 1.22487 51.7787 1.23003H14.4387C13.2521 1.22487 12.1027 1.64447 11.1985 2.41295C10.2943 3.18143 9.69492 4.24808 9.5087 5.42003L0.818697 58.55C0.699858 59.2655 0.738332 59.9982 0.931438 60.6972C1.12454 61.3963 1.46765 62.0449 1.93687 62.5979C2.4061 63.1508 2.99018 63.5949 3.64847 63.8993C4.30677 64.2036 5.02346 64.3608 5.7487 64.36H27.1087V81.09C24.0074 81.9603 21.1324 83.4947 18.6833 85.5868C16.2341 87.679 14.2692 90.2788 12.925 93.206C11.5808 96.1333 10.8894 99.3178 10.8986 102.539C10.9079 105.76 11.6177 108.941 12.9787 111.86C13.3856 112.727 14.03 113.46 14.8372 113.976C15.6444 114.491 16.5812 114.766 17.5387 114.77H48.6787C49.629 114.768 50.5596 114.498 51.3629 113.99C52.1662 113.482 52.8095 112.758 53.2187 111.9C54.7988 108.561 55.5108 104.877 55.2887 101.19C54.9774 96.5886 53.2578 92.1944 50.3632 88.6039C47.4686 85.0134 43.5393 82.4005 39.1087 81.12V64.36H55.5387V81.04C54.4872 81.2854 53.5626 81.909 52.9409 82.7919C52.3193 83.6748 52.0441 84.7555 52.1676 85.8282C52.2911 86.9009 52.8047 87.8907 53.6108 88.6093C54.4168 89.3278 55.4589 89.7249 56.5387 89.7249C57.6185 89.7249 58.6606 89.3278 59.4666 88.6093C60.2726 87.8907 60.7863 86.9009 60.9098 85.8282C61.0333 84.7555 60.7581 83.6748 60.1365 82.7919C59.5148 81.909 58.5902 81.2854 57.5387 81.04V64.36H60.4687C61.1939 64.3608 61.9106 64.2036 62.5689 63.8993C63.2272 63.5949 63.8113 63.1508 64.2805 62.5979C64.7497 62.0449 65.0928 61.3963 65.286 60.6972C65.4791 59.9982 65.5175 59.2655 65.3987 58.55ZM53.2887 101.3C53.2892 101.31 53.2896 101.32 53.2901 101.329C53.3096 101.729 53.3287 102.12 53.3287 102.51C53.33 105.464 52.6741 108.381 51.4087 111.05C51.1618 111.565 50.7746 111.999 50.2916 112.303C49.8086 112.608 49.2495 112.77 48.6787 112.77H17.5387C16.961 112.766 16.3962 112.599 15.9095 112.287C15.4229 111.976 15.0343 111.533 14.7887 111.01C13.5691 108.383 12.9275 105.524 12.9075 102.628C12.8874 99.7316 13.4892 96.8646 14.6722 94.2207C15.8553 91.5768 17.5921 89.2177 19.7651 87.3026C21.9382 85.3876 24.497 83.9613 27.2687 83.12H27.2887C29.1734 82.554 31.1309 82.2677 33.0987 82.27C34.8524 82.3051 36.5966 82.5365 38.2987 82.96C42.3913 84.0839 46.0329 86.4531 48.7188 89.7392C51.4047 93.0254 53.0018 97.0656 53.2887 101.3ZM29.1087 80.65V64.36H37.1087V80.65C34.4618 80.1907 31.7556 80.1907 29.1087 80.65ZM58.9387 85.32C58.9397 85.7961 58.7993 86.2618 58.5355 86.6581C58.2716 87.0543 57.896 87.3633 57.4564 87.546C57.0167 87.7286 56.5327 87.7767 56.0657 87.6841C55.5987 87.5914 55.1698 87.3623 54.8331 87.0256C54.4965 86.689 54.2673 86.26 54.1747 85.793C54.082 85.326 54.1301 84.842 54.3127 84.4024C54.4954 83.9627 54.8044 83.5872 55.2007 83.3233C55.5969 83.0594 56.0626 82.919 56.5387 82.92C57.1752 82.92 57.7857 83.1729 58.2358 83.623C58.6858 84.0731 58.9387 84.6835 58.9387 85.32ZM62.7587 61.3C62.4778 61.6335 62.1271 61.9012 61.7314 62.0844C61.3358 62.2675 60.9047 62.3616 60.4687 62.36H5.7487C5.31424 62.3598 4.88501 62.2653 4.49069 62.0829C4.09637 61.9005 3.74636 61.6347 3.46488 61.3037C3.18339 60.9728 2.97715 60.5847 2.8604 60.1662C2.74365 59.7477 2.71918 59.3089 2.7887 58.88L11.4787 5.74003C11.5927 5.03786 11.9534 4.39937 12.4959 3.9393C13.0385 3.47922 13.7273 3.22774 14.4387 3.23003H51.7787C52.4901 3.22774 53.1789 3.47922 53.7215 3.9393C54.264 4.39937 54.6247 5.03786 54.7387 5.74003L63.4287 58.88C63.4993 59.3079 63.4759 59.7459 63.3602 60.1638C63.2445 60.5817 63.0393 60.9694 62.7587 61.3Z" fill="black"/>
<path d="M62.7587 61.3C62.4778 61.6335 62.1271 61.9012 61.7314 62.0844C61.3358 62.2675 60.9047 62.3616 60.4687 62.36H5.7487C5.31424 62.3598 4.88501 62.2653 4.49069 62.0829C4.09637 61.9005 3.74636 61.6347 3.46488 61.3037C3.18339 60.9728 2.97715 60.5847 2.8604 60.1662C2.74365 59.7477 2.71918 59.3089 2.7887 58.88L11.4787 5.74003C11.5927 5.03786 11.9534 4.39937 12.4959 3.9393C13.0385 3.47922 13.7273 3.22774 14.4387 3.23003H51.7787C52.4901 3.22774 53.1789 3.47922 53.7215 3.9393C54.264 4.39937 54.6247 5.03786 54.7387 5.74003L63.4287 58.88C63.4993 59.3079 63.4759 59.7459 63.3602 60.1638C63.2445 60.5817 63.0393 60.9694 62.7587 61.3Z" fill="black"/>
<path d="M53.2887 101.3C53.0018 97.0656 51.4047 93.0254 48.7188 89.7392C46.0329 86.4531 42.3913 84.0839 38.2987 82.96C36.5966 82.5365 34.8524 82.3051 33.0987 82.27C31.1309 82.2677 29.1734 82.554 27.2887 83.12H27.2687C24.497 83.9613 21.9382 85.3876 19.7651 87.3026C17.5921 89.2177 15.8553 91.5768 14.6722 94.2207C13.4892 96.8646 12.8874 99.7316 12.9075 102.628C12.9275 105.524 13.5691 108.383 14.7887 111.01C15.0343 111.533 15.4229 111.976 15.9095 112.287C16.3962 112.599 16.961 112.766 17.5387 112.77H48.6787C49.2495 112.769 49.8086 112.608 50.2916 112.303C50.7746 111.999 51.1618 111.565 51.4087 111.05C52.6741 108.381 53.33 105.464 53.3287 102.51C53.3287 102.12 53.3096 101.729 53.2901 101.329M53.2887 101.3L53.2901 101.329M53.2887 101.3C53.2892 101.31 53.2897 101.32 53.2901 101.329M65.3987 58.55L56.7087 5.42003C56.5225 4.24808 55.9231 3.18143 55.0189 2.41295C54.1147 1.64447 52.9653 1.22487 51.7787 1.23003H14.4387C13.2521 1.22487 12.1027 1.64447 11.1985 2.41295C10.2943 3.18143 9.69492 4.24808 9.5087 5.42003L0.818697 58.55C0.699858 59.2655 0.738332 59.9982 0.931438 60.6972C1.12454 61.3963 1.46765 62.0449 1.93687 62.5979C2.4061 63.1508 2.99018 63.5949 3.64847 63.8993C4.30677 64.2036 5.02346 64.3608 5.7487 64.36H27.1087V81.09C24.0074 81.9603 21.1324 83.4947 18.6833 85.5868C16.2341 87.679 14.2692 90.2788 12.925 93.206C11.5808 96.1333 10.8894 99.3178 10.8986 102.539C10.9079 105.76 11.6177 108.941 12.9787 111.86C13.3856 112.727 14.03 113.46 14.8372 113.976C15.6444 114.491 16.5812 114.766 17.5387 114.77H48.6787C49.629 114.768 50.5596 114.498 51.3629 113.99C52.1662 113.482 52.8095 112.758 53.2187 111.9C54.7988 108.561 55.5108 104.877 55.2887 101.19C54.9774 96.5886 53.2578 92.1944 50.3632 88.6039C47.4686 85.0134 43.5393 82.4005 39.1087 81.12V64.36H55.5387V81.04C54.4872 81.2854 53.5626 81.909 52.9409 82.7919C52.3193 83.6748 52.0441 84.7555 52.1676 85.8282C52.2911 86.9009 52.8047 87.8907 53.6108 88.6093C54.4168 89.3278 55.4589 89.7249 56.5387 89.7249C57.6185 89.7249 58.6606 89.3278 59.4666 88.6093C60.2726 87.8907 60.7863 86.9009 60.9098 85.8282C61.0333 84.7555 60.7581 83.6748 60.1365 82.7919C59.5148 81.909 58.5902 81.2854 57.5387 81.04V64.36H60.4687C61.1939 64.3608 61.9106 64.2036 62.5689 63.8993C63.2272 63.5949 63.8113 63.1508 64.2805 62.5979C64.7497 62.0449 65.0929 61.3963 65.286 60.6972C65.4791 59.9982 65.5175 59.2655 65.3987 58.55ZM29.1087 80.65V64.36H37.1087V80.65C34.4618 80.1907 31.7556 80.1907 29.1087 80.65ZM58.9387 85.32C58.9397 85.7961 58.7993 86.2618 58.5355 86.6581C58.2716 87.0543 57.896 87.3633 57.4564 87.546C57.0167 87.7286 56.5327 87.7767 56.0657 87.6841C55.5987 87.5914 55.1698 87.3623 54.8331 87.0256C54.4965 86.689 54.2673 86.26 54.1747 85.793C54.082 85.326 54.1301 84.842 54.3127 84.4024C54.4954 83.9627 54.8044 83.5871 55.2007 83.3233C55.5969 83.0594 56.0626 82.919 56.5387 82.92C57.1752 82.92 57.7857 83.1729 58.2358 83.623C58.6858 84.0731 58.9387 84.6835 58.9387 85.32ZM62.7587 61.3C62.4778 61.6335 62.1271 61.9012 61.7314 62.0844C61.3358 62.2675 60.9047 62.3616 60.4687 62.36H5.7487C5.31424 62.3598 4.88501 62.2653 4.49069 62.0829C4.09637 61.9005 3.74636 61.6347 3.46488 61.3037C3.18339 60.9728 2.97715 60.5847 2.8604 60.1662C2.74365 59.7477 2.71919 59.3089 2.7887 58.88L11.4787 5.74003C11.5927 5.03786 11.9534 4.39937 12.4959 3.9393C13.0385 3.47922 13.7273 3.22774 14.4387 3.23003H51.7787C52.4901 3.22774 53.1789 3.47922 53.7215 3.9393C54.264 4.39937 54.6247 5.03786 54.7387 5.74003L63.4287 58.88C63.4993 59.3079 63.4759 59.7459 63.3602 60.1638C63.2445 60.5817 63.0393 60.9694 62.7587 61.3Z" stroke="black"/>
</svg>
