<svg width="91" height="120" viewBox="0 0 91 120" fill="none" xmlns="http://www.w3.org/2000/svg">
<path d="M87.7486 55.7L46.1086 31.04V25.7C46.1149 25.5062 46.1914 25.3213 46.3238 25.1796C46.4563 25.038 46.6356 24.9493 46.8286 24.93C49.0933 24.6005 51.2157 23.6272 52.943 22.1259C54.6703 20.6245 55.9298 18.6584 56.5715 16.4617C57.2133 14.2649 57.2102 11.93 56.5627 9.73493C55.9152 7.53986 54.6505 5.5771 52.9193 4.08031C51.188 2.58353 49.0631 1.61577 46.7975 1.29227C44.5319 0.968768 42.2211 1.30314 40.1401 2.25558C38.0591 3.20802 36.2957 4.7384 35.0597 6.66454C33.8237 8.59067 33.1673 10.8314 33.1686 13.12C33.1686 13.3852 33.2739 13.6396 33.4615 13.8271C33.649 14.0146 33.9034 14.12 34.1686 14.12C34.4338 14.12 34.6882 14.0146 34.8757 13.8271C35.0632 13.6396 35.1686 13.3852 35.1686 13.12C35.1695 11.7822 35.4403 10.4583 35.9648 9.22761C36.4893 7.99691 37.2568 6.88472 38.2213 5.9576C39.1858 5.03048 40.3274 4.3075 41.5778 3.83196C42.8283 3.35641 44.1618 3.13806 45.4986 3.18999C47.9861 3.32137 50.3371 4.36865 52.0985 6.13007C53.8599 7.89149 54.9072 10.2424 55.0386 12.73C55.1381 15.1819 54.3254 17.5837 52.7573 19.4713C51.1892 21.3589 48.9772 22.5983 46.5486 22.95C45.8775 23.0344 45.26 23.3599 44.8111 23.8658C44.3622 24.3718 44.1125 25.0236 44.1086 25.7V31.04L2.46859 55.7C1.71493 56.1472 1.12898 56.8295 0.800813 57.6421C0.472644 58.4547 0.420414 59.3526 0.652151 60.1977C0.883888 61.0429 1.38677 61.7886 2.08349 62.3201C2.78022 62.8517 3.63224 63.1397 4.50859 63.14H8.80859V105.75C8.80672 106.508 8.98972 107.254 9.34173 107.925C9.69374 108.596 10.2041 109.171 10.8286 109.6C11.5884 110.116 12.4802 110.404 13.3986 110.43V112.63C13.397 113.209 13.5366 113.779 13.8053 114.292C14.0739 114.804 14.4635 115.244 14.9403 115.572C15.417 115.9 15.9666 116.106 16.5413 116.174C17.1161 116.242 17.6987 116.168 18.2386 115.96C22.0202 114.527 26.1448 114.262 30.0786 115.2L43.7186 118.47C44.7053 118.701 45.7152 118.818 46.7286 118.82C48.0339 118.823 49.3321 118.627 50.5786 118.24L58.5586 115.75C59.46 115.468 60.3786 115.245 61.3086 115.08C64.7042 114.511 68.189 114.824 71.4286 115.99C71.4286 115.99 73.9656 116.821 75.3086 115.77C75.7663 115.431 76.1404 114.991 76.4021 114.485C76.6638 113.979 76.8063 113.42 76.8186 112.85V110.54C77.7552 110.531 78.6664 110.234 79.4286 109.69C80.0403 109.256 80.5392 108.682 80.8837 108.015C81.2281 107.349 81.4081 106.61 81.4086 105.86V63.14H85.7086C86.5849 63.1397 87.437 62.8517 88.1337 62.3201C88.8304 61.7886 89.3333 61.0429 89.565 60.1977C89.7968 59.3526 89.7445 58.4547 89.4164 57.6421C89.0882 56.8295 88.5023 56.1472 87.7486 55.7ZM74.8186 112.85C74.8185 113.102 74.7579 113.35 74.6419 113.573C74.5259 113.797 74.358 113.989 74.1522 114.134C73.9464 114.279 73.7087 114.373 73.4592 114.407C73.2098 114.441 72.9557 114.415 72.7186 114.33L72.0986 114.1C68.5403 112.828 64.7157 112.487 60.9886 113.11C59.9666 113.285 58.9576 113.529 57.9686 113.84L49.9786 116.33C48.1007 116.912 46.1006 116.978 44.1886 116.52L30.5486 113.26C26.2231 112.221 21.6847 112.514 17.5286 114.1C17.2906 114.189 17.0345 114.219 16.7823 114.188C16.53 114.157 16.289 114.065 16.0798 113.921C15.8706 113.777 15.6995 113.584 15.5808 113.359C15.4622 113.134 15.3997 112.884 15.3986 112.63V110.02L19.8786 108.32C22.7919 107.203 25.9758 106.997 29.0086 107.73L42.6586 111C45.724 111.728 48.9286 111.621 51.9386 110.69L60.0386 108.17C63.2545 107.175 66.7058 107.245 69.8786 108.37L74.8186 110.14V112.85ZM79.4086 105.86C79.4126 106.289 79.3118 106.713 79.1149 107.095C78.918 107.477 78.6309 107.804 78.2786 108.05C77.9243 108.288 77.52 108.442 77.097 108.499C76.674 108.556 76.2434 108.515 75.8386 108.38L70.5586 106.49C66.9739 105.215 63.073 105.135 59.4386 106.26L51.3486 108.77C48.6803 109.602 45.8372 109.698 43.1186 109.05L29.4786 105.78C26.0496 104.959 22.4525 105.192 19.1586 106.45L14.4286 108.25C14.3286 108.29 14.2386 108.31 14.1386 108.34H14.1286C13.7604 108.438 13.3751 108.454 13.0001 108.387C12.625 108.32 12.2694 108.17 11.9586 107.95C11.601 107.706 11.3091 107.377 11.1085 106.994C10.908 106.61 10.8049 106.183 10.8086 105.75V99.48C10.8186 99.49 10.8186 99.5 10.8286 99.5C11.4509 99.9299 12.1685 100.202 12.9194 100.292C13.6702 100.383 14.4319 100.29 15.1386 100.02L19.8786 98.22C22.7919 97.103 25.9758 96.8972 29.0086 97.63L42.6586 100.89C43.9906 101.217 45.3571 101.381 46.7286 101.38C48.4958 101.379 50.2525 101.109 51.9386 100.58L60.0386 98.07C63.2545 97.0749 66.7058 97.1451 69.8786 98.27L75.1686 100.16C75.8689 100.414 76.6203 100.495 77.3586 100.395C78.0969 100.296 78.8002 100.02 79.4086 99.59V105.86ZM79.4086 95.76C79.4103 96.1888 79.3086 96.6117 79.112 96.9928C78.9155 97.374 78.63 97.7021 78.2796 97.9494C77.9293 98.1967 77.5245 98.3558 77.0996 98.4134C76.6746 98.4709 76.2421 98.4252 75.8386 98.28L70.5586 96.39C66.9729 95.1205 63.0737 95.0398 59.4386 96.16L51.3486 98.67C48.6803 99.5016 45.8372 99.5983 43.1186 98.95L29.4786 95.68C28.1385 95.3616 26.7659 95.2005 25.3886 95.2C23.259 95.1989 21.1474 95.5887 19.1586 96.35L14.4286 98.15C14.024 98.304 13.588 98.3574 13.1581 98.3054C12.7283 98.2535 12.3176 98.0977 11.9613 97.8517C11.6051 97.6057 11.314 97.2767 11.1132 96.8932C10.9124 96.5096 10.8078 96.0829 10.8086 95.65V94.89C10.8086 94.9 10.8186 94.9 10.8286 94.91C11.4519 95.3376 12.1694 95.6082 12.9198 95.6987C13.6702 95.7892 14.4315 95.6971 15.1386 95.43L19.8786 93.63C22.7919 92.513 25.9758 92.3072 29.0086 93.04L42.6586 96.3C45.723 97.0385 48.9303 96.9313 51.9386 95.99L60.0386 93.48C63.2538 92.48 66.7067 92.5501 69.8786 93.68L75.1686 95.57C75.8689 95.8209 76.6189 95.901 77.3564 95.8036C78.0939 95.7062 78.7975 95.4342 79.4086 95.01V95.76ZM79.4086 91.17C79.4115 91.5992 79.3102 92.0228 79.1134 92.4042C78.9166 92.7857 78.6301 93.1137 78.2786 93.36C77.9299 93.6103 77.5251 93.7713 77.0997 93.8288C76.6743 93.8864 76.2413 93.8387 75.8386 93.69L70.5586 91.8C66.9749 90.5221 63.074 90.4379 59.4386 91.56L51.3486 94.08C48.6803 94.9116 45.8372 95.0083 43.1186 94.36L29.4786 91.09C26.0496 90.2686 22.4525 90.5021 19.1586 91.76L14.4286 93.56C14.024 93.714 13.588 93.7674 13.1581 93.7154C12.7283 93.6635 12.3176 93.5078 11.9613 93.2617C11.6051 93.0157 11.314 92.6867 11.1132 92.3031C10.9124 91.9196 10.8078 91.4929 10.8086 91.06V58.58C10.8091 58.116 10.9937 57.6712 11.3217 57.3431C11.6498 57.0151 12.0946 56.8305 12.5586 56.83H77.6586C78.1226 56.8305 78.5674 57.0151 78.8954 57.3431C79.2235 57.6712 79.4081 58.116 79.4086 58.58V91.17ZM87.6386 59.67C87.5337 60.0989 87.2849 60.4788 86.9336 60.7464C86.5824 61.0139 86.1499 61.1529 85.7086 61.14H81.4086V58.58C81.4083 57.5855 81.0131 56.6318 80.3099 55.9286C79.6067 55.2254 78.6531 54.8303 77.6586 54.83H12.5586C11.5641 54.8303 10.6104 55.2254 9.90723 55.9286C9.20403 56.6318 8.80886 57.5855 8.80859 58.58V61.14H4.50859C4.07041 61.1399 3.6444 60.9958 3.29604 60.7301C2.94768 60.4643 2.69624 60.0914 2.58037 59.6689C2.4645 59.2463 2.49062 58.7973 2.6547 58.391C2.81879 57.9848 3.11176 57.6436 3.48859 57.42L44.9486 32.87L45.1086 32.78L45.2686 32.87L86.7286 57.42C87.1151 57.634 87.4164 57.9743 87.5821 58.3838C87.7477 58.7934 87.7677 59.2475 87.6386 59.67Z" fill="black"/>
<path d="M79.4086 95.76C79.4103 96.1888 79.3086 96.6117 79.112 96.9928C78.9155 97.374 78.63 97.7021 78.2796 97.9494C77.9293 98.1967 77.5245 98.3558 77.0996 98.4134C76.6746 98.4709 76.2421 98.4252 75.8386 98.28L70.5586 96.39C66.9729 95.1205 63.0737 95.0398 59.4386 96.16L51.3486 98.67C48.6803 99.5016 45.8372 99.5983 43.1186 98.95L29.4786 95.68C28.1385 95.3616 26.7659 95.2005 25.3886 95.2C23.259 95.1989 21.1474 95.5887 19.1586 96.35L14.4286 98.15C14.024 98.304 13.588 98.3574 13.1581 98.3054C12.7283 98.2535 12.3176 98.0977 11.9613 97.8517C11.6051 97.6057 11.314 97.2767 11.1132 96.8932C10.9124 96.5096 10.8078 96.0829 10.8086 95.65V94.89C10.8086 94.9 10.8186 94.9 10.8286 94.91C11.4519 95.3376 12.1694 95.6082 12.9198 95.6987C13.6702 95.7892 14.4315 95.6971 15.1386 95.43L19.8786 93.63C22.7919 92.513 25.9758 92.3072 29.0086 93.04L42.6586 96.3C45.723 97.0385 48.9303 96.9313 51.9386 95.99L60.0386 93.48C63.2538 92.48 66.7067 92.5501 69.8786 93.68L75.1686 95.57C75.8689 95.8209 76.6189 95.901 77.3564 95.8036C78.0939 95.7062 78.7975 95.4342 79.4086 95.01V95.76Z" fill="black"/>
<path d="M74.8186 112.85C74.8185 113.102 74.7579 113.35 74.6419 113.573C74.5259 113.797 74.358 113.989 74.1522 114.134C73.9464 114.279 73.7087 114.373 73.4592 114.407C73.2098 114.441 72.9557 114.415 72.7186 114.33L72.0986 114.1C68.5403 112.828 64.7157 112.487 60.9886 113.11C59.9666 113.285 58.9576 113.529 57.9686 113.84L49.9786 116.33C48.1007 116.912 46.1006 116.978 44.1886 116.52L30.5486 113.26C26.2231 112.221 21.6847 112.514 17.5286 114.1C17.2906 114.189 17.0345 114.219 16.7823 114.188C16.53 114.157 16.289 114.065 16.0798 113.921C15.8706 113.777 15.6995 113.584 15.5808 113.359C15.4622 113.134 15.3997 112.884 15.3986 112.63V110.02L19.8786 108.32C22.7919 107.203 25.9758 106.997 29.0086 107.73L42.6586 111C45.724 111.728 48.9286 111.621 51.9386 110.69L60.0386 108.17C63.2545 107.175 66.7058 107.245 69.8786 108.37L74.8186 110.14V112.85Z" fill="black"/>
<path d="M87.7486 55.7L46.1086 31.04V25.7C46.1149 25.5062 46.1914 25.3213 46.3238 25.1796C46.4563 25.038 46.6356 24.9493 46.8286 24.93C49.0933 24.6005 51.2157 23.6272 52.943 22.1259C54.6703 20.6245 55.9298 18.6584 56.5715 16.4617C57.2133 14.2649 57.2102 11.93 56.5627 9.73493C55.9152 7.53986 54.6505 5.5771 52.9193 4.08031C51.188 2.58353 49.0631 1.61577 46.7975 1.29227C44.5319 0.968768 42.2211 1.30314 40.1401 2.25558C38.0591 3.20802 36.2957 4.7384 35.0597 6.66454C33.8237 8.59067 33.1673 10.8314 33.1686 13.12C33.1686 13.3852 33.2739 13.6396 33.4615 13.8271C33.649 14.0146 33.9034 14.12 34.1686 14.12C34.4338 14.12 34.6882 14.0146 34.8757 13.8271C35.0632 13.6396 35.1686 13.3852 35.1686 13.12C35.1695 11.7822 35.4403 10.4583 35.9648 9.22761C36.4893 7.99691 37.2568 6.88472 38.2213 5.9576C39.1858 5.03048 40.3274 4.3075 41.5778 3.83196C42.8283 3.35641 44.1618 3.13806 45.4986 3.18999C47.9861 3.32137 50.3371 4.36865 52.0985 6.13007C53.8599 7.89149 54.9072 10.2424 55.0386 12.73C55.1381 15.1819 54.3254 17.5837 52.7573 19.4713C51.1892 21.3589 48.9772 22.5983 46.5486 22.95C45.8775 23.0344 45.26 23.3599 44.8111 23.8658C44.3622 24.3718 44.1125 25.0236 44.1086 25.7V31.04L2.46859 55.7C1.71493 56.1472 1.12898 56.8295 0.800813 57.6421C0.472644 58.4547 0.420414 59.3526 0.652151 60.1977C0.883888 61.0429 1.38677 61.7886 2.08349 62.3201C2.78022 62.8517 3.63224 63.1397 4.50859 63.14H8.80859V105.75C8.80672 106.508 8.98972 107.254 9.34173 107.925C9.69374 108.596 10.2041 109.171 10.8286 109.6C11.5884 110.116 12.4802 110.404 13.3986 110.43V112.63C13.397 113.209 13.5366 113.779 13.8053 114.292C14.0739 114.804 14.4635 115.244 14.9403 115.572C15.417 115.9 15.9666 116.106 16.5413 116.174C17.1161 116.242 17.6987 116.168 18.2386 115.96C22.0202 114.527 26.1448 114.262 30.0786 115.2L43.7186 118.47C44.7053 118.701 45.7152 118.818 46.7286 118.82C48.0339 118.823 49.3321 118.627 50.5786 118.24L58.5586 115.75C59.46 115.468 60.3786 115.245 61.3086 115.08C64.7042 114.511 68.189 114.824 71.4286 115.99C71.4286 115.99 73.9656 116.821 75.3086 115.77C75.7663 115.431 76.1404 114.991 76.4021 114.485C76.6638 113.979 76.8063 113.42 76.8186 112.85V110.54C77.7552 110.531 78.6664 110.234 79.4286 109.69C80.0403 109.256 80.5392 108.682 80.8837 108.015C81.2281 107.349 81.4081 106.61 81.4086 105.86V63.14H85.7086C86.5849 63.1397 87.437 62.8517 88.1337 62.3201C88.8304 61.7886 89.3333 61.0429 89.565 60.1977C89.7968 59.3526 89.7445 58.4547 89.4164 57.6421C89.0882 56.8295 88.5023 56.1472 87.7486 55.7ZM74.8186 112.85C74.8185 113.102 74.7579 113.35 74.6419 113.573C74.5259 113.797 74.358 113.989 74.1522 114.134C73.9464 114.279 73.7087 114.373 73.4592 114.407C73.2098 114.441 72.9557 114.415 72.7186 114.33L72.0986 114.1C68.5403 112.828 64.7157 112.487 60.9886 113.11C59.9666 113.285 58.9576 113.529 57.9686 113.84L49.9786 116.33C48.1007 116.912 46.1006 116.978 44.1886 116.52L30.5486 113.26C26.2231 112.221 21.6847 112.514 17.5286 114.1C17.2906 114.189 17.0345 114.219 16.7823 114.188C16.53 114.157 16.289 114.065 16.0798 113.921C15.8706 113.777 15.6995 113.584 15.5808 113.359C15.4622 113.134 15.3997 112.884 15.3986 112.63V110.02L19.8786 108.32C22.7919 107.203 25.9758 106.997 29.0086 107.73L42.6586 111C45.724 111.728 48.9286 111.621 51.9386 110.69L60.0386 108.17C63.2545 107.175 66.7058 107.245 69.8786 108.37L74.8186 110.14V112.85ZM79.4086 105.86C79.4126 106.289 79.3118 106.713 79.1149 107.095C78.918 107.477 78.6309 107.804 78.2786 108.05C77.9243 108.288 77.52 108.442 77.097 108.499C76.674 108.556 76.2434 108.515 75.8386 108.38L70.5586 106.49C66.9739 105.215 63.073 105.135 59.4386 106.26L51.3486 108.77C48.6803 109.602 45.8372 109.698 43.1186 109.05L29.4786 105.78C26.0496 104.959 22.4525 105.192 19.1586 106.45L14.4286 108.25C14.3286 108.29 14.2386 108.31 14.1386 108.34H14.1286C13.7604 108.438 13.3751 108.454 13.0001 108.387C12.625 108.32 12.2694 108.17 11.9586 107.95C11.601 107.706 11.3091 107.377 11.1085 106.994C10.908 106.61 10.8049 106.183 10.8086 105.75V99.48C10.8186 99.49 10.8186 99.5 10.8286 99.5C11.4509 99.9299 12.1685 100.202 12.9194 100.292C13.6702 100.383 14.4319 100.29 15.1386 100.02L19.8786 98.22C22.7919 97.103 25.9758 96.8972 29.0086 97.63L42.6586 100.89C43.9906 101.217 45.3571 101.381 46.7286 101.38C48.4958 101.379 50.2525 101.109 51.9386 100.58L60.0386 98.07C63.2545 97.0749 66.7058 97.1451 69.8786 98.27L75.1686 100.16C75.8689 100.414 76.6203 100.495 77.3586 100.395C78.0969 100.296 78.8002 100.02 79.4086 99.59V105.86ZM79.4086 95.76C79.4103 96.1888 79.3086 96.6117 79.112 96.9928C78.9155 97.374 78.63 97.7021 78.2796 97.9494C77.9293 98.1967 77.5245 98.3558 77.0996 98.4134C76.6746 98.4709 76.2421 98.4252 75.8386 98.28L70.5586 96.39C66.9729 95.1205 63.0737 95.0398 59.4386 96.16L51.3486 98.67C48.6803 99.5016 45.8372 99.5983 43.1186 98.95L29.4786 95.68C28.1385 95.3616 26.7659 95.2005 25.3886 95.2C23.259 95.1989 21.1474 95.5887 19.1586 96.35L14.4286 98.15C14.024 98.304 13.588 98.3574 13.1581 98.3054C12.7283 98.2535 12.3176 98.0977 11.9613 97.8517C11.6051 97.6057 11.314 97.2767 11.1132 96.8932C10.9124 96.5096 10.8078 96.0829 10.8086 95.65V94.89C10.8086 94.9 10.8186 94.9 10.8286 94.91C11.4519 95.3376 12.1694 95.6082 12.9198 95.6987C13.6702 95.7892 14.4315 95.6971 15.1386 95.43L19.8786 93.63C22.7919 92.513 25.9758 92.3072 29.0086 93.04L42.6586 96.3C45.723 97.0385 48.9303 96.9313 51.9386 95.99L60.0386 93.48C63.2538 92.48 66.7067 92.5501 69.8786 93.68L75.1686 95.57C75.8689 95.8209 76.6189 95.901 77.3564 95.8036C78.0939 95.7062 78.7975 95.4342 79.4086 95.01V95.76ZM79.4086 91.17C79.4115 91.5992 79.3102 92.0228 79.1134 92.4042C78.9166 92.7857 78.6301 93.1137 78.2786 93.36C77.9299 93.6103 77.5251 93.7713 77.0997 93.8288C76.6743 93.8864 76.2413 93.8387 75.8386 93.69L70.5586 91.8C66.9749 90.5221 63.074 90.4379 59.4386 91.56L51.3486 94.08C48.6803 94.9116 45.8372 95.0083 43.1186 94.36L29.4786 91.09C26.0496 90.2686 22.4525 90.5021 19.1586 91.76L14.4286 93.56C14.024 93.714 13.588 93.7674 13.1581 93.7154C12.7283 93.6635 12.3176 93.5078 11.9613 93.2617C11.6051 93.0157 11.314 92.6867 11.1132 92.3031C10.9124 91.9196 10.8078 91.4929 10.8086 91.06V58.58C10.8091 58.116 10.9937 57.6712 11.3217 57.3431C11.6498 57.0151 12.0946 56.8305 12.5586 56.83H77.6586C78.1226 56.8305 78.5674 57.0151 78.8954 57.3431C79.2235 57.6712 79.4081 58.116 79.4086 58.58V91.17ZM87.6386 59.67C87.5337 60.0989 87.2849 60.4788 86.9336 60.7464C86.5824 61.0139 86.1499 61.1529 85.7086 61.14H81.4086V58.58C81.4083 57.5855 81.0131 56.6318 80.3099 55.9286C79.6067 55.2254 78.6531 54.8303 77.6586 54.83H12.5586C11.5641 54.8303 10.6104 55.2254 9.90723 55.9286C9.20403 56.6318 8.80886 57.5855 8.80859 58.58V61.14H4.50859C4.07041 61.1399 3.6444 60.9958 3.29604 60.7301C2.94768 60.4643 2.69624 60.0914 2.58037 59.6689C2.4645 59.2463 2.49062 58.7973 2.6547 58.391C2.81879 57.9848 3.11176 57.6436 3.48859 57.42L44.9486 32.87L45.1086 32.78L45.2686 32.87L86.7286 57.42C87.1151 57.634 87.4164 57.9743 87.5821 58.3838C87.7477 58.7934 87.7677 59.2475 87.6386 59.67Z" stroke="black"/>
<path d="M79.4086 95.76C79.4103 96.1888 79.3086 96.6117 79.112 96.9928C78.9155 97.374 78.63 97.7021 78.2796 97.9494C77.9293 98.1967 77.5245 98.3558 77.0996 98.4134C76.6746 98.4709 76.2421 98.4252 75.8386 98.28L70.5586 96.39C66.9729 95.1205 63.0737 95.0398 59.4386 96.16L51.3486 98.67C48.6803 99.5016 45.8372 99.5983 43.1186 98.95L29.4786 95.68C28.1385 95.3616 26.7659 95.2005 25.3886 95.2C23.259 95.1989 21.1474 95.5887 19.1586 96.35L14.4286 98.15C14.024 98.304 13.588 98.3574 13.1581 98.3054C12.7283 98.2535 12.3176 98.0977 11.9613 97.8517C11.6051 97.6057 11.314 97.2767 11.1132 96.8932C10.9124 96.5096 10.8078 96.0829 10.8086 95.65V94.89C10.8086 94.9 10.8186 94.9 10.8286 94.91C11.4519 95.3376 12.1694 95.6082 12.9198 95.6987C13.6702 95.7892 14.4315 95.6971 15.1386 95.43L19.8786 93.63C22.7919 92.513 25.9758 92.3072 29.0086 93.04L42.6586 96.3C45.723 97.0385 48.9303 96.9313 51.9386 95.99L60.0386 93.48C63.2538 92.48 66.7067 92.5501 69.8786 93.68L75.1686 95.57C75.8689 95.8209 76.6189 95.901 77.3564 95.8036C78.0939 95.7062 78.7975 95.4342 79.4086 95.01V95.76Z" stroke="black"/>
<path d="M74.8186 112.85C74.8185 113.102 74.7579 113.35 74.6419 113.573C74.5259 113.797 74.358 113.989 74.1522 114.134C73.9464 114.279 73.7087 114.373 73.4592 114.407C73.2098 114.441 72.9557 114.415 72.7186 114.33L72.0986 114.1C68.5403 112.828 64.7157 112.487 60.9886 113.11C59.9666 113.285 58.9576 113.529 57.9686 113.84L49.9786 116.33C48.1007 116.912 46.1006 116.978 44.1886 116.52L30.5486 113.26C26.2231 112.221 21.6847 112.514 17.5286 114.1C17.2906 114.189 17.0345 114.219 16.7823 114.188C16.53 114.157 16.289 114.065 16.0798 113.921C15.8706 113.777 15.6995 113.584 15.5808 113.359C15.4622 113.134 15.3997 112.884 15.3986 112.63V110.02L19.8786 108.32C22.7919 107.203 25.9758 106.997 29.0086 107.73L42.6586 111C45.724 111.728 48.9286 111.621 51.9386 110.69L60.0386 108.17C63.2545 107.175 66.7058 107.245 69.8786 108.37L74.8186 110.14V112.85Z" stroke="black"/>
</svg>
