<svg width="122" height="124" viewBox="0 0 122 124" fill="none" xmlns="http://www.w3.org/2000/svg">
<path d="M116.719 90.7H114.039V53.77C114.039 39.7321 108.462 26.2691 98.5358 16.3428C88.6095 6.4165 75.1466 0.839966 61.1087 0.839966C47.0707 0.839966 33.6078 6.4165 23.6815 16.3428C13.7552 26.2691 8.17866 39.7321 8.17866 53.77V90.7H5.49866C4.43877 90.7031 3.42319 91.1256 2.67373 91.875C1.92427 92.6245 1.50182 93.6401 1.49866 94.7V96.7C1.49998 97.7604 1.92183 98.7771 2.67169 99.5269C3.42155 100.277 4.4382 100.699 5.49866 100.7H8.53866V105.62C6.78768 106.707 5.43863 108.335 4.69582 110.257C3.95301 112.18 3.85691 114.292 4.42207 116.274C4.98723 118.256 6.18287 120 7.82789 121.241C9.47292 122.483 11.4777 123.154 13.5387 123.154C15.5996 123.154 17.6044 122.483 19.2494 121.241C20.8944 120 22.0901 118.256 22.6552 116.274C23.2204 114.292 23.1243 112.18 22.3815 110.257C21.6387 108.335 20.2896 106.707 18.5387 105.62V100.7H104.399V105.61C102.644 106.695 101.291 108.323 100.545 110.247C99.7988 112.17 99.6998 114.284 100.263 116.269C100.826 118.254 102.021 120.001 103.666 121.245C105.312 122.49 107.318 123.165 109.381 123.167C111.444 123.169 113.452 122.498 115.1 121.257C116.747 120.015 117.946 118.271 118.513 116.287C119.08 114.304 118.985 112.189 118.243 110.264C117.501 108.339 116.151 106.709 114.399 105.62V100.7H116.719C117.779 100.699 118.796 100.277 119.546 99.5269C120.295 98.7771 120.717 97.7604 120.719 96.7V94.7C120.715 93.6401 120.293 92.6245 119.544 91.875C118.794 91.1256 117.779 90.7031 116.719 90.7ZM10.1787 53.77C10.1787 40.2625 15.5445 27.3082 25.0957 17.757C34.6469 8.20579 47.6012 2.83997 61.1087 2.83997C74.6161 2.83997 87.5704 8.20579 97.1216 17.757C106.673 27.3082 112.039 40.2625 112.039 53.77V90.7H10.1787V53.77ZM16.5387 109.67C16.5387 110.466 16.2226 111.229 15.66 111.791C15.0974 112.354 14.3343 112.67 13.5387 112.67C12.743 112.67 11.9799 112.354 11.4173 111.791C10.8547 111.229 10.5387 110.466 10.5387 109.67V100.7H16.5387V109.67ZM21.0187 113.67C21.0192 114.917 20.7079 116.145 20.1132 117.241C19.5184 118.337 18.659 119.267 17.6132 119.946C16.5674 120.625 15.3683 121.032 14.125 121.13C12.8818 121.228 11.6338 121.013 10.4946 120.506C9.35549 119.998 8.3613 119.214 7.60252 118.224C6.84374 117.235 6.34445 116.071 6.15008 114.839C5.9557 113.607 6.0724 112.346 6.48957 111.171C6.90673 109.996 7.61112 108.944 8.53866 108.11V109.67C8.53866 110.996 9.06544 112.268 10.0031 113.206C10.9408 114.143 12.2126 114.67 13.5387 114.67C14.8647 114.67 16.1365 114.143 17.0742 113.206C18.0119 112.268 18.5387 110.996 18.5387 109.67V108.11C19.3195 108.81 19.9439 109.668 20.3712 110.626C20.7985 111.584 21.0191 112.621 21.0187 113.67ZM116.879 113.67C116.881 114.919 116.571 116.148 115.977 117.247C115.382 118.345 114.522 119.277 113.476 119.958C112.429 120.64 111.228 121.048 109.983 121.146C108.738 121.245 107.488 121.03 106.348 120.522C105.207 120.013 104.211 119.228 103.452 118.236C102.692 117.245 102.193 116.079 101.999 114.846C101.806 113.612 101.924 112.349 102.343 111.173C102.762 109.996 103.469 108.943 104.399 108.11V109.67C104.399 110.996 104.925 112.268 105.863 113.206C106.801 114.143 108.073 114.67 109.399 114.67C110.725 114.67 111.997 114.143 112.934 113.206C113.872 112.268 114.399 110.996 114.399 109.67V108.11C115.179 108.81 115.804 109.668 116.231 110.626C116.659 111.584 116.879 112.621 116.879 113.67ZM106.399 109.67V100.7H112.399V109.67C112.399 110.466 112.083 111.229 111.52 111.791C110.957 112.354 110.194 112.67 109.399 112.67C108.603 112.67 107.84 112.354 107.277 111.791C106.715 111.229 106.399 110.466 106.399 109.67ZM118.719 96.7C118.719 97.2304 118.508 97.7391 118.133 98.1142C117.758 98.4893 117.249 98.7 116.719 98.7H5.49866C4.96822 98.7 4.45952 98.4893 4.08444 98.1142C3.70937 97.7391 3.49866 97.2304 3.49866 96.7V94.7C3.50024 94.17 3.71146 93.6622 4.08619 93.2875C4.46092 92.9128 4.96871 92.7015 5.49866 92.7H116.719C117.249 92.7015 117.756 92.9128 118.131 93.2875C118.506 93.6622 118.717 94.17 118.719 94.7V96.7Z" fill="black"/>
<path d="M61.1087 8.84997C49.1981 8.86267 37.7789 13.5991 29.3559 22.0202C20.9329 30.4412 16.194 41.8594 16.1787 53.77V84.7H106.039V53.77C106.023 41.8594 101.284 30.4412 92.8614 22.0202C84.4384 13.5991 73.0192 8.86267 61.1087 8.84997ZM37.3987 81.1C37.4001 81.1139 37.3985 81.128 37.3941 81.1413C37.3897 81.1546 37.3826 81.1669 37.3732 81.1772C37.3637 81.1876 37.3522 81.1959 37.3394 81.2015C37.3266 81.2072 37.3127 81.21 37.2987 81.21H34.0487C33.1395 81.2084 32.2679 80.8465 31.625 80.2036C30.9821 79.5607 30.6202 78.6892 30.6187 77.78V74.48C30.6189 74.4509 30.6306 74.423 30.6512 74.4025C30.6717 74.3819 30.6996 74.3702 30.7287 74.37H37.2987C37.3127 74.3699 37.3266 74.3728 37.3394 74.3784C37.3522 74.3841 37.3637 74.3923 37.3732 74.4027C37.3826 74.4131 37.3897 74.4253 37.3941 74.4386C37.3985 74.4519 37.4001 74.466 37.3987 74.48V81.1ZM37.2987 72.37H32.2787V49.09H37.2987C37.8567 49.0878 38.3911 48.8645 38.7848 48.469C39.1784 48.0735 39.3992 47.538 39.3987 46.98V41.91H45.6887V79.55H39.3987V74.48C39.4 74.2034 39.3466 73.9292 39.2417 73.6733C39.1367 73.4173 38.9823 73.1846 38.7871 72.9886C38.592 72.7925 38.36 72.6369 38.1046 72.5308C37.8492 72.4246 37.5753 72.37 37.2987 72.37ZM37.3987 46.98C37.4001 46.9939 37.3985 47.008 37.3941 47.0213C37.3897 47.0346 37.3826 47.0469 37.3732 47.0572C37.3637 47.0676 37.3522 47.0759 37.3394 47.0815C37.3266 47.0872 37.3127 47.09 37.2987 47.09H30.7287C30.6996 47.0897 30.6717 47.078 30.6512 47.0575C30.6306 47.0369 30.6189 47.0091 30.6187 46.98V43.68C30.6202 42.7708 30.9821 41.8992 31.625 41.2563C32.2679 40.6134 33.1395 40.2516 34.0487 40.25H37.2987C37.312 40.2491 37.3254 40.2511 37.3379 40.2558C37.3505 40.2605 37.3619 40.2678 37.3713 40.2773C37.3808 40.2868 37.3881 40.2981 37.3928 40.3107C37.3976 40.3232 37.3995 40.3366 37.3987 40.35V46.98ZM38.6687 82.7C39.0154 82.4016 39.2543 81.9975 39.3487 81.55H82.8687C82.963 81.9975 83.2019 82.4016 83.5487 82.7H38.6687ZM72.4887 33.84C72.3047 33.3188 71.9635 32.8676 71.512 32.5488C71.0606 32.2299 70.5213 32.0591 69.9687 32.06H52.2487C51.696 32.0591 51.1567 32.2299 50.7053 32.5488C50.2539 32.8676 49.9126 33.3188 49.7287 33.84L47.6287 39.91H46.2287L49.1287 31.55C49.2112 31.3106 49.3664 31.103 49.5725 30.9561C49.7787 30.8091 50.0255 30.7301 50.2787 30.73H71.9387C72.1918 30.7301 72.4387 30.8091 72.6448 30.9561C72.8509 31.103 73.0061 31.3106 73.0887 31.55L75.9887 39.91H74.5887L72.4887 33.84ZM74.5287 41.99V79.63H72.6087V41.99H74.5287ZM49.7387 39.91L51.6187 34.5C51.6648 34.3702 51.7504 34.2581 51.8633 34.1792C51.9762 34.1003 52.1109 34.0587 52.2487 34.06H69.9687C70.1064 34.0587 70.2411 34.1003 70.354 34.1792C70.467 34.2581 70.5525 34.3702 70.5987 34.5L72.4787 39.91H49.7387ZM70.6087 41.91V79.55H51.6087V41.91H70.6087ZM49.6087 41.91V79.55H47.6887V41.91H49.6087ZM84.9187 49.09H89.9387V72.37H84.9187C84.642 72.37 84.3681 72.4246 84.1127 72.5308C83.8573 72.6369 83.6253 72.7925 83.4302 72.9886C83.235 73.1846 83.0806 73.4173 82.9756 73.6733C82.8707 73.9292 82.8173 74.2034 82.8187 74.48V79.55H76.5287V41.91H82.8187V46.98C82.8181 47.538 83.0389 48.0735 83.4325 48.469C83.8262 48.8645 84.3606 49.0878 84.9187 49.09ZM84.8187 46.98V40.35C84.8178 40.3366 84.8198 40.3232 84.8245 40.3107C84.8292 40.2981 84.8365 40.2868 84.846 40.2773C84.8555 40.2678 84.8668 40.2605 84.8794 40.2558C84.8919 40.2511 84.9053 40.2491 84.9187 40.25H88.1687C89.0779 40.2516 89.9494 40.6134 90.5923 41.2563C91.2352 41.8992 91.5971 42.7708 91.5987 43.68V46.98C91.5984 47.0091 91.5867 47.0369 91.5662 47.0575C91.5456 47.078 91.5177 47.0897 91.4887 47.09H84.9187C84.9046 47.09 84.8908 47.0872 84.8779 47.0815C84.8651 47.0759 84.8536 47.0676 84.8442 47.0572C84.8347 47.0469 84.8276 47.0346 84.8232 47.0213C84.8188 47.008 84.8173 46.9939 84.8187 46.98ZM84.9187 81.21C84.9046 81.21 84.8908 81.2072 84.8779 81.2015C84.8651 81.1959 84.8536 81.1876 84.8442 81.1772C84.8347 81.1669 84.8276 81.1546 84.8232 81.1413C84.8188 81.128 84.8173 81.1139 84.8187 81.1V74.48C84.8173 74.466 84.8188 74.4519 84.8232 74.4386C84.8276 74.4253 84.8347 74.4131 84.8442 74.4027C84.8536 74.3923 84.8651 74.3841 84.8779 74.3784C84.8908 74.3728 84.9046 74.3699 84.9187 74.37H91.4887C91.5177 74.3702 91.5456 74.3819 91.5662 74.4025C91.5867 74.423 91.5984 74.4509 91.5987 74.48V77.78C91.5971 78.6892 91.2352 79.5607 90.5923 80.2036C89.9494 80.8465 89.0779 81.2084 88.1687 81.21H84.9187ZM104.039 82.7H90.4487C91.3888 82.2664 92.185 81.5726 92.7433 80.7007C93.3015 79.8288 93.5983 78.8153 93.5987 77.78V74.48C93.598 73.9989 93.433 73.5324 93.1312 73.1578C92.8293 72.7832 92.4086 72.5229 91.9387 72.42V49.04C92.4079 48.9357 92.8278 48.675 93.1294 48.3007C93.431 47.9264 93.5965 47.4607 93.5987 46.98V43.68C93.5973 42.2402 93.0248 40.8599 92.0068 39.8418C90.9887 38.8238 89.6084 38.2513 88.1687 38.25H84.9187C84.4376 38.2507 83.9711 38.4156 83.5965 38.7175C83.2219 39.0193 82.9616 39.44 82.8587 39.91H78.1087L74.9787 30.9C74.7606 30.267 74.3506 29.7178 73.8057 29.3288C73.2608 28.9398 72.6081 28.7305 71.9387 28.73H50.2787C49.6106 28.7305 48.9592 28.9387 48.4145 29.3256C47.8699 29.7126 47.459 30.2593 47.2387 30.89L44.1087 39.91H39.3587C39.2557 39.44 38.9954 39.0193 38.6208 38.7175C38.2462 38.4156 37.7797 38.2507 37.2987 38.25H34.0487C32.6089 38.2513 31.2286 38.8238 30.2105 39.8418C29.1925 40.8599 28.62 42.2402 28.6187 43.68V46.98C28.6208 47.4607 28.7863 47.9264 29.0879 48.3007C29.3895 48.675 29.8094 48.9357 30.2787 49.04V72.42C29.8087 72.5229 29.388 72.7832 29.0861 73.1578C28.7843 73.5324 28.6194 73.9989 28.6187 74.48V77.78C28.619 78.8153 28.9158 79.8288 29.4741 80.7007C30.0323 81.5726 30.8285 82.2664 31.7687 82.7H18.1787V53.77C18.1787 42.3842 22.7016 31.4648 30.7526 23.4139C38.8035 15.3629 49.7229 10.84 61.1087 10.84C72.4944 10.84 83.4138 15.3629 91.4648 23.4139C99.5157 31.4648 104.039 42.3842 104.039 53.77V82.7Z" fill="black"/>
<path d="M118.719 96.7C118.719 97.2304 118.508 97.7391 118.133 98.1142C117.758 98.4893 117.249 98.7 116.719 98.7H5.49866C4.96822 98.7 4.45952 98.4893 4.08444 98.1142C3.70937 97.7391 3.49866 97.2304 3.49866 96.7V94.7C3.50024 94.17 3.71146 93.6622 4.08619 93.2875C4.46092 92.9128 4.96871 92.7015 5.49866 92.7H116.719C117.249 92.7015 117.756 92.9128 118.131 93.2875C118.506 93.6622 118.717 94.17 118.719 94.7V96.7Z" fill="black"/>
<path d="M70.6087 41.91V79.55H51.6087V41.91H70.6087Z" fill="black"/>
<path d="M116.719 90.7H114.039V53.77C114.039 39.7321 108.462 26.2691 98.5358 16.3428C88.6095 6.4165 75.1466 0.839966 61.1087 0.839966C47.0707 0.839966 33.6078 6.4165 23.6815 16.3428C13.7552 26.2691 8.17866 39.7321 8.17866 53.77V90.7H5.49866C4.43877 90.7031 3.42319 91.1256 2.67373 91.875C1.92427 92.6245 1.50182 93.6401 1.49866 94.7V96.7C1.49998 97.7604 1.92183 98.7771 2.67169 99.5269C3.42155 100.277 4.4382 100.699 5.49866 100.7H8.53866V105.62C6.78768 106.707 5.43863 108.335 4.69582 110.257C3.95301 112.18 3.85691 114.292 4.42207 116.274C4.98723 118.256 6.18287 120 7.82789 121.241C9.47292 122.483 11.4777 123.154 13.5387 123.154C15.5996 123.154 17.6044 122.483 19.2494 121.241C20.8944 120 22.0901 118.256 22.6552 116.274C23.2204 114.292 23.1243 112.18 22.3815 110.257C21.6387 108.335 20.2896 106.707 18.5387 105.62V100.7H104.399V105.61C102.644 106.695 101.291 108.323 100.545 110.247C99.7988 112.17 99.6998 114.284 100.263 116.269C100.826 118.254 102.021 120.001 103.666 121.245C105.312 122.49 107.318 123.165 109.381 123.167C111.444 123.169 113.452 122.498 115.1 121.257C116.747 120.015 117.946 118.271 118.513 116.287C119.08 114.304 118.985 112.189 118.243 110.264C117.501 108.339 116.151 106.709 114.399 105.62V100.7H116.719C117.779 100.699 118.796 100.277 119.546 99.5269C120.295 98.7771 120.717 97.7604 120.719 96.7V94.7C120.715 93.6401 120.293 92.6245 119.544 91.875C118.794 91.1256 117.779 90.7031 116.719 90.7ZM10.1787 53.77C10.1787 40.2625 15.5445 27.3082 25.0957 17.757C34.6469 8.20579 47.6012 2.83997 61.1087 2.83997C74.6161 2.83997 87.5704 8.20579 97.1216 17.757C106.673 27.3082 112.039 40.2625 112.039 53.77V90.7H10.1787V53.77ZM16.5387 109.67C16.5387 110.466 16.2226 111.229 15.66 111.791C15.0974 112.354 14.3343 112.67 13.5387 112.67C12.743 112.67 11.9799 112.354 11.4173 111.791C10.8547 111.229 10.5387 110.466 10.5387 109.67V100.7H16.5387V109.67ZM21.0187 113.67C21.0192 114.917 20.7079 116.145 20.1132 117.241C19.5184 118.337 18.659 119.267 17.6132 119.946C16.5674 120.625 15.3683 121.032 14.125 121.13C12.8818 121.228 11.6338 121.013 10.4946 120.506C9.35549 119.998 8.3613 119.214 7.60252 118.224C6.84374 117.235 6.34445 116.071 6.15008 114.839C5.9557 113.607 6.0724 112.346 6.48957 111.171C6.90673 109.996 7.61112 108.944 8.53866 108.11V109.67C8.53866 110.996 9.06544 112.268 10.0031 113.206C10.9408 114.143 12.2126 114.67 13.5387 114.67C14.8647 114.67 16.1365 114.143 17.0742 113.206C18.0119 112.268 18.5387 110.996 18.5387 109.67V108.11C19.3195 108.81 19.9439 109.668 20.3712 110.626C20.7985 111.584 21.0191 112.621 21.0187 113.67ZM116.879 113.67C116.881 114.919 116.571 116.148 115.977 117.247C115.382 118.345 114.522 119.277 113.476 119.958C112.429 120.64 111.228 121.048 109.983 121.146C108.738 121.245 107.488 121.03 106.348 120.522C105.207 120.013 104.211 119.228 103.452 118.236C102.692 117.245 102.193 116.079 101.999 114.846C101.806 113.612 101.924 112.349 102.343 111.173C102.762 109.996 103.469 108.943 104.399 108.11V109.67C104.399 110.996 104.925 112.268 105.863 113.206C106.801 114.143 108.073 114.67 109.399 114.67C110.725 114.67 111.997 114.143 112.934 113.206C113.872 112.268 114.399 110.996 114.399 109.67V108.11C115.179 108.81 115.804 109.668 116.231 110.626C116.659 111.584 116.879 112.621 116.879 113.67ZM106.399 109.67V100.7H112.399V109.67C112.399 110.466 112.083 111.229 111.52 111.791C110.957 112.354 110.194 112.67 109.399 112.67C108.603 112.67 107.84 112.354 107.277 111.791C106.715 111.229 106.399 110.466 106.399 109.67ZM118.719 96.7C118.719 97.2304 118.508 97.7391 118.133 98.1142C117.758 98.4893 117.249 98.7 116.719 98.7H5.49866C4.96822 98.7 4.45952 98.4893 4.08444 98.1142C3.70937 97.7391 3.49866 97.2304 3.49866 96.7V94.7C3.50024 94.17 3.71146 93.6622 4.08619 93.2875C4.46092 92.9128 4.96871 92.7015 5.49866 92.7H116.719C117.249 92.7015 117.756 92.9128 118.131 93.2875C118.506 93.6622 118.717 94.17 118.719 94.7V96.7Z" stroke="black"/>
<path d="M61.1087 8.84997C49.1981 8.86267 37.7789 13.5991 29.3559 22.0202C20.9329 30.4412 16.194 41.8594 16.1787 53.77V84.7H106.039V53.77C106.023 41.8594 101.284 30.4412 92.8614 22.0202C84.4384 13.5991 73.0192 8.86267 61.1087 8.84997ZM37.3987 81.1C37.4001 81.1139 37.3985 81.128 37.3941 81.1413C37.3897 81.1546 37.3826 81.1669 37.3732 81.1772C37.3637 81.1876 37.3522 81.1959 37.3394 81.2015C37.3266 81.2072 37.3127 81.21 37.2987 81.21H34.0487C33.1395 81.2084 32.2679 80.8465 31.625 80.2036C30.9821 79.5607 30.6202 78.6892 30.6187 77.78V74.48C30.6189 74.4509 30.6306 74.423 30.6512 74.4025C30.6717 74.3819 30.6996 74.3702 30.7287 74.37H37.2987C37.3127 74.3699 37.3266 74.3728 37.3394 74.3784C37.3522 74.3841 37.3637 74.3923 37.3732 74.4027C37.3826 74.4131 37.3897 74.4253 37.3941 74.4386C37.3985 74.4519 37.4001 74.466 37.3987 74.48V81.1ZM37.2987 72.37H32.2787V49.09H37.2987C37.8567 49.0878 38.3911 48.8645 38.7848 48.469C39.1784 48.0735 39.3992 47.538 39.3987 46.98V41.91H45.6887V79.55H39.3987V74.48C39.4 74.2034 39.3466 73.9292 39.2417 73.6733C39.1367 73.4173 38.9823 73.1846 38.7871 72.9886C38.592 72.7925 38.36 72.6369 38.1046 72.5308C37.8492 72.4246 37.5753 72.37 37.2987 72.37ZM37.3987 46.98C37.4001 46.9939 37.3985 47.008 37.3941 47.0213C37.3897 47.0346 37.3826 47.0469 37.3732 47.0572C37.3637 47.0676 37.3522 47.0759 37.3394 47.0815C37.3266 47.0872 37.3127 47.09 37.2987 47.09H30.7287C30.6996 47.0897 30.6717 47.078 30.6512 47.0575C30.6306 47.0369 30.6189 47.0091 30.6187 46.98V43.68C30.6202 42.7708 30.9821 41.8992 31.625 41.2563C32.2679 40.6134 33.1395 40.2516 34.0487 40.25H37.2987C37.312 40.2491 37.3254 40.2511 37.3379 40.2558C37.3505 40.2605 37.3619 40.2678 37.3713 40.2773C37.3808 40.2868 37.3881 40.2981 37.3928 40.3107C37.3976 40.3232 37.3995 40.3366 37.3987 40.35V46.98ZM38.6687 82.7C39.0154 82.4016 39.2543 81.9975 39.3487 81.55H82.8687C82.963 81.9975 83.2019 82.4016 83.5487 82.7H38.6687ZM72.4887 33.84C72.3047 33.3188 71.9635 32.8676 71.512 32.5488C71.0606 32.2299 70.5213 32.0591 69.9687 32.06H52.2487C51.696 32.0591 51.1567 32.2299 50.7053 32.5488C50.2539 32.8676 49.9126 33.3188 49.7287 33.84L47.6287 39.91H46.2287L49.1287 31.55C49.2112 31.3106 49.3664 31.103 49.5725 30.9561C49.7787 30.8091 50.0255 30.7301 50.2787 30.73H71.9387C72.1918 30.7301 72.4387 30.8091 72.6448 30.9561C72.8509 31.103 73.0061 31.3106 73.0887 31.55L75.9887 39.91H74.5887L72.4887 33.84ZM74.5287 41.99V79.63H72.6087V41.99H74.5287ZM49.7387 39.91L51.6187 34.5C51.6648 34.3702 51.7504 34.2581 51.8633 34.1792C51.9762 34.1003 52.1109 34.0587 52.2487 34.06H69.9687C70.1064 34.0587 70.2411 34.1003 70.354 34.1792C70.467 34.2581 70.5525 34.3702 70.5987 34.5L72.4787 39.91H49.7387ZM70.6087 41.91V79.55H51.6087V41.91H70.6087ZM49.6087 41.91V79.55H47.6887V41.91H49.6087ZM84.9187 49.09H89.9387V72.37H84.9187C84.642 72.37 84.3681 72.4246 84.1127 72.5308C83.8573 72.6369 83.6253 72.7925 83.4302 72.9886C83.235 73.1846 83.0806 73.4173 82.9756 73.6733C82.8707 73.9292 82.8173 74.2034 82.8187 74.48V79.55H76.5287V41.91H82.8187V46.98C82.8181 47.538 83.0389 48.0735 83.4325 48.469C83.8262 48.8645 84.3606 49.0878 84.9187 49.09ZM84.8187 46.98V40.35C84.8178 40.3366 84.8198 40.3232 84.8245 40.3107C84.8292 40.2981 84.8365 40.2868 84.846 40.2773C84.8555 40.2678 84.8668 40.2605 84.8794 40.2558C84.8919 40.2511 84.9053 40.2491 84.9187 40.25H88.1687C89.0779 40.2516 89.9494 40.6134 90.5923 41.2563C91.2352 41.8992 91.5971 42.7708 91.5987 43.68V46.98C91.5984 47.0091 91.5867 47.0369 91.5662 47.0575C91.5456 47.078 91.5177 47.0897 91.4887 47.09H84.9187C84.9046 47.09 84.8908 47.0872 84.8779 47.0815C84.8651 47.0759 84.8536 47.0676 84.8442 47.0572C84.8347 47.0469 84.8276 47.0346 84.8232 47.0213C84.8188 47.008 84.8173 46.9939 84.8187 46.98ZM84.9187 81.21C84.9046 81.21 84.8908 81.2072 84.8779 81.2015C84.8651 81.1959 84.8536 81.1876 84.8442 81.1772C84.8347 81.1669 84.8276 81.1546 84.8232 81.1413C84.8188 81.128 84.8173 81.1139 84.8187 81.1V74.48C84.8173 74.466 84.8188 74.4519 84.8232 74.4386C84.8276 74.4253 84.8347 74.4131 84.8442 74.4027C84.8536 74.3923 84.8651 74.3841 84.8779 74.3784C84.8908 74.3728 84.9046 74.3699 84.9187 74.37H91.4887C91.5177 74.3702 91.5456 74.3819 91.5662 74.4025C91.5867 74.423 91.5984 74.4509 91.5987 74.48V77.78C91.5971 78.6892 91.2352 79.5607 90.5923 80.2036C89.9494 80.8465 89.0779 81.2084 88.1687 81.21H84.9187ZM104.039 82.7H90.4487C91.3888 82.2664 92.185 81.5726 92.7433 80.7007C93.3015 79.8288 93.5983 78.8153 93.5987 77.78V74.48C93.598 73.9989 93.433 73.5324 93.1312 73.1578C92.8293 72.7832 92.4086 72.5229 91.9387 72.42V49.04C92.4079 48.9357 92.8278 48.675 93.1294 48.3007C93.431 47.9264 93.5965 47.4607 93.5987 46.98V43.68C93.5973 42.2402 93.0248 40.8599 92.0068 39.8418C90.9887 38.8238 89.6084 38.2513 88.1687 38.25H84.9187C84.4376 38.2507 83.9711 38.4156 83.5965 38.7175C83.2219 39.0193 82.9616 39.44 82.8587 39.91H78.1087L74.9787 30.9C74.7606 30.267 74.3506 29.7178 73.8057 29.3288C73.2608 28.9398 72.6081 28.7305 71.9387 28.73H50.2787C49.6106 28.7305 48.9592 28.9387 48.4145 29.3256C47.8699 29.7126 47.459 30.2593 47.2387 30.89L44.1087 39.91H39.3587C39.2557 39.44 38.9954 39.0193 38.6208 38.7175C38.2462 38.4156 37.7797 38.2507 37.2987 38.25H34.0487C32.6089 38.2513 31.2286 38.8238 30.2105 39.8418C29.1925 40.8599 28.62 42.2402 28.6187 43.68V46.98C28.6208 47.4607 28.7863 47.9264 29.0879 48.3007C29.3895 48.675 29.8094 48.9357 30.2787 49.04V72.42C29.8087 72.5229 29.388 72.7832 29.0861 73.1578C28.7843 73.5324 28.6194 73.9989 28.6187 74.48V77.78C28.619 78.8153 28.9158 79.8288 29.4741 80.7007C30.0323 81.5726 30.8285 82.2664 31.7687 82.7H18.1787V53.77C18.1787 42.3842 22.7016 31.4648 30.7526 23.4139C38.8035 15.3629 49.7229 10.84 61.1087 10.84C72.4944 10.84 83.4138 15.3629 91.4648 23.4139C99.5157 31.4648 104.039 42.3842 104.039 53.77V82.7Z" stroke="black"/>
<path d="M118.719 96.7C118.719 97.2304 118.508 97.7391 118.133 98.1142C117.758 98.4893 117.249 98.7 116.719 98.7H5.49866C4.96822 98.7 4.45952 98.4893 4.08444 98.1142C3.70937 97.7391 3.49866 97.2304 3.49866 96.7V94.7C3.50024 94.17 3.71146 93.6622 4.08619 93.2875C4.46092 92.9128 4.96871 92.7015 5.49866 92.7H116.719C117.249 92.7015 117.756 92.9128 118.131 93.2875C118.506 93.6622 118.717 94.17 118.719 94.7V96.7Z" stroke="black"/>
<path d="M70.6087 41.91V79.55H51.6087V41.91H70.6087Z" stroke="black"/>
</svg>
